<svg width="36" height="36" viewBox="0 0 36 36" fill="none" xmlns="http://www.w3.org/2000/svg">
<path d="M18.1604 24.4737C18.1604 24.6504 18.297 24.7951 18.4617 24.7951H25.8947C26.0595 24.7951 26.1961 24.6504 26.1961 24.4737V22.5451C26.1961 22.3683 26.0595 22.2237 25.8947 22.2237H18.4617C18.297 22.2237 18.1604 22.3683 18.1604 22.5451V24.4737ZM10.3296 24.7187L18.0438 18.25C18.1965 18.1214 18.1965 17.8844 18.0438 17.7558L10.3296 11.2911C10.283 11.2515 10.226 11.2261 10.1655 11.2179C10.1049 11.2097 10.0432 11.219 9.9878 11.2448C9.93238 11.2706 9.88554 11.3118 9.85282 11.3634C9.8201 11.4151 9.80289 11.475 9.80322 11.5362V14.0553C9.80322 14.1518 9.8434 14.2402 9.91974 14.3004L14.3313 18.0049L9.91974 21.7094C9.88383 21.7394 9.85483 21.7769 9.83472 21.8192C9.81461 21.8615 9.80387 21.9076 9.80322 21.9545V24.4737C9.80322 24.7469 10.1206 24.8955 10.3296 24.7187ZM32.7854 1.93347H3.21394C2.50278 1.93347 1.92822 2.50803 1.92822 3.21919V32.7906C1.92822 33.5018 2.50278 34.0763 3.21394 34.0763H32.7854C33.4965 34.0763 34.0711 33.5018 34.0711 32.7906V3.21919C34.0711 2.50803 33.4965 1.93347 32.7854 1.93347ZM31.1782 31.1835H4.82108V4.82633H31.1782V31.1835Z" fill="#03ADB5"/>
</svg>
