<svg width="94" height="92" viewBox="0 0 94 92" fill="none" xmlns="http://www.w3.org/2000/svg">
<path d="M30.677 73.5215C-1.50008 45.5 7.72749 44.735 17.5305 27.7556C27.3336 10.7762 43.4678 0.64962 60.4267 18.844C75.9999 45 88.9739 43.5482 79.1709 60.5276C45.1671 66.1738 47.6564 83.3246 30.677 73.5215Z" fill="#FFEEF5"/>
<path d="M32.0001 53.9998V51.3331C32.0001 49.9186 32.562 48.562 33.5622 47.5619C34.5624 46.5617 35.9189 45.9998 37.3334 45.9998H42.6668C44.0812 45.9998 45.4378 46.5617 46.438 47.5619C47.4382 48.562 48.0001 49.9186 48.0001 51.3331V53.9998M49.3334 30.1731C50.4806 30.4668 51.4975 31.134 52.2236 32.0695C52.9497 33.005 53.3439 34.1555 53.3439 35.3398C53.3439 36.524 52.9497 37.6745 52.2236 38.61C51.4975 39.5455 50.4806 40.2127 49.3334 40.5064M56.0001 53.9998V51.3331C55.9933 50.156 55.5973 49.0142 54.8738 48.0856C54.1503 47.1571 53.1399 46.494 52.0001 46.1998M34.6668 35.3331C34.6668 36.7476 35.2287 38.1041 36.2289 39.1043C37.229 40.1045 38.5856 40.6664 40.0001 40.6664C41.4146 40.6664 42.7711 40.1045 43.7713 39.1043C44.7715 38.1041 45.3334 36.7476 45.3334 35.3331C45.3334 33.9186 44.7715 32.562 43.7713 31.5619C42.7711 30.5617 41.4146 29.9998 40.0001 29.9998C38.5856 29.9998 37.229 30.5617 36.2289 31.5619C35.2287 32.562 34.6668 33.9186 34.6668 35.3331Z" stroke="#E41469" stroke-width="2" stroke-linecap="round" stroke-linejoin="round"/>
</svg>
