<svg width="95" height="95" viewBox="0 0 95 95" fill="none" xmlns="http://www.w3.org/2000/svg">
<path d="M70.6023 69.54C93.9297 33.8133 84.8427 35.5908 70.7853 21.9237C56.7279 8.25667 38.4454 2.90781 27.0838 25.0337C19.2241 54.4426 6.34527 56.5798 20.4027 70.2468C54.6586 66.4172 56.9353 83.5974 70.6023 69.54Z" fill="#FFDCED"/>
<path d="M49.9997 32.5589C43.5564 32.5589 38.3331 37.7823 38.3331 44.2256C38.3331 46.3509 38.9004 48.3409 39.8917 50.0556C40.0051 50.2509 40.0337 50.4836 39.9717 50.7009L38.5611 55.6623L43.5211 54.2516C43.6285 54.221 43.741 54.2123 43.8519 54.226C43.9627 54.2398 44.0697 54.2757 44.1664 54.3316C45.9391 55.3573 47.9517 55.8957 49.9997 55.8923C56.4431 55.8923 61.6664 50.6689 61.6664 44.2256C61.6664 37.7823 56.4431 32.5589 49.9997 32.5589ZM36.6664 44.2256C36.6664 36.8616 42.6357 30.8923 49.9997 30.8923C57.3637 30.8923 63.3331 36.8616 63.3331 44.2256C63.3331 51.5896 57.3637 57.5589 49.9997 57.5589C47.7799 57.5621 45.5946 57.0088 43.6437 55.9496L38.1537 57.5109C37.2744 57.7609 36.4624 56.9483 36.7124 56.0696L38.2737 50.5776C37.2157 48.6278 36.6631 46.4439 36.6664 44.2256ZM44.6664 41.7256C44.6664 41.2656 45.0397 40.8923 45.4997 40.8923H54.4997C54.6092 40.8923 54.7175 40.9138 54.8186 40.9557C54.9197 40.9976 55.0116 41.059 55.089 41.1363C55.1664 41.2137 55.2277 41.3056 55.2696 41.4067C55.3115 41.5078 55.3331 41.6162 55.3331 41.7256C55.3331 41.835 55.3115 41.9434 55.2696 42.0445C55.2277 42.1456 55.1664 42.2375 55.089 42.3148C55.0116 42.3922 54.9197 42.4536 54.8186 42.4955C54.7175 42.5374 54.6092 42.5589 54.4997 42.5589H45.4997C45.0397 42.5589 44.6664 42.1856 44.6664 41.7256ZM45.4997 45.8923C45.2787 45.8923 45.0668 45.9801 44.9105 46.1363C44.7542 46.2926 44.6664 46.5046 44.6664 46.7256C44.6664 46.9466 44.7542 47.1586 44.9105 47.3148C45.0668 47.4711 45.2787 47.5589 45.4997 47.5589H51.8331C52.0541 47.5589 52.266 47.4711 52.4223 47.3148C52.5786 47.1586 52.6664 46.9466 52.6664 46.7256C52.6664 46.5046 52.5786 46.2926 52.4223 46.1363C52.266 45.9801 52.0541 45.8923 51.8331 45.8923H45.4997Z" fill="#E41469"/>
</svg>
