<svg width="71" height="66" viewBox="0 0 71 66" fill="none" xmlns="http://www.w3.org/2000/svg">
<path d="M56.6026 60.3143C79.93 24.5876 70.843 26.365 56.7856 12.698C42.7282 -0.969067 24.4456 -6.31792 13.0841 15.808C5.2244 45.2169 -7.65444 47.3541 6.40298 61.0211C40.6589 57.1915 42.9355 74.3717 56.6026 60.3143Z" fill="#FFDCED"/>
<path d="M36 23.3332C29.5567 23.3332 24.3334 28.5566 24.3334 34.9999C24.3334 37.1252 24.9007 39.1152 25.892 40.8299C26.0054 41.0252 26.034 41.2579 25.972 41.4752L24.5614 46.4366L29.5214 45.0259C29.6288 44.9953 29.7413 44.9866 29.8522 45.0004C29.963 45.0141 30.07 45.05 30.1667 45.1059C31.9394 46.1316 33.952 46.67 36 46.6666C42.4434 46.6666 47.6667 41.4432 47.6667 34.9999C47.6667 28.5566 42.4434 23.3332 36 23.3332ZM22.6667 34.9999C22.6667 27.6359 28.636 21.6666 36 21.6666C43.364 21.6666 49.3334 27.6359 49.3334 34.9999C49.3334 42.3639 43.364 48.3332 36 48.3332C33.7802 48.3365 31.5949 47.7831 29.644 46.7239L24.154 48.2852C23.2747 48.5352 22.4627 47.7226 22.7127 46.8439L24.274 41.3519C23.2161 39.4021 22.6635 37.2183 22.6667 34.9999ZM30.6667 32.4999C30.6667 32.0399 31.04 31.6666 31.5 31.6666H40.5C40.6095 31.6666 40.7178 31.6881 40.8189 31.73C40.92 31.7719 41.0119 31.8333 41.0893 31.9106C41.1667 31.988 41.2281 32.0799 41.2699 32.181C41.3118 32.2821 41.3334 32.3905 41.3334 32.4999C41.3334 32.6093 41.3118 32.7177 41.2699 32.8188C41.2281 32.9199 41.1667 33.0118 41.0893 33.0892C41.0119 33.1665 40.92 33.2279 40.8189 33.2698C40.7178 33.3117 40.6095 33.3332 40.5 33.3332H31.5C31.04 33.3332 30.6667 32.9599 30.6667 32.4999ZM31.5 36.6666C31.279 36.6666 31.0671 36.7544 30.9108 36.9106C30.7545 37.0669 30.6667 37.2789 30.6667 37.4999C30.6667 37.7209 30.7545 37.9329 30.9108 38.0892C31.0671 38.2454 31.279 38.3332 31.5 38.3332H37.8334C38.0544 38.3332 38.2663 38.2454 38.4226 38.0892C38.5789 37.9329 38.6667 37.7209 38.6667 37.4999C38.6667 37.2789 38.5789 37.0669 38.4226 36.9106C38.2663 36.7544 38.0544 36.6666 37.8334 36.6666H31.5Z" fill="#E41469"/>
</svg>
