<svg width="95" height="95" viewBox="0 0 95 95" fill="none" xmlns="http://www.w3.org/2000/svg">
<path d="M70.6023 69.54C93.9297 33.8133 84.8427 35.5908 70.7853 21.9237C56.7279 8.25667 38.4454 2.90781 27.0838 25.0337C19.2241 54.4426 6.34527 56.5798 20.4027 70.2468C54.6586 66.4172 56.9353 83.5974 70.6023 69.54Z" fill="#FFDCED"/>
<path d="M43.1251 49.485L43.1501 49.5818C43.1501 49.5818 43.1501 49.5818 43.15 49.5818C43.09 49.5974 42.2579 49.8281 41.4157 50.6749C40.5873 51.5078 39.7416 52.9441 39.6187 55.3801C42.0572 55.2572 43.4949 54.4118 44.3285 53.5833C45.1754 52.7415 45.4067 51.9094 45.4232 51.8463C45.463 51.6921 45.5624 51.5601 45.6995 51.4792C45.8367 51.3983 46.0003 51.3753 46.1544 51.415C46.3086 51.4548 46.4406 51.5542 46.5215 51.6913C46.6023 51.8285 46.6254 51.9921 46.5857 52.1462L46.5788 52.1727L46.575 52.1765L46.4851 52.125C46.4413 52.3037 45.3188 56.5 39.0001 56.5C38.8675 56.5 38.7403 56.4473 38.6465 56.3535C38.5528 56.2598 38.5001 56.1326 38.5001 56C38.5001 49.6825 42.7001 48.5587 42.8751 48.515M43.1251 49.485C43.2537 49.4518 43.3639 49.369 43.4314 49.2546C43.4989 49.1402 43.5182 49.0036 43.4851 48.875C43.4519 48.7464 43.369 48.6362 43.2546 48.5687C43.1402 48.5011 43.0037 48.4818 42.8751 48.515M43.1251 49.485C42.986 49.521 39.7646 50.4216 39.5184 55.3847L43.1251 49.485ZM42.8751 48.515L42.8508 48.418C42.8507 48.418 42.8506 48.418 42.8505 48.4181C42.8504 48.4181 42.8502 48.4181 42.8501 48.4182L42.8751 48.515ZM58.3209 43.5344L58.3204 43.5348L57.6001 44.248V51.706V51.7062H57.5001C57.5006 51.9033 57.462 52.0984 57.3864 52.2804C57.3109 52.4624 57.2 52.6275 57.0601 52.7662L58.3209 43.5344ZM58.3209 43.5344C61.5349 40.314 61.6719 36.4331 61.5824 34.9154L61.5824 34.9149C61.5578 34.5262 61.3923 34.1598 61.1169 33.8844C60.8415 33.609 60.4751 33.4435 60.0864 33.4189L60.086 33.4189C58.5669 33.3294 54.686 33.4664 51.4656 36.6868L50.7524 37.4H43.294M58.3209 43.5344L49.4332 51.282L43.7181 45.5657L38.7775 44.8765L38.7774 44.8765C38.4828 44.835 38.2057 44.7123 37.9771 44.522C37.7484 44.3318 37.5774 44.0816 37.483 43.7995C37.3887 43.5174 37.3749 43.2146 37.4432 42.9251C37.5114 42.6355 37.659 42.3708 37.8694 42.1605L42.1629 37.8682C42.1629 37.8682 42.163 37.8682 42.163 37.8682C42.3112 37.7191 42.4874 37.601 42.6816 37.5207C42.8757 37.4403 43.0839 37.3993 43.294 37.4M43.294 37.4C43.2941 37.4 43.2941 37.4 43.2942 37.4L43.2938 37.5M43.294 37.4H43.2938V37.5M43.2938 37.5C43.0969 37.4993 42.9018 37.5378 42.7198 37.6131C42.5379 37.6884 42.3727 37.7991 42.2338 37.9387L43.2938 37.5ZM42.9413 38.6475L38.6476 42.9387C38.5819 43.0044 38.5357 43.087 38.5143 43.1774C38.4929 43.2678 38.4971 43.3623 38.5265 43.4504C38.5558 43.5386 38.6091 43.6168 38.6804 43.6763C38.7517 43.7358 38.8381 43.7743 38.9301 43.7875L42.9413 38.6475ZM42.9413 38.6475C43.0347 38.5536 43.1614 38.5006 43.2938 38.5L42.9413 38.6475ZM60.4826 34.98C60.5638 36.35 60.4388 39.8525 57.5351 42.7575L57.4644 42.6868C60.339 39.8109 60.4632 36.3431 60.3827 34.9859L60.3827 34.9854C60.3775 34.8892 60.3369 34.7983 60.2687 34.7301C60.2005 34.6619 60.1096 34.6214 60.0134 34.6161L60.0129 34.6161C58.6507 34.5356 55.1854 34.6586 52.3121 37.5344L52.312 37.5344L44.849 45L50.0001 50.1511L57.4643 42.6868L60.4826 34.98ZM60.4826 34.98C60.476 34.8591 60.425 34.745 60.3394 34.6594M60.4826 34.98L60.3394 34.6594M60.3394 34.6594C60.2538 34.5738 60.1397 34.5228 60.0188 34.5162L60.3394 34.6594ZM38.9442 43.6885C38.8706 43.678 38.8015 43.6472 38.7445 43.5996C38.6875 43.5519 38.6448 43.4894 38.6214 43.4189C38.5979 43.3484 38.5945 43.2727 38.6116 43.2004C38.6288 43.1281 38.6657 43.062 38.7182 43.0095L38.7183 43.0095L43.012 38.7182L43.0122 38.718C43.0869 38.6429 43.1882 38.6005 43.294 38.6H49.5524L43.7871 44.3641L38.9442 43.6885C38.9442 43.6885 38.9442 43.6885 38.9442 43.6885ZM51.9894 56.2818L51.9893 56.2819C51.9368 56.3344 51.8708 56.3713 51.7986 56.3885C51.7264 56.4057 51.6508 56.4024 51.5803 56.379C51.5098 56.3557 51.4473 56.3132 51.3996 56.2563C51.3519 56.1995 51.321 56.1305 51.3103 56.0572C51.3103 56.0571 51.3103 56.057 51.3103 56.0569L50.6347 51.213L56.4001 45.4477V51.7062V51.7063C56.4001 51.7589 56.3898 51.8109 56.3697 51.8595C56.3497 51.908 56.3202 51.9522 56.2831 51.9893L51.9894 56.2818Z" fill="#E41469" stroke="#E41469" stroke-width="0.2"/>
</svg>
