<svg width="95" height="95" viewBox="0 0 95 95" fill="none" xmlns="http://www.w3.org/2000/svg">
<path d="M70.6023 69.54C93.9297 33.8133 84.8427 35.5908 70.7853 21.9237C56.7279 8.25667 38.4454 2.90781 27.0838 25.0337C19.2241 54.4426 6.34527 56.5798 20.4027 70.2468C54.6586 66.4172 56.9353 83.5974 70.6023 69.54Z" fill="#FFDCED"/>
<path d="M51 36.6667L60.3333 46L64.3333 42L55 32.6667L51 36.6667Z" stroke="#E41469" stroke-width="2" stroke-linecap="round" stroke-linejoin="round"/>
<path d="M59 44.6667L57 54.6667L37.6666 59.3333L42.3333 40L52.3333 38L59 44.6667Z" stroke="#E41469" stroke-width="2" stroke-linecap="round" stroke-linejoin="round"/>
<path d="M37.6666 59.3333L47.7813 49.2187" stroke="#E41469" stroke-width="2" stroke-linecap="round" stroke-linejoin="round"/>
<path d="M49.6667 44.6667C51.1394 44.6667 52.3333 45.8606 52.3333 47.3333C52.3333 48.8061 51.1394 50 49.6667 50C48.1939 50 47 48.8061 47 47.3333C47 45.8606 48.1939 44.6667 49.6667 44.6667Z" stroke="#E41469" stroke-width="2" stroke-linecap="round" stroke-linejoin="round"/>
</svg>
