<svg width="28" height="21" viewBox="0 0 28 21" fill="none" xmlns="http://www.w3.org/2000/svg">
<g clip-path="url(#clip0_179911_175801)">
<path d="M0 13.3358H28V20.0024H0V13.3358Z" fill="black"/>
<path d="M0 6.66911H28V13.3358H0V6.66911Z" fill="white"/>
<path d="M0 0.00244141H28V6.66911H0V0.00244141Z" fill="#CE1126"/>
<path d="M14.028 10.0824L16.4255 12.2024L16.254 8.35244C16.2295 7.76911 15.6975 7.90244 15.309 8.11244C14.9205 8.35244 14.469 8.35244 14 8.19577C13.5275 8.35244 13.0795 8.35244 12.691 8.11244C12.306 7.90244 11.7705 7.76911 11.746 8.35244L11.5745 12.2024L14.028 10.0824Z" fill="white" stroke="#C09300" stroke-width="1.04" stroke-linejoin="round"/>
<path d="M12.0225 8.21911L11.8545 11.9624L11.5745 12.2024L11.746 8.35244C11.8286 8.29205 11.9224 8.24684 12.0225 8.21911ZM12.3585 8.48578L12.2185 11.6191L11.9385 11.8924L12.1065 8.27578C12.1625 8.32911 12.327 8.45911 12.3585 8.48578ZM12.663 8.72578L12.5545 11.3391L12.327 11.5491L12.467 8.56911C12.523 8.61911 12.635 8.69578 12.663 8.72578ZM12.9955 8.85911L12.887 11.0858L12.6665 11.2558L12.775 8.77911C12.831 8.80244 12.9395 8.85911 12.9955 8.85911ZM13.3035 8.85911L13.223 10.7158L12.9955 10.9258L13.083 8.88244C13.1355 8.88244 13.279 8.88244 13.3035 8.85911Z" fill="#C09300"/>
<path d="M15.9774 8.21911L16.1454 11.9624L16.4254 12.2024L16.2539 8.35244C16.1712 8.29205 16.0775 8.24684 15.9774 8.21911ZM15.6414 8.48578L15.7814 11.6191L16.0614 11.8924L15.8934 8.27578C15.8374 8.32911 15.6729 8.45911 15.6414 8.48578ZM15.3369 8.72578L15.4454 11.3391L15.6729 11.5491L15.5329 8.56911C15.4769 8.61911 15.3649 8.69578 15.3369 8.72578ZM15.0044 8.85911L15.1129 11.0858L15.3334 11.2558L15.2249 8.77911C15.1689 8.80244 15.0604 8.85911 15.0044 8.85911ZM14.6964 8.85911L14.7769 10.7158L15.0044 10.9258L14.9169 8.88244C14.8644 8.88244 14.7209 8.88244 14.6964 8.85911Z" fill="#C09300"/>
<path d="M14.112 10.5024L14.448 11.9624L14.336 12.0691L14.2205 11.9858L14.0315 10.6858L14.112 11.9858L14 12.1191L13.8915 11.9858L13.972 10.6858L13.7795 11.9858L13.664 12.0691L13.552 11.9624L13.888 10.5058H14.112V10.5024Z" fill="#C09300" stroke="#C09300" stroke-width="0.88"/>
<path d="M13.2475 9.86244L12.579 12.1191L13.4995 12.2524L13.888 10.5558L13.2475 9.86244Z" fill="white" stroke="#C09300" stroke-width="0.96" stroke-linejoin="round"/>
<path d="M13.027 10.6358L13.1075 10.8191L13.5415 10.4258" stroke="#C09300" stroke-width="1.04" stroke-linejoin="round"/>
<path d="M13.3279 10.1691L13.4189 10.9791L13.6954 10.6324M13.5834 10.7658L13.7339 11.2658M13.7934 11.0824L13.4889 11.5224M13.5834 11.9624L13.4854 11.5224M13.4854 11.5224L13.4014 11.0758L13.1949 11.3391L13.1074 11.0358L12.8204 11.3158L12.9639 11.8224L13.1669 11.5091L13.2754 11.8291L13.4854 11.5224Z" stroke="#C09300" stroke-width="1.04" stroke-linejoin="round"/>
<path d="M12.775 12.0691L12.9605 11.8191L13.0795 12.2024L13.2475 11.9358L13.356 12.2558" stroke="#C09300" stroke-width="1.04" stroke-linejoin="round"/>
<path d="M14.7525 9.86244L15.421 12.1191L14.5005 12.2524L14.112 10.5558L14.7525 9.86244Z" fill="white" stroke="#C09300" stroke-width="0.96" stroke-linejoin="round"/>
<path d="M14.973 10.6358L14.8925 10.8191L14.4585 10.4258" stroke="#C09300" stroke-width="1.04" stroke-linejoin="round"/>
<path d="M14.6721 10.1691L14.5811 10.9791L14.3046 10.6324M14.4166 10.7658L14.2661 11.2658M14.2066 11.0824L14.5111 11.5224M14.4166 11.9624L14.5146 11.5224M14.5146 11.5224L14.5986 11.0758L14.8051 11.3391L14.8926 11.0358L15.1796 11.3158L15.0361 11.8224L14.8331 11.5091L14.7246 11.8291L14.5146 11.5224Z" stroke="#C09300" stroke-width="1.04" stroke-linejoin="round"/>
<path d="M15.225 12.0691L15.0395 11.8191L14.9205 12.2024L14.7525 11.9358L14.644 12.2558" stroke="#C09300" stroke-width="1.04" stroke-linejoin="round"/>
<path d="M13.9999 13.1291C14.6999 13.1291 15.3649 13.0758 15.7569 12.9724C15.9214 12.9424 15.9214 12.8624 15.9214 12.7558C16.0894 12.7024 16.0054 12.5158 16.1209 12.5158C16.0019 12.5491 15.9809 12.3324 15.8409 12.3591C15.8409 12.1724 15.6414 12.1491 15.4769 12.2024C15.1444 12.3058 14.5564 12.3324 13.9999 12.3324C13.4399 12.3058 12.8589 12.3058 12.5229 12.1991C12.3584 12.1491 12.1624 12.1724 12.1624 12.3591C12.0224 12.3324 11.9979 12.5458 11.8824 12.5158C11.9979 12.5158 11.9104 12.7058 12.0784 12.7558C12.0784 12.8624 12.0784 12.9424 12.2464 12.9724C12.6314 13.0758 13.3034 13.1291 13.9999 13.1291Z" fill="white" stroke="#C09300" stroke-width="1.92" stroke-linecap="round" stroke-linejoin="round"/>
<path d="M13.0514 12.1191C13.2754 12.1491 13.5274 12.1724 13.7234 12.1491C13.8354 12.1491 13.9159 12.3324 13.6919 12.3591C13.4994 12.3824 13.1914 12.3591 13.0269 12.3324C12.8105 12.2964 12.5956 12.2519 12.3829 12.1991C12.1869 12.1191 12.3269 11.9658 12.4389 11.9858C12.6388 12.0467 12.8437 12.0913 13.0514 12.1191ZM14.9484 12.1191C14.7244 12.1491 14.4724 12.1724 14.2834 12.1491C14.1644 12.1491 14.0839 12.3324 14.3079 12.3591C14.5039 12.3824 14.8084 12.3591 14.9729 12.3324C15.1129 12.3058 15.4209 12.2558 15.6169 12.1991C15.8129 12.1191 15.6729 11.9658 15.5609 11.9858C15.3611 12.0468 15.1562 12.0914 14.9484 12.1191Z" fill="white" stroke="#C09300" stroke-width="1.04" stroke-linecap="round" stroke-linejoin="round"/>
<path d="M12.3549 12.0158C12.1869 11.9858 12.1099 12.1724 12.1624 12.2791C12.1869 12.2258 12.3024 12.2258 12.3269 12.1724C12.3584 12.0924 12.3024 12.0924 12.3584 12.0158H12.3549ZM13.0269 12.5058C13.0269 12.3991 13.1354 12.4124 13.1354 12.3058C13.1354 12.2558 13.1074 12.1724 13.0514 12.1724C13.0223 12.174 12.9947 12.1858 12.9741 12.2055C12.9534 12.2251 12.9411 12.2513 12.9394 12.2791C12.9149 12.3824 13.0269 12.3991 13.0269 12.5058ZM13.8214 12.2024C13.9859 12.2024 13.9684 12.4124 13.8914 12.5191C13.8914 12.4424 13.7514 12.4124 13.7514 12.3591C13.7514 12.2791 13.8774 12.2791 13.8214 12.2024ZM15.6414 12.0158C15.8129 11.9858 15.8934 12.1724 15.8374 12.2791C15.8129 12.2258 15.6974 12.2258 15.6729 12.1724C15.6414 12.0924 15.6974 12.0924 15.6414 12.0158ZM14.9799 12.5024C14.9799 12.3958 14.8679 12.4091 14.8679 12.3024C14.8679 12.2524 14.8959 12.1691 14.9519 12.1691C14.9811 12.1707 15.0086 12.1824 15.0293 12.2021C15.0499 12.2218 15.0622 12.248 15.0639 12.2758C15.0884 12.3791 14.9764 12.3958 14.9764 12.5024H14.9799ZM14.1749 12.2024C14.0104 12.2024 14.0279 12.4124 14.1049 12.5191C14.1049 12.4424 14.2449 12.4124 14.2449 12.3591C14.2449 12.2791 14.1189 12.2791 14.1749 12.2024Z" fill="white" stroke="#C09300" stroke-width="1.04" stroke-linecap="round" stroke-linejoin="round"/>
<path d="M12.4144 12.0691C12.4704 12.0691 12.5544 12.0924 12.5789 12.1224L12.4144 12.0691ZM12.6909 12.1491C12.7189 12.1491 12.8309 12.1724 12.8834 12.2024L12.6909 12.1491ZM13.6919 12.2558C13.6394 12.2558 13.5274 12.2558 13.4994 12.2791L13.6919 12.2524V12.2558ZM13.3874 12.2558C13.3559 12.2258 13.2474 12.2258 13.1914 12.2558H13.3874ZM15.5854 12.0691C15.526 12.0698 15.4684 12.0885 15.4209 12.1224L15.5854 12.0691ZM15.3124 12.1491C15.2774 12.1491 15.1724 12.1724 15.1164 12.2024L15.3124 12.1491ZM14.3079 12.2558C14.3604 12.2558 14.4724 12.2558 14.5039 12.2791L14.3079 12.2524V12.2558ZM14.6124 12.2558C14.6439 12.2258 14.7524 12.2258 14.8084 12.2558H14.6124Z" fill="white" stroke="#C09300" stroke-width="0.72" stroke-linecap="round" stroke-linejoin="round"/>
<path d="M12.3655 12.4891C12.348 12.4858 12.3375 12.4691 12.3445 12.4558C12.348 12.4324 12.3655 12.4224 12.3795 12.4291C12.3935 12.4291 12.411 12.4491 12.411 12.4558L12.397 12.4791L12.39 12.4824C12.39 12.4891 12.376 12.4891 12.3655 12.4891ZM14.2905 12.6191C14.2835 12.6191 14.2695 12.6024 14.2695 12.5958C14.2695 12.5824 14.2905 12.5624 14.3045 12.5624L14.3325 12.5758C14.343 12.5858 14.343 12.6058 14.329 12.6158C14.322 12.6224 14.301 12.6224 14.2905 12.6158V12.6191ZM14.301 12.7024C14.287 12.6958 14.2835 12.6891 14.28 12.6758C14.28 12.6591 14.28 12.6558 14.2975 12.6458L14.3115 12.6391L14.3255 12.6458C14.3395 12.6524 14.35 12.6591 14.35 12.6724C14.35 12.6824 14.3395 12.6924 14.3255 12.6991C14.315 12.7058 14.3115 12.7058 14.301 12.6991V12.7024Z" fill="#C09300"/>
<path d="M12.523 12.3358C12.509 12.3358 12.4915 12.3491 12.481 12.3558C12.46 12.3591 12.432 12.3724 12.411 12.3558C12.39 12.3524 12.362 12.3558 12.3585 12.3824C12.362 12.4058 12.3935 12.4158 12.4145 12.4024C12.4285 12.3858 12.467 12.3724 12.474 12.4024C12.4565 12.4291 12.46 12.4591 12.446 12.4824C12.446 12.4991 12.4355 12.5124 12.4285 12.5258C12.411 12.5258 12.3935 12.5258 12.3795 12.5358C12.3686 12.5358 12.3579 12.5382 12.3482 12.5428C12.3385 12.5474 12.33 12.5542 12.3235 12.5624C12.3095 12.5824 12.2955 12.6024 12.292 12.6291C12.2955 12.6491 12.327 12.6558 12.348 12.6591L12.418 12.6791L12.53 12.7091C12.586 12.7258 12.642 12.7324 12.698 12.7458L12.7155 12.7491C12.74 12.7558 12.7505 12.7324 12.7505 12.7158L12.7855 12.5958C12.7925 12.5791 12.803 12.5458 12.7715 12.5524C12.754 12.5624 12.7365 12.5791 12.7155 12.5791C12.684 12.5791 12.7015 12.6124 12.7155 12.6224C12.7155 12.6424 12.7085 12.6658 12.698 12.6824C12.677 12.6924 12.656 12.6824 12.635 12.6758C12.6175 12.6758 12.5755 12.6658 12.593 12.6424L12.6105 12.5824C12.621 12.5624 12.621 12.5391 12.628 12.5158C12.614 12.4924 12.593 12.5258 12.5755 12.5291C12.5615 12.5358 12.5195 12.5391 12.5405 12.5624C12.5615 12.5758 12.5475 12.5991 12.5405 12.6191C12.5405 12.6424 12.5125 12.6524 12.4915 12.6424C12.4705 12.6424 12.439 12.6258 12.4565 12.6058L12.474 12.5458L12.4985 12.4791C12.4985 12.4558 12.509 12.4391 12.5195 12.4191C12.5195 12.3958 12.537 12.3758 12.537 12.3524C12.537 12.3424 12.53 12.3391 12.523 12.3391V12.3358ZM12.3935 12.5791C12.3951 12.5782 12.3969 12.5778 12.3987 12.5778C12.4006 12.5778 12.4024 12.5782 12.404 12.5791C12.411 12.5858 12.411 12.5924 12.404 12.5991L12.3935 12.6058C12.376 12.6058 12.3725 12.6024 12.3725 12.5958C12.3725 12.5924 12.3725 12.5891 12.383 12.5858C12.3873 12.5829 12.392 12.5806 12.397 12.5791H12.3935ZM12.3585 12.7458C12.341 12.7324 12.3445 12.7224 12.369 12.7024C12.383 12.6958 12.3865 12.6958 12.4005 12.7058C12.4215 12.7224 12.4215 12.7324 12.4005 12.7491C12.3935 12.7558 12.39 12.7558 12.383 12.7558C12.3725 12.7558 12.369 12.7558 12.3585 12.7491V12.7458ZM12.4635 12.7791C12.4557 12.7768 12.4491 12.7717 12.4452 12.7648C12.4413 12.758 12.4403 12.75 12.4425 12.7424C12.4495 12.7291 12.453 12.7258 12.474 12.7258C12.4985 12.7258 12.502 12.7291 12.5055 12.7491C12.5055 12.7624 12.5055 12.7658 12.495 12.7724C12.4911 12.7754 12.4866 12.7775 12.4817 12.7786C12.4769 12.7798 12.4719 12.78 12.467 12.7791H12.4635ZM15.5855 12.7791C15.5785 12.7758 15.575 12.7724 15.575 12.7624C15.575 12.7491 15.582 12.7391 15.603 12.7324C15.624 12.7224 15.638 12.7224 15.645 12.7391C15.6555 12.7591 15.6555 12.7658 15.6415 12.7791C15.6345 12.7891 15.631 12.7891 15.6135 12.7891C15.596 12.7891 15.5925 12.7891 15.5855 12.7824V12.7791ZM12.6105 12.8191C12.5965 12.8191 12.5895 12.8058 12.5895 12.7924C12.5895 12.7824 12.5895 12.7791 12.5965 12.7724L12.6175 12.7658L12.6385 12.7691C12.656 12.7824 12.6595 12.7958 12.649 12.8091C12.6385 12.8224 12.628 12.8224 12.607 12.8191H12.6105ZM13.3735 12.8524L13.3665 12.8424C13.3665 12.8224 13.3665 12.8058 13.3735 12.7858C13.377 12.7691 13.3735 12.7524 13.3805 12.7358L13.3945 12.6424C13.3945 12.6258 13.3945 12.6091 13.4015 12.5958C13.405 12.5691 13.4015 12.5458 13.4085 12.5224C13.4085 12.5124 13.419 12.4891 13.4295 12.5024C13.4435 12.5224 13.461 12.5358 13.4785 12.5524C13.4925 12.5624 13.4785 12.5758 13.468 12.5791C13.454 12.5824 13.4505 12.5991 13.4505 12.6124L13.4435 12.6524C13.4435 12.6758 13.4435 12.6958 13.4365 12.7191L13.433 12.7791L13.426 12.8191C13.426 12.8324 13.426 12.8491 13.412 12.8558C13.4015 12.8624 13.384 12.8624 13.377 12.8524H13.3735ZM14.413 12.5258L14.3675 12.5658C14.3465 12.5824 14.385 12.5891 14.3885 12.6024C14.3955 12.6224 14.3955 12.6424 14.3955 12.6624C14.4025 12.6824 14.406 12.6991 14.4025 12.7191C14.4025 12.7424 14.3745 12.7358 14.3605 12.7491C14.343 12.7558 14.336 12.7724 14.3255 12.7824C14.3172 12.7992 14.3124 12.8173 14.3115 12.8358C14.3115 12.8524 14.301 12.8691 14.3115 12.8824L14.315 12.8891H14.3325L14.385 12.8858C14.427 12.8791 14.4725 12.8791 14.5145 12.8758L14.5915 12.8691C14.6125 12.8724 14.623 12.8524 14.623 12.8358C14.609 12.8124 14.6195 12.7891 14.609 12.7691C14.602 12.7424 14.6055 12.7191 14.602 12.6958C14.602 12.6758 14.5775 12.6691 14.567 12.6824C14.553 12.6958 14.532 12.6991 14.525 12.7124C14.5145 12.7324 14.546 12.7324 14.553 12.7458L14.5565 12.7958C14.56 12.8158 14.539 12.8158 14.5215 12.8191C14.504 12.8258 14.4795 12.8291 14.469 12.8091C14.462 12.7924 14.462 12.7758 14.462 12.7591C14.462 12.7258 14.4515 12.6991 14.4515 12.6691C14.4515 12.6358 14.441 12.5991 14.441 12.5624C14.441 12.5458 14.4375 12.5224 14.413 12.5258ZM14.392 12.7991H14.4025V12.8258L14.392 12.8291C14.3874 12.8305 14.3827 12.8316 14.378 12.8324C14.3757 12.8325 14.3733 12.8325 14.371 12.8324C14.364 12.8258 14.364 12.8158 14.3745 12.8058L14.392 12.7991ZM13.342 12.4924C13.3315 12.4924 13.314 12.5158 13.3 12.5124C13.2685 12.5158 13.272 12.5458 13.2965 12.5558V12.5824C13.3 12.6091 13.2825 12.6324 13.286 12.6591C13.286 12.6858 13.2755 12.7158 13.2755 12.7458C13.265 12.7758 13.265 12.8058 13.2615 12.8358C13.258 12.8624 13.237 12.8524 13.2195 12.8458V12.8124C13.223 12.7824 13.202 12.7758 13.1775 12.7724C13.153 12.7724 13.1425 12.7558 13.1495 12.7358C13.16 12.7224 13.1845 12.7258 13.202 12.7258C13.237 12.7324 13.2335 12.6891 13.216 12.6724C13.202 12.6524 13.174 12.6391 13.167 12.6191C13.167 12.5924 13.1495 12.5624 13.125 12.5491C13.0865 12.5458 13.055 12.5758 13.0445 12.6091C13.027 12.6091 13.0095 12.6158 12.9955 12.6224C12.971 12.6291 12.936 12.6691 12.971 12.6858C12.9885 12.6891 13.048 12.7024 13.02 12.7258C13.006 12.7524 12.978 12.7524 12.9535 12.7458C12.929 12.7458 12.901 12.7324 12.901 12.7058C12.8975 12.6791 12.8975 12.6524 12.887 12.6291C12.88 12.6024 12.8485 12.6091 12.845 12.6358C12.8205 12.6524 12.824 12.6824 12.8415 12.7024C12.852 12.7258 12.8415 12.7558 12.831 12.7758C12.824 12.8091 12.789 12.8091 12.7645 12.8158C12.754 12.8224 12.7085 12.8158 12.726 12.8391C12.7522 12.8506 12.7816 12.8541 12.81 12.8491C12.838 12.8491 12.8625 12.8258 12.88 12.8024C12.8975 12.7858 12.929 12.7958 12.957 12.7958C12.9815 12.7958 13.0095 12.8124 13.0375 12.7991C13.0445 12.7824 13.0795 12.7491 13.09 12.7824C13.09 12.8124 13.1145 12.8258 13.1425 12.8224C13.174 12.8224 13.16 12.8424 13.16 12.8624C13.16 12.8924 13.1845 12.9091 13.2125 12.9224H13.2405C13.265 12.9124 13.293 12.9024 13.3035 12.8758C13.314 12.8524 13.314 12.8258 13.321 12.8024C13.328 12.7658 13.335 12.7258 13.335 12.6891C13.3455 12.6558 13.342 12.6191 13.349 12.5824L13.3595 12.5058C13.3595 12.4891 13.3525 12.4891 13.342 12.4924ZM13.1075 12.6291C13.111 12.6291 13.1145 12.6358 13.1145 12.6458C13.1145 12.6591 13.1215 12.6691 13.132 12.6724V12.6824L13.104 12.6891C13.0865 12.6891 13.0725 12.6824 13.062 12.6724L13.055 12.6658L13.0655 12.6591L13.083 12.6424C13.0935 12.6324 13.1005 12.6291 13.1075 12.6291ZM15.4175 12.3658C15.3974 12.3672 15.3774 12.3705 15.358 12.3758C15.323 12.3758 15.3055 12.4091 15.3405 12.4291C15.3615 12.4791 15.393 12.4158 15.428 12.4224C15.477 12.4291 15.4805 12.4824 15.491 12.5224C15.491 12.5591 15.505 12.5958 15.5155 12.6324C15.5505 12.6691 15.491 12.6924 15.4665 12.6658C15.4455 12.6424 15.3965 12.6158 15.372 12.6458C15.3405 12.6591 15.337 12.6991 15.3125 12.7124C15.2705 12.7224 15.267 12.6724 15.2425 12.6524C15.2215 12.6224 15.183 12.6191 15.1515 12.6124C15.1375 12.5824 15.1445 12.5324 15.1165 12.5124C15.0885 12.5224 15.0395 12.5691 15.0815 12.5924C15.1165 12.6258 15.064 12.6391 15.0465 12.6591C15.0185 12.6891 15.0115 12.7258 15.0115 12.7591C14.966 12.7824 14.959 12.7324 14.952 12.7024C14.952 12.6658 14.917 12.6758 14.8925 12.6891C14.8575 12.7024 14.8435 12.7324 14.8225 12.7558V12.8224C14.8295 12.8524 14.8645 12.8391 14.8855 12.8358C14.9205 12.8224 14.9345 12.8591 14.9065 12.8791C14.8855 12.8991 14.8295 12.8891 14.8365 12.9258H14.8925C14.9275 12.9158 14.9695 12.8891 14.973 12.8491C14.98 12.8158 15.0325 12.8191 15.0605 12.8124C15.0955 12.8024 15.141 12.7991 15.1515 12.8458C15.176 12.8691 15.2285 12.8958 15.2565 12.8624C15.2698 12.8544 15.2805 12.8429 15.2873 12.8294C15.2941 12.8158 15.2968 12.8007 15.295 12.7858C15.2915 12.7591 15.3405 12.7591 15.3545 12.7758C15.372 12.8024 15.428 12.7958 15.456 12.7758C15.484 12.7591 15.491 12.7224 15.533 12.7224L15.722 12.6724C15.771 12.6624 15.715 12.6324 15.701 12.6124C15.666 12.5958 15.631 12.6691 15.589 12.6324C15.554 12.6091 15.5575 12.5658 15.547 12.5291C15.5365 12.4824 15.54 12.4291 15.505 12.3958C15.484 12.3724 15.449 12.3658 15.4175 12.3658ZM15.1795 12.6824C15.183 12.6824 15.19 12.6824 15.197 12.6891C15.211 12.6958 15.2215 12.7091 15.2215 12.7224C15.2215 12.7291 15.2215 12.7291 15.211 12.7324L15.1935 12.7391C15.1865 12.7391 15.169 12.7291 15.169 12.7224V12.7091C15.162 12.6958 15.162 12.6958 15.169 12.6891L15.1795 12.6824ZM15.407 12.6958C15.421 12.6958 15.428 12.6958 15.435 12.7058C15.4385 12.7191 15.435 12.7258 15.421 12.7324L15.4035 12.7391L15.3895 12.7291C15.3825 12.7258 15.379 12.7224 15.379 12.7158C15.379 12.7058 15.393 12.6958 15.407 12.6924V12.6958ZM15.092 12.6958C15.099 12.6958 15.1025 12.6958 15.106 12.7024C15.113 12.7091 15.1165 12.7124 15.1165 12.7224V12.7424C15.1165 12.7524 15.1165 12.7491 15.0955 12.7491C15.0745 12.7491 15.071 12.7491 15.071 12.7291C15.071 12.7158 15.071 12.7124 15.0815 12.7058C15.085 12.6991 15.092 12.6991 15.0955 12.6991L15.092 12.6958ZM14.903 12.7458C14.9063 12.7467 14.9093 12.7484 14.9117 12.7508C14.9142 12.7531 14.916 12.756 14.917 12.7591C14.917 12.7691 14.917 12.7758 14.91 12.7791C14.8995 12.7824 14.882 12.7858 14.875 12.7791C14.8749 12.778 14.8749 12.7769 14.875 12.7758C14.868 12.7724 14.868 12.7691 14.875 12.7658V12.7624L14.882 12.7524C14.8841 12.7492 14.8874 12.7468 14.8912 12.7455C14.8951 12.7443 14.8992 12.7444 14.903 12.7458ZM15.225 12.7858L15.2425 12.7891V12.8091H15.2005L15.197 12.8024C15.197 12.7958 15.197 12.7924 15.204 12.7891L15.225 12.7858ZM14.6265 12.9458C14.623 12.9458 14.616 12.9424 14.623 12.9391C14.6265 12.9291 14.6405 12.9258 14.651 12.9191C14.6701 12.9122 14.6869 12.9007 14.7 12.8858C14.7 12.8724 14.714 12.8658 14.714 12.8524L14.7105 12.8058C14.7058 12.7918 14.6958 12.7799 14.6825 12.7724C14.672 12.7691 14.658 12.7658 14.6545 12.7524C14.6545 12.7424 14.665 12.7324 14.6685 12.7224L14.6895 12.6824C14.7 12.6724 14.714 12.6824 14.7175 12.6891L14.735 12.7224C14.7455 12.7324 14.7525 12.7424 14.756 12.7558C14.763 12.7691 14.77 12.7791 14.77 12.7891L14.777 12.8324C14.777 12.8491 14.777 12.8691 14.77 12.8858L14.749 12.9124C14.7385 12.9224 14.728 12.9324 14.714 12.9358C14.7035 12.9391 14.6965 12.9491 14.6825 12.9491H14.63L14.6265 12.9458ZM14.385 12.9591C14.378 12.9524 14.3745 12.9491 14.3745 12.9391C14.3745 12.9291 14.3745 12.9291 14.385 12.9191C14.399 12.9058 14.406 12.9058 14.434 12.9191C14.4585 12.9324 14.469 12.9324 14.469 12.9224C14.4725 12.9158 14.4865 12.9058 14.504 12.9058C14.5105 12.906 14.5166 12.9084 14.5215 12.9124C14.5285 12.9191 14.532 12.9224 14.532 12.9358C14.532 12.9524 14.532 12.9524 14.5215 12.9624C14.511 12.9691 14.511 12.9691 14.497 12.9691C14.4908 12.9688 14.4848 12.9667 14.4798 12.9632C14.4748 12.9596 14.4711 12.9547 14.469 12.9491C14.469 12.9424 14.469 12.9391 14.462 12.9458L14.455 12.9491C14.448 12.9491 14.434 12.9591 14.427 12.9658L14.4095 12.9691C14.3955 12.9691 14.3955 12.9691 14.385 12.9591ZM13.692 12.6624C13.6675 12.6624 13.643 12.6824 13.6395 12.7058C13.6465 12.7291 13.6675 12.7558 13.6535 12.7791C13.664 12.8124 13.6255 12.8258 13.601 12.8091C13.587 12.7758 13.58 12.7424 13.5555 12.7091C13.5275 12.7024 13.517 12.7458 13.496 12.7624C13.5065 12.7858 13.5345 12.8091 13.538 12.8391C13.545 12.8724 13.524 12.9058 13.4995 12.9191C13.475 12.9424 13.44 12.9358 13.412 12.9391C13.377 12.9591 13.4365 12.9658 13.454 12.9658C13.489 12.9691 13.5275 12.9658 13.559 12.9391C13.5835 12.9291 13.58 12.8824 13.6115 12.8791L13.7795 12.8891C13.8075 12.8958 13.853 12.8858 13.874 12.9058C13.874 12.9391 13.909 12.9658 13.9405 12.9791C13.958 12.9858 13.9755 12.9624 13.993 12.9591C14.028 12.9491 14.0175 12.9091 14.0385 12.8924H14.2135C14.2205 12.8924 14.224 12.8758 14.2345 12.8691L14.2275 12.8058C14.217 12.7791 14.2275 12.7458 14.21 12.7224C14.1785 12.7158 14.154 12.7391 14.126 12.7424C14.091 12.7558 14.0665 12.7858 14.063 12.8191C14.0455 12.8491 14.014 12.8124 14.028 12.7858L14.0245 12.7524C14.007 12.7358 13.9755 12.7424 13.951 12.7391L13.846 12.7324C13.811 12.7324 13.7795 12.7358 13.7515 12.7291C13.7165 12.7291 13.7165 12.6958 13.7165 12.6691C13.7095 12.664 13.7007 12.6617 13.692 12.6624ZM13.762 12.7858L13.797 12.7891H13.8425C13.8775 12.7958 13.9125 12.7958 13.9475 12.7958C13.9545 12.7958 13.9615 12.8024 13.9685 12.8091V12.8758C13.9685 12.8858 13.9685 12.8991 13.9615 12.9024C13.9597 12.9051 13.9573 12.9074 13.9545 12.9091C13.9494 12.9082 13.9445 12.9063 13.9403 12.9034C13.936 12.9005 13.9325 12.8968 13.93 12.8924V12.8458C13.9231 12.8402 13.9145 12.8367 13.9055 12.8358L13.8145 12.8324L13.7445 12.8291C13.734 12.8258 13.72 12.8291 13.713 12.8158C13.706 12.8091 13.7165 12.7958 13.727 12.7924C13.738 12.7878 13.7499 12.7855 13.762 12.7858ZM14.1575 12.7958C14.161 12.7958 14.1645 12.7958 14.1645 12.8058L14.1715 12.8224C14.1715 12.8258 14.1715 12.8291 14.1645 12.8291C14.147 12.8358 14.1295 12.8358 14.1225 12.8291C14.1225 12.8258 14.1225 12.8124 14.1295 12.8091L14.1575 12.7958Z" fill="#C09300"/>
<path d="M14 10.9091C15.141 10.0758 15.043 8.84911 15.043 8.84911L14.9555 8.85578C14.714 8.85578 14.1435 8.72244 14.0105 8.55911C13.8705 8.70911 13.2825 8.85911 13.0445 8.85911L12.957 8.84911C12.957 8.84911 12.8555 10.0724 14 10.9091Z" fill="white" stroke="#C09300" stroke-width="0.88"/>
<path d="M14.952 8.93577H14.924C14.707 8.93577 14.203 8.83244 14.007 8.67244C13.804 8.81911 13.2895 8.93911 13.076 8.93911C13.0666 8.93876 13.0572 8.93765 13.048 8.93577C13.0499 9.14642 13.0805 9.35595 13.139 9.55911C13.2794 10.0486 13.5812 10.4821 14 10.7958C14.419 10.4809 14.7208 10.0463 14.861 9.55577C14.9192 9.35369 14.9498 9.14531 14.952 8.93577Z" fill="white" stroke="#C09300" stroke-width="0.72"/>
<path d="M13.629 8.83577C13.441 8.89408 13.2455 8.92772 13.048 8.93577L13.0515 9.07244C13.0634 9.23595 13.0927 9.39789 13.139 9.55577C13.2331 9.8836 13.4002 10.1883 13.629 10.4491V8.83577ZM14.35 8.83577V10.4758C14.5898 10.209 14.7643 9.89471 14.861 9.55577C14.9072 9.39788 14.9365 9.23595 14.9485 9.07244L14.952 8.93911H14.924C14.791 8.93911 14.56 8.89911 14.35 8.83244V8.83577Z" fill="#C09300"/>
<path d="M14.4305 8.43577C14.455 8.43911 14.399 8.31911 14.399 8.31911C14.462 8.37911 14.693 8.39577 14.693 8.39577C14.553 8.33578 14.413 7.89244 14.4305 7.53577C14.4445 7.18244 14.378 7.04244 14.3255 6.98911C14.2555 6.92244 14.028 6.86244 13.881 6.85578C13.7935 6.85244 13.811 6.91577 13.811 6.91577C13.6535 6.87911 13.496 6.86244 13.426 6.90911C13.363 6.94911 13.349 7.15911 13.398 7.12244C13.5135 7.03244 13.615 7.11578 13.685 7.21244C13.748 7.29578 13.7445 7.53577 13.6535 7.81911C13.5729 8.0333 13.4545 8.23283 13.3035 8.40911C13.4435 8.40911 13.6395 8.29244 13.6395 8.29244L13.594 8.47577C13.741 8.40911 13.8565 8.30578 13.8565 8.30578L13.9965 8.44578C14.042 8.38577 14.1365 8.30578 14.1365 8.30578C14.1365 8.30578 14.252 8.42244 14.4305 8.43911V8.43577Z" fill="white" stroke="#C09300" stroke-width="0.96"/>
<path d="M13.8635 7.58911C13.8635 7.58911 13.7865 8.13577 13.6395 8.28911M13.9895 7.57244C13.9895 7.57244 13.9545 8.12911 13.8565 8.30577M14.098 7.59577C14.098 7.59577 14.098 8.20244 14.133 8.30577M14.238 7.62577C14.238 7.62577 14.266 8.13577 14.399 8.31911" stroke="#C09300" stroke-width="1.04"/>
<path d="M13.7199 7.32244C13.7168 7.28379 13.7049 7.24625 13.6849 7.21244C13.6149 7.11244 13.5134 7.03244 13.3979 7.12244C13.3979 7.12244 13.4364 7.00578 13.5239 7.00244C13.5869 6.99911 13.7374 7.04911 13.8704 7.26244C13.8704 7.26244 13.7724 7.24244 13.7479 7.26244C13.7059 7.29578 13.7234 7.32244 13.7234 7.32244H13.7199Z" fill="#C09300" stroke="#C09300" stroke-width="0.24"/>
<path d="M13.3839 6.97911C13.3944 6.94578 13.4084 6.91911 13.4294 6.90911C13.4994 6.86244 13.6534 6.87577 13.8109 6.91577C13.8109 6.91577 13.7969 6.85244 13.8809 6.85578C14.0279 6.86244 14.2519 6.92244 14.3219 6.98911C14.3443 7.01255 14.3621 7.03965 14.3744 7.06911C14.3394 7.02244 14.2414 7.02578 14.2169 7.02911C14.1819 7.03244 14.1574 7.02911 14.1084 7.04244C14.0839 7.04911 14.0489 7.05577 14.0279 7.06911C14.0139 7.08244 13.9999 7.12244 13.9789 7.12244C13.9439 7.12244 13.9439 7.11578 13.9334 7.10578C13.9229 7.08911 13.9159 7.06911 13.9019 7.07244C13.8669 7.07578 13.8039 7.04911 13.7269 6.98911C13.6464 6.92911 13.6149 6.91578 13.5169 6.92244C13.4119 6.92911 13.3839 6.98577 13.3839 6.98577V6.97911Z" fill="#C09300" stroke="#C09300" stroke-width="0.24"/>
<path d="M13.958 7.06577C13.9812 7.06577 14 7.04787 14 7.02577C14 7.00368 13.9812 6.98577 13.958 6.98577C13.9348 6.98577 13.916 7.00368 13.916 7.02577C13.916 7.04787 13.9348 7.06577 13.958 7.06577Z" fill="white"/>
</g>
<rect x="0.25" y="0.252441" width="27.5" height="19.5" rx="3.75" stroke="#595959" stroke-width="0.5"/>
<defs>
<clipPath id="clip0_179911_175801">
<rect y="0.00244141" width="28" height="20" rx="4" fill="white"/>
</clipPath>
</defs>
</svg>
