<svg width="36" height="36" viewBox="0 0 36 36" fill="none" xmlns="http://www.w3.org/2000/svg">
<path d="M23.3304 24.3088C23.3007 24.2674 23.2615 24.2337 23.216 24.2107C23.1706 24.1876 23.1203 24.1758 23.0693 24.1762H21.2934C21.0322 24.1762 20.8795 24.4735 21.0322 24.6865L23.9974 28.7887C24.126 28.9655 24.3871 28.9655 24.5157 28.7887L29.1041 22.4405C29.2568 22.2275 29.1041 21.9302 28.8429 21.9302H27.063C26.9586 21.9302 26.8621 21.9784 26.8019 22.0628L24.2505 25.5905L23.3304 24.3088ZM25.0702 9.71593V7.78735C25.0702 7.61057 24.9255 7.46593 24.7487 7.46593H9.32017C9.14339 7.46593 8.99874 7.61057 8.99874 7.78735V9.71593C8.99874 9.89271 9.14339 10.0374 9.32017 10.0374H24.7487C24.9255 10.0374 25.0702 9.89271 25.0702 9.71593ZM9.32017 13.2516C9.14339 13.2516 8.99874 13.3963 8.99874 13.5731V15.5016C8.99874 15.6784 9.14339 15.8231 9.32017 15.8231H16.713C16.8898 15.8231 17.0345 15.6784 17.0345 15.5016V13.5731C17.0345 13.3963 16.8898 13.2516 16.713 13.2516H9.32017ZM16.713 31.6534H5.78446V3.36771H28.2845V15.2606C28.2845 15.4374 28.4291 15.582 28.6059 15.582H30.8559C31.0327 15.582 31.1773 15.4374 31.1773 15.2606V1.76057C31.1773 1.04941 30.6028 0.474854 29.8916 0.474854H4.17732C3.46616 0.474854 2.8916 1.04941 2.8916 1.76057V33.2606C2.8916 33.9717 3.46616 34.5463 4.17732 34.5463H16.713C16.8898 34.5463 17.0345 34.4016 17.0345 34.2249V31.9749C17.0345 31.7981 16.8898 31.6534 16.713 31.6534ZM32.8889 18.7641L25.1746 16.0842C25.1385 16.0722 25.1063 16.0682 25.0702 16.0682C25.034 16.0682 24.9979 16.0722 24.9657 16.0842L17.2514 18.7641C17.1884 18.7855 17.1336 18.8261 17.0947 18.8801C17.0558 18.9341 17.0348 18.9989 17.0345 19.0655V29.1543C17.0345 29.2548 17.0787 29.3472 17.159 29.4074L24.8733 35.4423C24.9295 35.4865 25.0019 35.5106 25.0702 35.5106C25.1385 35.5106 25.2108 35.4865 25.2671 35.4423L32.9813 29.4074C33.0577 29.3472 33.1059 29.2548 33.1059 29.1543V19.0655C33.1059 18.9289 33.0175 18.8083 32.8889 18.7641ZM30.6148 28.1057L25.0702 32.4409L19.5255 28.1057V20.6043L25.0702 18.6757L30.6148 20.6043V28.1057Z" fill="#E41469"/>
</svg>
