<svg width="36" height="36" viewBox="0 0 36 36" fill="none" xmlns="http://www.w3.org/2000/svg">
<path d="M31.1789 5.14041H28.9289V2.24755C28.9289 1.71317 28.499 1.28326 27.9646 1.28326H4.17889C3.64451 1.28326 3.2146 1.71317 3.2146 2.24755V13.1761C3.2146 13.7105 3.64451 14.1404 4.17889 14.1404H27.9646C28.499 14.1404 28.9289 13.7105 28.9289 13.1761V7.71184H30.2146V15.7476H16.1119C15.224 15.7476 14.5048 16.4667 14.5048 17.3547V22.819H12.7369C12.5601 22.819 12.4155 22.9636 12.4155 23.1404V32.3011C12.4155 32.3252 12.4195 32.3534 12.4235 32.3775C12.3898 32.8402 12.4518 33.3049 12.6057 33.7426C12.7597 34.1802 13.0022 34.5815 13.3182 34.9212C13.6341 35.2609 14.0168 35.5318 14.4421 35.717C14.8675 35.9022 15.3265 35.9977 15.7905 35.9976C17.6548 35.9976 19.1655 34.4868 19.1655 32.6225C19.1655 32.5382 19.1615 32.4578 19.1575 32.3775C19.1615 32.3534 19.1655 32.3292 19.1655 32.3011V23.1404C19.1655 22.9636 19.0209 22.819 18.8441 22.819H17.0762V18.319H31.1789C32.0668 18.319 32.786 17.5998 32.786 16.7118V6.74755C32.786 5.8596 32.0668 5.14041 31.1789 5.14041ZM26.3575 11.569H5.78603V3.85469H26.3575V11.569ZM16.5941 32.6225C16.5941 33.0645 16.2325 33.4261 15.7905 33.4261C15.3485 33.4261 14.9869 33.0645 14.9869 32.6225V25.3904H16.5941V32.6225Z" fill="#03ADB5"/>
</svg>
