<svg width="475" height="436" viewBox="0 0 475 436" fill="none" xmlns="http://www.w3.org/2000/svg">
<g filter="url(#filter0_d_180557_183355)">
<path d="M421.397 350.175C420.866 350.502 420.213 350.488 419.682 350.175L402.781 339.765C402.508 339.588 402.508 339.193 402.781 339.016L421.302 327.776C421.628 327.585 422.023 327.585 422.349 327.776L439.782 338.513C439.972 338.635 439.972 338.907 439.782 339.016L421.397 350.162V350.175Z" fill="url(#paint0_linear_180557_183355)"/>
</g>
<g filter="url(#filter1_d_180557_183355)">
<path d="M435.835 415.756C435.304 416.082 434.651 416.069 434.12 415.756L417.219 405.345C416.947 405.168 416.947 404.773 417.219 404.596L435.74 393.356C436.066 393.165 436.475 393.165 436.788 393.356L454.22 404.093C454.41 404.215 454.41 404.488 454.22 404.596L435.835 415.742V415.756Z" fill="url(#paint1_linear_180557_183355)"/>
</g>
<g filter="url(#filter2_d_180557_183355)">
<path d="M308.679 424.383C308.406 424.546 308.066 424.546 307.808 424.383L299.18 419.076C299.044 418.994 299.044 418.776 299.18 418.695L308.638 412.965C308.801 412.87 309.005 412.87 309.168 412.965L318.068 418.45C318.164 418.504 318.164 418.654 318.068 418.708L308.679 424.397V424.383Z" fill="url(#paint2_linear_180557_183355)"/>
</g>
<g filter="url(#filter3_d_180557_183355)">
<path d="M51.0314 318.958C50.2829 319.42 49.3303 319.407 48.5819 318.958L24.4679 304.111C24.0732 303.866 24.0732 303.294 24.4679 303.049L50.8953 287.032C51.358 286.746 51.9295 286.76 52.3922 287.032L77.2547 302.342C77.5269 302.505 77.5269 302.9 77.2547 303.063L51.0314 318.971V318.958Z" fill="url(#paint3_linear_180557_183355)"/>
</g>
<g filter="url(#filter4_d_180557_183355)">
<path d="M370.352 140.195C369.971 140.427 369.494 140.427 369.113 140.195L356.92 132.697C356.716 132.575 356.716 132.289 356.92 132.166L370.284 124.069C370.515 123.933 370.814 123.933 371.046 124.069L383.62 131.813C383.756 131.894 383.756 132.098 383.62 132.18L370.365 140.223L370.352 140.195Z" fill="url(#paint4_linear_180557_183355)"/>
</g>
<g filter="url(#filter5_d_180557_183355)">
<path d="M75.2542 216.73C74.9684 216.907 74.601 216.907 74.3153 216.73L65.1296 211.069C64.9799 210.974 64.9799 210.756 65.1296 210.661L75.1998 204.55C75.3767 204.442 75.5944 204.442 75.7713 204.55L85.2428 210.388C85.3516 210.457 85.3516 210.606 85.2428 210.661L75.2542 216.716V216.73Z" fill="url(#paint5_linear_180557_183355)"/>
</g>
<g filter="url(#filter6_d_180557_183355)">
<path d="M113.208 213.627C112.827 213.858 112.351 213.858 111.97 213.627L99.7766 206.129C99.5725 206.006 99.5725 205.721 99.7766 205.598L113.14 197.501C113.371 197.365 113.671 197.365 113.902 197.501L126.476 205.244C126.612 205.326 126.612 205.53 126.476 205.612L113.222 213.654L113.208 213.627Z" fill="url(#paint6_linear_180557_183355)"/>
</g>
<path d="M223.449 394.227L175.208 423.635C173.806 424.492 172.037 424.492 170.649 423.635L70.6003 362.056C69.4708 361.362 69.4708 359.715 70.6003 359.021L138.601 317.27C139.581 316.671 139.581 315.243 138.601 314.644L58.1895 264.932" stroke="url(#paint7_linear_180557_183355)" stroke-width="0.5" stroke-miterlimit="10"/>
<path d="M60.1355 266.088C59.6729 266.864 58.5161 267.041 57.55 266.47C56.5838 265.898 56.1755 264.809 56.6382 264.02C57.1009 263.231 58.2576 263.067 59.2102 263.639C60.1764 264.21 60.5846 265.299 60.1219 266.088H60.1355Z" fill="url(#paint8_linear_180557_183355)"/>
<path d="M85.4334 349.89C84.9707 349.114 83.814 348.937 82.8478 349.509C81.8816 350.081 81.4734 351.169 81.936 351.959C82.3987 352.748 83.5554 352.911 84.508 352.34C85.4742 351.768 85.8825 350.679 85.4198 349.89H85.4334Z" fill="url(#paint9_linear_180557_183355)"/>
<path d="M326.002 218.975L394.003 177.224C394.983 176.626 394.983 175.197 394.003 174.598L337.964 139.923" stroke="url(#paint10_linear_180557_183355)" stroke-width="0.5" stroke-miterlimit="10"/>
<path d="M339.91 141.094C339.447 141.87 338.291 142.046 337.338 141.475C336.372 140.903 335.964 139.815 336.426 139.025C336.889 138.236 338.046 138.073 339.012 138.644C339.978 139.216 340.386 140.305 339.924 141.094H339.91Z" fill="url(#paint11_linear_180557_183355)"/>
<path d="M405.557 310.452L473.558 268.701C474.537 268.102 474.537 266.673 473.558 266.075L417.518 231.4" stroke="url(#paint12_linear_180557_183355)" stroke-width="0.5" stroke-miterlimit="10"/>
<path d="M419.464 232.57C419.002 233.346 417.845 233.523 416.879 232.951C415.913 232.38 415.504 231.291 415.967 230.502C416.43 229.713 417.586 229.549 418.539 230.121C419.505 230.692 419.913 231.781 419.451 232.57H419.464Z" fill="url(#paint13_linear_180557_183355)"/>
<path d="M245.005 149.64L177.004 191.391C176.024 191.989 176.024 193.418 177.004 194.017L233.043 228.692" stroke="url(#paint14_linear_180557_183355)" stroke-width="0.5" stroke-miterlimit="10"/>
<path d="M231.097 227.535C231.56 226.759 232.717 226.583 233.683 227.154C234.649 227.726 235.057 228.814 234.595 229.604C234.132 230.393 232.975 230.556 232.009 229.985C231.043 229.413 230.635 228.324 231.097 227.535Z" fill="url(#paint15_linear_180557_183355)"/>
<path d="M101.45 304.995L53.2088 334.403C51.8071 335.261 50.0381 335.261 48.65 334.403L0.177002 304.573" stroke="url(#paint16_linear_180557_183355)" stroke-width="0.5" stroke-miterlimit="10"/>
<path d="M103.301 304.002C102.839 303.226 101.682 303.049 100.716 303.621C99.7495 304.192 99.3413 305.281 99.804 306.07C100.267 306.86 101.423 307.023 102.39 306.451C103.356 305.88 103.764 304.791 103.301 304.002Z" fill="url(#paint17_linear_180557_183355)"/>
<path d="M415.681 210.905L367.44 240.313C366.038 241.171 364.269 241.171 362.881 240.313L314.421 210.483" stroke="url(#paint18_linear_180557_183355)" stroke-width="0.5" stroke-miterlimit="10"/>
<path d="M417.532 209.912C417.069 209.136 415.913 208.959 414.946 209.531C413.98 210.103 413.572 211.191 414.035 211.981C414.497 212.77 415.654 212.933 416.62 212.362C417.586 211.79 417.995 210.701 417.532 209.912Z" fill="url(#paint19_linear_180557_183355)"/>
<path d="M275.365 388.729L323.607 359.321C325.009 358.463 326.778 358.463 328.166 359.321L376.625 389.151" stroke="url(#paint20_linear_180557_183355)" stroke-width="0.5" stroke-miterlimit="10"/>
<path d="M294.444 341.63L342.686 312.222C344.088 311.364 345.857 311.364 347.258 312.222L447.307 373.8C448.437 374.494 448.437 376.141 447.307 376.835L412.456 398.228" stroke="url(#paint21_linear_180557_183355)" stroke-width="0.5" stroke-miterlimit="10"/>
<path d="M410.946 399.071C411.408 399.847 412.565 400.024 413.531 399.452C414.497 398.881 414.906 397.792 414.443 397.003C413.98 396.214 412.824 396.05 411.871 396.622C410.918 397.193 410.496 398.282 410.959 399.071H410.946Z" fill="url(#paint22_linear_180557_183355)"/>
<path d="M424.119 359.416C423.656 360.192 422.499 360.369 421.547 359.797C420.58 359.226 420.172 358.137 420.635 357.348C421.097 356.558 422.254 356.395 423.22 356.967C424.187 357.538 424.595 358.627 424.132 359.416H424.119Z" fill="url(#paint23_linear_180557_183355)"/>
<path d="M60.9248 318.822L109.166 289.414C110.568 288.556 112.337 288.556 113.725 289.414L300.173 404.147C301.303 404.841 301.303 406.488 300.173 407.182L265.322 428.575" stroke="url(#paint24_linear_180557_183355)" stroke-width="0.5" stroke-miterlimit="10"/>
<path d="M263.825 429.432C264.288 430.208 265.445 430.385 266.411 429.813C267.377 429.242 267.785 428.153 267.323 427.364C266.86 426.574 265.703 426.411 264.737 426.983C263.771 427.554 263.363 428.643 263.825 429.432Z" fill="url(#paint25_linear_180557_183355)"/>
<path d="M276.998 389.763C276.536 390.539 275.379 390.716 274.413 390.144C273.447 389.573 273.038 388.484 273.501 387.695C273.964 386.919 275.12 386.742 276.087 387.314C277.053 387.885 277.461 388.974 276.998 389.763Z" fill="url(#paint26_linear_180557_183355)"/>
<path d="M435.686 404.937L387.444 434.345C386.042 435.202 384.273 435.202 382.885 434.345L281.952 372.222C280.986 371.623 279.775 371.623 278.808 372.222L225.396 405.222" stroke="url(#paint27_linear_180557_183355)" stroke-width="0.5" stroke-miterlimit="10"/>
<path d="M227.124 404.134C226.661 403.358 225.504 403.181 224.538 403.753C223.572 404.324 223.164 405.413 223.626 406.202C224.089 406.978 225.246 407.155 226.212 406.583C227.178 406.012 227.586 404.923 227.124 404.134Z" fill="url(#paint28_linear_180557_183355)"/>
<path d="M35.45 361.852V333.015" stroke="url(#paint29_linear_180557_183355)" stroke-width="0.5" stroke-miterlimit="10" stroke-linecap="round"/>
<path d="M308.611 183.484V154.648" stroke="url(#paint30_linear_180557_183355)" stroke-width="0.5" stroke-miterlimit="10" stroke-linecap="round"/>
<path d="M424.309 208.293V179.456" stroke="url(#paint31_linear_180557_183355)" stroke-width="0.5" stroke-miterlimit="10" stroke-linecap="round"/>
<path d="M410.755 294.19V265.354" stroke="url(#paint32_linear_180557_183355)" stroke-width="0.5" stroke-miterlimit="10" stroke-linecap="round"/>
<path d="M85.624 266.306V237.47" stroke="url(#paint33_linear_180557_183355)" stroke-width="0.5" stroke-miterlimit="10" stroke-linecap="round"/>
<path d="M94.6873 279.956V251.119" stroke="url(#paint34_linear_180557_183355)" stroke-width="0.5" stroke-miterlimit="10" stroke-linecap="round"/>
<path d="M461.392 322.333V293.496" stroke="url(#paint35_linear_180557_183355)" stroke-width="0.5" stroke-miterlimit="10" stroke-linecap="round"/>
<path d="M210.63 433.12V404.283" stroke="url(#paint36_linear_180557_183355)" stroke-width="0.5" stroke-miterlimit="10" stroke-linecap="round"/>
<path d="M41.5737 377.937V349.101" stroke="url(#paint37_linear_180557_183355)" stroke-width="0.5" stroke-miterlimit="10" stroke-linecap="round"/>
<path d="M126.558 160.989V132.167" stroke="url(#paint38_linear_180557_183355)" stroke-width="0.5" stroke-miterlimit="10" stroke-linecap="round"/>
<path d="M301.017 160.989V132.167" stroke="url(#paint39_linear_180557_183355)" stroke-width="0.5" stroke-miterlimit="10" stroke-linecap="round"/>
<path style="mix-blend-mode:screen" d="M214.931 312.317C212.712 313.664 209.936 313.65 207.732 312.289L136.805 268.62C135.635 267.898 135.648 266.211 136.805 265.503L214.536 218.363C215.897 217.547 217.584 217.547 218.945 218.377L292.076 263.394C292.866 263.884 292.866 265.04 292.076 265.53L214.944 312.303L214.931 312.317Z" stroke="url(#paint40_linear_180557_183355)" stroke-miterlimit="10"/>
<path d="M292.58 252.126V135.337L135.934 137.528V255.147C135.934 255.147 135.934 255.174 135.934 255.188V255.215C135.934 255.8 136.233 256.386 136.805 256.739L207.732 300.409C209.936 301.77 212.712 301.77 214.931 300.436L292.063 253.664C292.607 253.337 292.771 252.684 292.58 252.153V252.126Z" fill="url(#paint41_linear_180557_183355)"/>
<g filter="url(#filter7_d_180557_183355)">
<path d="M214.931 183.212C212.712 184.559 209.936 184.546 207.732 183.185L136.805 139.515C135.635 138.794 135.648 137.106 136.805 136.399L214.536 89.2586C215.897 88.4421 217.584 88.4421 218.945 89.2723L292.076 134.289C292.866 134.779 292.866 135.936 292.076 136.426L214.944 183.199L214.931 183.212Z" fill="url(#paint42_linear_180557_183355)"/>
</g>
<path style="mix-blend-mode:screen" d="M327.921 374.412C325.703 375.76 322.927 375.746 320.722 374.385L249.795 330.715C248.625 329.994 248.639 328.307 249.795 327.599L327.526 280.459C328.887 279.642 330.575 279.642 331.935 280.472L405.067 325.49C405.856 325.979 405.856 327.136 405.067 327.626L327.934 374.399L327.921 374.412Z" stroke="url(#paint43_linear_180557_183355)" stroke-miterlimit="10"/>
<path d="M405.57 314.235V230.896L248.924 233.087V317.243C248.924 317.243 248.924 317.27 248.924 317.284V317.311C248.924 317.896 249.224 318.481 249.795 318.835L320.722 362.505C322.927 363.866 325.703 363.866 327.921 362.532L405.053 315.759C405.597 315.433 405.761 314.78 405.57 314.249V314.235Z" fill="url(#paint44_linear_180557_183355)"/>
<g filter="url(#filter8_d_180557_183355)">
<path d="M327.921 278.771C325.703 280.118 322.927 280.105 320.722 278.744L249.795 235.074C248.625 234.353 248.639 232.665 249.795 231.958L327.526 184.818C328.887 184.001 330.575 184.001 331.935 184.831L405.067 229.848C405.856 230.338 405.856 231.495 405.067 231.985L327.934 278.758L327.921 278.771Z" fill="url(#paint45_linear_180557_183355)"/>
</g>
<path style="mix-blend-mode:screen" d="M184.843 402.473C182.624 403.821 179.848 403.807 177.644 402.446L106.717 358.776C105.547 358.055 105.56 356.368 106.717 355.66L184.448 308.52C185.809 307.703 187.496 307.703 188.857 308.533L261.988 353.551C262.778 354.04 262.778 355.197 261.988 355.687L184.856 402.46L184.843 402.473Z" stroke="url(#paint46_linear_180557_183355)" stroke-miterlimit="10"/>
<path d="M262.492 342.283V299.035L194.3 299.987L188.857 296.639C187.51 295.809 185.809 295.809 184.448 296.626L178.528 300.218L105.846 301.239V345.304C105.846 345.304 105.846 345.331 105.846 345.344V345.372C105.846 345.957 106.145 346.542 106.717 346.896L177.644 390.566C179.848 391.927 182.624 391.927 184.843 390.593L261.975 343.82C262.519 343.494 262.682 342.84 262.492 342.31V342.283Z" fill="url(#paint47_linear_180557_183355)"/>
<g filter="url(#filter9_d_180557_183355)">
<path d="M184.843 346.433C182.624 347.781 179.848 347.767 177.644 346.406L106.717 302.736C105.547 302.015 105.56 300.328 106.717 299.62L184.448 252.48C185.809 251.663 187.496 251.663 188.857 252.493L261.988 297.511C262.778 298 262.778 299.157 261.988 299.647L184.856 346.42L184.843 346.433Z" fill="url(#paint48_linear_180557_183355)"/>
</g>
<path d="M161.776 246.165C161.776 246.165 161.001 246.288 160.688 246.328C160.375 246.369 158.823 246.356 157.939 246.247C157.054 246.151 156.238 247.077 155.584 247.444C154.931 247.812 151.856 248.274 151.692 248.478C151.529 248.683 151.76 248.928 152.06 249.064C152.359 249.2 154.332 248.9 154.931 248.887C155.53 248.873 157.054 248.547 157.136 248.615C157.217 248.683 156.904 248.832 156.36 248.9C155.816 248.968 155.489 249.417 155.53 249.73C155.571 250.043 157.285 249.785 158.184 249.567C159.082 249.349 159.844 249.009 160.62 248.819C161.395 248.628 162.198 248.601 162.198 248.601" fill="#F2CFA4"/>
<path d="M171.887 306.397C171.983 306.138 172.622 305.526 172.622 305.526L182.121 303.634C182.121 303.634 182.162 304.764 182.175 304.873C182.202 304.982 181.141 305.567 180.61 305.825C180.08 306.07 179.821 306.125 179.821 306.125L179.358 305.961C179.113 306.016 178.773 306.125 178.46 306.274C177.916 306.56 177.018 307.173 176.106 307.54C175.194 307.907 174.105 308.18 173.03 307.894C171.955 307.608 171.71 306.832 171.86 306.397H171.887Z" fill="#1A1401"/>
<path d="M178.052 300.804C178.052 300.804 177.48 301.049 176.133 302.396C174.786 303.743 172.295 305.186 171.901 305.975C171.574 306.656 171.901 307.322 173.112 307.69C174.323 308.057 176.296 307.186 177.521 306.356C178.746 305.526 181.468 305.05 181.957 304.206C182.447 303.376 181.835 301.961 181.617 301.62C181.386 301.267 180.896 300.137 178.065 300.804H178.052Z" fill="#1B115E"/>
<path d="M187.238 309.744C187.238 309.744 186.666 310.874 186.72 311.636C186.748 312.099 187.088 313.133 187.591 313.514C188.013 313.827 189.32 314.331 191.524 312.983C193.729 311.65 193.13 308.819 193.089 308.411C193.062 308.003 192.994 306.764 193.089 306.138" fill="#1A1401"/>
<path d="M193.116 305.921C193.116 305.921 193.007 306.601 192.994 308.098C192.994 309.595 193.035 310.602 192.273 311.677C191.32 313.011 189.333 313.8 188.176 313.324C186.584 312.684 186.734 310.874 187.061 309.881C187.374 308.901 188.503 307.935 188.707 306.887C188.925 305.839 188.503 303.716 190.64 303.43C192.504 303.185 193.456 304.056 193.116 305.921Z" fill="#1B115E"/>
<path d="M181.195 298.368C181.195 298.368 180.964 300.668 181.032 301.307C181.087 301.947 178.378 302.328 177.644 301.484C177.644 301.484 177.521 300.014 177.494 299.007" fill="#F2CFA4"/>
<path d="M175.793 280.894C176.242 283.507 177.045 299.878 177.045 299.878C179.794 301.171 181.835 299.606 181.835 299.606C181.835 299.606 182.992 287.916 183.032 287.59C183.495 284.147 183.291 279.901 183.005 278.826C182.706 277.751 183.427 270.103 184.284 267.272C184.679 265.979 184.992 265.122 185.251 264.265C185.564 263.257 185.781 262.264 185.945 260.59C186.23 257.487 184.747 254.657 184.747 254.657C184.747 254.657 175.711 254.004 175.493 256.317C175.221 259.175 174.759 275.015 175.793 280.894Z" fill="#1B115E"/>
<path d="M192.871 301.661C192.871 301.661 192.64 303.961 192.708 304.601C192.763 305.24 190.054 305.621 189.32 304.778C189.32 304.778 189.197 303.308 189.17 302.301" fill="#F2CFA4"/>
<path d="M191.891 258.127C191.891 258.127 193.606 260.998 193.552 264.088C193.497 267.163 193.456 267.952 192.817 270.756C192.177 273.559 193.647 281.071 194.028 282.146C194.409 283.235 194.763 286.678 194.572 290.107C194.382 293.428 193.402 302.899 193.402 302.899C193.402 302.899 191.415 304.532 188.557 303.158C188.557 303.158 187.183 286.419 186.285 283.875C184.312 278.268 182.406 267.313 182.053 265.244C181.046 262.536 181.413 260.019 181.413 258.549C181.413 257.079 191.905 258.1 191.905 258.1L191.891 258.127Z" fill="#1B115E"/>
<path d="M176.038 242.396C173.547 242.79 160.756 246.124 160.756 246.124L161.109 249.036C161.109 249.036 176.841 248.356 177.208 248.097C177.576 247.839 177.576 246.369 177.576 246.369" fill="#E3F6FF"/>
<path d="M173.384 235.02C173.384 235.02 178.732 236.19 179.004 237.197C179.181 237.864 177.984 243.171 176.201 247.567C174.731 246.914 173.357 246.274 172.35 245.675C172.636 243.144 173.384 235.006 173.384 235.006" fill="#E3F6FF"/>
<path d="M174.555 227.317C174.555 227.317 173.33 232.067 173.017 239.034C173.017 239.034 173.18 239.266 177.004 240.314" fill="#E3F6FF"/>
<path d="M175.738 252.52C175.561 253.813 175.398 255.024 175.276 256.072C175.208 256.644 175.507 257.202 176.038 257.433C179.059 258.767 187.088 260.318 190.082 260.318C190.177 260.318 190.258 260.318 190.326 260.318C192.354 260.236 192.83 259.338 192.926 258.726C192.926 258.522 192.926 258.331 192.912 258.141C192.858 257.283 192.735 256.412 192.49 255.541C192.436 255.324 192.381 255.092 192.313 254.875C192.245 254.616 192.164 254.371 192.109 254.113C192.068 253.99 192.041 253.868 192.014 253.745C191.987 253.623 191.959 253.514 191.932 253.391C191.265 250.125 192.422 247.118 193.538 244.124C193.851 243.294 194.15 242.45 194.409 241.606C194.953 239.81 195.498 238.014 195.933 236.204C195.974 236.027 196.028 235.836 196.069 235.646C196.301 234.748 196.546 233.768 196.491 232.856C196.382 232.557 196.246 232.284 196.124 232.026C195.933 231.631 195.756 231.291 195.566 230.992C195.13 230.284 194.749 229.821 194.463 229.549C194.287 229.386 194.123 229.236 193.946 229.1C193.661 228.855 193.375 228.637 193.089 228.447C192.871 228.284 192.667 228.147 192.477 228.025C192.395 227.971 192.313 227.916 192.232 227.862C192.218 227.862 192.204 227.848 192.191 227.834C192.191 227.834 192.164 227.834 192.15 227.821C192.082 227.78 192.014 227.726 191.959 227.685C191.823 227.589 191.687 227.508 191.551 227.426C191.415 227.345 191.265 227.263 191.129 227.181C190.912 227.059 190.653 226.923 190.381 226.787C189.782 226.487 189.02 226.133 187.931 225.712L187.21 225.439C187.06 225.385 186.911 225.344 186.747 225.29C185.999 225.058 185.237 224.881 184.475 224.718C183.291 224.46 182.08 224.269 180.937 224.051C180.733 224.051 180.542 224.051 180.338 224.065C179.685 224.106 178.773 224.283 177.956 224.473C176.228 224.868 174.786 226.147 174.364 227.848C174.296 228.093 174.269 228.352 174.241 228.624C174.092 231.06 176.786 244.832 175.738 252.52Z" fill="white"/>
<path d="M181.658 225.739C181.658 225.739 180.243 227.1 181.372 228.12L182.039 226.691L181.399 226.12" fill="#D5AB80"/>
<path d="M187.36 220.69L187.197 226.215C187.197 226.215 183.046 229.454 181.372 228.12C181.345 227.14 181.359 224.8 181.372 223.452L182.951 223.139L187.346 220.704L187.36 220.69Z" fill="#E2B888"/>
<path d="M178.351 216.444C178.351 216.444 178.093 219.112 178.637 221.561C179.195 223.997 179.358 224.555 180.338 224.991C181.318 225.426 182.202 225.467 183.863 224.405C185.523 223.344 186.421 221.616 186.421 221.616C186.421 221.616 186.652 221.765 187.251 221.098C188.176 220.051 188.353 219.533 188.353 218.118C188.353 216.703 187.999 214.92 186.897 213.069C185.795 211.219 182.406 211.804 180.869 212.593C179.331 213.382 178.637 214.866 178.351 216.458V216.444Z" fill="#F2CFA4"/>
<path d="M178.174 216.771C179.766 218.159 182.856 216.771 182.856 216.771L182.924 217.587C183.237 218.894 184.148 219.016 184.584 219.248C185.019 219.492 185.115 220.813 185.115 220.813L185.672 220.758C185.672 220.758 185.659 219.492 185.849 218.866C186.054 218.227 187.101 217.737 187.687 218.662C188.163 219.411 187.714 220.323 187.36 220.989C187.36 220.989 188.367 221.289 188.625 217.193C188.625 217.193 188.707 215.151 188.489 213.981C188.244 212.661 186.23 210.851 184.107 210.865C184.107 210.865 181.372 210.688 179.984 212.294C178.297 214.24 177.943 214.199 177.467 213.736C176.813 214.403 177.099 215.818 178.188 216.771H178.174Z" fill="#2D166D"/>
<path d="M189.782 251.255C189.728 251.731 189.701 253.133 189.782 253.8C190.068 256.072 190.503 258.1 190.095 260.305C190.19 260.305 190.272 260.305 190.34 260.305C192.368 260.223 192.844 259.325 192.939 258.712C192.939 258.508 192.939 258.318 192.926 258.127C192.871 257.27 192.749 256.399 192.504 255.528C192.449 255.31 192.381 255.092 192.327 254.875C192.259 254.616 192.177 254.358 192.123 254.113C192.082 253.99 192.055 253.868 192.028 253.745C192 253.623 191.973 253.514 191.946 253.391C191.279 250.125 192.436 247.118 193.552 244.124C193.375 242.477 193.184 240.504 193.184 240.3C193.184 239.96 189.728 235.932 189.728 235.932C189.728 235.932 190.612 243.294 189.782 251.255Z" fill="#E3F6FF"/>
<path d="M205.187 265.667L189.333 275.261L187.618 274.226L203.486 264.632L205.187 265.667Z" fill="#6095B8"/>
<path d="M189.333 275.261V286.61L205.187 277.016V265.667L189.333 275.261Z" fill="#6095B8"/>
<path d="M189.333 275.261V280.459L205.187 270.865V265.667L189.333 275.261Z" fill="#5990AE"/>
<path d="M194.858 276.377V277.955L195.062 278.064L199.676 275.043L199.88 273.573L199.676 273.464L194.858 276.377Z" fill="#497790"/>
<path d="M195.062 276.485V278.064L199.88 275.152V273.573L195.062 276.485Z" fill="#3D5E73"/>
<path d="M189.333 275.261V286.61L187.618 285.576V274.227L189.333 275.261Z" fill="#4B79A1"/>
<path d="M199.009 265.775C198.764 265.639 198.464 265.639 198.219 265.775L194.79 267.844C194.218 268.184 193.865 268.81 193.865 269.477V271.3C193.865 271.3 193.837 271.654 194.246 271.613C194.599 271.573 194.654 271.3 194.654 271.3V269.477C194.654 269.082 194.858 268.728 195.198 268.524L198.396 266.565C198.491 266.51 198.6 266.565 198.6 266.674V268.443C198.6 268.443 198.573 268.797 198.981 268.756C199.335 268.715 199.39 268.443 199.39 268.443V266.429C199.39 266.143 199.24 265.884 198.995 265.748L199.009 265.775Z" fill="#3D5E73"/>
<path d="M194.641 267.953L195.593 267.381L195.661 267.34C195.784 267.272 195.906 267.245 195.988 267.272C196.069 267.313 196.219 267.585 196.301 267.871C196.342 267.994 196.355 268.102 196.369 268.211C196.369 268.606 196.274 268.987 196.137 269.341C196.75 269.286 197.526 268.96 198.22 268.647C198.995 268.279 199.199 267.966 199.213 267.83C199.213 267.803 199.213 267.762 199.213 267.721C199.186 267.531 199.131 267.245 199.05 266.918C199.05 266.905 199.05 266.891 199.05 266.878C199.05 266.864 199.05 266.85 199.05 266.837C198.832 265.898 198.505 264.619 198.533 264.088L195.906 262.509C195.906 262.509 195.824 264.224 195.797 265.217C195.797 265.666 194.886 266.469 194.749 266.619C194.722 266.646 194.681 266.755 194.627 266.918C194.6 267.259 194.695 267.98 194.695 267.98L194.641 267.953Z" fill="#F2CFA4"/>
<path d="M198.914 241.157C198.914 241.157 200.138 246.737 200.138 247.676C200.138 248.615 197.022 250.248 195.226 249.812C194.518 249.418 192.15 243.879 192.15 243.879" fill="white"/>
<path d="M189.115 234.394C189.115 236.884 191.007 240.981 192.137 243.893C195.076 243.294 196.886 242.464 197.879 241.879C197.022 238.667 195.729 234.476 195.076 232.366C194.858 231.659 194.477 231.019 193.96 230.516C193.919 230.516 193.878 230.516 193.838 230.516C192 230.475 189.088 231.74 189.102 234.421L189.115 234.394Z" fill="white"/>
<path d="M187.224 225.439L187.945 225.712C189.034 226.133 189.796 226.487 190.395 226.787C190.68 226.923 190.925 227.059 191.143 227.181C191.293 227.263 191.429 227.345 191.565 227.426C191.701 227.508 191.837 227.59 191.973 227.685C192.041 227.726 192.109 227.767 192.164 227.807C192.164 227.807 192.191 227.821 192.205 227.835C192.205 227.835 192.232 227.848 192.245 227.862C192.327 227.916 192.409 227.957 192.49 228.025C192.681 228.148 192.885 228.297 193.103 228.447C193.375 228.637 193.661 228.855 193.96 229.1C194.001 229.127 194.055 229.168 194.096 229.209C194.096 229.209 194.11 229.223 194.137 229.25C194.137 229.25 194.178 229.277 194.191 229.291C194.219 229.304 194.259 229.345 194.3 229.386C194.355 229.427 194.396 229.481 194.464 229.536C194.749 229.821 195.13 230.284 195.566 230.992C195.756 231.291 195.933 231.631 196.124 232.026C196.246 232.285 196.382 232.557 196.491 232.856C196.491 232.87 197.049 234.353 197.294 235.224C197.321 235.346 197.362 235.455 197.389 235.564C197.553 236.136 197.716 236.735 197.893 237.361C198.233 238.599 198.587 239.905 198.886 241.171C198.886 241.171 198.587 241.47 197.866 241.892C197.349 239.946 196.668 237.646 196.069 235.659C195.688 234.367 195.239 233.183 194.913 232.366C193.702 229.345 187.7 226.487 187.183 226.215C187.183 225.766 187.197 225.439 187.197 225.439H187.224Z" fill="white"/>
<path d="M200.125 247.689C200.438 248.302 200.37 254.344 199.567 259.025C198.764 263.707 198.832 264.469 198.832 264.469L195.539 264.333C195.539 264.333 195.661 260.468 195.403 258.005C195.144 255.474 194.722 249.227 194.722 249.227" fill="white"/>
<path d="M182.23 227.317L182.039 228.61L183.06 228.529L182.23 227.317Z" fill="#7EB9F5"/>
<path d="M181.699 227.236V228.706L181.046 228.12L181.699 227.236Z" fill="#7EB9F5"/>
<path d="M182.515 227.97C182.515 227.97 181.971 228.052 181.413 227.589L180.937 228.556L181.086 229.78L181.917 230.121L182.774 229.073" fill="#2D166D"/>
<path d="M187.836 225.671L187.197 224.487C187.197 224.487 185.156 226.555 182.23 227.317L182.747 229.141C182.747 229.141 186.19 228.297 187.836 225.671Z" fill="#E3F6FF"/>
<path d="M181.359 225.848C181.359 225.848 181.345 226.814 181.699 227.236L180.937 228.705C180.937 228.705 180.148 226.977 181.359 225.848Z" fill="#E3F6FF"/>
<path d="M181.93 230.094L182.556 247.567C182.556 247.567 180.665 252.861 180.161 252.888C179.658 252.915 178.27 246.097 178.283 243.906C178.297 241.715 181.1 229.781 181.1 229.781" fill="#2D166D"/>
<path d="M195.756 269.314C195.865 269.327 195.988 269.327 196.124 269.314C196.736 269.259 197.512 268.933 198.206 268.62C198.981 268.252 199.186 267.939 199.199 267.803V267.776C199.199 267.776 199.199 267.735 199.199 267.694C199.158 267.504 199.077 267.055 199.036 266.891C199.036 266.878 199.036 266.864 199.036 266.85C199.036 266.823 199.036 266.81 199.036 266.81L196.341 267.857L195.266 268.511C195.266 268.511 195.171 269.218 195.797 269.314H195.756Z" fill="#F2CFA4"/>
<path d="M345.19 176.761L344.509 178.884C344.509 178.884 342.305 178.367 338.018 177.047C337.855 176.993 337.678 176.938 337.501 176.884C335.786 176.353 334.045 175.7 332.507 175.047C329.908 173.972 327.907 172.924 327.635 172.57C326.832 171.522 324.873 167.671 324.873 167.671L331.894 168.896C331.894 168.896 332.412 169.195 333.187 169.644C333.596 169.875 334.058 170.161 334.562 170.447C335.923 171.264 337.528 172.216 338.59 172.897C340.713 174.271 345.176 176.734 345.176 176.734L345.19 176.761Z" fill="#C5FFFD"/>
<path d="M338.345 176.666L338.032 177.047C337.869 176.993 337.692 176.938 337.515 176.884C335.8 176.353 334.058 175.7 332.521 175.047C332.371 174.407 332.221 173.699 332.262 173.482C332.33 173.128 332.97 170.461 333.201 169.644C333.609 169.875 334.072 170.161 334.575 170.447C334.412 171.372 334.017 174.026 334.466 174.734C334.997 175.591 338.345 176.652 338.345 176.652V176.666Z" fill="#90F4EF"/>
<path d="M323.934 232.176C323.934 232.176 323.389 233.047 323.335 233.128C323.28 233.224 324.097 234.176 324.519 234.571C324.954 234.966 325.526 235.319 325.526 235.319L325.73 235.142C325.73 235.142 325.92 235.238 326.356 235.673C326.791 236.109 327.526 236.912 328.288 237.524C329.05 238.136 330.003 238.722 331.105 238.776C332.208 238.83 332.684 238.15 332.657 237.701C332.643 237.429 332.208 236.653 332.208 236.653" fill="#3C3C82"/>
<path d="M328.452 230.57C328.452 230.57 328.928 230.964 329.812 232.652C330.697 234.339 332.643 236.435 332.779 237.306C332.888 238.041 332.371 238.585 331.132 238.572C329.867 238.572 328.261 237.156 327.336 236.013C326.424 234.87 323.906 233.387 323.743 232.666C323.539 231.727 324.519 230.57 324.832 230.311C325.158 230.053 325.948 229.114 328.452 230.583V230.57Z" fill="white"/>
<path d="M329.078 230.379L328.724 231.699C328.724 231.699 328.302 232.04 327.349 231.754C326.614 231.536 325.567 230.965 325.403 230.012C325.403 230.012 325.512 229.59 325.662 229.019" fill="#E2BD9B"/>
<path d="M337.365 211.708C336.263 215.247 328.996 230.828 328.996 230.828C328.737 230.828 328.506 230.828 328.275 230.828C326.614 230.679 325.43 229.74 325.43 229.74C325.43 229.74 326.369 222.282 327.281 218.839C328.193 215.396 330.615 212.008 330.153 210.905C329.935 210.375 328.941 207.462 327.975 204.577C327.975 204.537 327.948 204.496 327.934 204.441C327.934 204.441 327.934 204.414 327.934 204.4C326.9 201.325 325.907 198.345 325.907 198.345L325.961 195.745L326.097 189.241L333.5 186.26C333.582 186.41 333.65 186.573 333.732 186.75C336.29 192.479 338.454 208.293 337.379 211.735L337.365 211.708Z" fill="#3C3C82"/>
<path d="M328.52 206.183C327.485 203.108 325.88 198.331 325.88 198.331L325.934 195.732L327.363 194.385C327.363 194.385 327.322 197.243 327.54 199.529C327.798 202.441 328.234 205.272 328.52 206.183Z" fill="#2A2A68"/>
<path d="M328.152 241.28L317.742 238.64C317.742 238.64 317.701 239.211 317.742 239.388C317.783 239.565 319.62 240.232 319.906 240.382C319.987 240.422 320.028 240.422 320.055 240.409L320.3 240.354C320.545 240.531 320.967 240.817 321.389 241.089C322.056 241.525 323.022 242.11 323.92 242.409C324.383 242.559 325.866 243.049 327.104 242.749C328.084 242.518 328.329 241.702 328.139 241.266L328.152 241.28Z" fill="#3C3C82"/>
<path d="M318.626 234.707C318.626 234.707 317.687 235.102 317.619 238.164C317.619 238.164 317.633 238.667 317.959 238.939C318.286 239.198 319.402 239.484 320.164 239.946C320.94 240.409 322.899 241.947 324.777 242.396C326.655 242.845 327.757 242.355 328.098 241.974C328.438 241.593 328.261 240.763 327.553 240.273C326.846 239.783 323.743 236.83 323.267 236.177C322.654 235.319 321.797 234.775 321.715 234.625C321.634 234.489 319.293 235.034 318.626 234.707Z" fill="white"/>
<path d="M318.449 232.053C318.449 232.053 318.681 234.394 318.613 235.047C318.545 235.7 321.321 236.081 322.069 235.224C322.069 235.224 322.192 233.727 322.219 232.706" fill="#F2CFA4"/>
<path d="M317.225 187.798C317.225 187.798 315.483 190.724 315.537 193.881C315.592 197.011 316.041 197.787 316.694 200.645C317.347 203.502 317.47 211.273 317.088 212.375C316.694 213.477 316.626 217.097 316.83 220.595C317.02 223.983 317.987 233.741 317.987 233.741C317.987 233.741 319.769 235.21 322.682 233.809C322.682 233.809 323.376 216.893 324.287 214.294C326.301 208.578 326.492 197.297 327.281 195.092C328.057 192.888 327.934 189.758 327.934 188.261C327.934 186.764 317.238 187.812 317.238 187.812L317.225 187.798Z" fill="#3C3C82"/>
<path d="M333.677 182.082C333.854 183.402 334.017 184.627 334.153 185.702C334.222 186.287 333.909 186.845 333.364 187.09C330.275 188.451 322.096 190.043 319.048 190.03C318.953 190.03 318.871 190.03 318.79 190.03C316.721 189.948 316.231 189.036 316.136 188.41C316.136 188.206 316.136 188.002 316.15 187.812C316.204 186.941 316.327 186.042 316.585 185.158C316.64 184.927 316.708 184.709 316.762 184.491C316.83 184.233 316.912 183.974 316.98 183.715C317.021 183.579 317.048 183.457 317.075 183.334C317.102 183.212 317.129 183.089 317.157 182.981C317.837 179.646 316.653 176.585 315.524 173.536C315.211 172.692 314.898 171.835 314.625 170.978C314.068 169.154 313.523 167.317 313.074 165.466C313.033 165.289 312.979 165.099 312.938 164.908C312.693 163.983 312.448 162.99 312.516 162.064C312.639 161.765 312.761 161.479 312.897 161.22C313.088 160.812 313.278 160.472 313.455 160.159C313.891 159.438 314.285 158.961 314.571 158.689C314.748 158.526 314.925 158.376 315.102 158.227C315.401 157.982 315.687 157.764 315.973 157.56C316.19 157.396 316.395 157.247 316.599 157.124C316.68 157.07 316.762 157.015 316.844 156.961C316.857 156.961 316.871 156.947 316.884 156.934C316.884 156.934 316.912 156.934 316.925 156.92C316.993 156.879 317.061 156.825 317.129 156.784C317.265 156.689 317.402 156.607 317.538 156.525C317.674 156.444 317.823 156.362 317.973 156.267C318.204 156.131 318.449 155.995 318.735 155.859C319.348 155.559 320.123 155.192 321.239 154.77L321.974 154.498C322.124 154.443 322.287 154.389 322.45 154.348C323.212 154.117 323.988 153.926 324.764 153.763C325.975 153.504 327.2 153.314 328.37 153.083C328.574 153.083 328.778 153.083 328.982 153.096C329.649 153.137 330.588 153.327 331.405 153.504C333.16 153.913 334.63 155.205 335.065 156.947C335.133 157.206 335.174 157.464 335.188 157.737C335.337 160.213 332.589 174.257 333.664 182.096L333.677 182.082Z" fill="white"/>
<path d="M327.485 154.471C327.485 154.471 330.166 155.736 330.656 160.214C331.146 164.691 331.119 173.904 331.201 177.075C331.282 180.246 331.758 190.506 332.017 191.023C332.276 191.541 334.671 190.289 335.936 189.009C335.936 189.009 333.596 180.123 333.636 176.231C333.677 172.353 334.97 162.976 335.215 160.731C335.46 158.485 336.1 154.866 332.725 153.804C329.35 152.743 326.927 152.974 326.927 152.974" fill="#C5FFFD"/>
<path d="M327.649 154.77C327.649 154.77 329.091 156.158 327.934 157.192L327.254 155.736L327.907 155.151" fill="#D5AB80"/>
<path d="M321.838 149.64L322.001 155.274C322.001 155.274 326.233 158.567 327.934 157.206C327.962 156.213 327.948 153.831 327.934 152.443L326.329 152.116L321.838 149.626V149.64Z" fill="#E2B888"/>
<path d="M331.024 145.312C331.024 145.312 331.296 148.034 330.738 150.524C330.18 153.015 330.003 153.573 328.996 154.022C327.989 154.457 327.091 154.512 325.403 153.423C323.716 152.334 322.791 150.579 322.791 150.579C322.791 150.579 322.546 150.742 321.947 150.062C321.008 149 320.817 148.47 320.817 147.027C320.817 145.585 321.185 143.761 322.301 141.883C323.43 139.991 326.873 140.604 328.438 141.407C330.003 142.21 330.711 143.734 331.01 145.34L331.024 145.312Z" fill="#F2CFA4"/>
<path d="M331.513 146.469C331.513 146.469 331.513 146.469 331.486 146.469C330.588 146.877 328.07 146.687 327.118 145.775C326.41 145.72 326.369 146.455 326.369 146.455C326.056 147.789 325.131 147.911 324.682 148.143C324.246 148.401 324.138 149.735 324.138 149.735L323.58 149.68C323.58 149.68 323.58 148.401 323.403 147.748C323.185 147.095 322.124 146.605 321.525 147.544C321.035 148.306 321.484 149.231 321.865 149.912V150.402C321.375 149.966 320.531 148.823 320.327 146.047C320.355 145.054 319.484 144.155 320.477 142.59C321.049 141.706 321.974 141.774 322.137 141.502C323.444 139.284 325.743 138.807 327.54 139.46C328.002 139.624 328.737 139.923 329.186 140.699C329.186 140.699 330.574 140.957 330.915 142.155C333.881 143.761 333.541 145.734 331.541 146.455L331.513 146.469Z" fill="#3434A5"/>
<path d="M319.375 180.79C319.429 181.28 319.456 182.708 319.375 183.389C319.089 185.702 318.64 187.771 319.048 190.016C318.953 190.016 318.871 190.016 318.789 190.016C316.721 189.935 316.231 189.023 316.136 188.397C316.136 188.193 316.136 187.989 316.149 187.798C316.204 186.927 316.326 186.029 316.585 185.144C316.639 184.913 316.707 184.695 316.762 184.478C316.83 184.205 316.911 183.947 316.98 183.702C317.02 183.566 317.048 183.443 317.075 183.321C317.102 183.198 317.129 183.076 317.156 182.967C317.837 179.633 316.653 176.571 315.523 173.523C315.7 171.849 315.891 169.835 315.891 169.631C315.891 169.277 319.415 165.181 319.415 165.181C319.415 165.181 318.504 172.679 319.361 180.803L319.375 180.79Z" fill="#DA9C30"/>
<path d="M325.675 174.489C325.675 175.931 325.675 179.116 325.621 182.382C325.621 182.695 325.621 183.021 325.594 183.334C325.512 187.036 325.308 190.615 324.886 191.608C324.246 193.065 320.354 192.561 317.333 191.581C316.34 191.255 315.401 190.887 314.625 190.52C314.625 190.52 316.544 184.042 316.503 180.926C316.476 179.075 315.741 176.244 314.938 173.645C314.394 171.876 313.822 170.216 313.428 169.032C312.448 166.133 310.801 161.656 314.557 158.39C314.557 158.39 318.041 155.532 321.96 154.457C321.96 154.457 321.892 155.137 322.409 156.566C322.681 157.315 323.062 158.295 323.838 159.479C325.879 162.622 325.662 171.264 325.662 174.475L325.675 174.489Z" fill="#C5FFFD"/>
<path d="M318.966 182.382C318.926 180.354 318.558 177.306 318.613 174.557C318.613 174.013 318.626 173.468 318.64 172.938C318.64 171.89 318.79 170.856 319.075 169.862C320.055 166.324 319.429 164.881 319.429 164.881L317.061 168.773C317.061 168.773 317.061 168.909 317.061 169.141L315.537 170.066C315.537 170.066 315.279 171.658 314.966 173.645C315.768 176.244 316.503 179.075 316.531 180.926C316.571 184.042 314.653 190.52 314.653 190.52C315.428 190.887 316.367 191.255 317.361 191.581C317.592 190.574 318.449 186.859 318.817 184.614C318.912 184.029 319.361 183.552 319.946 183.443C319.946 183.443 319.96 183.443 319.973 183.443C320.708 183.335 324.546 183.335 325.635 183.335C325.635 183.008 325.648 182.695 325.662 182.382H318.994H318.966Z" fill="#90F4EF"/>
<path d="M310.475 170.066C310.475 170.066 308.855 177.768 308.855 178.735C308.855 179.701 311.441 180.177 313.265 179.728C315.088 179.279 316.857 171.998 316.857 171.998" fill="#F2CFA4"/>
<path d="M320.042 163.602C320.042 166.147 318.109 170.311 316.966 173.278C313.972 172.665 312.122 171.822 311.115 171.223C311.999 167.943 313.305 163.67 313.972 161.52C314.204 160.799 314.585 160.159 315.102 159.628C315.143 159.628 315.183 159.628 315.224 159.628C317.102 159.588 320.069 160.867 320.055 163.602H320.042Z" fill="#E9AC38"/>
<path d="M311.917 165.97C311.985 165.412 312.067 164.895 312.135 164.418C312.067 164.895 311.999 165.412 311.917 165.97Z" fill="#CD6158"/>
<path d="M312.503 161.982C312.503 161.982 312.503 162.064 312.489 162.105C312.489 162.105 312.503 162.023 312.516 161.982H312.503Z" fill="#CD6158"/>
<path d="M312.475 162.119C312.475 162.119 312.489 162.023 312.503 161.982C312.503 162.01 312.503 162.064 312.489 162.105L312.475 162.119Z" fill="#CD6158"/>
<path d="M327.921 180.109C327.921 180.109 328.52 180.3 328.479 181.062C328.438 181.661 327.975 183.253 326.492 183.158C324.6 183.035 325.771 180.313 327.023 179.892" fill="#90F4EF"/>
<path d="M330.261 180.653C329.799 180.681 328.601 180.463 328.601 180.463L327.485 182.912C328.03 183.035 328.424 183.77 329.037 183.919C329.649 184.069 330.166 184.11 330.166 184.11C330.166 184.11 329.867 184.396 330.098 184.682C330.33 184.967 331.405 185.131 331.894 185.199C332.384 185.267 332.929 184.818 333.296 184.341C333.664 183.865 333.936 182.586 333.759 182.259C333.582 181.933 332.888 181.239 332.888 181.239C332.003 180.708 331.377 180.599 331.377 180.599C331.377 180.599 330.411 180.626 330.248 180.64L330.261 180.653Z" fill="#F2CFA4"/>
<path d="M335.814 183.28C336.603 183.471 336.889 183.144 336.766 182.994C336.644 182.831 333.201 181.103 332.67 180.885C332.33 180.749 331.949 180.708 331.391 180.613L331.2 180.667C331.2 180.667 331.84 181.307 332.33 182.219L333.936 182.586C333.936 182.586 335.024 183.09 335.814 183.28Z" fill="#F2CFA4"/>
<path d="M350.443 167.78L349.626 167.168C349.626 167.168 349.49 167.099 349.409 167.154L338.25 173.496C337.95 173.672 337.705 173.917 337.542 174.217L329.377 189.526C329.295 189.676 329.35 189.826 329.445 189.907L330.262 190.52L331.377 189.077L340.74 183.756C340.971 183.634 341.148 183.443 341.271 183.212L349.055 168.596L350.443 167.78Z" fill="white"/>
<path d="M350.511 168.038L342.087 183.838C341.965 184.069 341.788 184.26 341.556 184.382L330.643 190.588C330.357 190.751 330.044 190.438 330.194 190.152L338.359 174.843C338.522 174.543 338.767 174.285 339.066 174.121L350.225 167.78C350.402 167.685 350.592 167.875 350.497 168.052L350.511 168.038Z" fill="url(#paint49_linear_180557_183355)"/>
<path d="M346.143 176.231C346.143 176.231 345.136 176.68 344.414 177.102C343.992 177.292 342.781 177.877 342.713 178.327C342.686 178.503 342.795 178.572 342.945 178.585C342.55 178.816 342.196 179.102 342.155 179.334C342.115 179.592 342.346 179.633 342.604 179.592C342.55 179.66 342.523 179.728 342.509 179.783C342.468 180.028 342.672 180.068 342.904 180.041C342.958 180.409 343.761 180.123 343.911 180.068C343.992 180.041 344.55 179.823 344.632 179.796C345.421 179.538 347 176.653 346.156 176.204L346.143 176.231Z" fill="#F2CFA4"/>
<path d="M309.835 173.169C309.835 173.169 308.202 180.205 308.992 181.252C310.529 183.321 328.261 182.899 328.261 182.899L329.84 180.79L314.802 176.789" fill="#F2CFA4"/>
<path d="M312.72 160.935C312.72 160.935 311.169 165.371 309.781 170.488C308.393 175.605 307.195 180.463 308.366 181.974C309.155 182.994 326.492 183.144 326.492 183.144C326.492 183.144 325.716 183.144 326.397 181.293C326.71 180.45 327.485 179.987 327.921 180.109L323.77 178.708L315.741 176.435C315.741 176.435 318.98 169.087 319.797 166.46C320.627 163.834 320.273 161.588 318.545 160.445C316.816 159.302 314.081 158.649 312.707 160.935H312.72Z" fill="#C5FFFD"/>
<path style="mix-blend-mode:hard-light" opacity="0.6" d="M300.636 46.5005V116.054L225.123 69.5534V0L300.636 46.5005Z" fill="url(#paint50_linear_180557_183355)"/>
<path d="M297.329 49.6441V109.848L228.212 67.2944V44.7451C230.471 42.2819 233.22 40.2134 236.377 39.4649C247.768 36.7432 249.441 57.4555 259.498 61.0209C268.235 64.11 282.986 43.9422 297.329 49.6305V49.6441Z" fill="url(#paint51_linear_180557_183355)"/>
<path d="M227.845 5.38916V67.4986L297.697 110.502V48.3922L227.845 5.38916ZM256.246 23.7335L269.35 31.8034V92.1846L256.246 84.1147V23.7335ZM255.511 83.6656L242.406 75.5957V15.2282L255.511 23.298V83.6656ZM270.072 32.2525L283.177 40.3223V100.704L270.072 92.6337V32.2525ZM228.566 6.70919L241.671 14.7791V75.1603L228.566 67.0904V6.70919ZM296.948 109.195L283.898 101.166V40.7714L296.948 48.8005V109.182V109.195Z" fill="url(#paint52_linear_180557_183355)"/>
<path style="mix-blend-mode:hard-light" opacity="0.6" d="M402.195 154.28V227.154L330.534 271.11V198.25L402.195 154.28Z" fill="url(#paint53_linear_180557_183355)"/>
<path d="M399.297 164.514V225.589L399.134 225.684L333.528 265.938V265.135L398.616 225.208V164.922L399.297 164.514Z" fill="url(#paint54_linear_180557_183355)"/>
<path d="M350.17 196.494V249.881L339.039 256.698V203.312L350.17 196.494Z" fill="url(#paint55_linear_180557_183355)"/>
<path d="M365.303 204.156V240.599L354.185 247.417V210.987L365.303 204.156Z" fill="url(#paint56_linear_180557_183355)"/>
<path d="M380.436 187.825V231.318L369.318 238.136V194.643L380.436 187.825Z" fill="url(#paint57_linear_180557_183355)"/>
<path d="M395.554 198.617V222.038L384.45 228.855V205.435L395.554 198.617Z" fill="url(#paint58_linear_180557_183355)"/>
<path style="mix-blend-mode:hard-light" opacity="0.6" d="M447.443 191.881V207.19L432.392 216.431V201.121L447.443 191.881Z" fill="url(#paint59_linear_180557_183355)"/>
<path style="mix-blend-mode:hard-light" opacity="0.6" d="M228.661 243.797V259.107L213.611 268.347V253.038L228.661 243.797Z" fill="url(#paint60_linear_180557_183355)"/>
<path style="mix-blend-mode:hard-light" opacity="0.6" d="M186.38 52.5562V73.1187L166.158 85.5297V64.9672L186.38 52.5562Z" fill="url(#paint61_linear_180557_183355)"/>
<path style="mix-blend-mode:hard-light" opacity="0.6" d="M108.527 123.947V134.194L98.4565 140.372V130.125L108.527 123.947Z" fill="url(#paint62_linear_180557_183355)"/>
<path style="mix-blend-mode:hard-light" opacity="0.6" d="M75.1046 330.824V341.058L65.0208 347.236V337.002L75.1046 330.824Z" fill="url(#paint63_linear_180557_183355)"/>
<path style="mix-blend-mode:hard-light" opacity="0.6" d="M328.37 66.5049V76.7521L318.3 82.9304V72.6832L328.37 66.5049Z" fill="url(#paint64_linear_180557_183355)"/>
<path style="mix-blend-mode:hard-light" opacity="0.6" d="M82.7117 164.786V180.096L67.6472 189.336V174.026L82.7117 164.786Z" fill="url(#paint65_linear_180557_183355)"/>
<path style="mix-blend-mode:hard-light" opacity="0.6" d="M110.69 200.468V271.926L180.964 315.038V243.58L110.69 200.468Z" fill="url(#paint66_linear_180557_183355)"/>
<path d="M121.495 257.978V261.652L170.172 291.509V287.835L121.495 257.978Z" fill="url(#paint67_linear_180557_183355)"/>
<path d="M121.495 264.823V268.497L170.172 298.354V294.694L121.495 264.823Z" fill="url(#paint68_linear_180557_183355)"/>
<path d="M141.99 230.584C141.99 230.584 137.689 234.326 125.374 226.705C125.374 226.705 126.735 251.514 141.99 264.292C157.245 270.361 158.605 247.254 158.605 247.254C146.29 239.647 141.99 230.584 141.99 230.584Z" fill="url(#paint69_linear_180557_183355)"/>
<path d="M228.389 143.298V143.366C228.389 143.666 228.294 143.951 228.104 144.183C227.246 145.176 225.246 145.598 224.824 145.68C224.797 145.68 224.769 145.68 224.756 145.68C223.613 145.857 222.347 145.925 221.789 145.979C221.095 146.047 220.687 146.17 220.687 146.17V146.292C220.469 146.347 219.748 146.523 219.122 146.551C218.523 146.564 217.802 146.483 217.421 146.17C216.999 145.802 216.958 145.34 216.958 145.34V145.04V144.904L218.442 144.795L219.176 144.741L219.857 144.7L220.483 144.659L228.389 143.271V143.298Z" fill="#101049"/>
<path d="M221.953 141.733C221.953 141.733 223.381 142.264 224.416 142.264C225.45 142.264 227.464 142.237 227.981 142.604C228.24 142.781 228.389 142.999 228.389 143.258C228.389 144.646 225.11 145.489 223.15 145.639C221.191 145.789 221.082 145.775 220.143 145.925C219.217 146.075 218.238 146.156 217.652 145.857C216.632 145.353 216.564 143.829 217.19 142.808C217.816 141.801 221.939 141.733 221.939 141.733H221.953Z" fill="#FBFBF9"/>
<path d="M217.68 140.454C217.68 140.454 217.612 142.006 217.584 142.278C217.571 142.55 217.421 142.795 217.462 143.053C217.53 143.448 218.088 144.074 219.816 143.897C221.082 143.761 222.157 142.958 222.334 142.455C222.483 142.033 222.157 141.951 222.089 141.801C221.993 141.543 222.089 139.243 221.912 140.032" fill="#E8CAAF"/>
<path d="M219.612 136.154C219.612 136.154 219.762 136.793 219.558 137.447C219.353 138.1 218.986 138.549 218.551 139.025C218.129 139.502 217.421 140.073 216.931 140.359C216.441 140.645 215.679 141.216 215.57 141.311C215.176 141.679 214.604 142.577 214.604 142.577V142.849C214.604 142.849 214.046 143.543 213.257 143.911C212.672 144.183 211.583 144.401 210.712 144.06C209.8 143.707 209.651 142.808 209.623 142.618C209.596 142.427 209.623 141.706 209.623 141.706" fill="#101049"/>
<path d="M213.57 137.134C213.57 137.134 215.461 136.535 216.536 135.759C218.006 134.698 219.081 134.97 219.449 135.596C219.816 136.235 219.966 138.345 216.836 140.168C215.597 140.889 215.053 141.488 214.672 142.087C214.373 142.536 213.828 143.108 213.202 143.407C212.672 143.666 212.086 143.734 211.569 143.693C209.419 143.516 208.97 141.339 210.018 139.692C211.066 138.045 213.583 137.12 213.583 137.12L213.57 137.134Z" fill="#FBFBF9"/>
<path d="M210.317 138.1L210.236 139.719C210.236 139.719 210.018 140.087 210.1 140.413C210.208 140.849 211.447 141.693 213.148 140.794C215.053 139.787 214.74 139.121 214.754 139.039C214.563 138.345 214.577 138.182 214.577 137.637" fill="#E8CAAF"/>
<path d="M208.603 123.103C208.358 128.275 210.045 138.576 210.045 138.576C210.045 138.576 211.039 140.196 214.863 138.045C214.863 138.045 215.448 122.573 216.101 118.204C216.292 116.911 216.509 115.768 216.809 114.652C217.516 112.08 218.17 109.658 218.346 106.229C218.469 103.779 218.033 98.7848 217.557 94.3892C217.081 89.9528 216.564 86.1152 216.564 86.1152C216.564 86.1152 212.658 86.2377 209.868 83.4888C209.868 83.4888 205.296 89.6807 208.208 96.1992C208.875 97.6961 209.242 99.3155 209.365 100.962C209.528 103.153 209.746 106.161 209.855 108.773C210.032 113.019 210.345 114.231 210.154 114.72C209.964 115.21 208.834 117.932 208.603 123.103Z" fill="#2D166D"/>
<path d="M213.937 99.9958C215.23 103.316 216.591 111.06 216.809 114.639C217.516 112.067 218.17 109.658 218.346 106.215C218.469 103.765 218.033 98.7711 217.557 94.3755C216.087 93.2324 213.447 91.123 213.447 91.123C213.447 91.123 212.645 96.6753 213.951 99.9958H213.937Z" fill="#161143"/>
<path d="M224.933 85.5708C224.933 85.5708 226.593 91.994 226.906 98.7031C227.219 105.412 225.722 115.02 225.409 117.292C225.096 119.565 224.361 123.117 223.722 128.792C223.123 134.126 222.66 140.944 222.66 140.944C222.66 140.944 218.796 143.149 217.285 141.23C217.285 141.23 216.346 126.124 216.781 121.443C217.217 116.762 218.183 116.435 218.061 114.897C217.938 113.359 216.55 101.656 215.815 100.554C215.08 99.4515 211.256 93.5999 214.958 85.843C214.958 85.843 219.204 86.9044 224.933 85.5708Z" fill="#2D166D"/>
<path d="M218.061 68.5876L218.401 68.4379L218.714 68.5468L227.246 55.4418C227.423 55.1832 227.764 55.0879 228.036 55.2376L245.591 64.9269L246.067 64.6956L246.312 65.4441C246.38 65.6074 246.38 65.7843 246.285 65.9476L237.48 79.4745C237.289 79.7739 236.908 79.8691 236.595 79.6922L218.592 69.7444C218.442 69.6627 218.36 69.5266 218.347 69.3769L218.088 68.574L218.061 68.5876Z" fill="#F8FAFF"/>
<path d="M218.292 68.8596L236.296 78.8075C236.595 78.9708 236.99 78.8756 237.18 78.5898L245.985 65.0629C246.148 64.8043 246.067 64.4641 245.795 64.3144L227.75 54.3529C227.478 54.2032 227.137 54.2849 226.961 54.5434L218.115 68.1384C217.952 68.3834 218.033 68.7236 218.292 68.8596Z" fill="url(#paint70_linear_180557_183355)"/>
<path d="M219.136 68.7235L236.037 78.059C236.323 78.2223 236.691 78.127 236.867 77.8548L245.128 65.1717C245.291 64.9267 245.209 64.6001 244.951 64.464L228.022 55.1149C227.763 54.9789 227.437 55.0469 227.287 55.3055L218.986 68.0567C218.836 68.288 218.918 68.601 219.149 68.7371L219.136 68.7235Z" stroke="#F8FAFF" stroke-width="0.15" stroke-miterlimit="10"/>
<path d="M237.779 72.8331C237.779 72.8331 238.174 72.3977 238.255 72.1255C238.337 71.8533 238.391 71.4451 238.718 71.0232C239.058 70.6013 240.011 68.9411 240.215 69.0636C240.405 69.1724 240.61 69.6623 240.446 70.3019C240.297 70.9415 240.024 71.3634 240.011 71.5267C240.011 71.69 241.113 71.7172 241.794 71.4995C242.161 71.377 243.263 70.4789 243.535 70.1795C243.794 70.1795 243.44 72.1391 243.277 72.7379C243.154 73.2278 241.589 74.7928 241.589 74.7928" fill="#E8CAAF"/>
<path d="M219.136 66.1648L221.136 64.2323C221.408 63.9738 221.708 63.7697 222.048 63.62C222.347 63.4839 222.742 63.2934 222.987 63.0892C223.463 62.7082 223.817 61.8372 223.994 61.4698C224.185 61.1024 225.232 60.0953 225.341 59.8232C225.45 59.551 225.409 59.0339 225.042 59.0611C224.742 59.0883 223.177 60.3539 223.096 60.4764L223.858 59.306C223.858 59.306 222.307 59.4421 221.408 59.9184C220.51 60.3947 220.279 61.6603 219.925 61.9597C219.571 62.2727 217.163 64.1507 217.163 64.1507" fill="#E8CAAF"/>
<path d="M223.109 46.3916C223.109 46.3916 223.749 48.7595 222.17 50.2292C220.592 51.6989 221.286 47.004 221.286 47.004" fill="#2D166D"/>
<path d="M213.434 63.8786L218.891 63.2526L219.707 63.5384C219.707 63.5384 219.367 60.5581 219.626 58.2855C219.68 57.8228 220.088 57.4962 220.51 57.6867C221.299 58.0405 221.817 57.9045 221.817 57.9045C222.756 57.2921 222.81 53.3456 222.728 51.454C222.633 49.4671 222.456 47.2626 222.456 47.2626C221.925 46.623 216.986 47.2353 215.353 48.3785C213.706 49.508 213.815 56.1217 213.869 57.3601C213.937 58.5985 213.869 61.5379 213.869 61.5379L213.42 63.8922L213.434 63.8786Z" fill="#E8CAAF"/>
<path d="M210.236 78.6438C210.481 82.0868 208.725 85.4753 208.725 85.4753C208.725 85.4753 212.468 88.4148 218.374 89.2041C222.728 89.7892 225.491 88.0746 225.491 88.0746C225.491 88.0746 224.797 84.618 224.511 81.801C224.416 80.8756 224.361 80.0183 224.389 79.3515C224.443 78.2356 224.729 76.1535 224.987 73.9897C225.341 71.0366 225.668 67.9067 225.287 66.7499C224.633 64.7359 219.666 61.5923 219.666 61.5923C219.666 61.5923 213.72 62.0006 213.856 60.2859C213.856 60.2859 210.644 59.8096 209.161 60.5036C207.677 61.1976 207.433 65.253 207.895 68.6687C208.344 72.0709 209.991 75.2009 210.236 78.6574V78.6438Z" fill="#FBFBF9"/>
<path d="M219.707 70.6011C219.707 70.6011 220.633 75.0375 221.885 78.671C221.885 78.671 222.388 78.6982 223.096 78.671L224.511 81.7873C224.416 80.8619 224.361 80.0046 224.388 79.3378C224.443 78.2219 224.729 76.1398 224.987 73.976L224.756 73.1867L219.68 70.6011H219.707Z" fill="#E8E8E8"/>
<path d="M222.81 76.0176C222.81 76.0176 225.096 80.5901 226.022 81.9918C227.165 83.7337 227.764 84.3869 229.9 82.8355C229.9 82.8355 237.929 75.4733 238.677 75.3917C239.426 75.3236 239.548 75.4461 240.378 75.3236C241.209 75.2011 241.59 74.7929 241.59 74.7929C241.59 74.7929 240.038 72.6291 239.807 71.3091C239.195 71.7037 238.051 72.6563 237.303 73.0918C236.527 73.5545 231.724 76.1129 229.206 77.5554C229.002 77.0927 228.172 74.6432 227.995 74.2077C227.995 74.2213 222.946 76.0993 222.824 76.0312L222.81 76.0176Z" fill="#E8CAAF"/>
<path d="M225.3 66.7363L228.593 74.8879C228.593 74.8879 225.804 77.7865 222.769 77.7865C222.769 77.7865 219.598 71.8123 219.421 69.1042" fill="#FBFBF9"/>
<path d="M213.896 59.2651L213.611 60.2313C213.611 60.2313 213.611 61.2248 214.713 61.6739C216.591 62.4223 219.394 62.0413 220.075 61.8372L219.666 60.5307C219.666 60.5307 215.815 61.0887 213.896 59.2787V59.2651Z" fill="#FBFBF9"/>
<path d="M210.399 49.0726C210.916 45.5343 213.42 42.5268 219.394 43.5339C220.646 43.738 223.409 44.8267 223.123 47.0721C222.851 49.3175 220.415 48.6779 220.415 51.1819C220.415 52.9102 220.646 52.8966 219.979 52.706C218.768 52.3658 218.7 54.5296 218.741 57.1152C218.768 59.4015 219.027 63.0622 220.061 64.355C219.857 64.5999 210.807 62.3137 209.719 61.4564C209.569 59.7145 209.936 52.2298 210.399 49.0726Z" fill="#3434A5"/>
<defs>
<filter id="filter0_d_180557_183355" x="392.576" y="317.633" width="57.3481" height="42.7827" filterUnits="userSpaceOnUse" color-interpolation-filters="sRGB">
<feFlood flood-opacity="0" result="BackgroundImageFix"/>
<feColorMatrix in="SourceAlpha" type="matrix" values="0 0 0 0 0 0 0 0 0 0 0 0 0 0 0 0 0 0 127 0" result="hardAlpha"/>
<feOffset/>
<feGaussianBlur stdDeviation="5"/>
<feColorMatrix type="matrix" values="0 0 0 0 0.670588 0 0 0 0 0.882353 0 0 0 0 1 0 0 0 0.75 0"/>
<feBlend mode="normal" in2="BackgroundImageFix" result="effect1_dropShadow_180557_183355"/>
<feBlend mode="normal" in="SourceGraphic" in2="effect1_dropShadow_180557_183355" result="shape"/>
</filter>
<filter id="filter1_d_180557_183355" x="407.015" y="383.213" width="57.3481" height="42.7827" filterUnits="userSpaceOnUse" color-interpolation-filters="sRGB">
<feFlood flood-opacity="0" result="BackgroundImageFix"/>
<feColorMatrix in="SourceAlpha" type="matrix" values="0 0 0 0 0 0 0 0 0 0 0 0 0 0 0 0 0 0 127 0" result="hardAlpha"/>
<feOffset/>
<feGaussianBlur stdDeviation="5"/>
<feColorMatrix type="matrix" values="0 0 0 0 0.670588 0 0 0 0 0.882353 0 0 0 0 1 0 0 0 0.75 0"/>
<feBlend mode="normal" in2="BackgroundImageFix" result="effect1_dropShadow_180557_183355"/>
<feBlend mode="normal" in="SourceGraphic" in2="effect1_dropShadow_180557_183355" result="shape"/>
</filter>
<filter id="filter2_d_180557_183355" x="289.078" y="402.894" width="39.062" height="31.6113" filterUnits="userSpaceOnUse" color-interpolation-filters="sRGB">
<feFlood flood-opacity="0" result="BackgroundImageFix"/>
<feColorMatrix in="SourceAlpha" type="matrix" values="0 0 0 0 0 0 0 0 0 0 0 0 0 0 0 0 0 0 127 0" result="hardAlpha"/>
<feOffset/>
<feGaussianBlur stdDeviation="5"/>
<feColorMatrix type="matrix" values="0 0 0 0 0.670588 0 0 0 0 0.882353 0 0 0 0 1 0 0 0 0.75 0"/>
<feBlend mode="normal" in2="BackgroundImageFix" result="effect1_dropShadow_180557_183355"/>
<feBlend mode="normal" in="SourceGraphic" in2="effect1_dropShadow_180557_183355" result="shape"/>
</filter>
<filter id="filter3_d_180557_183355" x="14.1719" y="276.823" width="73.2869" height="52.4771" filterUnits="userSpaceOnUse" color-interpolation-filters="sRGB">
<feFlood flood-opacity="0" result="BackgroundImageFix"/>
<feColorMatrix in="SourceAlpha" type="matrix" values="0 0 0 0 0 0 0 0 0 0 0 0 0 0 0 0 0 0 127 0" result="hardAlpha"/>
<feOffset/>
<feGaussianBlur stdDeviation="5"/>
<feColorMatrix type="matrix" values="0 0 0 0 0.670588 0 0 0 0 0.882353 0 0 0 0 1 0 0 0 0.75 0"/>
<feBlend mode="normal" in2="BackgroundImageFix" result="effect1_dropShadow_180557_183355"/>
<feBlend mode="normal" in="SourceGraphic" in2="effect1_dropShadow_180557_183355" result="shape"/>
</filter>
<filter id="filter4_d_180557_183355" x="346.767" y="113.967" width="46.9548" height="36.4019" filterUnits="userSpaceOnUse" color-interpolation-filters="sRGB">
<feFlood flood-opacity="0" result="BackgroundImageFix"/>
<feColorMatrix in="SourceAlpha" type="matrix" values="0 0 0 0 0 0 0 0 0 0 0 0 0 0 0 0 0 0 127 0" result="hardAlpha"/>
<feOffset/>
<feGaussianBlur stdDeviation="5"/>
<feColorMatrix type="matrix" values="0 0 0 0 0.670588 0 0 0 0 0.882353 0 0 0 0 1 0 0 0 0.75 0"/>
<feBlend mode="normal" in2="BackgroundImageFix" result="effect1_dropShadow_180557_183355"/>
<feBlend mode="normal" in="SourceGraphic" in2="effect1_dropShadow_180557_183355" result="shape"/>
</filter>
<filter id="filter5_d_180557_183355" x="55.0173" y="194.469" width="40.3071" height="32.394" filterUnits="userSpaceOnUse" color-interpolation-filters="sRGB">
<feFlood flood-opacity="0" result="BackgroundImageFix"/>
<feColorMatrix in="SourceAlpha" type="matrix" values="0 0 0 0 0 0 0 0 0 0 0 0 0 0 0 0 0 0 127 0" result="hardAlpha"/>
<feOffset/>
<feGaussianBlur stdDeviation="5"/>
<feColorMatrix type="matrix" values="0 0 0 0 0.670588 0 0 0 0 0.882353 0 0 0 0 1 0 0 0 0.75 0"/>
<feBlend mode="normal" in2="BackgroundImageFix" result="effect1_dropShadow_180557_183355"/>
<feBlend mode="normal" in="SourceGraphic" in2="effect1_dropShadow_180557_183355" result="shape"/>
</filter>
<filter id="filter6_d_180557_183355" x="89.6235" y="187.399" width="46.9548" height="36.4019" filterUnits="userSpaceOnUse" color-interpolation-filters="sRGB">
<feFlood flood-opacity="0" result="BackgroundImageFix"/>
<feColorMatrix in="SourceAlpha" type="matrix" values="0 0 0 0 0 0 0 0 0 0 0 0 0 0 0 0 0 0 127 0" result="hardAlpha"/>
<feOffset/>
<feGaussianBlur stdDeviation="5"/>
<feColorMatrix type="matrix" values="0 0 0 0 0.670588 0 0 0 0 0.882353 0 0 0 0 1 0 0 0 0.75 0"/>
<feBlend mode="normal" in2="BackgroundImageFix" result="effect1_dropShadow_180557_183355"/>
<feBlend mode="normal" in="SourceGraphic" in2="effect1_dropShadow_180557_183355" result="shape"/>
</filter>
<filter id="filter7_d_180557_183355" x="125.932" y="78.6479" width="176.736" height="115.566" filterUnits="userSpaceOnUse" color-interpolation-filters="sRGB">
<feFlood flood-opacity="0" result="BackgroundImageFix"/>
<feColorMatrix in="SourceAlpha" type="matrix" values="0 0 0 0 0 0 0 0 0 0 0 0 0 0 0 0 0 0 127 0" result="hardAlpha"/>
<feOffset/>
<feGaussianBlur stdDeviation="5"/>
<feColorMatrix type="matrix" values="0 0 0 0 0.670588 0 0 0 0 0.882353 0 0 0 0 1 0 0 0 0.75 0"/>
<feBlend mode="normal" in2="BackgroundImageFix" result="effect1_dropShadow_180557_183355"/>
<feBlend mode="normal" in="SourceGraphic" in2="effect1_dropShadow_180557_183355" result="shape"/>
</filter>
<filter id="filter8_d_180557_183355" x="238.923" y="174.207" width="176.736" height="115.566" filterUnits="userSpaceOnUse" color-interpolation-filters="sRGB">
<feFlood flood-opacity="0" result="BackgroundImageFix"/>
<feColorMatrix in="SourceAlpha" type="matrix" values="0 0 0 0 0 0 0 0 0 0 0 0 0 0 0 0 0 0 127 0" result="hardAlpha"/>
<feOffset/>
<feGaussianBlur stdDeviation="5"/>
<feColorMatrix type="matrix" values="0 0 0 0 0.670588 0 0 0 0 0.882353 0 0 0 0 1 0 0 0 0.75 0"/>
<feBlend mode="normal" in2="BackgroundImageFix" result="effect1_dropShadow_180557_183355"/>
<feBlend mode="normal" in="SourceGraphic" in2="effect1_dropShadow_180557_183355" result="shape"/>
</filter>
<filter id="filter9_d_180557_183355" x="95.8442" y="241.869" width="176.736" height="115.566" filterUnits="userSpaceOnUse" color-interpolation-filters="sRGB">
<feFlood flood-opacity="0" result="BackgroundImageFix"/>
<feColorMatrix in="SourceAlpha" type="matrix" values="0 0 0 0 0 0 0 0 0 0 0 0 0 0 0 0 0 0 127 0" result="hardAlpha"/>
<feOffset/>
<feGaussianBlur stdDeviation="5"/>
<feColorMatrix type="matrix" values="0 0 0 0 0.670588 0 0 0 0 0.882353 0 0 0 0 1 0 0 0 0.75 0"/>
<feBlend mode="normal" in2="BackgroundImageFix" result="effect1_dropShadow_180557_183355"/>
<feBlend mode="normal" in="SourceGraphic" in2="effect1_dropShadow_180557_183355" result="shape"/>
</filter>
<linearGradient id="paint0_linear_180557_183355" x1="402.563" y1="339.03" x2="439.918" y2="339.03" gradientUnits="userSpaceOnUse">
<stop stop-color="#66BBF2"/>
<stop offset="1" stop-color="#7AF4FD"/>
</linearGradient>
<linearGradient id="paint1_linear_180557_183355" x1="417.001" y1="404.596" x2="454.37" y2="404.596" gradientUnits="userSpaceOnUse">
<stop stop-color="#66BBF2"/>
<stop offset="1" stop-color="#7AF4FD"/>
</linearGradient>
<linearGradient id="paint2_linear_180557_183355" x1="299.071" y1="418.695" x2="318.15" y2="418.695" gradientUnits="userSpaceOnUse">
<stop stop-color="#66BBF2"/>
<stop offset="1" stop-color="#7AF4FD"/>
</linearGradient>
<linearGradient id="paint3_linear_180557_183355" x1="24.1685" y1="303.049" x2="77.4588" y2="303.049" gradientUnits="userSpaceOnUse">
<stop stop-color="#66BBF2"/>
<stop offset="1" stop-color="#7AF4FD"/>
</linearGradient>
<linearGradient id="paint4_linear_180557_183355" x1="356.784" y1="132.166" x2="383.715" y2="132.166" gradientUnits="userSpaceOnUse">
<stop stop-color="#66BBF2"/>
<stop offset="1" stop-color="#7AF4FD"/>
</linearGradient>
<linearGradient id="paint5_linear_180557_183355" x1="65.0207" y1="210.674" x2="85.3244" y2="210.674" gradientUnits="userSpaceOnUse">
<stop stop-color="#66BBF2"/>
<stop offset="1" stop-color="#7AF4FD"/>
</linearGradient>
<linearGradient id="paint6_linear_180557_183355" x1="99.6269" y1="205.584" x2="126.558" y2="205.584" gradientUnits="userSpaceOnUse">
<stop stop-color="#66BBF2"/>
<stop offset="1" stop-color="#7AF4FD"/>
</linearGradient>
<linearGradient id="paint7_linear_180557_183355" x1="227.627" y1="356.408" x2="50.3918" y2="337.779" gradientUnits="userSpaceOnUse">
<stop stop-color="#9AFFFF" stop-opacity="0"/>
<stop offset="1" stop-color="#B0FFFD"/>
</linearGradient>
<linearGradient id="paint8_linear_180557_183355" x1="56.4613" y1="265.054" x2="60.3261" y2="265.054" gradientUnits="userSpaceOnUse">
<stop stop-color="#9AFFFF"/>
<stop offset="1" stop-color="#B0FFFD"/>
</linearGradient>
<linearGradient id="paint9_linear_180557_183355" x1="81.7591" y1="350.924" x2="85.6239" y2="350.924" gradientUnits="userSpaceOnUse">
<stop stop-color="#9AFFFF"/>
<stop offset="1" stop-color="#B0FFFD"/>
</linearGradient>
<linearGradient id="paint10_linear_180557_183355" x1="360.445" y1="219.275" x2="360.445" y2="139.638" gradientUnits="userSpaceOnUse">
<stop stop-color="#9AFFFF" stop-opacity="0"/>
<stop offset="1" stop-color="#B0FFFD"/>
</linearGradient>
<linearGradient id="paint11_linear_180557_183355" x1="336.222" y1="140.06" x2="340.101" y2="140.06" gradientUnits="userSpaceOnUse">
<stop stop-color="#9AFFFF"/>
<stop offset="1" stop-color="#B0FFFD"/>
</linearGradient>
<linearGradient id="paint12_linear_180557_183355" x1="439.999" y1="310.751" x2="439.999" y2="231.114" gradientUnits="userSpaceOnUse">
<stop stop-color="#9AFFFF" stop-opacity="0"/>
<stop offset="1" stop-color="#B0FFFD"/>
</linearGradient>
<linearGradient id="paint13_linear_180557_183355" x1="415.777" y1="231.536" x2="419.655" y2="231.536" gradientUnits="userSpaceOnUse">
<stop stop-color="#9AFFFF"/>
<stop offset="1" stop-color="#B0FFFD"/>
</linearGradient>
<linearGradient id="paint14_linear_180557_183355" x1="210.549" y1="149.354" x2="210.549" y2="228.991" gradientUnits="userSpaceOnUse">
<stop stop-color="#9AFFFF" stop-opacity="0"/>
<stop offset="1" stop-color="#B0FFFD"/>
</linearGradient>
<linearGradient id="paint15_linear_180557_183355" x1="234.772" y1="228.569" x2="230.907" y2="228.569" gradientUnits="userSpaceOnUse">
<stop stop-color="#9AFFFF"/>
<stop offset="1" stop-color="#B0FFFD"/>
</linearGradient>
<linearGradient id="paint16_linear_180557_183355" x1="99.8175" y1="322.55" x2="-0.748399" y2="311.977" gradientUnits="userSpaceOnUse">
<stop stop-color="#B0FFFD"/>
<stop offset="1" stop-color="#9AFFFF" stop-opacity="0"/>
</linearGradient>
<linearGradient id="paint17_linear_180557_183355" x1="99.6271" y1="305.036" x2="103.505" y2="305.036" gradientUnits="userSpaceOnUse">
<stop stop-color="#9AFFFF"/>
<stop offset="1" stop-color="#B0FFFD"/>
</linearGradient>
<linearGradient id="paint18_linear_180557_183355" x1="414.035" y1="228.46" x2="313.469" y2="217.887" gradientUnits="userSpaceOnUse">
<stop stop-color="#B0FFFD"/>
<stop offset="1" stop-color="#9AFFFF" stop-opacity="0"/>
</linearGradient>
<linearGradient id="paint19_linear_180557_183355" x1="413.858" y1="210.946" x2="417.723" y2="210.946" gradientUnits="userSpaceOnUse">
<stop stop-color="#9AFFFF"/>
<stop offset="1" stop-color="#B0FFFD"/>
</linearGradient>
<linearGradient id="paint20_linear_180557_183355" x1="276.998" y1="371.174" x2="377.564" y2="381.747" gradientUnits="userSpaceOnUse">
<stop stop-color="#B0FFFD"/>
<stop offset="1" stop-color="#9AFFFF" stop-opacity="0"/>
</linearGradient>
<linearGradient id="paint21_linear_180557_183355" x1="293.778" y1="345.93" x2="449.866" y2="362.341" gradientUnits="userSpaceOnUse">
<stop stop-color="#9AFFFF" stop-opacity="0"/>
<stop offset="1" stop-color="#B0FFFD"/>
</linearGradient>
<linearGradient id="paint22_linear_180557_183355" x1="414.62" y1="398.051" x2="410.755" y2="398.051" gradientUnits="userSpaceOnUse">
<stop stop-color="#9AFFFF"/>
<stop offset="1" stop-color="#B0FFFD"/>
</linearGradient>
<linearGradient id="paint23_linear_180557_183355" x1="420.444" y1="358.382" x2="424.323" y2="358.382" gradientUnits="userSpaceOnUse">
<stop stop-color="#9AFFFF"/>
<stop offset="1" stop-color="#B0FFFD"/>
</linearGradient>
<linearGradient id="paint24_linear_180557_183355" x1="57.9718" y1="344.923" x2="305.032" y2="370.887" gradientUnits="userSpaceOnUse">
<stop stop-color="#9AFFFF" stop-opacity="0"/>
<stop offset="1" stop-color="#B0FFFD"/>
</linearGradient>
<linearGradient id="paint25_linear_180557_183355" x1="267.5" y1="428.398" x2="263.621" y2="428.398" gradientUnits="userSpaceOnUse">
<stop stop-color="#9AFFFF"/>
<stop offset="1" stop-color="#B0FFFD"/>
</linearGradient>
<linearGradient id="paint26_linear_180557_183355" x1="273.324" y1="388.729" x2="277.189" y2="388.729" gradientUnits="userSpaceOnUse">
<stop stop-color="#9AFFFF"/>
<stop offset="1" stop-color="#B0FFFD"/>
</linearGradient>
<linearGradient id="paint27_linear_180557_183355" x1="434.924" y1="414.122" x2="226.539" y2="392.213" gradientUnits="userSpaceOnUse">
<stop stop-color="#9AFFFF" stop-opacity="0"/>
<stop offset="1" stop-color="#B0FFFD"/>
</linearGradient>
<linearGradient id="paint28_linear_180557_183355" x1="223.463" y1="405.154" x2="227.328" y2="405.154" gradientUnits="userSpaceOnUse">
<stop stop-color="#9AFFFF"/>
<stop offset="1" stop-color="#B0FFFD"/>
</linearGradient>
<linearGradient id="paint29_linear_180557_183355" x1="-nan" y1="-nan" x2="-nan" y2="-nan" gradientUnits="userSpaceOnUse">
<stop stop-color="#9AFFFF" stop-opacity="0"/>
<stop offset="1" stop-color="#B0FFFD"/>
</linearGradient>
<linearGradient id="paint30_linear_180557_183355" x1="-nan" y1="-nan" x2="-nan" y2="-nan" gradientUnits="userSpaceOnUse">
<stop stop-color="#9AFFFF" stop-opacity="0"/>
<stop offset="1" stop-color="#B0FFFD"/>
</linearGradient>
<linearGradient id="paint31_linear_180557_183355" x1="-nan" y1="-nan" x2="-nan" y2="-nan" gradientUnits="userSpaceOnUse">
<stop stop-color="#9AFFFF" stop-opacity="0"/>
<stop offset="1" stop-color="#B0FFFD"/>
</linearGradient>
<linearGradient id="paint32_linear_180557_183355" x1="-nan" y1="-nan" x2="-nan" y2="-nan" gradientUnits="userSpaceOnUse">
<stop stop-color="#9AFFFF" stop-opacity="0"/>
<stop offset="1" stop-color="#B0FFFD"/>
</linearGradient>
<linearGradient id="paint33_linear_180557_183355" x1="-nan" y1="-nan" x2="-nan" y2="-nan" gradientUnits="userSpaceOnUse">
<stop stop-color="#9AFFFF" stop-opacity="0"/>
<stop offset="1" stop-color="#B0FFFD"/>
</linearGradient>
<linearGradient id="paint34_linear_180557_183355" x1="-nan" y1="-nan" x2="-nan" y2="-nan" gradientUnits="userSpaceOnUse">
<stop stop-color="#9AFFFF" stop-opacity="0"/>
<stop offset="1" stop-color="#B0FFFD"/>
</linearGradient>
<linearGradient id="paint35_linear_180557_183355" x1="-nan" y1="-nan" x2="-nan" y2="-nan" gradientUnits="userSpaceOnUse">
<stop stop-color="#9AFFFF" stop-opacity="0"/>
<stop offset="1" stop-color="#B0FFFD"/>
</linearGradient>
<linearGradient id="paint36_linear_180557_183355" x1="-nan" y1="-nan" x2="-nan" y2="-nan" gradientUnits="userSpaceOnUse">
<stop stop-color="#9AFFFF" stop-opacity="0"/>
<stop offset="1" stop-color="#B0FFFD"/>
</linearGradient>
<linearGradient id="paint37_linear_180557_183355" x1="-nan" y1="-nan" x2="-nan" y2="-nan" gradientUnits="userSpaceOnUse">
<stop stop-color="#9AFFFF" stop-opacity="0"/>
<stop offset="1" stop-color="#B0FFFD"/>
</linearGradient>
<linearGradient id="paint38_linear_180557_183355" x1="-nan" y1="-nan" x2="-nan" y2="-nan" gradientUnits="userSpaceOnUse">
<stop stop-color="#9AFFFF" stop-opacity="0"/>
<stop offset="1" stop-color="#B0FFFD"/>
</linearGradient>
<linearGradient id="paint39_linear_180557_183355" x1="-nan" y1="-nan" x2="-nan" y2="-nan" gradientUnits="userSpaceOnUse">
<stop stop-color="#9AFFFF" stop-opacity="0"/>
<stop offset="1" stop-color="#B0FFFD"/>
</linearGradient>
<linearGradient id="paint40_linear_180557_183355" x1="186.353" y1="304.832" x2="242.012" y2="226.842" gradientUnits="userSpaceOnUse">
<stop stop-color="#5082C1"/>
<stop offset="0.17" stop-color="#5790C8"/>
<stop offset="0.49" stop-color="#6CB7DB"/>
<stop offset="0.94" stop-color="#8CF5FA"/>
<stop offset="1" stop-color="#92FFFF"/>
</linearGradient>
<linearGradient id="paint41_linear_180557_183355" x1="137.091" y1="218.377" x2="288.824" y2="218.377" gradientUnits="userSpaceOnUse">
<stop stop-color="#0061D6"/>
<stop offset="0.14" stop-color="#0D6FD9"/>
<stop offset="0.41" stop-color="#3196E3"/>
<stop offset="0.77" stop-color="#6AD4F3"/>
<stop offset="1" stop-color="#92FFFF"/>
</linearGradient>
<linearGradient id="paint42_linear_180557_183355" x1="135.934" y1="136.44" x2="292.675" y2="136.44" gradientUnits="userSpaceOnUse">
<stop stop-color="#66BBF2"/>
<stop offset="1" stop-color="#7AF4FD"/>
</linearGradient>
<linearGradient id="paint43_linear_180557_183355" x1="299.343" y1="366.941" x2="355.003" y2="288.951" gradientUnits="userSpaceOnUse">
<stop stop-color="#5082C1"/>
<stop offset="0.17" stop-color="#5790C8"/>
<stop offset="0.49" stop-color="#6CB7DB"/>
<stop offset="0.94" stop-color="#8CF5FA"/>
<stop offset="1" stop-color="#92FFFF"/>
</linearGradient>
<linearGradient id="paint44_linear_180557_183355" x1="250.081" y1="297.211" x2="401.814" y2="297.211" gradientUnits="userSpaceOnUse">
<stop stop-color="#004AD6"/>
<stop offset="0.12" stop-color="#0B58D9"/>
<stop offset="0.36" stop-color="#2B7FE2"/>
<stop offset="0.69" stop-color="#5DBDF0"/>
<stop offset="1" stop-color="#92FFFF"/>
</linearGradient>
<linearGradient id="paint45_linear_180557_183355" x1="248.924" y1="231.999" x2="405.652" y2="231.999" gradientUnits="userSpaceOnUse">
<stop stop-color="#66BBF2"/>
<stop offset="1" stop-color="#7AF4FD"/>
</linearGradient>
<linearGradient id="paint46_linear_180557_183355" x1="156.265" y1="394.989" x2="211.924" y2="316.999" gradientUnits="userSpaceOnUse">
<stop stop-color="#5082C1"/>
<stop offset="0.17" stop-color="#5790C8"/>
<stop offset="0.49" stop-color="#6CB7DB"/>
<stop offset="0.94" stop-color="#8CF5FA"/>
<stop offset="1" stop-color="#92FFFF"/>
</linearGradient>
<linearGradient id="paint47_linear_180557_183355" x1="107.003" y1="343.793" x2="258.736" y2="343.793" gradientUnits="userSpaceOnUse">
<stop stop-color="#0061D6"/>
<stop offset="0.14" stop-color="#0D6FD9"/>
<stop offset="0.41" stop-color="#3196E3"/>
<stop offset="0.77" stop-color="#6AD4F3"/>
<stop offset="1" stop-color="#92FFFF"/>
</linearGradient>
<linearGradient id="paint48_linear_180557_183355" x1="105.846" y1="299.661" x2="262.587" y2="299.661" gradientUnits="userSpaceOnUse">
<stop stop-color="#66BBF2"/>
<stop offset="1" stop-color="#7AF4FD"/>
</linearGradient>
<linearGradient id="paint49_linear_180557_183355" x1="330.166" y1="179.184" x2="350.538" y2="179.184" gradientUnits="userSpaceOnUse">
<stop stop-color="#66BBF2"/>
<stop offset="1" stop-color="#7AF4FD"/>
</linearGradient>
<linearGradient id="paint50_linear_180557_183355" x1="225.776" y1="58.0269" x2="329.159" y2="58.0269" gradientUnits="userSpaceOnUse">
<stop stop-color="#02FFFA"/>
<stop offset="1" stop-color="#D8FFFA" stop-opacity="0"/>
</linearGradient>
<linearGradient id="paint51_linear_180557_183355" x1="228.811" y1="74.5342" x2="323.444" y2="74.5342" gradientUnits="userSpaceOnUse">
<stop stop-color="#02FFFA"/>
<stop offset="1" stop-color="#D8FFFA"/>
</linearGradient>
<linearGradient id="paint52_linear_180557_183355" x1="227.845" y1="57.9454" x2="297.697" y2="57.9454" gradientUnits="userSpaceOnUse">
<stop stop-color="#02FFFA"/>
<stop offset="1" stop-color="#D8FFFA"/>
</linearGradient>
<linearGradient id="paint53_linear_180557_183355" x1="366.365" y1="160.431" x2="366.365" y2="269.504" gradientUnits="userSpaceOnUse">
<stop stop-color="#D8FFFA" stop-opacity="0.5"/>
<stop offset="1" stop-color="#02FFFA"/>
</linearGradient>
<linearGradient id="paint54_linear_180557_183355" x1="366.405" y1="164.514" x2="366.405" y2="265.938" gradientUnits="userSpaceOnUse">
<stop stop-color="#02FFFA"/>
<stop offset="1" stop-color="#D8FFFA"/>
</linearGradient>
<linearGradient id="paint55_linear_180557_183355" x1="344.605" y1="199.665" x2="344.605" y2="255.882" gradientUnits="userSpaceOnUse">
<stop stop-color="#02FFFA"/>
<stop offset="1" stop-color="#D8FFFA"/>
</linearGradient>
<linearGradient id="paint56_linear_180557_183355" x1="359.737" y1="206.428" x2="359.737" y2="246.819" gradientUnits="userSpaceOnUse">
<stop stop-color="#02FFFA"/>
<stop offset="1" stop-color="#D8FFFA"/>
</linearGradient>
<linearGradient id="paint57_linear_180557_183355" x1="374.87" y1="190.465" x2="374.87" y2="237.442" gradientUnits="userSpaceOnUse">
<stop stop-color="#02FFFA"/>
<stop offset="1" stop-color="#D8FFFA"/>
</linearGradient>
<linearGradient id="paint58_linear_180557_183355" x1="390.002" y1="200.209" x2="390.002" y2="228.447" gradientUnits="userSpaceOnUse">
<stop stop-color="#02FFFA"/>
<stop offset="1" stop-color="#D8FFFA"/>
</linearGradient>
<linearGradient id="paint59_linear_180557_183355" x1="439.918" y1="193.174" x2="439.918" y2="216.09" gradientUnits="userSpaceOnUse">
<stop stop-color="#D8FFFA" stop-opacity="0.5"/>
<stop offset="1" stop-color="#02FFFA"/>
</linearGradient>
<linearGradient id="paint60_linear_180557_183355" x1="221.136" y1="245.09" x2="221.136" y2="268.007" gradientUnits="userSpaceOnUse">
<stop stop-color="#D8FFFA" stop-opacity="0.5"/>
<stop offset="1" stop-color="#02FFFA"/>
</linearGradient>
<linearGradient id="paint61_linear_180557_183355" x1="176.269" y1="54.298" x2="176.269" y2="85.0806" gradientUnits="userSpaceOnUse">
<stop stop-color="#D8FFFA" stop-opacity="0.5"/>
<stop offset="1" stop-color="#02FFFA"/>
</linearGradient>
<linearGradient id="paint62_linear_180557_183355" x1="103.492" y1="124.818" x2="103.492" y2="140.141" gradientUnits="userSpaceOnUse">
<stop stop-color="#D8FFFA" stop-opacity="0.5"/>
<stop offset="1" stop-color="#02FFFA"/>
</linearGradient>
<linearGradient id="paint63_linear_180557_183355" x1="70.0558" y1="331.682" x2="70.0558" y2="347.018" gradientUnits="userSpaceOnUse">
<stop stop-color="#D8FFFA" stop-opacity="0.5"/>
<stop offset="1" stop-color="#02FFFA"/>
</linearGradient>
<linearGradient id="paint64_linear_180557_183355" x1="323.335" y1="67.3622" x2="323.335" y2="82.6991" gradientUnits="userSpaceOnUse">
<stop stop-color="#D8FFFA" stop-opacity="0.5"/>
<stop offset="1" stop-color="#02FFFA"/>
</linearGradient>
<linearGradient id="paint65_linear_180557_183355" x1="75.1726" y1="166.079" x2="75.1726" y2="188.996" gradientUnits="userSpaceOnUse">
<stop stop-color="#D8FFFA" stop-opacity="0.5"/>
<stop offset="1" stop-color="#02FFFA"/>
</linearGradient>
<linearGradient id="paint66_linear_180557_183355" x1="145.827" y1="206.496" x2="145.827" y2="313.46" gradientUnits="userSpaceOnUse">
<stop stop-color="#D8FFFA" stop-opacity="0.5"/>
<stop offset="1" stop-color="#02FFFA"/>
</linearGradient>
<linearGradient id="paint67_linear_180557_183355" x1="145.827" y1="259.747" x2="145.827" y2="291.046" gradientUnits="userSpaceOnUse">
<stop stop-color="#02FFFA"/>
<stop offset="1" stop-color="#D8FFFA"/>
</linearGradient>
<linearGradient id="paint68_linear_180557_183355" x1="145.827" y1="266.592" x2="145.827" y2="297.892" gradientUnits="userSpaceOnUse">
<stop stop-color="#02FFFA"/>
<stop offset="1" stop-color="#D8FFFA"/>
</linearGradient>
<linearGradient id="paint69_linear_180557_183355" x1="159.422" y1="268.252" x2="119.508" y2="216.54" gradientUnits="userSpaceOnUse">
<stop stop-color="#02FFFA"/>
<stop offset="1" stop-color="#D8FFFA"/>
</linearGradient>
<linearGradient id="paint70_linear_180557_183355" x1="241.658" y1="71.8127" x2="222.429" y2="61.3616" gradientUnits="userSpaceOnUse">
<stop stop-color="#3660CD"/>
<stop offset="0.75" stop-color="#62ADEF"/>
<stop offset="1" stop-color="#72C9FC"/>
</linearGradient>
</defs>
</svg>
