<svg width="346" height="367" viewBox="0 0 346 367" fill="none" xmlns="http://www.w3.org/2000/svg">
<g opacity="0.6">
<path style="mix-blend-mode:screen" opacity="0.5" d="M186.207 109.115L149.25 130.823L112.293 109.305V193.456L149.238 214.998V215.009H149.25H149.262V214.998L186.207 193.29V109.115Z" fill="url(#paint0_linear_180557_183816)"/>
<path style="mix-blend-mode:screen" opacity="0.5" d="M175.795 121.58L149.25 137.173L122.705 121.71V199.534L149.238 214.997V215.009H149.25V214.997L175.795 199.416V121.58Z" fill="url(#paint1_linear_180557_183816)"/>
<path d="M149.262 96.6732V134.27L186.231 112.551V74.9541L149.262 96.6732Z" fill="url(#paint2_linear_180557_183816)"/>
<path d="M149.286 96.6736V134.27L112.328 112.717V75.144L149.286 96.6736Z" fill="url(#paint3_linear_180557_183816)"/>
<path d="M112.329 75.1437L149.286 96.6733L186.231 74.9541L149.238 53.4009L112.329 75.1437Z" fill="url(#paint4_linear_180557_183816)"/>
<path style="mix-blend-mode:color-dodge" d="M150.103 96.0217C149.594 96.3179 148.966 96.3179 148.468 96.0217L112.814 75.2505L112.328 75.5349L148.468 96.8867C148.978 97.1829 149.605 97.1829 150.103 96.8867L186.231 75.3571L185.745 75.0728L150.103 96.0217Z" fill="url(#paint5_radial_180557_183816)"/>
</g>
<g opacity="0.6">
<path style="mix-blend-mode:screen" opacity="0.5" d="M74.2342 83.5454L37.2652 105.253L0.319824 83.735V257.109L37.2652 278.65V278.662H37.277V278.65L74.2342 256.955V83.5454Z" fill="url(#paint6_linear_180557_183816)"/>
<path style="mix-blend-mode:screen" opacity="0.5" d="M63.8224 96.0103L37.2772 111.603L10.7319 96.1406V263.187L37.2653 278.662H37.2772L63.8224 263.069V96.0103Z" fill="url(#paint7_linear_180557_183816)"/>
<path d="M36.9453 71.2694V108.866L73.9144 87.147V49.5503L36.9453 71.2694Z" fill="url(#paint8_linear_180557_183816)"/>
<path d="M36.9572 71.2699V108.867L0 87.3134V49.7285L36.9572 71.2699Z" fill="url(#paint9_linear_180557_183816)"/>
<path d="M0 49.7281L36.9572 71.2695L73.9144 49.5503L36.9098 27.9971L0 49.7281Z" fill="url(#paint10_linear_180557_183816)"/>
<path style="mix-blend-mode:color-dodge" d="M37.7745 70.6056C37.2652 70.9018 36.6374 70.9018 36.1399 70.6056L0.485656 49.8462L0 50.1306L36.1399 71.4824C36.6492 71.7786 37.277 71.7786 37.7745 71.4824L73.9026 49.9528L73.4169 49.6685L37.7745 70.6174V70.6056Z" fill="url(#paint11_radial_180557_183816)"/>
</g>
<g opacity="0.6">
<path style="mix-blend-mode:screen" opacity="0.5" d="M111.559 161.322L74.6017 183.029L37.6445 161.511V278.828L74.5899 300.369V300.381H74.6017V300.369L111.559 278.662V161.322Z" fill="url(#paint12_linear_180557_183816)"/>
<path style="mix-blend-mode:screen" opacity="0.5" d="M101.147 173.787L74.6016 189.38L48.0564 173.917V284.906L74.5898 300.369V300.381H74.6016V300.369L101.147 284.788V173.787Z" fill="url(#paint13_linear_180557_183816)"/>
<path d="M74.4832 149.259V186.856L111.452 165.137V127.54L74.4832 149.259Z" fill="url(#paint14_linear_180557_183816)"/>
<path d="M74.495 149.26V186.856L37.5378 165.303V127.73L74.495 149.26Z" fill="url(#paint15_linear_180557_183816)"/>
<path d="M37.5378 127.73L74.495 149.26L111.452 127.541L74.4477 105.987L37.5378 127.73Z" fill="url(#paint16_linear_180557_183816)"/>
<path style="mix-blend-mode:color-dodge" d="M75.3124 148.596C74.803 148.892 74.1752 148.892 73.6777 148.596L38.0235 127.825L37.5378 128.109L73.6777 149.461C74.1871 149.757 74.8149 149.757 75.3124 149.461L111.44 127.931L110.955 127.647L75.3124 148.596Z" fill="url(#paint17_radial_180557_183816)"/>
</g>
<g opacity="0.6">
<path style="mix-blend-mode:screen" opacity="0.5" d="M73.9144 232.795L36.9454 254.503L0 232.973V300.856L36.9454 322.397V322.409V322.397L36.9572 322.409V322.397L73.9144 300.69V232.795Z" fill="url(#paint18_linear_180557_183816)"/>
<path style="mix-blend-mode:screen" opacity="0.5" d="M63.5023 245.248L36.9571 260.841L10.4119 245.39V306.922L36.9452 322.397V322.408L36.9571 322.397V322.408V322.397L63.5023 306.803V245.248Z" fill="url(#paint19_linear_180557_183816)"/>
<path d="M36.9453 220.187V257.784L73.9144 236.065V198.468L36.9453 220.187Z" fill="url(#paint20_linear_180557_183816)"/>
<path d="M36.9572 220.188V257.785L0 236.231V198.658L36.9572 220.188Z" fill="url(#paint21_linear_180557_183816)"/>
<path d="M0 198.658L36.9572 220.187L73.9144 198.468L36.9098 176.915L0 198.658Z" fill="url(#paint22_linear_180557_183816)"/>
<path style="mix-blend-mode:color-dodge" d="M37.7745 219.536C37.2652 219.832 36.6374 219.832 36.1399 219.536L0.485656 198.765L0 199.049L36.1399 220.401C36.6492 220.697 37.277 220.697 37.7745 220.401L73.9026 198.871L73.4169 198.587L37.7745 219.536Z" fill="url(#paint23_radial_180557_183816)"/>
</g>
<g opacity="0.95">
<path d="M257.326 77.3125L296.321 99.8611L257.314 122.398L218.32 99.8492L257.326 77.3125Z" fill="url(#paint24_linear_180557_183816)"/>
<path style="mix-blend-mode:color-dodge" d="M257.504 120.845L296.321 99.861L257.314 122.398L218.32 99.8491L257.504 120.845Z" fill="url(#paint25_radial_180557_183816)"/>
<path d="M296.344 216.076L257.326 238.612V122.386L296.344 99.8491V216.076Z" fill="url(#paint26_linear_180557_183816)"/>
<path d="M257.338 238.612L218.32 216.076V99.8491L257.338 122.386V238.612Z" fill="url(#paint27_linear_180557_183816)"/>
</g>
<g opacity="0.95">
<path d="M211.971 122.137L250.965 144.686L211.971 167.211L172.976 144.662L211.971 122.137Z" fill="url(#paint28_linear_180557_183816)"/>
<path style="mix-blend-mode:color-dodge" d="M212.16 165.67L250.965 144.686L211.971 167.211L172.976 144.662L212.16 165.67Z" fill="url(#paint29_radial_180557_183816)"/>
<path d="M251.001 242.463L211.983 265V167.199L251.001 144.662V242.463Z" fill="url(#paint30_linear_180557_183816)"/>
<path d="M211.995 265L172.976 242.463V144.662L211.995 167.199V265Z" fill="url(#paint31_linear_180557_183816)"/>
</g>
<g opacity="0.95">
<path d="M166.994 167.436L205.989 189.984L166.983 212.509L127.988 189.972L166.994 167.436Z" fill="url(#paint32_linear_180557_183816)"/>
<path style="mix-blend-mode:color-dodge" d="M167.184 210.969L205.989 189.984L166.983 212.509L127.988 189.972L167.184 210.969Z" fill="url(#paint33_radial_180557_183816)"/>
<path d="M206.013 268.851L166.994 291.387V212.497L206.013 189.972V268.851Z" fill="url(#paint34_linear_180557_183816)"/>
<path d="M167.006 291.387L127.988 268.851V189.972L167.006 212.497V291.387Z" fill="url(#paint35_linear_180557_183816)"/>
</g>
<g opacity="0.95">
<path d="M121.639 212.249L160.633 234.797L121.639 257.334L82.6443 234.785L121.639 212.249Z" fill="url(#paint36_linear_180557_183816)"/>
<path style="mix-blend-mode:color-dodge" d="M121.828 255.782L160.633 234.797L121.639 257.334L82.6443 234.785L121.828 255.782Z" fill="url(#paint37_radial_180557_183816)"/>
<path d="M160.669 295.239L121.651 317.763V257.322L160.669 234.785V295.239Z" fill="url(#paint38_linear_180557_183816)"/>
<path d="M121.663 317.763L82.6443 295.239V234.785L121.663 257.322V317.763Z" fill="url(#paint39_linear_180557_183816)"/>
</g>
<g opacity="0.95">
<path d="M75.5727 257.049L114.567 279.598L75.5727 302.135L36.5781 279.586L75.5727 257.049Z" fill="url(#paint40_linear_180557_183816)"/>
<path style="mix-blend-mode:color-dodge" d="M75.7622 300.582L114.567 279.598L75.5727 302.135L36.5781 279.586L75.7622 300.582Z" fill="url(#paint41_radial_180557_183816)"/>
<path d="M114.603 321.982L75.5845 344.518V302.123L114.603 279.586V321.982Z" fill="url(#paint42_linear_180557_183816)"/>
<path d="M75.5964 344.518L36.5781 321.982V279.586L75.5964 302.123V344.518Z" fill="url(#paint43_linear_180557_183816)"/>
</g>
<path style="mix-blend-mode:multiply" d="M69.437 280.356C73.8553 283.425 80.8796 278.674 84.6108 276.624C88.3421 274.574 97.8538 270.237 97.8538 270.237L89.42 264.336C89.42 264.336 62.6852 275.664 69.4252 280.356H69.437Z" fill="url(#paint44_linear_180557_183816)"/>
<path style="mix-blend-mode:multiply" d="M106.773 245.177C114.722 245.662 105.328 249.158 104.843 254.454C104.357 259.751 104.475 264.088 100.863 264.088C97.2498 264.088 98.8133 251.374 100.922 246.907C102.426 243.719 105.245 245.07 106.762 245.165L106.773 245.177Z" fill="url(#paint45_linear_180557_183816)"/>
<path d="M94.1105 192.65C94.1105 192.65 91.7415 191.015 89.2421 192.935C86.7546 194.854 83.3669 201.252 81.6612 202.888C79.9555 204.523 79.2921 206.004 78.2734 209.108C77.2547 212.225 75.7267 218.327 74.9331 219.18C74.1394 220.033 72.8483 221.479 72.4574 222.166C72.0665 222.841 71.5572 225.069 71.7467 225.59C71.9954 226.313 72.3389 225.294 72.4692 224.749C72.5759 224.299 72.9667 222.865 73.026 223.043C73.0852 223.209 72.7298 224.121 72.564 224.678C72.1731 225.981 72.2916 227.249 72.6114 227.581C72.9194 227.924 73.0378 226.408 73.3932 225.128C73.7485 223.86 73.9618 223.635 74.0802 223.635C74.1987 223.635 73.6301 225.152 73.3813 226.017C73.251 226.467 73.2037 227 73.1918 227.759C73.1918 228.339 73.7012 229.003 73.9025 227.96C74.1513 226.645 74.1631 226.621 74.3053 226.123C74.4474 225.614 74.9923 224.133 75.1581 224.216C75.324 224.299 74.9331 225.306 74.7317 226.005C74.5303 226.716 74.4119 227.202 74.329 228.031C74.2697 228.754 74.8383 229.429 75.0397 228.28C75.2529 227.071 75.4661 226.657 75.6319 226.029C75.7978 225.401 76.3663 224.548 76.7335 224.488C77.1007 224.429 76.8757 224.773 76.852 225.507C76.8283 226.242 77.4206 227.119 77.7048 227.095C77.9891 227.071 77.8707 226.36 77.8233 225.709C77.7641 225.057 78.3563 223.979 78.2734 222.983C78.1905 221.988 77.9654 221.348 77.9891 221.005C78.0128 220.661 78.9486 217.758 80.4529 214.417C81.9455 211.075 83.1418 207.627 83.201 207.26C83.2603 206.893 89.0763 201.43 89.0763 201.43L103.018 204.961C103.018 204.961 105.589 200.482 107.958 199.38C110.054 198.409 115.633 197.615 116.842 197.271C118.062 196.928 120.999 196.406 121.852 194.961C122.705 193.515 127.443 181.998 127.751 181.263C128.059 180.529 130.535 177.815 130.807 177.27C131.47 175.955 131.151 174.438 130.973 173.668C130.724 172.566 129.848 171.583 128.936 171.464C128.035 171.346 127.467 173.49 127.1 174.367C126.732 175.244 125.654 176.026 125.654 175.232C125.654 174.438 125.595 173.17 125.287 172.91C124.979 172.661 124.612 173.218 124.612 173.952C124.612 174.687 124.328 176.796 124.553 177.72C124.778 178.657 125.038 179.723 124.778 180.375C124.529 181.026 122.184 184.889 121.106 187.093C120.028 189.297 118.417 192.129 118.216 192.389C118.014 192.638 114.319 193.326 112.506 193.468C110.694 193.61 105.47 194.013 103.516 194.487C102.059 194.842 101.111 195.304 101.455 193.954C101.798 192.591 102.722 191.524 103.599 191.382C104.475 191.24 104.984 190.588 105.411 189.238C105.837 187.887 106.536 183.467 105.92 181.631C105.292 179.794 101.312 176.938 97.6641 179.344C94.0158 181.749 94.075 185.091 94.9516 187.152C95.8281 189.214 96.4559 191.738 95.9939 192.52C95.5438 193.314 95.3188 193.112 94.1224 192.662L94.1105 192.65Z" fill="url(#paint46_radial_180557_183816)"/>
<path d="M96.527 200.755L90.8768 197.307C90.8768 197.307 83.9947 204.535 83.0826 205.376C82.1824 206.217 81.2703 209.949 80.9386 210.459C80.607 210.968 79.1263 215.424 78.6288 216.952C78.1313 218.481 77.9536 220.969 77.9536 220.969C77.9773 220.625 78.9131 217.722 80.4174 214.381C81.9099 211.04 83.1063 207.592 83.1655 207.224C83.2248 206.857 89.0408 201.395 89.0408 201.395L96.065 203.172L96.527 200.743V200.755Z" fill="url(#paint47_radial_180557_183816)"/>
<path d="M120.265 188.135C119.282 190.043 118.145 192.022 118.014 192.188C117.671 192.413 114.295 193.053 112.459 193.195H112.305C110.398 193.361 105.34 193.752 103.421 194.226C103.208 194.273 103.018 194.332 102.829 194.38C102.402 194.498 102.035 194.593 101.81 194.593C101.715 194.593 101.668 194.581 101.656 194.557C101.656 194.557 101.585 194.451 101.692 194.012C101.727 193.87 101.775 193.716 101.822 193.574L95.8401 191.536C95.8519 191.903 95.8282 192.199 95.7335 192.365C95.5084 192.768 95.4136 192.768 95.3307 192.768C95.1649 192.768 94.9043 192.662 94.5371 192.519L94.2528 192.425C94.2528 192.425 93.2223 191.725 91.8364 191.725C90.8532 191.725 89.9293 192.057 89.0764 192.721C87.5839 193.87 85.8071 196.548 84.2436 198.906C83.1775 200.517 82.1588 202.034 81.4836 202.698C79.7305 204.392 79.0316 205.956 78.0248 209.025C77.7168 209.961 77.3733 211.158 77.0061 212.414L80.915 213.978C82.3009 210.814 83.3907 207.674 83.4262 207.331C83.6394 206.94 86.9917 203.717 89.1356 201.714L103.125 205.269L103.232 205.091C103.232 205.091 105.778 200.671 108.041 199.617C109.462 198.953 112.66 198.349 114.769 197.958C115.74 197.78 116.51 197.626 116.889 197.52C117.067 197.472 117.28 197.413 117.517 197.354C119.021 196.975 121.284 196.406 122.065 195.079C122.397 194.51 123.333 192.401 124.352 189.996L120.265 188.135Z" fill="url(#paint48_linear_180557_183816)"/>
<path style="mix-blend-mode:multiply" d="M96.5271 200.755L90.8769 197.307C90.8769 197.307 83.9948 204.535 83.0827 205.376C82.1825 206.217 80.7018 212.343 80.2043 213.789L80.8914 213.954C82.2773 210.791 83.367 207.651 83.4026 207.307C83.6158 206.916 86.968 203.693 89.112 201.691L96.0059 203.444L96.5153 200.743L96.5271 200.755Z" fill="url(#paint49_linear_180557_183816)"/>
<path d="M92.5824 226.408C95.1292 225.614 99.8199 223.801 99.8199 223.801C99.8199 223.801 98.9196 226.68 99.1921 232C99.4764 237.32 99.5474 240.295 99.2513 242.629C98.9552 244.963 98.126 248.399 99.7843 248.506C101.443 248.624 103.03 246.883 104.795 247.001C106.572 247.12 107.815 245.603 106.335 245.153C104.866 244.702 102.983 244.809 103.243 241.906C103.504 239.003 104.901 231.349 105.695 227.273C106.489 223.197 107.353 220.294 106.595 218.481C105.837 216.668 103.847 217.011 102.45 216.94C101.052 216.869 91.8599 216.822 91.8599 216.822L92.5706 226.384L92.5824 226.408Z" fill="url(#paint50_radial_180557_183816)"/>
<path d="M100.933 246.919C100.933 246.919 100.685 235.058 100.768 232.605C100.851 230.152 102.71 221.846 102.71 221.846L92.4404 224.548L92.5826 226.408C95.1293 225.614 99.82 223.801 99.82 223.801C99.82 223.801 98.9198 226.681 99.1922 232.001C99.4765 237.321 99.5476 240.295 99.2515 242.629C98.9553 244.964 98.1262 248.4 99.7845 248.506C100.306 248.542 100.815 248.388 101.336 248.175L100.945 246.907L100.933 246.919Z" fill="url(#paint51_radial_180557_183816)"/>
<path d="M97.1547 220.531C97.1547 220.531 96.8112 231.396 95.1765 237.107C93.5419 242.818 90.7701 248.755 90.0357 250.058C89.3013 251.362 88.0575 253.4 86.648 255.604C85.2384 257.807 78.0009 266.185 77.0888 268.448C76.1768 270.711 75.5608 273.199 75.5608 274.503C75.5608 274.74 77.1836 276.458 76.9467 276.434C75.9043 276.363 71.3676 272.559 71.8295 271.505C72.3981 270.201 72.8482 269.751 73.9735 267.381C75.0988 265 79.3987 254.596 81.3768 252.049C83.355 249.501 85.2265 248.032 85.6174 247.238C86.0083 246.444 86.8019 232.865 86.6361 232.249C86.4703 231.621 85.1081 231.005 85.0015 227.782C84.8949 224.559 88.2234 219.523 88.2234 219.523L97.1547 220.542V220.531Z" fill="url(#paint52_radial_180557_183816)"/>
<path d="M88.2234 219.512C88.2234 219.512 84.883 224.548 85.0015 227.77C85.1199 230.993 86.4703 231.621 86.6361 232.238C86.802 232.866 86.0083 246.433 85.6174 247.226C85.2265 248.02 83.355 249.49 81.3768 252.037C79.3987 254.585 75.0988 264.988 73.9735 267.37C72.8482 269.751 72.3863 270.202 71.8295 271.505C71.6163 272.003 72.5166 273.128 73.6419 274.171C73.7248 272.512 73.9025 270.735 74.2934 269.657C75.1936 267.168 79.2091 260.225 81.1281 256.954C83.047 253.684 85.8662 248.648 86.5414 247.973C87.2165 247.298 88.5787 243.909 89.3013 237.866C90.0002 232.095 88.4484 226.467 90.3792 219.761L88.2234 219.512Z" fill="url(#paint53_radial_180557_183816)"/>
<path d="M98.6591 245.509C98.6591 245.509 98.0905 246.693 98.4577 247.653C98.8249 248.613 99.8199 249.976 100.069 250.592C100.317 251.22 100.436 251.812 100.436 251.812L101.478 251.836L102.296 251.161C102.296 251.161 101.478 248.589 102.379 248.246C103.279 247.902 105.837 248.874 107.164 248.412C108.633 247.902 110.208 247.002 109.675 245.639C109.142 244.276 107.33 244.336 106.513 244.395C105.695 244.454 104.961 244.62 104.961 244.62C104.961 244.62 105.304 245.615 103.599 246.03C101.893 246.445 98.6473 245.497 98.6473 245.497L98.6591 245.509Z" fill="url(#paint54_linear_180557_183816)"/>
<path d="M72.1259 269.894C72.1259 269.894 70.7637 270.936 70.5742 272.098C70.3728 273.259 70.2899 275.285 70.1477 276.079C70.0056 276.873 69.7805 277.856 69.7805 277.856L70.894 278.247L71.7587 278.081L72.1496 276.067C72.1496 276.067 72.2917 276.92 73.4525 277.797C74.6134 278.674 75.9164 279.183 76.935 278.757C77.9537 278.33 78.7474 276.861 77.7287 276.15C76.71 275.439 75.9519 274.989 75.9519 274.989C75.9519 274.989 75.8098 276.233 75.5255 275.238C75.2412 274.242 74.7318 271.529 74.033 270.83C73.3341 270.131 72.1496 269.882 72.1496 269.882L72.1259 269.894Z" fill="url(#paint55_linear_180557_183816)"/>
<path d="M73.4408 277.797C74.6016 278.674 75.9046 279.183 76.9233 278.757C77.1839 278.65 77.4208 278.473 77.634 278.259C77.0536 278.473 76.5205 278.544 76.1415 278.354C75.3005 277.939 74.5187 277.134 74.3292 276.411C73.9383 274.965 73.8435 273.863 73.2868 273.863C72.8722 273.863 72.3984 275.344 72.1733 276.126C72.2326 276.328 72.4813 277.051 73.4645 277.785L73.4408 277.797Z" fill="url(#paint56_linear_180557_183816)"/>
<path d="M98.8132 216.004L104.653 216.68C104.653 216.68 103.895 217.865 103.042 220.578C102.189 223.292 98.6829 228.446 98.7302 230.14C98.7776 231.835 97.9366 236.065 94.6555 238.873C89.716 243.103 79.2211 243.328 79.2211 243.328C79.2211 243.328 79.0908 227.451 81.9929 220.934C83.7341 217.035 87.7023 214.038 88.105 211.774C88.4959 209.511 88.4012 202.722 88.4012 202.722C88.4012 202.722 90.2017 195.601 91.3862 194.191C92.5707 192.78 94.2172 192.496 94.2172 192.496L95.5794 193.124C95.5794 193.124 92.6418 196.572 94.3949 197.485C96.148 198.385 101.301 194.7 101.301 194.7L101.928 194.759C101.928 194.759 98.4104 199.357 100.448 202.189C102.485 205.02 106.536 200.802 106.536 200.802C106.536 200.802 106.276 205.471 104.866 207.106C103.457 208.741 101.419 209.428 100.625 211.229C99.8319 213.042 98.8369 216.04 98.8369 216.04L98.8132 216.004Z" fill="url(#paint57_linear_180557_183816)"/>
<path d="M102.71 207.035C102.45 208.741 101.396 210.021 101.396 210.021C102.367 208.99 103.776 208.303 104.842 207.071C106.252 205.436 106.513 200.767 106.513 200.767C106.513 200.767 106.086 202.888 104.44 205.341C103.883 206.158 102.746 206.763 102.71 207.035Z" fill="url(#paint58_linear_180557_183816)"/>
<path d="M108.526 247.795C106.998 248.672 103.137 247.878 101.869 247.996C100.602 248.115 101.443 251.729 101.443 251.729L101.49 251.835L102.296 251.16C102.296 251.16 101.478 248.589 102.379 248.245C103.279 247.902 105.838 248.873 107.164 248.411C107.745 248.21 108.337 247.949 108.811 247.617C108.716 247.676 108.633 247.724 108.515 247.795H108.526Z" fill="url(#paint59_linear_180557_183816)"/>
<path d="M104.665 216.68L98.825 216.004C98.825 216.004 97.7708 219.227 97.9366 222.569C98.0788 225.294 98.7066 227.806 98.8487 229.5C99.4055 227.391 102.296 223.007 103.054 220.578C103.907 217.865 104.665 216.68 104.665 216.68Z" fill="url(#paint60_linear_180557_183816)"/>
<path d="M83.8881 227.356C83.6631 220.578 88.2946 215.163 89.1948 212.793C90.0951 210.424 89.6449 204.665 91.5639 199.689L90.5215 195.861C89.4791 198.444 88.4012 202.71 88.4012 202.71C88.4012 202.71 88.5078 209.499 88.105 211.763C87.7141 214.026 83.7341 217.024 81.9929 220.922C79.0908 227.439 79.2211 243.316 79.2211 243.316C79.2211 243.316 81.7678 243.257 84.9424 242.7C84.6462 239.359 84.0421 232.344 83.8763 227.344L83.8881 227.356Z" fill="url(#paint61_linear_180557_183816)"/>
<path d="M102.841 188.053C102.971 189.238 103.895 191.607 102.971 193.894C102.035 196.181 101.585 198.8 101.621 200.245C101.668 202.153 104.108 204.535 104.108 204.535C104.108 204.535 99.607 206.265 93.9805 204.7C87.9631 203.018 86.7549 199.416 87.2642 197.686C87.5367 196.774 91.4219 192.697 92.3932 187.33C93.1513 183.159 94.8807 179.036 99.0384 178.218C103.433 177.353 105.506 179.652 106.075 180.552C106.643 181.453 107.306 182.887 106.288 184.368C105.269 185.849 102.355 183.349 102.864 188.053H102.841Z" fill="url(#paint62_linear_180557_183816)"/>
<path d="M129.86 171.902C130.037 172.4 130.31 173.253 130.369 173.715C130.452 174.391 130.345 175.836 130.345 175.836C130.345 175.836 130.724 174.793 130.653 173.834C130.618 173.301 130.511 172.85 130.404 172.495C130.251 172.27 130.061 172.068 129.86 171.914V171.902Z" fill="url(#paint63_radial_180557_183816)"/>
<path d="M128.485 171.582C128.639 172.044 128.793 172.566 128.829 172.898C128.912 173.573 128.805 175.019 128.805 175.019C128.805 175.019 129.184 173.976 129.113 173.016C129.066 172.388 128.924 171.855 128.793 171.464C128.687 171.464 128.58 171.511 128.485 171.582Z" fill="url(#paint64_radial_180557_183816)"/>
<path d="M127.064 174.367C126.78 175.043 126.081 175.647 125.773 175.54V175.576C126.14 175.813 127.301 175.635 127.597 174.853C127.881 174.106 128.012 172.542 128.024 172.104C127.609 172.779 127.301 173.834 127.064 174.379V174.367Z" fill="url(#paint65_radial_180557_183816)"/>
<path d="M129.564 173.182C129.646 173.858 129.54 175.303 129.54 175.303C129.54 175.303 129.919 174.261 129.848 173.301C129.8 172.614 129.635 172.045 129.492 171.666C129.362 171.595 129.232 171.547 129.102 171.512C129.279 172.021 129.516 172.768 129.564 173.194V173.182Z" fill="url(#paint66_radial_180557_183816)"/>
<g style="mix-blend-mode:multiply">
<path d="M91.41 190.612C89.9057 194.321 87.4655 196.987 87.2523 197.697C86.743 199.427 87.9394 203.03 93.9686 204.712C99.5951 206.276 104.096 204.546 104.096 204.546C92.5827 202.544 90.8059 197.994 91.41 190.612Z" fill="#D1D3D4"/>
</g>
<g style="mix-blend-mode:multiply">
<path d="M102.248 178.147C104.013 179.747 104.345 182.14 103.753 185.055C104.582 184.794 105.707 185.174 106.264 184.356C107.282 182.875 106.619 181.453 106.051 180.541C105.648 179.901 104.475 178.55 102.236 178.135L102.248 178.147Z" fill="#D1D3D4"/>
</g>
<g style="mix-blend-mode:multiply" opacity="0.1">
<path d="M185.248 195.6C179.858 201.774 168.985 201.383 157.424 200.838C150.873 200.529 142.439 197.366 145.863 193.965C152.33 187.555 161.119 190.955 167.575 192.129C174.031 193.313 191.384 188.538 185.248 195.588V195.6Z" fill="black"/>
</g>
<path d="M178.33 191.987C177.762 192.828 175.641 195.245 174.8 196.181C173.817 197.283 173.651 198.847 175.784 199.167C177.916 199.475 180.072 198.397 180.924 197.319C181.777 196.229 181.671 194.949 182.642 194.866C182.808 194.854 183.4 194.617 183.542 194.534C183.898 194.321 184.833 193.444 184.833 193.444C184.833 193.444 184.395 191.738 184.229 191.394C183.838 190.577 183.175 189.676 183.175 189.676L179.242 190.707C179.242 190.707 178.626 191.525 178.307 191.987H178.33Z" fill="#10054D"/>
<path d="M176.151 194.7C175.12 195.767 173.166 198.018 175.878 198.101C178.591 198.196 180.308 196.477 180.841 195.719C181.374 194.961 181.718 194.368 182.381 194.06C183.045 193.764 184.608 192.615 184.608 192.615C184.608 192.615 184.336 191.228 184.158 190.932C183.98 190.636 183.732 189.996 183.732 189.996L178.733 191.11C178.733 191.11 176.956 193.847 176.139 194.688L176.151 194.7Z" fill="url(#paint67_linear_180557_183816)"/>
<path d="M158.596 189.38L159.141 192.484C159.141 192.484 157.613 193.385 156.902 193.598C156.203 193.823 155.054 193.373 154.474 194.107C153.894 194.842 151.536 196.726 149.582 197.117C147.473 197.532 146.005 196.856 145.969 196.252C145.934 195.648 146.478 194.652 148.397 193.408C150.316 192.164 151.939 189.131 151.939 189.131L158.584 189.392L158.596 189.38Z" fill="#10054D"/>
<path d="M158.762 191.37C158.478 191.726 154.959 192.555 154.379 193.29C153.716 194.119 150.435 196.157 148.776 196.442C147.26 196.702 146.099 195.944 146.253 195.363C146.466 194.534 147.84 193.764 149.061 192.84C150.281 191.915 151.584 189.771 151.584 189.771L158.809 189.261L158.774 191.37H158.762Z" fill="url(#paint68_linear_180557_183816)"/>
<path d="M154.403 141.948C154.403 141.948 151.146 148.086 150.293 151.416C149.44 154.757 146.775 163.691 147.189 167.139C147.545 170.066 148.93 172.59 149.594 176.085C150.115 178.858 151.157 187.768 150.553 189.522C150.222 190.494 151.276 190.908 154.403 190.612C156.725 190.387 159.034 191.062 159.034 190.28C159.034 189.498 158.324 179.142 157.589 174.829C156.855 170.516 155.327 166.879 155.327 166.879L162.541 151.736C162.541 151.736 161.143 159.106 160.799 165.326C160.456 171.535 159.331 174.924 160.61 177.246C161.866 179.533 171.081 185.801 173.284 188.029C175.488 190.257 176.21 192.97 176.506 193.207C177.17 193.752 178.97 193.136 180.51 192.78C182.228 192.389 184.194 191.062 184.277 190.754C184.431 190.174 182.938 187.271 181.173 184.984C179.562 182.887 175.097 178.183 173.261 176.701C171.59 175.351 168.7 173.265 168.7 173.265C168.7 173.265 173.024 161.985 173.533 158.11C174.042 154.236 175.748 148.679 175.168 143.785C174.587 138.891 171.093 137.493 171.093 137.493C171.093 137.493 164.851 142.387 161.972 143.003C159.106 143.619 154.403 141.96 154.403 141.96V141.948Z" fill="url(#paint69_linear_180557_183816)"/>
<g style="mix-blend-mode:multiply">
<path d="M155.351 166.867L162.565 151.724L162.186 145.847C162.186 145.847 161.451 146.451 160.077 149.461C158.383 153.193 151.951 164.698 152.425 166.985C152.899 169.272 155.801 173.372 156.903 190.6C158.146 190.671 159.047 190.754 159.047 190.268C159.047 189.486 158.336 179.13 157.601 174.817C156.867 170.504 155.339 166.867 155.339 166.867H155.351Z" fill="#D1D3D4"/>
</g>
<g style="mix-blend-mode:multiply">
<path d="M181.671 192.39C183.009 191.833 184.217 190.991 184.276 190.743C184.43 190.162 182.938 187.271 181.173 184.972C179.562 182.875 175.096 178.159 173.26 176.69C171.59 175.339 168.7 173.254 168.7 173.254C168.7 173.254 173.023 161.973 173.533 158.099C174.042 154.224 175.748 148.667 175.167 143.773C174.883 141.392 173.912 139.851 172.988 138.892L168.131 141.818C168.131 141.818 169.209 149.437 169.091 155.255C168.913 164.947 164.211 172.661 165.537 174.948C166.864 177.235 177.217 180.849 181.659 192.402L181.671 192.39Z" fill="#D1D3D4"/>
</g>
<path d="M127.597 155.456C126.922 156.997 125.939 159.272 125.382 159.852C124.825 160.433 122.409 162.886 122.302 163.952C122.184 165.03 123.179 168.431 123.783 168.964C124.399 169.486 125.039 170.22 125.524 170.126C126.022 170.043 126.484 169.889 126.484 169.889C126.484 169.889 127.443 169.889 127.964 169.652C128.486 169.415 128.486 168.87 128.166 168.81C127.846 168.751 127.266 168.668 126.851 168.467C126.436 168.265 125.536 166.405 125.536 166.405L125.773 166.085C125.773 166.085 126.211 167.922 126.851 168.04C127.491 168.159 127.112 166.239 127.147 165.943C127.171 165.647 127.668 162.187 128.083 161.606C128.486 161.026 133.555 154.449 135.356 150.8C137.156 147.15 127.585 155.456 127.585 155.456H127.597Z" fill="url(#paint70_radial_180557_183816)"/>
<path d="M125.572 158.952L129.03 160.777L130.274 159.26C130.274 159.26 134.669 154.224 136.339 150.421C138.009 146.617 143.008 135.42 143.008 135.42C143.008 135.42 146.147 138.489 149.061 139.958C151.975 141.427 153.266 142.02 153.455 142.6C153.645 143.181 153.361 143.821 153.361 143.821C153.361 143.821 159.2 147.044 163.157 145.859C170.193 143.75 173.047 138.181 173.047 138.181C173.047 138.181 168.025 132.28 165.62 129.211C163.216 126.142 162.244 125.016 157.98 123.891C153.716 122.765 142.617 120.431 139.194 124.898C135.77 129.365 135.735 133.477 134.728 137.209C133.721 140.941 133.33 143.844 132.205 145.326C131.08 146.807 126.886 154.603 126.543 155.729C126.199 156.855 126.116 157.743 126.116 157.743L125.572 158.952Z" fill="url(#paint71_linear_180557_183816)"/>
<path d="M148.243 122.149C149.333 123.547 150.032 124.519 150.79 124.72C152.058 125.052 153.728 127.706 150.885 130.1C148.445 132.149 145.957 131.391 144.18 129.341C142.392 127.28 148.255 122.161 148.255 122.161L148.243 122.149Z" fill="url(#paint72_radial_180557_183816)"/>
<path style="mix-blend-mode:multiply" d="M147.829 125.396C148.551 132.031 148.362 132.612 146.644 133.015C144.927 133.417 142.593 130.988 142.475 128.062C142.356 125.135 147.544 122.765 147.829 125.408V125.396Z" fill="url(#paint73_linear_180557_183816)"/>
<path d="M170.631 153.904C170.631 153.904 170.382 155.646 169.991 156.464C169.6 157.281 168.155 159.521 168.108 159.9C168.072 160.279 168.131 161.298 168.06 161.891C167.989 162.483 167.551 163.668 167.895 163.964C168.238 164.26 168.783 162.909 168.783 162.909C168.783 162.909 168.593 164.083 168.558 164.391C168.522 164.699 168.451 166.002 168.487 166.263C168.522 166.523 168.949 167.815 169.328 167.72C169.707 167.614 169.624 166.642 169.577 166.239C169.517 165.836 170.062 162.684 170.181 162.661C170.299 162.637 170.05 164.402 170.05 164.805C170.05 165.208 170.169 166.701 170.347 166.997C170.524 167.294 170.903 168.111 171.33 167.981C171.756 167.851 171.46 166.914 171.33 166.654C171.199 166.393 171.188 165.256 171.235 164.876C171.27 164.497 171.555 162.637 171.697 162.625C171.839 162.601 171.496 164.201 171.531 164.557C171.567 164.912 171.673 165.931 171.898 166.275C172.123 166.618 172.988 166.974 173.106 166.796C173.237 166.606 172.716 165.694 172.704 165.599C172.68 165.504 172.704 164.58 172.727 164.343C172.763 164.106 172.929 162.791 173.047 162.649C173.166 162.507 173.106 163.455 173.142 163.786C173.178 164.118 173.178 164.805 173.284 165.113C173.391 165.421 173.77 166.002 174.03 165.99C174.291 165.978 174.042 164.9 174.066 164.402C174.09 163.905 174.279 162.353 174.374 161.215C174.469 160.078 174.469 158.514 174.374 157.566C174.267 156.618 174.042 155.705 174.078 155.326C174.113 154.947 174.315 153.94 174.315 153.94L170.619 153.904H170.631Z" fill="url(#paint74_radial_180557_183816)"/>
<path d="M138.968 117.22C137.417 118.499 135.865 120.324 137.654 124.862C139.442 129.4 141.184 131.853 142.889 131.462C144.595 131.071 147.39 128.476 147.817 127.623C148.243 126.77 149.949 121.568 148.006 118.262C146.064 114.968 141.598 115.039 138.968 117.22Z" fill="url(#paint75_radial_180557_183816)"/>
<path d="M136.599 121.687C136.931 122.765 139.892 123.085 141.918 122.232C143.932 121.379 145.377 123.867 145.377 123.867L146.348 123.476C146.348 123.476 146.929 121.106 147.864 121.26C148.8 121.414 148.954 122.623 148.836 123.357C148.717 124.092 149.452 123.085 149.452 122.149C149.452 121.213 148.682 114.779 142.984 114.779C137.286 114.779 136.066 119.933 136.611 121.687H136.599Z" fill="url(#paint76_linear_180557_183816)"/>
<path style="mix-blend-mode:multiply" d="M168.712 143.193C168.534 149.698 170.039 157.02 170.832 156.25C172.278 154.84 173.77 138.228 173.77 138.228C173.77 138.228 168.025 132.28 165.62 129.211C165.384 128.903 165.158 128.63 164.945 128.369C160.634 127.35 156.962 127.457 156.559 130.55C156.275 132.683 158.004 134.531 162.659 137.007C165.573 138.56 167.658 141.759 168.712 143.193Z" fill="url(#paint77_linear_180557_183816)"/>
<path d="M159.544 126.118C156.677 126.509 154.273 131.948 159.828 134.199C165.383 136.451 170.607 140.242 170.607 140.242C170.607 140.242 170.809 141.96 170.69 144.603C170.572 147.245 169.719 151.321 169.873 152.056C170.027 152.79 170.216 153.489 170.216 153.489L170.062 154.651L174.22 155.267L174.492 154.105C174.492 154.105 175.002 152.944 175.535 151.037C176.068 149.129 177.359 140.396 177.051 138.5C176.743 136.593 172.467 133.299 169.174 131.012C165.881 128.725 164.305 125.467 159.544 126.118Z" fill="url(#paint78_linear_180557_183816)"/>
<g style="mix-blend-mode:multiply">
<path d="M138.684 142.162C137.369 146.226 137.334 145.503 136.872 146.368C136.422 147.221 133.354 151.25 131.814 154.461C130.89 156.392 129.433 158.833 128.426 160.468L129.03 160.788L130.274 159.272C130.274 159.272 134.669 154.236 136.339 150.432C138.009 146.629 143.008 135.431 143.008 135.431L141.894 133.761C141.894 133.761 139.999 138.097 138.684 142.162Z" fill="#D1D3D4"/>
</g>
<g style="mix-blend-mode:multiply">
<path d="M145.365 123.855L146.336 123.464C146.336 123.464 146.917 121.094 147.852 121.248C148.788 121.402 148.942 122.611 148.824 123.345C148.705 124.08 149.44 123.073 149.44 122.137C149.44 121.367 148.907 116.84 145.495 115.288C146.668 116.71 147.023 118.013 146.49 120.81C146.36 121.509 145.365 123.831 145.365 123.831V123.855Z" fill="#D1D3D4"/>
</g>
<path d="M125.797 166.085L125.773 164.557C125.773 164.557 124.956 165.185 125.05 165.848C125.145 166.512 126.673 168.443 126.673 168.443L125.56 166.405L125.797 166.085Z" fill="url(#paint79_radial_180557_183816)"/>
<path d="M127.337 169.817C127.337 169.817 126.46 169.722 126.105 169.485C125.738 169.248 124.506 167.495 124.506 167.495C124.506 167.495 125.619 169.485 125.797 169.604C125.974 169.722 126.484 169.888 126.484 169.888L127.325 169.817H127.337Z" fill="url(#paint80_radial_180557_183816)"/>
<path d="M125.323 170.149C125.323 170.149 124.304 169.426 124.174 169.059C124.055 168.692 123.664 167.851 123.664 167.851L123.937 169.118L124.955 169.995L125.311 170.149H125.323Z" fill="url(#paint81_radial_180557_183816)"/>
<path d="M246.251 80.7015C246.251 80.3223 247.175 79.1848 248.063 78.9715C248.952 78.7582 250.077 78.7227 250.586 80.0616C251.096 81.4006 251.273 82.5262 251.273 82.5262L251.048 83.0476C251.048 83.0476 251.38 85.1922 251.806 86.1638C252.221 87.1355 253.417 88.5692 253.263 91.8158C253.18 93.5813 250.444 94.9439 249.011 92.9177C247.578 90.9034 247.388 87.0407 247.388 87.0407L246.251 80.6896V80.7015Z" fill="#10054D"/>
<path d="M247.507 79.2789C248.36 78.9708 249.52 79.3855 250.196 82.4426C250.871 85.4996 251.937 87.7746 252.268 89.2794C252.6 90.7961 253.275 93.5687 250.338 93.4858C248.371 93.4266 247.59 89.8956 247.365 86.7556C247.139 83.6156 245.315 80.0491 247.507 79.2671V79.2789Z" fill="url(#paint82_linear_180557_183816)"/>
<path d="M268.058 82.289C268.058 82.289 268.141 80.2747 269.278 79.9311C270.415 79.5993 271.884 79.8837 272.228 80.7249C272.559 81.5662 272.903 84.2441 273.069 85.0972C273.554 87.5736 274.206 90.4648 273.021 92.6687C272.322 93.9721 269.029 94.7778 268.307 92.7516C267.584 90.7255 268.603 87.704 268.638 85.8081C268.674 83.9123 268.094 83.4502 268.046 82.2772L268.058 82.289Z" fill="#10054D"/>
<path d="M269.574 80.5114C271.292 79.8835 272.097 80.6181 272.465 83.367C272.832 86.116 273.697 88.9716 272.974 91.922C272.607 93.3913 269.326 94.8368 268.485 92.3723C267.525 89.5641 269.207 87.3601 268.852 84.4927C268.496 81.6845 268.496 80.9025 269.586 80.5114H269.574Z" fill="url(#paint83_linear_180557_183816)"/>
<path d="M235.01 55.072L252.636 53.1406C252.636 53.1406 254.614 58.2712 255.621 61.0913C256.628 63.9113 259.778 69.2078 260.833 72.3241C261.887 75.4404 263.735 81.4122 263.735 81.4122C263.735 81.4122 264.907 81.4596 266.637 81.6255C268.366 81.7914 270.333 80.0259 271.6 81.6729C272.856 83.3081 273.152 87.8581 272.228 88.6164C271.304 89.3748 269.859 88.8415 268.354 88.8652C266.53 88.9008 264.777 90.5004 262.846 90.5478C260.916 90.5952 260.193 89.3274 257.374 85.7134C254.555 82.0995 245.434 69.2197 245.434 69.2197L242.958 80.6658C242.958 80.6658 246.239 79.9311 247.08 79.3861C247.921 78.841 248.976 79.9074 249.473 82.4668C249.982 85.038 249.177 87.3486 247.957 87.5619C246.737 87.7751 245.221 87.1353 244.083 87.7751C242.946 88.4031 239.499 90.9744 237.438 90.2516C235.377 89.5288 235.294 87.8107 234.619 84.493C233.944 81.1753 232.854 76.9215 233.446 69.1841C234.039 61.4467 234.998 55.0957 234.998 55.0957L235.01 55.072Z" fill="url(#paint84_linear_180557_183816)"/>
<g style="mix-blend-mode:multiply">
<path d="M272.761 86.5543C272.796 84.8836 272.394 82.6916 271.588 81.6607C270.321 80.0256 268.354 81.7911 266.625 81.6133C264.895 81.4356 263.723 81.4 263.723 81.4C263.723 81.4 261.875 75.4282 260.821 72.3119C259.766 69.1956 256.616 63.8991 255.609 61.0791C254.602 58.259 252.624 53.1284 252.624 53.1284L248.644 53.5668C248.94 56.612 249.39 59.4795 250.053 61.4227C251.06 64.3731 262.337 84.8955 262.834 85.9026C263.344 86.9098 262.751 88.6753 265.606 88.0118C268.011 87.443 271.008 86.2344 272.749 86.5543H272.761Z" fill="#D1D3D4"/>
</g>
<g style="mix-blend-mode:multiply">
<path d="M243.834 64.1955C243.503 62.5129 243.159 59.0649 243.159 59.0649L240.885 58.9819C240.885 58.9819 240.968 63.0224 241.643 64.7879C242.318 66.5534 242.911 67.5606 242.911 67.5606C242.911 67.5606 240.802 71.684 240.897 74.6226C240.992 77.5611 239.724 84.9667 239.89 85.5592C240.056 86.1516 243.171 85.3103 246.026 85.6421C247.021 85.7606 248.182 85.9265 249.283 86.0924C249.639 85.1444 249.745 83.8292 249.473 82.4429C248.963 79.8716 247.921 78.8052 247.08 79.3621C246.239 79.919 242.958 80.6418 242.958 80.6418L245.434 69.1957C245.434 69.1957 244.178 65.878 243.834 64.1955Z" fill="#D1D3D4"/>
</g>
<path d="M269.112 12.4987C269.065 11.065 268.65 9.26391 268.271 9.05063C267.892 8.83735 266.803 9.26391 266.376 8.83735C265.95 8.41079 264.99 7.02446 265.109 6.60975C265.239 6.18318 267.679 5.14048 268.39 5.01014C269.101 4.8798 270.913 6.08839 271.245 7.52212C271.576 8.95584 272.003 10.4133 271.955 12.001C271.92 13.1978 271.576 15.2358 271.541 17.0013C271.505 18.7668 271.706 26.5871 270.155 27.9379C268.603 29.2887 261.152 32.8552 259.766 34.4548C258.381 36.0544 257.54 37.109 257.54 37.109L256.284 28.1512C256.284 28.1512 260.998 26.8833 262.55 26.4686C264.102 26.0539 266.246 25.3785 266.246 25.3785C266.246 25.3785 266.293 22.8547 267.217 19.537C268.141 16.2193 269.148 13.6954 269.112 12.5105V12.4987Z" fill="url(#paint85_radial_180557_183816)"/>
<path d="M230.082 7.19028C229.869 7.52205 228.649 12.155 227.773 14.9277C226.896 17.7003 225.877 20.2715 225.877 20.2715C225.877 20.2715 229.158 21.3261 230.71 22.5821C232.262 23.8499 235.756 24.5609 237.604 25.4851C239.452 26.4093 240.459 27.215 240.459 27.215L232.049 31.0896C232.049 31.0896 226.031 26.0894 224.148 25.1533C222.253 24.2291 219.611 21.8711 219.895 20.4019C220.18 18.9326 226.92 6.47934 227.382 5.96984C227.844 5.46033 229.857 1.68051 231.077 0.922181C232.297 0.163848 234.394 1.21841 234.986 1.68051C235.579 2.14262 237.379 2.22557 236.751 3.28012C236.123 4.33468 234.098 5.50773 232.712 6.18312C231.326 6.85851 230.059 7.19028 230.059 7.19028H230.082Z" fill="url(#paint86_radial_180557_183816)"/>
<path d="M242.875 27.1794C241.217 26.8476 239.464 25.9234 236.858 24.9518C234.252 23.9801 231.018 22.345 229.751 21.6341C228.483 20.9231 226.256 20.3307 226.256 20.3307C226.256 20.3307 229.206 12.2141 229.573 10.4842L229.952 8.75423L230.035 7.69967L226.754 5.96973L226.292 7.19017C226.292 7.19017 225.368 7.52194 224.906 8.49356C224.444 9.46517 220.203 18.7074 219.647 19.7264C218.723 21.4089 219.611 23.1744 221.66 24.229C223.674 25.2598 229.94 31.6346 230.698 33.9925C231.456 36.3505 232.973 38.9572 233.221 41.4811C233.47 44.0049 234.394 49.5621 234.062 52.2518C233.731 54.9415 233.553 56.079 234.062 56.6714C234.572 57.2639 234.773 57.2639 234.773 57.2639L234.524 58.5317C234.524 58.5317 240.707 59.5389 245.706 58.9583C250.705 58.3658 253.406 55.214 253.406 55.214L252.991 53.9106C252.991 53.9106 253.323 53.3182 253.287 52.1451C253.24 50.9721 253.121 45.8296 254.59 43.1044C256.059 40.3673 260.193 35.2248 262.053 34.2176C263.901 33.2105 270.747 29.8454 271.588 27.8192C272.429 25.8049 272.37 17.6291 272.37 15.8162C272.37 14.4773 272.086 13.1502 272.086 13.1502V12.5222H269.101L268.804 13.3161C268.804 13.3161 268.437 13.6834 268.26 14.2048C267.288 17.0485 266.779 18.6955 266.649 19.916C266.483 21.4445 266.033 24.9755 266.033 24.9755C266.033 24.9755 263.427 25.7693 261.449 26.4092C259.47 27.0372 258.464 27.3808 254.555 27.8785C250.646 28.388 246.393 27.9259 242.863 27.2031L242.875 27.1794Z" fill="url(#paint87_linear_180557_183816)"/>
<g style="mix-blend-mode:multiply">
<path d="M272.381 15.7925C272.381 14.4536 272.097 13.1265 272.097 13.1265V12.4985H271.055L270.806 13.719C270.806 13.719 270.249 17.5936 270.356 21.1246C270.463 24.6556 270.747 26.7884 270.463 27.4045C270.178 28.0207 258.345 32.9617 256.698 33.5778C252.292 35.2011 248.264 43.3414 248.288 48.8038C248.3 51.9556 248.75 55.2851 249.236 58.0222C251.972 56.8847 253.417 55.1903 253.417 55.1903L253.003 53.887C253.003 53.887 253.334 53.2945 253.299 52.1215C253.251 50.9484 253.133 45.806 254.602 43.0807C256.071 40.3436 260.205 35.2011 262.064 34.194C263.912 33.1868 270.759 29.8217 271.6 27.7955C272.441 25.7812 272.381 17.6054 272.381 15.7925Z" fill="#D1D3D4"/>
</g>
<path d="M231.646 3.41048C231.646 2.81803 231.942 1.89381 232.108 1.94121C232.274 1.9886 234.039 2.82988 234.003 3.03131C233.967 3.23274 233.458 3.87259 233.209 3.74225C232.961 3.61191 232.238 2.90097 231.989 3.11425C231.741 3.32753 231.658 3.41048 231.658 3.41048H231.646Z" fill="url(#paint88_radial_180557_183816)"/>
<path d="M268.342 6.70459C268.342 6.70459 266.66 6.92972 266.601 7.09561C266.542 7.26149 268.793 7.48662 268.793 7.48662L268.342 6.70459Z" fill="url(#paint89_radial_180557_183816)"/>
<g style="mix-blend-mode:multiply">
<path d="M230.047 28.9445C230.047 28.9445 226.517 25.5794 224.669 24.1457C223.224 23.0319 220.713 22.629 219.433 21.9062C219.729 22.8068 220.523 23.6362 221.684 24.2286C223.52 25.1766 228.898 30.556 230.402 33.2813C230.141 31.2432 230.047 28.9445 230.047 28.9445Z" fill="#D1D3D4"/>
</g>
<path d="M241.359 26.8833C240.009 26.9307 237.237 28.5185 239.049 30.3787C240.861 32.2272 247.708 32.8196 250.361 30.0825C253.015 27.3454 246.488 27.7246 246.488 27.7246L241.359 26.8833Z" fill="url(#paint90_linear_180557_183816)"/>
<path d="M247.033 13.2097C245.149 13.8732 243.716 16.4918 242.993 18.4706C242.271 20.4494 242.401 22.1319 242.318 22.8073C242.235 23.4827 241.809 26.0065 241.228 26.599C240.648 27.1914 239.12 28.3289 239.167 29.0754C239.215 29.8338 240.802 31.2675 243.621 31.3504C246.44 31.4334 249.97 30.13 250.349 29.1584C250.681 28.2934 248.916 27.5588 249.425 26.1724C249.816 25.106 252.837 23.5183 253.216 21.9187C253.595 20.319 253.844 17.7597 253.003 15.6506C252.351 14.0273 249.556 12.3328 247.033 13.2097Z" fill="url(#paint91_radial_180557_183816)"/>
<path d="M246.026 13.5535C245.919 13.6601 249.793 12.4989 252.043 15.4849C252.802 16.492 252.967 17.8428 252.636 18.7196C252.351 19.4661 251.664 20.9117 251.664 20.9117L251.961 21.125C251.961 21.125 253.264 20.6629 253.181 21.5041C253.098 22.3454 251.368 23.8976 251.167 24.1583C250.954 24.4071 253.098 23.3644 254.022 21.042C255.336 17.7599 254.815 14.3948 251.712 13.0914C248.395 11.7051 246.417 13.1743 246.038 13.5535H246.026Z" fill="url(#paint92_linear_180557_183816)"/>
<path d="M244.557 27.8075C242.65 27.4639 242.413 21.2551 242.626 21.8357C243.088 23.0916 247.258 25.1534 248.762 23.5656C249.189 23.1153 245.943 28.0682 244.557 27.8194V27.8075Z" fill="url(#paint93_radial_180557_183816)"/>
<g style="mix-blend-mode:multiply" opacity="0.1">
<path d="M270.546 100.441C270.546 103.783 265.286 106.484 258.795 106.484C252.304 106.484 247.045 103.783 247.045 100.441C247.045 97.1 252.304 94.3984 258.795 94.3984C265.286 94.3984 270.546 97.1 270.546 100.441Z" fill="black"/>
</g>
<g opacity="0.6">
<path style="mix-blend-mode:screen" d="M346 250.497L309.043 272.204L272.086 250.674V274.42L309.031 295.961V295.973L309.043 295.961V295.973V295.961L346 274.254V250.497Z" fill="url(#paint94_linear_180557_183816)"/>
<path style="mix-blend-mode:screen" d="M335.588 262.95L309.043 278.543L282.498 263.092V280.486L309.031 295.961V295.973L309.043 295.961V295.973V295.961L335.588 280.368V262.95Z" fill="url(#paint95_linear_180557_183816)"/>
<path d="M308.924 237.783V275.379L345.893 253.66V216.063L308.924 237.783Z" fill="url(#paint96_linear_180557_183816)"/>
<path d="M308.936 237.783V275.38L271.979 253.826V216.253L308.936 237.783Z" fill="url(#paint97_linear_180557_183816)"/>
<path d="M271.979 216.253L308.936 237.783L345.893 216.064L308.889 194.51L271.979 216.253Z" fill="url(#paint98_linear_180557_183816)"/>
<path style="mix-blend-mode:color-dodge" d="M309.765 237.131C309.256 237.427 308.628 237.427 308.131 237.131L272.476 216.36L271.991 216.644L308.131 237.996C308.64 238.292 309.268 238.292 309.765 237.996L345.893 216.467L345.408 216.182L309.765 237.131Z" fill="url(#paint99_radial_180557_183816)"/>
</g>
<g opacity="0.6">
<path style="mix-blend-mode:screen" opacity="0.5" d="M308.249 224.714L271.28 246.421L234.335 224.903V296.803L271.28 318.344V318.356V318.344L271.292 318.356V318.344L308.249 296.637V224.714Z" fill="url(#paint100_linear_180557_183816)"/>
<path style="mix-blend-mode:screen" opacity="0.5" d="M297.837 237.179L271.292 252.772L244.747 237.309V302.869L271.28 318.344V318.356L271.292 318.344V318.356V318.344L297.837 302.751V237.179Z" fill="url(#paint101_linear_180557_183816)"/>
<path d="M271.174 212.651V250.248L308.143 228.529V190.932L271.174 212.651Z" fill="url(#paint102_linear_180557_183816)"/>
<path d="M271.185 212.652V250.248L234.228 228.695V191.122L271.185 212.652Z" fill="url(#paint103_linear_180557_183816)"/>
<path d="M234.228 191.122L271.185 212.651L308.143 190.932L271.138 169.379L234.228 191.122Z" fill="url(#paint104_linear_180557_183816)"/>
<path style="mix-blend-mode:color-dodge" d="M272.003 211.988C271.493 212.284 270.866 212.284 270.368 211.988L234.714 191.217L234.228 191.501L270.368 212.853C270.877 213.149 271.505 213.149 272.003 212.853L308.131 191.323L307.645 191.039L272.003 211.988Z" fill="url(#paint105_radial_180557_183816)"/>
</g>
<g opacity="0.6">
<path style="mix-blend-mode:screen" opacity="0.5" d="M233.233 316.33L196.264 338.037L159.319 316.508V338.962L196.264 360.503V360.515H196.276V360.503L233.233 338.808V316.33Z" fill="url(#paint106_linear_180557_183816)"/>
<path style="mix-blend-mode:screen" opacity="0.5" d="M222.821 328.783L196.276 344.376L169.731 328.925V345.04L196.264 360.515H196.276L222.821 344.921V328.783Z" fill="url(#paint107_linear_180557_183816)"/>
<path d="M196.264 303.723V341.319L233.233 319.6V282.003L196.264 303.723Z" fill="url(#paint108_linear_180557_183816)"/>
<path d="M196.276 303.722V341.319L159.319 319.766V282.193L196.276 303.722Z" fill="url(#paint109_linear_180557_183816)"/>
<path d="M159.319 282.193L196.276 303.723L233.233 282.003L196.228 260.45L159.319 282.193Z" fill="url(#paint110_linear_180557_183816)"/>
<path style="mix-blend-mode:color-dodge" d="M197.093 303.071C196.584 303.367 195.956 303.367 195.458 303.071L159.804 282.299L159.319 282.584L195.458 303.936C195.968 304.232 196.596 304.232 197.093 303.936L233.221 282.406L232.736 282.122L197.093 303.071Z" fill="url(#paint111_radial_180557_183816)"/>
</g>
<g opacity="0.6">
<path style="mix-blend-mode:screen" opacity="0.5" d="M344.614 304.125L307.657 325.832L270.712 304.315V344.791L307.645 366.332V366.344L307.657 366.332L307.669 366.344V366.332L344.614 344.625V304.125Z" fill="url(#paint112_linear_180557_183816)"/>
<path style="mix-blend-mode:screen" opacity="0.5" d="M334.202 316.59L307.657 332.183L281.124 316.72V350.857L307.645 366.332V366.344H307.657H307.669V366.332L334.202 350.75V316.59Z" fill="url(#paint113_linear_180557_183816)"/>
<path d="M307.645 291.518V329.126L344.614 307.407V269.811L307.645 291.518Z" fill="url(#paint114_linear_180557_183816)"/>
<path d="M307.669 291.518V329.126L270.712 307.573V269.988L307.669 291.518Z" fill="url(#paint115_linear_180557_183816)"/>
<path d="M270.712 269.988L307.669 291.518L344.614 269.811L307.622 248.257L270.712 269.988Z" fill="url(#paint116_linear_180557_183816)"/>
<path style="mix-blend-mode:color-dodge" d="M308.486 290.866C307.977 291.162 307.349 291.162 306.852 290.866L271.197 270.095L270.712 270.379L306.852 291.731C307.361 292.027 307.989 292.027 308.486 291.731L344.614 270.201L344.129 269.917L308.486 290.866Z" fill="url(#paint117_radial_180557_183816)"/>
</g>
<defs>
<linearGradient id="paint0_linear_180557_183816" x1="149.25" y1="70.618" x2="149.25" y2="174.747" gradientUnits="userSpaceOnUse">
<stop stop-color="#271273"/>
<stop offset="0.19" stop-color="#1F0E5C"/>
<stop offset="1"/>
</linearGradient>
<linearGradient id="paint1_linear_180557_183816" x1="149.25" y1="213.232" x2="149.25" y2="96.3418" gradientUnits="userSpaceOnUse">
<stop stop-color="#45108A"/>
<stop offset="0.32" stop-color="#2E0A5C"/>
<stop offset="1"/>
</linearGradient>
<linearGradient id="paint2_linear_180557_183816" x1="174.232" y1="119.174" x2="201.312" y2="179.918" gradientUnits="userSpaceOnUse">
<stop stop-color="#25054D"/>
<stop offset="1" stop-color="#45108A"/>
</linearGradient>
<linearGradient id="paint3_linear_180557_183816" x1="110.646" y1="75.4877" x2="152.525" y2="136.118" gradientUnits="userSpaceOnUse">
<stop stop-color="#25054D"/>
<stop offset="1" stop-color="#45108A"/>
</linearGradient>
<linearGradient id="paint4_linear_180557_183816" x1="182.63" y1="11.4674" x2="141.009" y2="90.7618" gradientUnits="userSpaceOnUse">
<stop offset="0.52" stop-color="#45108A"/>
<stop offset="1" stop-color="#3A3B9E"/>
</linearGradient>
<radialGradient id="paint5_radial_180557_183816" cx="0" cy="0" r="1" gradientUnits="userSpaceOnUse" gradientTransform="translate(149.286 86.0923) scale(27.2678 27.2763)">
<stop stop-color="white"/>
<stop offset="1"/>
</radialGradient>
<linearGradient id="paint6_linear_180557_183816" x1="37.277" y1="26.5756" x2="37.277" y2="261.268" gradientUnits="userSpaceOnUse">
<stop stop-color="#271273"/>
<stop offset="0.19" stop-color="#1F0E5C"/>
<stop offset="1"/>
</linearGradient>
<linearGradient id="paint7_linear_180557_183816" x1="37.2772" y1="-11.9338" x2="37.2772" y2="147.601" gradientUnits="userSpaceOnUse">
<stop stop-color="#20083F"/>
<stop offset="0.43" stop-color="#45108A"/>
<stop offset="0.5" stop-color="#3C0D78"/>
<stop offset="1"/>
</linearGradient>
<linearGradient id="paint8_linear_180557_183816" x1="61.9151" y1="93.7706" x2="88.9838" y2="154.502" gradientUnits="userSpaceOnUse">
<stop stop-color="#25054D"/>
<stop offset="1" stop-color="#45108A"/>
</linearGradient>
<linearGradient id="paint9_linear_180557_183816" x1="-1.68203" y1="50.084" x2="40.1968" y2="110.715" gradientUnits="userSpaceOnUse">
<stop stop-color="#25054D"/>
<stop offset="1" stop-color="#45108A"/>
</linearGradient>
<linearGradient id="paint10_linear_180557_183816" x1="70.3016" y1="-13.9364" x2="28.6925" y2="65.358" gradientUnits="userSpaceOnUse">
<stop offset="0.52" stop-color="#45108A"/>
<stop offset="1" stop-color="#3A3B9E"/>
</linearGradient>
<radialGradient id="paint11_radial_180557_183816" cx="0" cy="0" r="1" gradientUnits="userSpaceOnUse" gradientTransform="translate(36.9572 60.688) scale(27.2678 27.2763)">
<stop stop-color="white"/>
<stop offset="1"/>
</radialGradient>
<linearGradient id="paint12_linear_180557_183816" x1="74.6017" y1="297.739" x2="74.6017" y2="123.761" gradientUnits="userSpaceOnUse">
<stop stop-color="#271273"/>
<stop offset="0.19" stop-color="#1F0E5C"/>
<stop offset="1"/>
</linearGradient>
<linearGradient id="paint13_linear_180557_183816" x1="74.6016" y1="297.976" x2="74.6016" y2="139.591" gradientUnits="userSpaceOnUse">
<stop stop-color="#45108A"/>
<stop offset="0.32" stop-color="#2E0A5C"/>
<stop offset="1"/>
</linearGradient>
<linearGradient id="paint14_linear_180557_183816" x1="99.453" y1="171.76" x2="126.533" y2="232.492" gradientUnits="userSpaceOnUse">
<stop stop-color="#25054D"/>
<stop offset="1" stop-color="#45108A"/>
</linearGradient>
<linearGradient id="paint15_linear_180557_183816" x1="35.8558" y1="128.074" x2="77.7465" y2="188.704" gradientUnits="userSpaceOnUse">
<stop stop-color="#25054D"/>
<stop offset="1" stop-color="#45108A"/>
</linearGradient>
<linearGradient id="paint16_linear_180557_183816" x1="107.851" y1="64.0538" x2="66.2303" y2="143.348" gradientUnits="userSpaceOnUse">
<stop offset="0.52" stop-color="#45108A"/>
<stop offset="1" stop-color="#3A3B9E"/>
</linearGradient>
<radialGradient id="paint17_radial_180557_183816" cx="0" cy="0" r="1" gradientUnits="userSpaceOnUse" gradientTransform="translate(74.495 138.678) scale(27.2678 27.2763)">
<stop stop-color="white"/>
<stop offset="1"/>
</radialGradient>
<linearGradient id="paint18_linear_180557_183816" x1="36.9572" y1="204.713" x2="36.9572" y2="302.23" gradientUnits="userSpaceOnUse">
<stop stop-color="#271273"/>
<stop offset="0.19" stop-color="#1F0E5C"/>
<stop offset="1"/>
</linearGradient>
<linearGradient id="paint19_linear_180557_183816" x1="36.9571" y1="237.297" x2="36.9571" y2="301.874" gradientUnits="userSpaceOnUse">
<stop stop-color="#45108A"/>
<stop offset="0.32" stop-color="#2E0A5C"/>
<stop offset="1"/>
</linearGradient>
<linearGradient id="paint20_linear_180557_183816" x1="61.9151" y1="242.689" x2="88.9838" y2="303.432" gradientUnits="userSpaceOnUse">
<stop stop-color="#25054D"/>
<stop offset="1" stop-color="#45108A"/>
</linearGradient>
<linearGradient id="paint21_linear_180557_183816" x1="-1.68203" y1="199.002" x2="40.1968" y2="259.633" gradientUnits="userSpaceOnUse">
<stop stop-color="#25054D"/>
<stop offset="1" stop-color="#45108A"/>
</linearGradient>
<linearGradient id="paint22_linear_180557_183816" x1="70.3016" y1="134.982" x2="28.6925" y2="214.276" gradientUnits="userSpaceOnUse">
<stop offset="0.52" stop-color="#45108A"/>
<stop offset="1" stop-color="#3A3B9E"/>
</linearGradient>
<radialGradient id="paint23_radial_180557_183816" cx="0" cy="0" r="1" gradientUnits="userSpaceOnUse" gradientTransform="translate(36.9572 209.606) scale(27.2678 27.2763)">
<stop stop-color="white"/>
<stop offset="1"/>
</radialGradient>
<linearGradient id="paint24_linear_180557_183816" x1="278.837" y1="62.5724" x2="246.236" y2="119.036" gradientUnits="userSpaceOnUse">
<stop offset="0.52" stop-color="#45108A"/>
<stop offset="1" stop-color="#3A3B9E"/>
</linearGradient>
<radialGradient id="paint25_radial_180557_183816" cx="0" cy="0" r="1" gradientUnits="userSpaceOnUse" gradientTransform="translate(257.314 111.117) scale(28.7011 28.71)">
<stop stop-color="white"/>
<stop offset="1"/>
</radialGradient>
<linearGradient id="paint26_linear_180557_183816" x1="262.965" y1="170.291" x2="483.003" y2="153.429" gradientUnits="userSpaceOnUse">
<stop stop-color="#25054D"/>
<stop offset="1" stop-color="#45108A"/>
</linearGradient>
<linearGradient id="paint27_linear_180557_183816" x1="178.78" y1="159.331" x2="292.272" y2="178.337" gradientUnits="userSpaceOnUse">
<stop stop-color="#25054D"/>
<stop offset="1" stop-color="#45108A"/>
</linearGradient>
<linearGradient id="paint28_linear_180557_183816" x1="233.494" y1="107.397" x2="200.88" y2="163.849" gradientUnits="userSpaceOnUse">
<stop offset="0.52" stop-color="#45108A"/>
<stop offset="1" stop-color="#3A3B9E"/>
</linearGradient>
<radialGradient id="paint29_radial_180557_183816" cx="0" cy="0" r="1" gradientUnits="userSpaceOnUse" gradientTransform="translate(211.971 155.942) scale(28.7011 28.71)">
<stop stop-color="white"/>
<stop offset="1"/>
</radialGradient>
<linearGradient id="paint30_linear_180557_183816" x1="218.012" y1="205.862" x2="431.784" y2="189.473" gradientUnits="userSpaceOnUse">
<stop stop-color="#25054D"/>
<stop offset="1" stop-color="#45108A"/>
</linearGradient>
<linearGradient id="paint31_linear_180557_183816" x1="136.363" y1="195.423" x2="244.227" y2="213.494" gradientUnits="userSpaceOnUse">
<stop stop-color="#25054D"/>
<stop offset="1" stop-color="#45108A"/>
</linearGradient>
<linearGradient id="paint32_linear_180557_183816" x1="188.505" y1="152.695" x2="155.904" y2="209.147" gradientUnits="userSpaceOnUse">
<stop offset="0.52" stop-color="#45108A"/>
<stop offset="1" stop-color="#3A3B9E"/>
</linearGradient>
<radialGradient id="paint33_radial_180557_183816" cx="0" cy="0" r="1" gradientUnits="userSpaceOnUse" gradientTransform="translate(166.983 201.241) scale(28.7011 28.71)">
<stop stop-color="white"/>
<stop offset="1"/>
</radialGradient>
<linearGradient id="paint34_linear_180557_183816" x1="173.426" y1="241.681" x2="380.778" y2="225.778" gradientUnits="userSpaceOnUse">
<stop stop-color="#25054D"/>
<stop offset="1" stop-color="#45108A"/>
</linearGradient>
<linearGradient id="paint35_linear_180557_183816" x1="94.383" y1="231.775" x2="196.467" y2="248.875" gradientUnits="userSpaceOnUse">
<stop stop-color="#25054D"/>
<stop offset="1" stop-color="#45108A"/>
</linearGradient>
<linearGradient id="paint36_linear_180557_183816" x1="143.162" y1="197.508" x2="110.548" y2="253.972" gradientUnits="userSpaceOnUse">
<stop offset="0.52" stop-color="#45108A"/>
<stop offset="1" stop-color="#3A3B9E"/>
</linearGradient>
<radialGradient id="paint37_radial_180557_183816" cx="0" cy="0" r="1" gradientUnits="userSpaceOnUse" gradientTransform="translate(121.639 246.054) scale(28.7011 28.71)">
<stop stop-color="white"/>
<stop offset="1"/>
</radialGradient>
<linearGradient id="paint38_linear_180557_183816" x1="128.474" y1="277.252" x2="329.571" y2="261.834" gradientUnits="userSpaceOnUse">
<stop stop-color="#25054D"/>
<stop offset="1" stop-color="#45108A"/>
</linearGradient>
<linearGradient id="paint39_linear_180557_183816" x1="51.9651" y1="267.867" x2="148.423" y2="284.02" gradientUnits="userSpaceOnUse">
<stop stop-color="#25054D"/>
<stop offset="1" stop-color="#45108A"/>
</linearGradient>
<linearGradient id="paint40_linear_180557_183816" x1="97.0955" y1="242.309" x2="64.4821" y2="298.773" gradientUnits="userSpaceOnUse">
<stop offset="0.52" stop-color="#45108A"/>
<stop offset="1" stop-color="#3A3B9E"/>
</linearGradient>
<radialGradient id="paint41_radial_180557_183816" cx="0" cy="0" r="1" gradientUnits="userSpaceOnUse" gradientTransform="translate(75.5727 290.854) scale(28.7011 28.71)">
<stop stop-color="white"/>
<stop offset="1"/>
</radialGradient>
<linearGradient id="paint42_linear_180557_183816" x1="82.7982" y1="313" x2="277.748" y2="298.044" gradientUnits="userSpaceOnUse">
<stop stop-color="#25054D"/>
<stop offset="1" stop-color="#45108A"/>
</linearGradient>
<linearGradient id="paint43_linear_180557_183816" x1="8.76546" y1="304.125" x2="99.7149" y2="319.354" gradientUnits="userSpaceOnUse">
<stop stop-color="#25054D"/>
<stop offset="1" stop-color="#45108A"/>
</linearGradient>
<linearGradient id="paint44_linear_180557_183816" x1="68.3473" y1="276.126" x2="95.924" y2="269.376" gradientUnits="userSpaceOnUse">
<stop offset="0.21" stop-color="#D4D1D8"/>
<stop offset="1" stop-color="white"/>
</linearGradient>
<linearGradient id="paint45_linear_180557_183816" x1="104.144" y1="241.93" x2="104.476" y2="260.485" gradientUnits="userSpaceOnUse">
<stop offset="0.21" stop-color="#D4D1D8"/>
<stop offset="1" stop-color="white"/>
</linearGradient>
<radialGradient id="paint46_radial_180557_183816" cx="0" cy="0" r="1" gradientUnits="userSpaceOnUse" gradientTransform="translate(98.0432 171.476) scale(54.9502 54.9673)">
<stop offset="0.03" stop-color="#FEDFCB"/>
<stop offset="0.78" stop-color="#F9B69E"/>
<stop offset="0.99" stop-color="#F2A78C"/>
</radialGradient>
<radialGradient id="paint47_radial_180557_183816" cx="0" cy="0" r="1" gradientUnits="userSpaceOnUse" gradientTransform="translate(74.0684 212.106) scale(4.8684 4.86992)">
<stop offset="0.03" stop-color="#FEDFCB"/>
<stop offset="0.78" stop-color="#F9B69E"/>
<stop offset="0.99" stop-color="#F2A78C"/>
</radialGradient>
<linearGradient id="paint48_linear_180557_183816" x1="101.609" y1="215.115" x2="98.847" y2="174.237" gradientUnits="userSpaceOnUse">
<stop stop-color="#C6CCD1"/>
<stop offset="1" stop-color="white"/>
</linearGradient>
<linearGradient id="paint49_linear_180557_183816" x1="85.3333" y1="203.575" x2="79.6337" y2="196.633" gradientUnits="userSpaceOnUse">
<stop stop-color="#E6E7E8"/>
<stop offset="0.64" stop-color="white"/>
</linearGradient>
<radialGradient id="paint50_radial_180557_183816" cx="0" cy="0" r="1" gradientUnits="userSpaceOnUse" gradientTransform="translate(113.466 222.663) scale(25.9885 25.9966)">
<stop offset="0.03" stop-color="#FEDFCB"/>
<stop offset="0.78" stop-color="#F9B69E"/>
<stop offset="0.99" stop-color="#F2A78C"/>
</radialGradient>
<radialGradient id="paint51_radial_180557_183816" cx="0" cy="0" r="1" gradientUnits="userSpaceOnUse" gradientTransform="translate(120.407 236.586) scale(23.4891 23.4965)">
<stop offset="0.03" stop-color="#FEDFCB"/>
<stop offset="0.78" stop-color="#F9B69E"/>
<stop offset="0.99" stop-color="#F2A78C"/>
</radialGradient>
<radialGradient id="paint52_radial_180557_183816" cx="0" cy="0" r="1" gradientUnits="userSpaceOnUse" gradientTransform="translate(100.85 260.9) scale(39.2196 39.2319)">
<stop offset="0.03" stop-color="#FEDFCB"/>
<stop offset="0.78" stop-color="#F9B69E"/>
<stop offset="0.99" stop-color="#F2A78C"/>
</radialGradient>
<radialGradient id="paint53_radial_180557_183816" cx="0" cy="0" r="1" gradientUnits="userSpaceOnUse" gradientTransform="translate(155.635 246.409) scale(81.9692 81.9948)">
<stop offset="0.03" stop-color="#FEDFCB"/>
<stop offset="0.78" stop-color="#F9B69E"/>
<stop offset="0.99" stop-color="#F2A78C"/>
</radialGradient>
<linearGradient id="paint54_linear_180557_183816" x1="104.925" y1="249.62" x2="102.365" y2="240.734" gradientUnits="userSpaceOnUse">
<stop offset="0.09" stop-color="#25054D"/>
<stop offset="0.47" stop-color="#320967"/>
<stop offset="0.89" stop-color="#45108A"/>
</linearGradient>
<linearGradient id="paint55_linear_180557_183816" x1="69.7805" y1="274.408" x2="78.1788" y2="274.408" gradientUnits="userSpaceOnUse">
<stop offset="0.09" stop-color="#25054D"/>
<stop offset="0.47" stop-color="#320967"/>
<stop offset="0.89" stop-color="#45108A"/>
</linearGradient>
<linearGradient id="paint56_linear_180557_183816" x1="74.1515" y1="276.743" x2="82.7047" y2="272.846" gradientUnits="userSpaceOnUse">
<stop offset="0.09" stop-color="#25054D"/>
<stop offset="0.47" stop-color="#320967"/>
<stop offset="0.89" stop-color="#45108A"/>
</linearGradient>
<linearGradient id="paint57_linear_180557_183816" x1="79.2329" y1="217.9" x2="106.524" y2="217.9" gradientUnits="userSpaceOnUse">
<stop offset="0.04" stop-color="#9F19AB"/>
<stop offset="0.24" stop-color="#AE24B0"/>
<stop offset="0.65" stop-color="#D643BF"/>
<stop offset="1" stop-color="#FF63CE"/>
</linearGradient>
<linearGradient id="paint58_linear_180557_183816" x1="97.5932" y1="211.467" x2="108.589" y2="201.244" gradientUnits="userSpaceOnUse">
<stop offset="0.04" stop-color="#9F19AB"/>
<stop offset="0.24" stop-color="#AE24B0"/>
<stop offset="0.65" stop-color="#D643BF"/>
<stop offset="1" stop-color="#FF63CE"/>
</linearGradient>
<linearGradient id="paint59_linear_180557_183816" x1="103.362" y1="247.096" x2="99.2143" y2="241.03" gradientUnits="userSpaceOnUse">
<stop offset="0.09" stop-color="#25054D"/>
<stop offset="0.47" stop-color="#320967"/>
<stop offset="0.89" stop-color="#45108A"/>
</linearGradient>
<linearGradient id="paint60_linear_180557_183816" x1="97.5102" y1="226.609" x2="102.63" y2="214.264" gradientUnits="userSpaceOnUse">
<stop offset="0.04" stop-color="#9F19AB"/>
<stop offset="0.24" stop-color="#AE24B0"/>
<stop offset="0.65" stop-color="#D643BF"/>
<stop offset="1" stop-color="#FF63CE"/>
</linearGradient>
<linearGradient id="paint61_linear_180557_183816" x1="87.0627" y1="219.749" x2="105.352" y2="221.111" gradientUnits="userSpaceOnUse">
<stop offset="0.04" stop-color="#9F19AB"/>
<stop offset="0.24" stop-color="#AE24B0"/>
<stop offset="0.65" stop-color="#D643BF"/>
<stop offset="1" stop-color="#FF63CE"/>
</linearGradient>
<linearGradient id="paint62_linear_180557_183816" x1="87.1458" y1="191.69" x2="106.797" y2="191.69" gradientUnits="userSpaceOnUse">
<stop offset="0.04" stop-color="#602213"/>
<stop offset="0.57" stop-color="#6C310D"/>
<stop offset="1" stop-color="#7A4108"/>
</linearGradient>
<radialGradient id="paint63_radial_180557_183816" cx="0" cy="0" r="1" gradientUnits="userSpaceOnUse" gradientTransform="translate(134.148 170.326) scale(4.31171 4.31301)">
<stop offset="0.03" stop-color="#FEDFCB"/>
<stop offset="0.78" stop-color="#F9B69E"/>
<stop offset="0.99" stop-color="#F2A78C"/>
</radialGradient>
<radialGradient id="paint64_radial_180557_183816" cx="0" cy="0" r="1" gradientUnits="userSpaceOnUse" gradientTransform="translate(131.873 170.054) scale(3.76678 3.76797)">
<stop offset="0.03" stop-color="#FEDFCB"/>
<stop offset="0.78" stop-color="#F9B69E"/>
<stop offset="0.99" stop-color="#F2A78C"/>
</radialGradient>
<radialGradient id="paint65_radial_180557_183816" cx="0" cy="0" r="1" gradientUnits="userSpaceOnUse" gradientTransform="translate(137.855 170.658) scale(7.30853 7.31079)">
<stop offset="0.03" stop-color="#FEDFCB"/>
<stop offset="0.78" stop-color="#F9B69E"/>
<stop offset="0.99" stop-color="#F2A78C"/>
</radialGradient>
<radialGradient id="paint66_radial_180557_183816" cx="0" cy="0" r="1" gradientUnits="userSpaceOnUse" gradientTransform="translate(133.141 169.983) scale(4.13403 4.13528)">
<stop offset="0.03" stop-color="#FEDFCB"/>
<stop offset="0.78" stop-color="#F9B69E"/>
<stop offset="0.99" stop-color="#F2A78C"/>
</radialGradient>
<linearGradient id="paint67_linear_180557_183816" x1="182.689" y1="196.572" x2="177.062" y2="192.214" gradientUnits="userSpaceOnUse">
<stop offset="0.09" stop-color="#25054D"/>
<stop offset="0.47" stop-color="#320967"/>
<stop offset="0.89" stop-color="#45108A"/>
</linearGradient>
<linearGradient id="paint68_linear_180557_183816" x1="158.786" y1="192.875" x2="146.218" y2="192.875" gradientUnits="userSpaceOnUse">
<stop offset="0.09" stop-color="#25054D"/>
<stop offset="0.47" stop-color="#320967"/>
<stop offset="0.89" stop-color="#45108A"/>
</linearGradient>
<linearGradient id="paint69_linear_180557_183816" x1="142.629" y1="165.445" x2="179.776" y2="165.445" gradientUnits="userSpaceOnUse">
<stop offset="0.04" stop-color="#9D9EB3"/>
<stop offset="0.58" stop-color="#D4D1D8"/>
<stop offset="1" stop-color="#EEEBF2"/>
</linearGradient>
<radialGradient id="paint70_radial_180557_183816" cx="0" cy="0" r="1" gradientUnits="userSpaceOnUse" gradientTransform="translate(117.801 161.026) scale(14.546 14.5505)">
<stop offset="0.03" stop-color="#FEDFCB"/>
<stop offset="0.78" stop-color="#F9B69E"/>
<stop offset="0.99" stop-color="#F2A78C"/>
</radialGradient>
<linearGradient id="paint71_linear_180557_183816" x1="153.668" y1="154.094" x2="123.558" y2="115.926" gradientUnits="userSpaceOnUse">
<stop offset="0.04" stop-color="#138BBD"/>
<stop offset="0.23" stop-color="#169AC6"/>
<stop offset="0.59" stop-color="#1EC2DF"/>
<stop offset="1" stop-color="#2AF6FF"/>
</linearGradient>
<radialGradient id="paint72_radial_180557_183816" cx="0" cy="0" r="1" gradientUnits="userSpaceOnUse" gradientTransform="translate(158.596 124.4) scale(12.9113 12.9154)">
<stop offset="0.03" stop-color="#FEDFCB"/>
<stop offset="0.78" stop-color="#F9B69E"/>
<stop offset="0.99" stop-color="#F2A78C"/>
</radialGradient>
<linearGradient id="paint73_linear_180557_183816" x1="142.652" y1="127.102" x2="148.694" y2="129.636" gradientUnits="userSpaceOnUse">
<stop offset="0.04" stop-color="#9D9EB3"/>
<stop offset="0.58" stop-color="#D4D1D8"/>
<stop offset="1" stop-color="white"/>
</linearGradient>
<radialGradient id="paint74_radial_180557_183816" cx="0" cy="0" r="1" gradientUnits="userSpaceOnUse" gradientTransform="translate(166.639 156.25) scale(11.632 11.6357)">
<stop offset="0.03" stop-color="#FEDFCB"/>
<stop offset="0.78" stop-color="#F9B69E"/>
<stop offset="0.99" stop-color="#F2A78C"/>
</radialGradient>
<radialGradient id="paint75_radial_180557_183816" cx="0" cy="0" r="1" gradientUnits="userSpaceOnUse" gradientTransform="translate(140.532 123.594) scale(9.89079 9.89388)">
<stop offset="0.03" stop-color="#FEDFCB"/>
<stop offset="0.78" stop-color="#F9B69E"/>
<stop offset="0.99" stop-color="#F2A78C"/>
</radialGradient>
<linearGradient id="paint76_linear_180557_183816" x1="154.758" y1="120.537" x2="136.694" y2="118.418" gradientUnits="userSpaceOnUse">
<stop offset="0.04" stop-color="#602213"/>
<stop offset="0.57" stop-color="#6C310D"/>
<stop offset="1" stop-color="#7A4108"/>
</linearGradient>
<linearGradient id="paint77_linear_180557_183816" x1="172.325" y1="136.83" x2="164.683" y2="142.112" gradientUnits="userSpaceOnUse">
<stop offset="0.04" stop-color="#9D9EB3"/>
<stop offset="0.58" stop-color="#D4D1D8"/>
<stop offset="1" stop-color="white"/>
</linearGradient>
<linearGradient id="paint78_linear_180557_183816" x1="183.992" y1="130.68" x2="147.716" y2="151.655" gradientUnits="userSpaceOnUse">
<stop offset="0.04" stop-color="#138BBD"/>
<stop offset="0.23" stop-color="#169AC6"/>
<stop offset="0.59" stop-color="#1EC2DF"/>
<stop offset="1" stop-color="#2AF6FF"/>
</linearGradient>
<radialGradient id="paint79_radial_180557_183816" cx="0" cy="0" r="1" gradientUnits="userSpaceOnUse" gradientTransform="translate(131.103 165.635) scale(3.56543 3.56654)">
<stop offset="0.03" stop-color="#FEDFCB"/>
<stop offset="0.78" stop-color="#F9B69E"/>
<stop offset="0.99" stop-color="#F2A78C"/>
</radialGradient>
<radialGradient id="paint80_radial_180557_183816" cx="0" cy="0" r="1" gradientUnits="userSpaceOnUse" gradientTransform="translate(124.115 163.193) scale(2.20322 2.20391)">
<stop offset="0.03" stop-color="#FEDFCB"/>
<stop offset="0.78" stop-color="#F9B69E"/>
<stop offset="0.99" stop-color="#F2A78C"/>
</radialGradient>
<radialGradient id="paint81_radial_180557_183816" cx="0" cy="0" r="1" gradientUnits="userSpaceOnUse" gradientTransform="translate(124.114 163.194) scale(2.20322 2.20389)">
<stop offset="0.03" stop-color="#FEDFCB"/>
<stop offset="0.78" stop-color="#F9B69E"/>
<stop offset="0.99" stop-color="#F2A78C"/>
</radialGradient>
<linearGradient id="paint82_linear_180557_183816" x1="252.399" y1="87.9168" x2="241.737" y2="82.7888" gradientUnits="userSpaceOnUse">
<stop offset="0.09" stop-color="#25054D"/>
<stop offset="0.47" stop-color="#320967"/>
<stop offset="0.89" stop-color="#45108A"/>
</linearGradient>
<linearGradient id="paint83_linear_180557_183816" x1="274.135" y1="89.2086" x2="265.652" y2="84.2817" gradientUnits="userSpaceOnUse">
<stop offset="0.09" stop-color="#25054D"/>
<stop offset="0.47" stop-color="#320967"/>
<stop offset="0.89" stop-color="#45108A"/>
</linearGradient>
<linearGradient id="paint84_linear_180557_183816" x1="255.111" y1="85.2513" x2="227.157" y2="48.8716" gradientUnits="userSpaceOnUse">
<stop offset="0.04" stop-color="#6B24D6"/>
<stop offset="0.29" stop-color="#7733DC"/>
<stop offset="0.79" stop-color="#965BEC"/>
<stop offset="1" stop-color="#A56EF4"/>
</linearGradient>
<radialGradient id="paint85_radial_180557_183816" cx="0" cy="0" r="1" gradientUnits="userSpaceOnUse" gradientTransform="translate(275.153 5.57889) scale(17.602 17.6076)">
<stop offset="0.03" stop-color="#FEDFCB"/>
<stop offset="0.78" stop-color="#F9B69E"/>
<stop offset="0.99" stop-color="#F2A78C"/>
</radialGradient>
<radialGradient id="paint86_radial_180557_183816" cx="0" cy="0" r="1" gradientUnits="userSpaceOnUse" gradientTransform="translate(216.413 5.74471) scale(28.8432 28.8522)">
<stop offset="0.03" stop-color="#FEDFCB"/>
<stop offset="0.78" stop-color="#F9B69E"/>
<stop offset="0.99" stop-color="#F2A78C"/>
</radialGradient>
<linearGradient id="paint87_linear_180557_183816" x1="229.265" y1="60.7119" x2="251.475" y2="10.5723" gradientUnits="userSpaceOnUse">
<stop offset="0.04" stop-color="#9D9EB3"/>
<stop offset="0.58" stop-color="#D4D1D8"/>
<stop offset="1" stop-color="#EEEBF2"/>
</linearGradient>
<radialGradient id="paint88_radial_180557_183816" cx="0" cy="0" r="1" gradientUnits="userSpaceOnUse" gradientTransform="translate(237.616 -6.42416) scale(8.43385 8.43646)">
<stop offset="0.03" stop-color="#FEDFCB"/>
<stop offset="0.78" stop-color="#F9B69E"/>
<stop offset="0.99" stop-color="#F2A78C"/>
</radialGradient>
<radialGradient id="paint89_radial_180557_183816" cx="0" cy="0" r="1" gradientUnits="userSpaceOnUse" gradientTransform="translate(272.145 3.11435) scale(4.29981 4.30117)">
<stop offset="0.03" stop-color="#FEDFCB"/>
<stop offset="0.78" stop-color="#F9B69E"/>
<stop offset="0.99" stop-color="#F2A78C"/>
</radialGradient>
<linearGradient id="paint90_linear_180557_183816" x1="242.318" y1="44.4435" x2="243.918" y2="34.1706" gradientUnits="userSpaceOnUse">
<stop offset="0.04" stop-color="#9D9EB3"/>
<stop offset="0.58" stop-color="#D4D1D8"/>
<stop offset="1" stop-color="#EEEBF2"/>
</linearGradient>
<radialGradient id="paint91_radial_180557_183816" cx="0" cy="0" r="1" gradientUnits="userSpaceOnUse" gradientTransform="translate(242.828 10.1289) scale(16.4057 16.4108)">
<stop offset="0.03" stop-color="#FEDFCB"/>
<stop offset="0.78" stop-color="#F9B69E"/>
<stop offset="0.99" stop-color="#F2A78C"/>
</radialGradient>
<linearGradient id="paint92_linear_180557_183816" x1="246.026" y1="18.3405" x2="254.697" y2="18.3405" gradientUnits="userSpaceOnUse">
<stop offset="0.04" stop-color="#602213"/>
<stop offset="0.57" stop-color="#6C310D"/>
<stop offset="1" stop-color="#7A4108"/>
</linearGradient>
<radialGradient id="paint93_radial_180557_183816" cx="0" cy="0" r="1" gradientUnits="userSpaceOnUse" gradientTransform="translate(241.406 -5.92646) scale(27.8955 27.9043)">
<stop offset="0.03" stop-color="#FEDFCB"/>
<stop offset="0.78" stop-color="#F9B69E"/>
<stop offset="0.99" stop-color="#F2A78C"/>
</radialGradient>
<linearGradient id="paint94_linear_180557_183816" x1="309.043" y1="217.545" x2="309.043" y2="298.722" gradientUnits="userSpaceOnUse">
<stop stop-color="#271273"/>
<stop offset="0.19" stop-color="#1F0E5C"/>
<stop offset="1"/>
</linearGradient>
<linearGradient id="paint95_linear_180557_183816" x1="309.043" y1="228.209" x2="309.043" y2="283.899" gradientUnits="userSpaceOnUse">
<stop stop-color="#45108A"/>
<stop offset="0.32" stop-color="#2E0A5C"/>
<stop offset="1"/>
</linearGradient>
<linearGradient id="paint96_linear_180557_183816" x1="333.894" y1="260.284" x2="360.975" y2="321.027" gradientUnits="userSpaceOnUse">
<stop stop-color="#25054D"/>
<stop offset="1" stop-color="#45108A"/>
</linearGradient>
<linearGradient id="paint97_linear_180557_183816" x1="270.297" y1="216.597" x2="312.188" y2="277.228" gradientUnits="userSpaceOnUse">
<stop stop-color="#25054D"/>
<stop offset="1" stop-color="#45108A"/>
</linearGradient>
<linearGradient id="paint98_linear_180557_183816" x1="342.292" y1="152.577" x2="300.672" y2="231.871" gradientUnits="userSpaceOnUse">
<stop offset="0.52" stop-color="#45108A"/>
<stop offset="1" stop-color="#3A3B9E"/>
</linearGradient>
<radialGradient id="paint99_radial_180557_183816" cx="0" cy="0" r="1" gradientUnits="userSpaceOnUse" gradientTransform="translate(308.936 227.202) scale(27.2678 27.2763)">
<stop stop-color="white"/>
<stop offset="1"/>
</radialGradient>
<linearGradient id="paint100_linear_180557_183816" x1="271.292" y1="207.474" x2="271.292" y2="320.667" gradientUnits="userSpaceOnUse">
<stop stop-color="#271273"/>
<stop offset="0.19" stop-color="#1F0E5C"/>
<stop offset="1"/>
</linearGradient>
<linearGradient id="paint101_linear_180557_183816" x1="271.292" y1="227.617" x2="271.292" y2="294.587" gradientUnits="userSpaceOnUse">
<stop stop-color="#45108A"/>
<stop offset="0.32" stop-color="#2E0A5C"/>
<stop offset="1"/>
</linearGradient>
<linearGradient id="paint102_linear_180557_183816" x1="296.143" y1="235.152" x2="323.212" y2="295.884" gradientUnits="userSpaceOnUse">
<stop stop-color="#25054D"/>
<stop offset="1" stop-color="#45108A"/>
</linearGradient>
<linearGradient id="paint103_linear_180557_183816" x1="232.546" y1="191.466" x2="274.425" y2="252.096" gradientUnits="userSpaceOnUse">
<stop stop-color="#25054D"/>
<stop offset="1" stop-color="#45108A"/>
</linearGradient>
<linearGradient id="paint104_linear_180557_183816" x1="304.53" y1="127.445" x2="262.921" y2="206.74" gradientUnits="userSpaceOnUse">
<stop offset="0.52" stop-color="#45108A"/>
<stop offset="1" stop-color="#3A3B9E"/>
</linearGradient>
<radialGradient id="paint105_radial_180557_183816" cx="0" cy="0" r="1" gradientUnits="userSpaceOnUse" gradientTransform="translate(271.185 202.07) scale(27.2678 27.2763)">
<stop stop-color="white"/>
<stop offset="1"/>
</radialGradient>
<linearGradient id="paint106_linear_180557_183816" x1="196.276" y1="290.416" x2="196.276" y2="362.162" gradientUnits="userSpaceOnUse">
<stop stop-color="#271273"/>
<stop offset="0.19" stop-color="#1F0E5C"/>
<stop offset="1"/>
</linearGradient>
<linearGradient id="paint107_linear_180557_183816" x1="196.276" y1="317.669" x2="196.276" y2="349.27" gradientUnits="userSpaceOnUse">
<stop stop-color="#45108A"/>
<stop offset="0.32" stop-color="#2E0A5C"/>
<stop offset="1"/>
</linearGradient>
<linearGradient id="paint108_linear_180557_183816" x1="221.234" y1="326.224" x2="248.303" y2="386.967" gradientUnits="userSpaceOnUse">
<stop stop-color="#25054D"/>
<stop offset="1" stop-color="#45108A"/>
</linearGradient>
<linearGradient id="paint109_linear_180557_183816" x1="157.637" y1="282.536" x2="199.515" y2="343.167" gradientUnits="userSpaceOnUse">
<stop stop-color="#25054D"/>
<stop offset="1" stop-color="#45108A"/>
</linearGradient>
<linearGradient id="paint110_linear_180557_183816" x1="229.62" y1="218.517" x2="188.011" y2="297.811" gradientUnits="userSpaceOnUse">
<stop offset="0.52" stop-color="#45108A"/>
<stop offset="1" stop-color="#3A3B9E"/>
</linearGradient>
<radialGradient id="paint111_radial_180557_183816" cx="0" cy="0" r="1" gradientUnits="userSpaceOnUse" gradientTransform="translate(196.276 293.141) scale(27.2678 27.2763)">
<stop stop-color="white"/>
<stop offset="1"/>
</radialGradient>
<linearGradient id="paint112_linear_180557_183816" x1="307.657" y1="267.654" x2="307.657" y2="368.654" gradientUnits="userSpaceOnUse">
<stop stop-color="#271273"/>
<stop offset="0.19" stop-color="#1F0E5C"/>
<stop offset="1"/>
</linearGradient>
<linearGradient id="paint113_linear_180557_183816" x1="307.657" y1="299.16" x2="307.657" y2="348.701" gradientUnits="userSpaceOnUse">
<stop stop-color="#45108A"/>
<stop offset="0.32" stop-color="#2E0A5C"/>
<stop offset="1"/>
</linearGradient>
<linearGradient id="paint114_linear_180557_183816" x1="332.615" y1="314.019" x2="359.695" y2="374.762" gradientUnits="userSpaceOnUse">
<stop stop-color="#25054D"/>
<stop offset="1" stop-color="#45108A"/>
</linearGradient>
<linearGradient id="paint115_linear_180557_183816" x1="269.018" y1="270.344" x2="310.908" y2="330.974" gradientUnits="userSpaceOnUse">
<stop stop-color="#25054D"/>
<stop offset="1" stop-color="#45108A"/>
</linearGradient>
<linearGradient id="paint116_linear_180557_183816" x1="341.013" y1="206.324" x2="299.392" y2="285.618" gradientUnits="userSpaceOnUse">
<stop offset="0.52" stop-color="#45108A"/>
<stop offset="1" stop-color="#3A3B9E"/>
</linearGradient>
<radialGradient id="paint117_radial_180557_183816" cx="0" cy="0" r="1" gradientUnits="userSpaceOnUse" gradientTransform="translate(307.657 280.948) scale(27.2678 27.2763)">
<stop stop-color="white"/>
<stop offset="1"/>
</radialGradient>
</defs>
</svg>
