<svg width="120" height="121" viewBox="0 0 120 121" fill="none" xmlns="http://www.w3.org/2000/svg">
<path d="M86.9125 109.584V88.2911H70.5498V109.584H86.9125Z" fill="#28324E"/>
<path d="M72.7381 89.8925C72.2421 89.8951 71.8408 90.3005 71.8448 90.7978C71.8474 91.2938 72.2528 91.6951 72.7501 91.6911C73.2461 91.6885 73.6474 91.2831 73.6434 90.7858C73.6408 90.2885 73.2354 89.8885 72.7381 89.8925Z" fill="white"/>
<path d="M72.756 92.6871C72.2587 92.6898 71.8587 93.0951 71.8613 93.5925C71.864 94.0898 72.2693 94.4898 72.7667 94.4858C73.264 94.4831 73.664 94.0778 73.6613 93.5818C73.6573 93.0845 73.252 92.6831 72.756 92.6871Z" fill="white"/>
<path d="M72.7732 95.5258C72.2759 95.5285 71.8759 95.9338 71.8799 96.4311C71.8826 96.9271 72.2879 97.3271 72.7853 97.3244C73.2813 97.3218 73.6826 96.9164 73.6786 96.4191C73.6759 95.9218 73.2706 95.5218 72.7732 95.5258Z" fill="white"/>
<path d="M87.5807 49.1645L87.5367 49.1818C86.346 49.6405 85.8247 50.9498 86.3714 52.1058L90.2581 60.3098C90.8061 61.4658 92.2154 62.0311 93.4074 61.5725L93.4501 61.5551C94.6421 61.0965 95.1634 59.7871 94.6154 58.6311L90.7287 50.4271C90.1807 49.2711 88.7714 48.7058 87.5807 49.1645Z" fill="#FAC48E"/>
<path d="M87.0338 44.7138L86.9898 44.7311C85.7992 45.1898 85.2778 46.4991 85.8245 47.6551L89.7112 55.8591C90.2592 57.0151 91.6685 57.5805 92.8605 57.1218L92.9031 57.1045C94.0951 56.6458 94.6165 55.3365 94.0685 54.1792L90.1818 45.9765C89.6352 44.8191 88.2245 44.2552 87.0338 44.7138Z" fill="#FAC48E"/>
<path d="M92.018 52.7698L91.97 52.7645C90.6607 52.6431 89.5514 53.5485 89.4927 54.7858L89.0287 63.6445C88.97 64.8818 90.03 65.9111 91.3393 66.0325L91.3873 66.0365C92.6967 66.1591 93.806 65.2538 93.866 64.0152L94.2833 55.2298C94.342 53.9925 93.3287 52.8911 92.018 52.7698Z" fill="#FAC48E"/>
<path d="M89.7082 43.0324L89.6575 43.0431C88.2922 43.3538 87.5082 44.6711 87.9082 45.9858L90.7468 55.3125C91.1468 56.6271 92.5788 57.4404 93.9442 57.1298L93.9949 57.1178C95.3602 56.8071 96.1442 55.4911 95.7442 54.1765L92.9055 44.8498C92.5055 43.5365 91.0735 42.7218 89.7082 43.0324Z" fill="#FAC48E"/>
<path d="M93.7596 52.3657L93.7089 52.3537C92.3116 52.0271 90.9596 52.8257 90.6889 54.1364L88.7102 63.5071C88.4396 64.8164 89.4156 66.0724 90.8129 66.3991L90.8636 66.4111C92.2622 66.7364 93.6142 65.9391 93.8836 64.6284L95.8009 55.3284C96.0716 54.0177 95.1582 52.6911 93.7596 52.3657Z" fill="#FAC48E"/>
<path d="M72.7715 82.9858L74.1875 77.1111C74.5288 75.6978 75.1408 74.3684 75.9928 73.1884L78.2288 70.0924C78.5048 69.7098 78.7102 69.2831 78.8355 68.8311L81.1568 60.5138C81.5102 59.2244 82.9128 58.5071 84.2928 58.9111L84.3422 58.9258C85.7222 59.3284 86.5542 60.7004 86.2008 61.9898L84.6675 67.5884L88.7968 63.2458L92.2568 55.1271L91.3742 46.1618C91.2408 44.8138 92.2822 43.6751 93.6995 43.6204L93.7515 43.6178C95.1675 43.5631 96.4248 44.6124 96.5582 45.9618L97.3262 56.6671C97.3262 56.6671 95.8222 63.7071 95.1448 65.8524C95.0182 66.2564 94.7422 66.7778 94.4982 67.3284C93.4902 69.6031 90.4915 75.8818 86.4355 80.2311L82.1355 86.8724L72.7715 82.9858Z" fill="#FFCF9F"/>
<path d="M86.0634 88.291V82.079H71.4541V88.291H86.0634Z" fill="#EDEDED"/>
<path d="M33.0859 109.584V88.2911H49.4486V109.584H33.0859Z" fill="#28324E"/>
<path d="M47.2608 89.8925C47.7582 89.8951 48.1581 90.3005 48.1555 90.7978C48.1515 91.2938 47.7461 91.6951 47.2501 91.6911C46.7528 91.6885 46.3528 91.2831 46.3555 90.7858C46.3595 90.2885 46.7648 89.8885 47.2608 89.8925Z" fill="white"/>
<path d="M47.2432 92.6871C47.7406 92.6898 48.1406 93.0951 48.1366 93.5925C48.1339 94.0898 47.7286 94.4898 47.2313 94.4858C46.7353 94.4831 46.3352 94.0778 46.3379 93.5818C46.3406 93.0845 46.7459 92.6831 47.2432 92.6871Z" fill="white"/>
<path d="M47.2247 95.5258C47.722 95.5285 48.122 95.9338 48.1193 96.4311C48.1167 96.9271 47.7113 97.3271 47.214 97.3244C46.7167 97.3218 46.3167 96.9164 46.3193 96.4191C46.3233 95.9218 46.7287 95.5218 47.2247 95.5258Z" fill="white"/>
<path d="M32.4191 49.1645L32.4618 49.1818C33.6538 49.6405 34.1751 50.9498 33.6271 52.1058L29.7404 60.3098C29.1937 61.4658 27.7831 62.0311 26.5924 61.5725L26.5484 61.5551C25.3578 61.0965 24.8364 59.7871 25.3831 58.6311L29.2697 50.4271C29.8177 49.2711 31.2271 48.7058 32.4191 49.1645Z" fill="#FAC48E"/>
<path d="M32.966 44.7138L33.0086 44.7311C34.2006 45.1898 34.7219 46.4991 34.1739 47.6551L30.2873 55.8591C29.7406 57.0151 28.3299 57.5805 27.1393 57.1218L27.0953 57.1045C25.9046 56.6458 25.3833 55.3365 25.93 54.1792L29.8166 45.9765C30.3646 44.8191 31.774 44.2552 32.966 44.7138Z" fill="#FAC48E"/>
<path d="M27.9804 52.7698L28.0284 52.7645C29.3377 52.6431 30.4484 53.5485 30.5071 54.7858L30.9697 63.6445C31.0297 64.8818 29.9697 65.9111 28.6591 66.0325L28.6111 66.0365C27.3017 66.1591 26.1924 65.2538 26.1337 64.0152L25.7164 55.2298C25.6564 53.9925 26.6711 52.8911 27.9804 52.7698Z" fill="#FAC48E"/>
<path d="M30.291 43.0324L30.3403 43.0431C31.7069 43.3538 32.4896 44.6711 32.0896 45.9858L29.251 55.3125C28.851 56.6271 27.4203 57.4404 26.0536 57.1298L26.0043 57.1178C24.6376 56.8071 23.855 55.4911 24.255 54.1765L27.0936 44.8498C27.4936 43.5365 28.9256 42.7218 30.291 43.0324Z" fill="#FAC48E"/>
<path d="M26.2388 52.3657L26.2895 52.3537C27.6881 52.0271 29.0388 52.8257 29.3095 54.1364L31.2895 63.5071C31.5588 64.8164 30.5841 66.0724 29.1855 66.3991L29.1348 66.4111C27.7375 66.7364 26.3855 65.9391 26.1148 64.6284L24.1975 55.3284C23.9281 54.0177 24.8415 52.6911 26.2388 52.3657Z" fill="#FAC48E"/>
<path d="M47.2285 82.9858L45.8112 77.1111C45.4712 75.6978 44.8592 74.3684 44.0058 73.1884L41.7712 70.0924C41.4952 69.7098 41.2899 69.2831 41.1632 68.8311L38.8432 60.5138C38.4898 59.2244 37.0858 58.5071 35.7072 58.9111L35.6565 58.9258C34.2778 59.3284 33.4459 60.7004 33.7992 61.9898L35.3312 67.5884L31.2032 63.2458L27.7432 55.1271L28.6258 46.1618C28.7578 44.8138 27.7179 43.6751 26.3005 43.6204L26.2485 43.6178C24.8312 43.5631 23.5752 44.6124 23.4418 45.9618L22.6738 56.6671C22.6738 56.6671 24.1778 63.7071 24.8538 65.8524C24.9818 66.2564 25.2579 66.7778 25.5019 67.3284C26.5099 69.6031 29.5072 75.8818 33.5632 80.2311L37.8632 86.8724L47.2285 82.9858Z" fill="#FFCF9F"/>
<path d="M33.9355 88.291V82.079H48.5449V88.291H33.9355Z" fill="#EDEDED"/>
<path d="M65.9005 77.7498C65.9005 84.7485 60.0725 93.8271 60.0725 93.8271C60.0725 93.8271 54.2432 84.7485 54.2432 77.7498C54.2432 70.7525 56.8525 68.4871 60.0725 68.4871C63.2912 68.4871 65.9005 70.7525 65.9005 77.7498Z" fill="#FF9C14"/>
<path d="M63.9989 74.7124C63.9989 79.4258 60.0722 85.5417 60.0722 85.5417C60.0722 85.5417 56.1455 79.4258 56.1455 74.7124C56.1455 69.9991 57.9028 68.4724 60.0722 68.4724C62.2402 68.4724 63.9989 69.9991 63.9989 74.7124Z" fill="#FEC40C"/>
<path d="M62.3165 72.0404C62.3165 74.7351 60.0725 78.2324 60.0725 78.2324C60.0725 78.2324 57.8271 74.7351 57.8271 72.0404C57.8271 69.3458 58.8325 68.4724 60.0725 68.4724C61.3125 68.4724 62.3165 69.3458 62.3165 72.0404Z" fill="white"/>
<path d="M66.0287 66.9404H54.1221V63.8911H66.0287V66.9404Z" fill="#706F6F"/>
<path d="M69.0667 35.6138L68.26 64.8765H51.8814L51.0747 35.6138C50.9387 30.2951 52.3027 24.9378 55.1053 20.1525C55.2413 19.9045 55.4027 19.6565 55.552 19.4085L60.0774 12.1298L64.6027 19.4085L65.0494 20.1525C67.8387 24.9378 69.2147 30.2951 69.0667 35.6138Z" fill="#DADADA"/>
<path d="M62.6821 62.3831C62.6821 68.7005 61.5154 73.8218 60.0754 73.8218C58.6367 73.8218 57.4688 68.7005 57.4688 62.3831C57.4688 56.0658 58.6367 50.9445 60.0754 50.9445C61.5154 50.9445 62.6821 56.0658 62.6821 62.3831Z" fill="#F35D4B"/>
<path d="M53.1268 62.3831C53.1268 68.7005 53.0401 73.8218 51.5241 73.8218C50.0068 73.8218 47.6348 68.7005 47.6348 62.3831C47.6348 56.0658 50.0068 50.9445 51.5241 50.9445C53.0401 50.9445 53.1268 56.0658 53.1268 62.3831Z" fill="#F35D4B"/>
<path d="M53.1268 62.3831C53.1268 68.7005 53.0401 73.8218 51.5241 73.8218C50.0068 73.8218 47.6348 68.7005 47.6348 62.3831C47.6348 56.0658 50.0068 50.9445 51.5241 50.9445C53.0401 50.9445 53.1268 56.0658 53.1268 62.3831Z" fill="#F35D4B"/>
<path d="M67.0234 62.3831C67.0234 68.7005 67.1101 73.8218 68.6261 73.8218C70.1434 73.8218 72.5154 68.7005 72.5154 62.3831C72.5154 56.0658 70.1434 50.9445 68.6261 50.9445C67.1101 50.9445 67.0234 56.0658 67.0234 62.3831Z" fill="#F35D4B"/>
<path d="M67.0234 62.3831C67.0234 68.7005 67.1101 73.8218 68.6261 73.8218C70.1434 73.8218 72.5154 68.7005 72.5154 62.3831C72.5154 56.0658 70.1434 50.9445 68.6261 50.9445C67.1101 50.9445 67.0234 56.0658 67.0234 62.3831Z" fill="#F35D4B"/>
<path d="M53.1268 62.3831C53.1268 68.7005 53.0401 73.8218 51.5241 73.8218C50.0068 73.8218 47.6348 68.7005 47.6348 62.3831C47.6348 56.0658 50.0068 50.9445 51.5241 50.9445C53.0401 50.9445 53.1268 56.0658 53.1268 62.3831Z" fill="#FF715F"/>
<path d="M67.0234 62.3831C67.0234 68.7005 67.1101 73.8218 68.6261 73.8218C70.1434 73.8218 72.5154 68.7005 72.5154 62.3831C72.5154 56.0658 70.1434 50.9445 68.6261 50.9445C67.1101 50.9445 67.0234 56.0658 67.0234 62.3831Z" fill="#FF715F"/>
<path d="M59.1768 31.4671V30.4285H60.9728V31.4671C62.5314 31.7858 63.3314 32.9845 63.3314 34.8818V35.3218H61.2528V34.7418C61.2528 33.7431 60.8541 33.3645 60.1554 33.3645C59.4554 33.3645 59.0554 33.7431 59.0554 34.7418C59.0554 37.6178 63.3501 37.7578 63.3501 41.7525C63.3501 43.6498 62.5314 44.8685 60.9728 45.1885V46.2058H59.1768V45.1885C57.5994 44.8685 56.8008 43.6498 56.8008 41.7525V40.7938H58.8768V41.8925C58.8768 42.8911 59.3154 43.2498 60.0154 43.2498C60.7141 43.2498 61.1541 42.8911 61.1541 41.8925C61.1541 39.0165 56.8594 38.8765 56.8594 34.8818C56.8594 33.0058 57.6381 31.8071 59.1768 31.4671Z" fill="#00A683"/>
<path d="M65.0495 20.1525C63.4748 20.3498 61.8001 20.4618 60.0775 20.4618C58.3535 20.4618 56.6801 20.3498 55.1055 20.1525C55.2415 19.9045 55.4028 19.6565 55.5521 19.4085L60.0775 12.1298L64.6028 19.4085L65.0495 20.1525Z" fill="#F35D4B"/>
</svg>
