<svg width="120" height="121" viewBox="0 0 120 121" fill="none" xmlns="http://www.w3.org/2000/svg">
<path d="M9.31055 81.7257L9.32655 80.0643L9.35589 80.1937L9.35988 80.2043L9.44788 80.3323L9.44922 80.3337L9.58389 80.4497L9.62655 80.479L9.76789 80.5643L9.82521 80.5963L10.0599 80.7057L10.1039 80.7217L10.3399 80.8083L10.4425 80.8403L10.6652 80.9083L10.7812 80.9403L11.0585 81.0097L11.1465 81.0297C11.2732 81.059 11.4065 81.0857 11.5452 81.1123L11.6439 81.1297L11.9772 81.187L12.1292 81.211L12.4506 81.2563L12.6065 81.2763C12.7412 81.2937 12.8786 81.3097 13.0186 81.3243L13.0999 81.3323C13.2679 81.3497 13.4399 81.3643 13.6146 81.379L13.7666 81.3897C13.8959 81.399 14.0252 81.407 14.1572 81.415L14.3452 81.4257C14.4745 81.4323 14.6066 81.4377 14.7386 81.443L14.9159 81.4483C15.1052 81.455 15.2972 81.459 15.4905 81.4603C18.9025 81.4963 21.6772 80.927 21.6852 80.191L21.6679 81.851C21.6599 82.5883 18.8865 83.1563 15.4732 83.1217C15.2799 83.1203 15.0879 83.115 14.8986 83.1097L14.7212 83.103C14.5892 83.099 14.4585 83.0937 14.3279 83.0857L14.1412 83.0763C14.0092 83.0683 13.8786 83.0603 13.7492 83.051L13.5986 83.0403C13.4226 83.0257 13.2506 83.011 13.0839 82.9937L13.0026 82.9843C12.8626 82.9697 12.7239 82.955 12.5905 82.9377L12.4346 82.9177L12.1119 82.8723L11.9599 82.8483L11.6265 82.791L11.5279 82.7737C11.3892 82.747 11.2572 82.719 11.1292 82.691L11.0425 82.6697L10.7639 82.6003L10.6479 82.5697L10.4252 82.5017L10.3239 82.4697L10.0866 82.383L10.0425 82.3657L9.80788 82.2577L9.75055 82.2257L9.65322 82.1723L9.60921 82.1403L9.56655 82.111L9.43322 81.9963L9.43055 81.9937L9.34521 81.8723L9.34255 81.8657L9.33856 81.855L9.31055 81.7257Z" fill="#F5B026"/>
<path d="M9.34884 80.1631L9.3395 80.1444L9.32884 80.0737L9.32617 80.0644C9.33417 79.3244 12.1048 78.7564 15.5182 78.7911C17.7062 78.8137 19.6222 79.0791 20.7168 79.4617C21.3302 79.6751 21.6888 79.9244 21.6862 80.1897L21.6715 80.2711L21.6595 80.2951L21.6222 80.3684L21.5808 80.4244L21.5102 80.4964L21.4462 80.5484L21.3422 80.6191L21.2595 80.6671L21.1235 80.7351L21.0208 80.7804L20.8542 80.8457L20.7342 80.8871L20.5395 80.9484L20.4035 80.9857L20.1808 81.043L20.0288 81.0777L19.7835 81.1297L19.6155 81.1617L19.3462 81.2084L19.1648 81.2364L18.8768 81.2764L18.6848 81.3004L18.3715 81.3364L18.1808 81.3537L17.8395 81.3844L17.6542 81.3977C17.5302 81.4057 17.4075 81.4151 17.2795 81.4217L17.1155 81.4297C16.9768 81.4364 16.8395 81.443 16.6968 81.447L16.6062 81.4497C16.2435 81.4604 15.8715 81.4644 15.4902 81.4604C15.0968 81.4577 14.7128 81.4444 14.3395 81.4257L14.2875 81.4231C14.1328 81.4151 13.9808 81.4044 13.8288 81.3937L13.7075 81.3857C13.5675 81.3751 13.4315 81.3631 13.2955 81.3511L13.1515 81.3377C13.0222 81.3244 12.8969 81.3097 12.7715 81.2964L12.6208 81.279C12.5008 81.263 12.3848 81.2471 12.2702 81.2311L12.1195 81.2097L11.7915 81.1551L11.6515 81.1311L11.3475 81.0724L11.2195 81.0457L10.9382 80.979L10.8235 80.9511L10.5688 80.879L10.4675 80.8484L10.2435 80.7724L10.1555 80.7404L9.96217 80.6604L9.88885 80.6271L9.73018 80.5417L9.67018 80.5057L9.54884 80.4191L9.50352 80.3804L9.42085 80.2937L9.3915 80.2511L9.34884 80.1631Z" fill="#FFCD2E"/>
<path d="M9.39062 79.791L9.40662 78.1296L9.43597 78.259L9.43996 78.2697L9.52796 78.3976L9.5293 78.4003L9.66396 78.515L9.70662 78.5443L9.84797 78.6296L9.90531 78.6616L10.14 78.7697L10.184 78.787L10.42 78.8737L10.5213 78.907L10.7453 78.9737L10.8613 79.0057L11.1386 79.0737L11.2266 79.095C11.3533 79.1243 11.4866 79.151 11.6253 79.1776L11.724 79.195L12.0573 79.2523L12.2093 79.2763L12.5306 79.3216L12.6866 79.3416C12.8213 79.359 12.9586 79.3736 13.0986 79.3883L13.18 79.3976C13.348 79.415 13.52 79.4296 13.6946 79.4443L13.8466 79.455C13.976 79.4643 14.1053 79.4723 14.2373 79.4803L14.4253 79.491C14.5546 79.4976 14.6866 79.503 14.8186 79.507L14.996 79.5136C15.1853 79.519 15.3773 79.5243 15.5706 79.527C18.9826 79.5616 21.7573 78.9923 21.7653 78.2563L21.748 79.9176C21.74 80.6536 18.9666 81.2216 15.5533 81.187C15.36 81.1856 15.168 81.1803 14.9786 81.175L14.8013 81.1683C14.6693 81.1643 14.5386 81.1576 14.408 81.1523L14.2213 81.1416C14.0893 81.1336 13.9586 81.1256 13.8293 81.1163L13.6786 81.1057C13.5026 81.091 13.3306 81.0763 13.164 81.059L13.0826 81.051C12.9426 81.035 12.804 81.019 12.6706 81.003L12.5146 80.983L12.192 80.9363L12.04 80.9136L11.7066 80.8563L11.608 80.839C11.4693 80.8123 11.3373 80.7843 11.2093 80.7563L11.1226 80.735L10.844 80.667L10.728 80.6337L10.5053 80.567L10.404 80.535L10.1666 80.4483L10.1226 80.431L9.88797 80.323L9.83063 80.291L9.7333 80.2363L9.68931 80.2057L9.64663 80.1763L9.5133 80.0603L9.51063 80.059L9.42529 79.9377L9.42264 79.931L9.41864 79.919L9.39062 79.791Z" fill="#F5B026"/>
<path d="M9.42892 78.2297L9.4196 78.2097L9.40892 78.1404L9.40625 78.1297C9.41425 77.391 12.1849 76.8217 15.5983 76.8564C17.7863 76.879 19.7023 77.1444 20.7969 77.527C21.4103 77.7404 21.7689 77.9897 21.7663 78.255L21.7516 78.3364L21.7396 78.3604L21.7023 78.4337L21.6609 78.4897L21.5903 78.5617L21.5263 78.6137L21.4223 78.6844L21.3396 78.7324L21.2036 78.8004L21.1009 78.8457L20.9343 78.911L20.8143 78.9524L20.6196 79.0137L20.4836 79.051L20.2609 79.1083L20.1089 79.143L19.8636 79.1964L19.6956 79.227L19.4263 79.2737L19.2449 79.3004L18.9569 79.343L18.7649 79.3657L18.4516 79.4017L18.2609 79.419L17.9196 79.4497L17.7343 79.463C17.6103 79.471 17.4876 79.4804 17.3596 79.487L17.1956 79.495C17.0569 79.5017 16.9196 79.5084 16.7769 79.5124L16.6863 79.515C16.3236 79.5257 15.9516 79.5297 15.5703 79.527C15.1769 79.5217 14.7929 79.5097 14.4196 79.491L14.3676 79.4884C14.2129 79.4804 14.0609 79.4697 13.9089 79.459L13.7876 79.451C13.6476 79.4404 13.5116 79.4284 13.3756 79.415L13.2316 79.403C13.1009 79.3897 12.9769 79.375 12.8516 79.3604L12.7009 79.343C12.5809 79.3283 12.4649 79.3124 12.3503 79.2964L12.1996 79.275L11.8716 79.2204L11.7316 79.1964L11.4276 79.1364L11.2996 79.1097L11.0183 79.0444L10.9036 79.0164L10.6489 78.9444L10.5476 78.915L10.3236 78.839L10.2356 78.8057L10.0423 78.7257L9.96893 78.691L9.81025 78.607L9.75026 78.5724L9.62892 78.4857L9.58359 78.4457L9.50093 78.359L9.4716 78.3164L9.42892 78.2297Z" fill="#FFCD2E"/>
<path d="M9.50684 77.8563L9.52417 76.195L9.55352 76.3243L9.5575 76.335L9.64551 76.463L9.64684 76.4643L9.78151 76.5803L9.82417 76.6096L9.96551 76.6963L10.0229 76.727L10.2575 76.8363L10.3015 76.8523L10.5375 76.939L10.6389 76.9723L10.8628 77.039L10.9788 77.071L11.2562 77.139L11.3442 77.1603C11.4708 77.1883 11.6042 77.2163 11.7428 77.2429L11.8415 77.2603L12.1748 77.3176L12.3268 77.3416L12.6482 77.3869L12.8042 77.407C12.9388 77.4243 13.0762 77.4403 13.2162 77.4549L13.2975 77.463C13.4655 77.4803 13.6375 77.4963 13.8122 77.5096L13.9642 77.5203C14.0935 77.5296 14.2228 77.5389 14.3548 77.5456L14.5428 77.5563C14.6722 77.5629 14.8042 77.5683 14.9362 77.5736L15.1135 77.5789C15.3028 77.5856 15.4935 77.5896 15.6882 77.5909C19.1002 77.6269 21.8748 77.0576 21.8828 76.3216L21.8655 77.9816C21.8575 78.7189 19.0842 79.2869 15.6708 79.2523C15.4775 79.2509 15.2855 79.2456 15.0962 79.2403L14.9188 79.2336C14.7868 79.2296 14.6562 79.2243 14.5255 79.2176L14.3389 79.207C14.2069 79.199 14.0762 79.1909 13.9468 79.1816L13.7962 79.1696C13.6202 79.1563 13.4482 79.1416 13.2815 79.1243L13.2002 79.1149C13.0602 79.1003 12.9215 79.0856 12.7882 79.0683L12.6322 79.0483L12.3095 79.003L12.1575 78.9789L11.8242 78.9216L11.7255 78.9043C11.5868 78.8776 11.4548 78.8509 11.3268 78.8216L11.2389 78.8003L10.9615 78.731L10.8455 78.7003L10.6229 78.6323L10.5215 78.6003L10.2842 78.5123L10.2402 78.4963L10.0055 78.3883L9.94818 78.3563L9.85085 78.303L9.80684 78.271L9.76418 78.2403L9.63084 78.1256L9.62817 78.1243L9.54284 78.003L9.54017 77.9963L9.53618 77.9856L9.50684 77.8563Z" fill="#F5B026"/>
<path d="M9.54709 76.2936L9.53776 76.2749L9.52708 76.2056L9.52441 76.1949C9.53241 75.4549 12.3031 74.8869 15.7164 74.9216C17.9044 74.9443 19.8204 75.2096 20.9151 75.5923C21.5284 75.8056 21.8871 76.0549 21.8844 76.3203L21.8698 76.4003L21.8577 76.4256L21.8204 76.4976L21.7791 76.5549L21.7084 76.6269L21.6444 76.6789L21.5404 76.7496L21.4577 76.7976L21.3218 76.8656L21.2191 76.9109L21.0524 76.9762L20.9324 77.0176L20.7378 77.0789L20.6018 77.1163L20.3791 77.1736L20.2271 77.2082L19.9818 77.2603L19.8138 77.2909L19.5444 77.3389L19.3631 77.3669L19.0751 77.4069L18.8831 77.4309L18.5698 77.4669L18.3791 77.4843L18.0378 77.5149L17.8524 77.5283C17.7284 77.5363 17.6058 77.5456 17.4778 77.5523L17.3124 77.5603C17.1751 77.5669 17.0364 77.5736 16.8951 77.5776L16.8044 77.5803C16.4418 77.5909 16.0698 77.5963 15.6884 77.5909C15.2951 77.5869 14.9111 77.5749 14.5378 77.5549L14.4858 77.5536C14.3311 77.5456 14.1791 77.5349 14.0271 77.5243L13.9058 77.5163C13.7658 77.5056 13.6297 77.4936 13.4937 77.4803L13.3498 77.4683C13.2191 77.4549 13.0951 77.4403 12.9698 77.4256L12.8191 77.4082C12.6991 77.3936 12.5831 77.3776 12.4684 77.3616L12.3178 77.3403L11.9898 77.2856L11.8498 77.2616L11.5444 77.2016L11.4178 77.1749L11.1364 77.1096L11.0218 77.0816L10.7671 77.0096L10.6658 76.9789L10.4417 76.9029L10.3538 76.8709L10.1604 76.7909L10.0871 76.7563L9.92842 76.6723L9.86842 76.6363L9.74709 76.5509L9.70176 76.5109L9.61909 76.4243L9.58976 76.3816L9.54709 76.2936Z" fill="#FFCD2E"/>
<path d="M9.47461 75.827L9.51729 74.167L9.54395 74.2964L9.54795 74.307L9.63462 74.4364L9.63595 74.439L9.76795 74.555L9.81061 74.5857L9.95062 74.6737L10.0066 74.7057L10.2399 74.8177L10.284 74.835L10.52 74.9257L10.62 74.9604L10.8426 75.031L10.9573 75.0644L11.2346 75.1377L11.3213 75.1604C11.4493 75.191 11.5813 75.2203 11.7186 75.2483L11.8173 75.267L12.1506 75.3297L12.3026 75.3563L12.6226 75.407L12.7786 75.4297C12.9119 75.4484 13.0493 75.4657 13.1893 75.483L13.2706 75.4937C13.4386 75.5124 13.6106 75.531 13.7853 75.547L13.936 75.5604C14.0653 75.5724 14.1946 75.5817 14.3266 75.5924L14.5146 75.6057C14.6439 75.6137 14.7746 75.6217 14.9066 75.6284L15.084 75.6364C15.2733 75.6457 15.4653 75.6523 15.6586 75.6577C19.0706 75.7457 21.8533 75.2203 21.872 74.4843L21.8293 76.1443C21.8106 76.8803 19.028 77.407 15.616 77.319C15.4226 77.3137 15.2306 77.307 15.0413 77.2977L14.8639 77.2883C14.7319 77.2817 14.6013 77.2737 14.472 77.2657L14.284 77.2523C14.152 77.243 14.0226 77.2323 13.8933 77.2203L13.7413 77.207C13.5679 77.191 13.3959 77.1737 13.2279 77.1537L13.1466 77.143C13.0066 77.127 12.8693 77.1083 12.736 77.0897L12.5799 77.067L12.2599 77.0163L12.1079 76.991L11.7746 76.9284L11.6759 76.9097C11.5386 76.8803 11.4066 76.851 11.2786 76.8203L11.1919 76.7977L10.9146 76.7243L10.8 76.691L10.5773 76.6203L10.4773 76.5857L10.2413 76.4964L10.1986 76.479L9.96395 76.367L9.90794 76.3337L9.81195 76.279L9.76795 76.247L9.72528 76.2163L9.59328 76.099L9.59194 76.0964L9.50794 75.9737L9.50529 75.967L9.50129 75.9563L9.47461 75.827Z" fill="#F5B026"/>
<path d="M9.53892 74.2656L9.52957 74.247L9.52025 74.1763L9.51758 74.167C9.53624 73.427 12.3162 72.9016 15.7282 72.9883C17.9162 73.0456 19.8282 73.3403 20.9162 73.7403C21.5256 73.963 21.8802 74.2176 21.8736 74.483L21.8589 74.563L21.8456 74.5883L21.8069 74.6603L21.7656 74.715L21.6922 74.787L21.6296 74.8377L21.5242 74.907L21.4389 74.9536L21.3029 75.019L21.1989 75.063L21.0322 75.1256L20.9109 75.1643L20.7162 75.223L20.5789 75.259L20.3562 75.3123L20.2042 75.3456L19.9562 75.3936L19.7882 75.4216L19.5189 75.4643L19.3376 75.4896L19.0482 75.527L18.8562 75.547L18.5416 75.5776L18.3509 75.5936L18.0082 75.6176L17.8229 75.6283C17.6989 75.635 17.5762 75.6416 17.4496 75.647L17.2842 75.6523C17.1456 75.6563 17.0082 75.6603 16.8656 75.663L16.7749 75.6643C16.4122 75.6696 16.0402 75.6683 15.6589 75.6576C15.2656 75.6483 14.8816 75.6297 14.5096 75.6043L14.4576 75.6017C14.3016 75.591 14.1509 75.579 13.9989 75.5643L13.8776 75.555C13.7376 75.543 13.6016 75.5283 13.4669 75.5136L13.3216 75.4976C13.1922 75.4843 13.0682 75.467 12.9429 75.451L12.7936 75.431L12.4429 75.3776L12.2922 75.355L11.9656 75.2963L11.8269 75.2697L11.5229 75.2043L11.3949 75.1763L11.1149 75.1057L11.0002 75.0763L10.7482 75.0003L10.6469 74.9683L10.4229 74.8883L10.3362 74.855L10.1442 74.7723L10.0709 74.7363L9.91357 74.651L9.85492 74.6136L9.73491 74.5256L9.68958 74.4856L9.60824 74.3963L9.58024 74.3536L9.53892 74.2656Z" fill="#FFCD2E"/>
<path d="M9.8916 73.8896L9.93428 72.2283L9.96094 72.3576L9.96494 72.3697L10.0516 72.4977L10.0529 72.5003L10.1849 72.6176L10.2276 72.6483L10.3676 72.7363L10.4236 72.7683L10.6583 72.8803L10.7009 72.8977L10.9369 72.9883L11.0369 73.023L11.2596 73.0936L11.3743 73.127L11.6516 73.2003L11.7383 73.2216C11.8663 73.2523 11.9983 73.283 12.1356 73.311L12.2356 73.3297L12.5676 73.3923L12.7196 73.4176L13.0396 73.4683L13.1956 73.491C13.3303 73.511 13.4676 73.5283 13.6063 73.5456L13.6876 73.555C13.8556 73.575 14.0276 73.5923 14.2023 73.6096L14.3529 73.623C14.4823 73.6336 14.6116 73.6443 14.7436 73.6536L14.9316 73.667C15.0609 73.6763 15.1916 73.683 15.3236 73.691L15.5009 73.699C15.6903 73.7083 15.8823 73.715 16.0756 73.7203C19.4876 73.8083 22.2703 73.283 22.2889 72.5456L22.2463 74.207C22.2276 74.943 19.4449 75.4683 16.0329 75.3816C15.8396 75.3763 15.6476 75.3683 15.4583 75.3603L15.2809 75.351C15.1489 75.3443 15.0183 75.3363 14.8889 75.3283L14.7009 75.315C14.5689 75.3056 14.4396 75.295 14.3103 75.283L14.1596 75.2697C13.9849 75.2537 13.8129 75.235 13.6449 75.2163L13.5636 75.2057C13.4236 75.1883 13.2876 75.171 13.1529 75.1523L12.9969 75.1297L12.6769 75.079L12.5249 75.0523L12.1929 74.991L12.0929 74.971C11.9556 74.943 11.8236 74.9136 11.6956 74.883L11.6089 74.8603L11.3316 74.787L11.2169 74.7536L10.9943 74.683L10.8943 74.6483L10.6583 74.5576L10.6156 74.5403L10.3809 74.4297L10.3249 74.3963L10.2289 74.3403L10.1849 74.3083L10.1436 74.279L10.0103 74.1617L10.0089 74.159L9.92493 74.0363L9.92228 74.0297L9.91828 74.019L9.8916 73.8896Z" fill="#F5B026"/>
<path d="M9.95591 72.3283L9.94657 72.3097L9.93724 72.239L9.93457 72.2283C9.95324 71.4897 12.7332 70.9643 16.1452 71.051C18.3332 71.107 20.2452 71.403 21.3332 71.803C21.9426 72.0257 22.2972 72.2803 22.2906 72.5457L22.2759 72.6257L22.2626 72.651L22.2239 72.7217L22.1826 72.7777L22.1092 72.8497L22.0466 72.9003L21.9412 72.9697L21.8559 73.0163L21.7199 73.0817L21.6159 73.1257L21.4492 73.1883L21.3279 73.227L21.1332 73.2857L20.9959 73.3217L20.7732 73.375L20.6212 73.407L20.3732 73.4563L20.2052 73.4843L19.9359 73.527L19.7546 73.5523L19.4652 73.5883L19.2732 73.6097L18.9586 73.6403L18.7679 73.655L18.4252 73.6803L18.2399 73.691C18.1172 73.6977 17.9932 73.7043 17.8666 73.7097L17.7012 73.7137C17.5626 73.719 17.4252 73.723 17.2839 73.7257L17.1919 73.727C16.8292 73.731 16.4572 73.7297 16.0759 73.7203C15.6826 73.7097 15.2986 73.691 14.9266 73.667L14.8746 73.6643C14.7199 73.6523 14.5679 73.6403 14.4172 73.627L14.2946 73.6177C14.1546 73.6057 14.0186 73.591 13.8839 73.5763L13.7399 73.5603C13.6092 73.5457 13.4852 73.5297 13.3599 73.5123L13.2106 73.4937L12.8599 73.4403L12.7092 73.4177L12.3826 73.3577L12.2439 73.331L11.9399 73.267L11.8119 73.239L11.5319 73.1683L11.4186 73.1377L11.1652 73.063L11.0639 73.031L10.8412 72.951L10.7532 72.9177L10.5612 72.8337L10.4879 72.799L10.3306 72.7123L10.2719 72.6763L10.1519 72.587L10.1066 72.5483L10.0252 72.459L9.99723 72.4163L9.95591 72.3283Z" fill="#FFCD2E"/>
<path d="M9.38965 72.0523L9.40697 70.391L9.43498 70.519L9.43898 70.531L9.5283 70.659L9.52964 70.6603L9.66431 70.7763L9.70565 70.8057L9.84831 70.891L9.90431 70.923L10.1403 71.031L10.183 71.0483L10.4203 71.135L10.5216 71.167L10.7456 71.2337L10.8603 71.267L11.139 71.335L11.2256 71.3563C11.3536 71.3843 11.487 71.4123 11.6243 71.439L11.7243 71.4563L12.0576 71.5137L12.2096 71.5377L12.531 71.583L12.687 71.603C12.8216 71.619 12.959 71.6363 13.099 71.651L13.1803 71.659C13.3483 71.6763 13.5203 71.691 13.695 71.7057L13.847 71.7163C13.975 71.7257 14.1056 71.7336 14.2376 71.7416L14.4256 71.7523C14.555 71.7577 14.6856 71.7643 14.819 71.7697L14.995 71.775C15.1856 71.7816 15.3763 71.7857 15.571 71.787C18.983 71.8217 21.7576 71.2537 21.7643 70.5177L21.7483 72.1777C21.7403 72.915 18.9656 73.483 15.5536 73.4483C15.359 73.4457 15.1683 73.4417 14.979 73.4363L14.8016 73.4297C14.6696 73.4243 14.5376 73.419 14.4083 73.4123L14.2203 73.403C14.0883 73.395 13.959 73.3857 13.8296 73.3763L13.6776 73.367C13.503 73.3523 13.331 73.3377 13.163 73.3203L13.0816 73.311C12.9416 73.2963 12.8043 73.2817 12.6696 73.2643L12.5136 73.243L12.1923 73.1977L12.0403 73.175L11.707 73.1177L11.6083 73.1003C11.4696 73.0737 11.3363 73.0457 11.2096 73.0177L11.1216 72.9963L10.8443 72.927L10.7283 72.8963L10.5043 72.8283L10.403 72.7963L10.167 72.7083L10.123 72.6923L9.88831 72.5843L9.83097 72.5523L9.73364 72.4977L9.68965 72.467L9.64697 72.4363L9.5123 72.3217V72.3203L9.42563 72.199L9.42298 72.1923L9.41898 72.1817L9.38965 72.0523Z" fill="#F5B026"/>
<path d="M9.42759 70.4897L9.41826 70.471L9.40892 70.4003L9.40625 70.391C9.41292 69.651 12.1849 69.083 15.5969 69.1177C17.7863 69.1403 19.7023 69.4057 20.7969 69.7883C21.4089 70.0017 21.7676 70.251 21.7649 70.5163L21.7516 70.5963L21.7383 70.6217L21.7009 70.6937L21.6609 70.751L21.5889 70.823L21.5263 70.8737L21.4223 70.9456L21.3383 70.9937L21.2023 71.0617L21.0996 71.107L20.9343 71.1723L20.8143 71.2123L20.6196 71.2737L20.4823 71.3123L20.2609 71.3697L20.1089 71.4043L19.8623 71.4563L19.6956 71.487L19.4263 71.535L19.2449 71.563L18.9556 71.603L18.7649 71.627L18.4516 71.663L18.2609 71.6803L17.9183 71.711L17.7329 71.7243C17.6103 71.7323 17.4863 71.7416 17.3596 71.7483L17.1943 71.7563C17.0569 71.763 16.9183 71.7697 16.7769 71.7737L16.6863 71.7763C16.3236 71.7856 15.9516 71.791 15.5703 71.787C15.1756 71.783 14.7929 71.771 14.4196 71.751L14.3676 71.7497C14.2116 71.7403 14.0596 71.731 13.9089 71.7203L13.7876 71.7123C13.6476 71.7016 13.5116 71.6896 13.3756 71.6763L13.2303 71.6643C13.1009 71.651 12.9756 71.6363 12.8516 71.6217L12.7009 71.6057C12.5809 71.5897 12.4649 71.5737 12.3503 71.5577L12.1996 71.5363L11.8716 71.4816L11.7316 71.4577L11.4263 71.3977L11.2983 71.3723L11.0169 71.3057L10.9036 71.2776L10.6489 71.2057L10.5476 71.175L10.3236 71.099L10.2343 71.067L10.0423 70.987L9.96759 70.9523L9.80892 70.8683L9.75026 70.8323L9.62892 70.7456L9.58226 70.707L9.50093 70.619L9.4716 70.5776L9.42759 70.4897Z" fill="#FFCD2E"/>
<path d="M9.92578 70.1176L9.94178 68.4563L9.97113 68.5856L9.97511 68.5963L10.0631 68.7243L10.0645 68.727L10.1991 68.8416L10.2418 68.871L10.3831 68.9563L10.4404 68.9883L10.6751 69.0963L10.7191 69.1136L10.9565 69.2003L11.0578 69.2323L11.2805 69.3003L11.3965 69.331L11.6738 69.4003L11.7618 69.4216C11.8885 69.451 12.0218 69.4777 12.1604 69.5043L12.2591 69.5216L12.5924 69.579L12.7444 69.603L13.0671 69.6483L13.2218 69.6683C13.3565 69.6857 13.4938 69.7003 13.6338 69.715L13.7151 69.7243C13.8831 69.7416 14.0551 69.7563 14.2298 69.771L14.3818 69.7816C14.5111 69.791 14.6404 69.799 14.7738 69.807L14.9604 69.8176C15.0898 69.8243 15.2218 69.8297 15.3538 69.8337L15.5311 69.8403C15.7205 69.8457 15.9125 69.851 16.1058 69.8523C19.5178 69.887 22.2925 69.319 22.3005 68.5816L22.2831 70.243C22.2765 70.9803 19.5018 71.5483 16.0898 71.5136C15.8951 71.5123 15.7031 71.507 15.5138 71.5017L15.3365 71.495C15.2045 71.491 15.0738 71.4843 14.9431 71.479L14.7565 71.4683C14.6245 71.4603 14.4938 71.4523 14.3645 71.443L14.2138 71.431C14.0378 71.4176 13.8658 71.403 13.6991 71.3856L13.6178 71.3763C13.4778 71.3616 13.3405 71.3456 13.2058 71.3296L13.0498 71.3096L12.7285 71.263L12.5751 71.2403L12.2431 71.183L12.1431 71.1643C12.0044 71.139 11.8724 71.111 11.7444 71.083L11.6578 71.0616L11.3791 70.9923L11.2631 70.9603L11.0404 70.8936L10.9391 70.8616L10.7018 70.7737L10.6591 70.7576L10.4231 70.6496L10.3671 70.6176L10.2698 70.563L10.2244 70.5323L10.1818 70.503L10.0485 70.387L10.0458 70.3856L9.96045 70.2643L9.95778 70.2576L9.95379 70.2456L9.92578 70.1176Z" fill="#F5B026"/>
<path d="M9.96408 68.5549L9.95475 68.5363L9.94408 68.4656L9.94141 68.4563C9.94941 67.7176 12.7214 67.1483 16.1334 67.1829C18.3214 67.2056 20.2374 67.4709 21.3321 67.8536C21.9454 68.0669 22.3041 68.3163 22.3014 68.5816L22.2868 68.6629L22.2747 68.6869L22.2374 68.7589L22.1961 68.8149L22.1254 68.8883L22.0614 68.9403L21.9574 69.0109L21.8747 69.0589L21.7388 69.1269L21.6361 69.1723L21.4694 69.2363L21.3494 69.2789L21.1548 69.3403L21.0187 69.3776L20.7961 69.4349L20.6441 69.4696L20.3987 69.5216L20.2307 69.5523L19.9627 69.6003L19.7801 69.6269L19.4921 69.6683L19.3001 69.6923L18.9868 69.7283L18.7961 69.7456L18.4548 69.7762L18.2694 69.7883C18.1454 69.7976 18.0227 69.8069 17.8947 69.8136L17.7307 69.8216C17.5921 69.8283 17.4547 69.8349 17.3121 69.8389L17.2214 69.8403C16.8588 69.8523 16.4868 69.8563 16.1054 69.8523C15.7121 69.8483 15.3281 69.8363 14.9548 69.8176L14.9028 69.8149C14.7481 69.8069 14.5961 69.7963 14.4441 69.7856L14.3228 69.7776C14.1828 69.7669 14.0467 69.7549 13.9107 69.7416L13.7667 69.7296C13.6374 69.7163 13.5121 69.7016 13.3868 69.6869L13.2361 69.6696C13.1161 69.6549 13.0001 69.6389 12.8854 69.6216L12.7347 69.6003L12.4067 69.5469L12.2667 69.5229L11.9627 69.4629L11.8347 69.4363L11.5534 69.3709L11.4388 69.3429L11.1841 69.2709L11.0827 69.2403L10.8587 69.1643L10.7708 69.1323L10.5774 69.0523L10.5041 69.0176L10.3454 68.9336L10.2854 68.8976L10.1641 68.8123L10.1187 68.7723L10.0361 68.6856L10.0067 68.6429L9.96408 68.5549Z" fill="#FFCD2E"/>
<path d="M9.6709 68.1829L9.6869 66.5216L9.71623 66.6509L9.72023 66.6616L9.80822 66.7896L9.80955 66.7909L9.94422 66.907L9.9869 66.9363L10.1296 67.0216L10.1856 67.0536L10.4202 67.1616L10.4642 67.1789L10.7016 67.2656L10.8029 67.2976L11.0256 67.3643L11.1416 67.3976L11.4202 67.4656L11.5069 67.4869C11.6349 67.5149 11.7669 67.543 11.9056 67.5696L12.0042 67.5869L12.3376 67.6443L12.4909 67.667L12.8122 67.7136L12.9682 67.7336C13.1016 67.751 13.2402 67.7656 13.3802 67.7803L13.4616 67.7896C13.6282 67.8069 13.8002 67.8216 13.9762 67.8363L14.1269 67.8469C14.2562 67.8563 14.3869 67.8643 14.5189 67.8723L14.7056 67.8829C14.8362 67.8883 14.9669 67.895 15.0989 67.899L15.2762 67.9056C15.4656 67.9123 15.6576 67.9163 15.8522 67.9176C19.2642 67.9523 22.0376 67.3843 22.0456 66.6483L22.0282 68.3083C22.0216 69.0456 19.2469 69.6136 15.8349 69.5789C15.6402 69.5763 15.4496 69.5723 15.2589 69.567L15.0816 69.5603C14.9496 69.555 14.8189 69.5509 14.6896 69.5429L14.5016 69.5336C14.3696 69.5256 14.2389 69.5176 14.1109 69.507L13.9589 69.4963C13.7842 69.483 13.6122 69.4683 13.4442 69.4509L13.3629 69.4416C13.2229 69.4269 13.0856 69.4123 12.9509 69.395L12.7949 69.3736L12.4736 69.3296L12.3216 69.3056L11.9882 69.2483L11.8882 69.231C11.7509 69.2043 11.6176 69.1763 11.4896 69.1483L11.4029 69.127L11.1242 69.0576L11.0096 69.0256L10.7856 68.959L10.6842 68.927L10.4469 68.839L10.4042 68.8229L10.1682 68.7149L10.1122 68.6829L10.0149 68.6283L9.96956 68.5976L9.92822 68.567L9.79355 68.4523L9.79222 68.4509L9.70557 68.3296L9.7029 68.3216L9.69889 68.3109L9.6709 68.1829Z" fill="#F5B026"/>
<path d="M9.70918 66.6203L9.69985 66.6017L9.68919 66.531L9.68652 66.5217C9.69452 65.7817 12.4665 65.2137 15.8785 65.2483C18.0665 65.271 19.9838 65.5363 21.0772 65.919C21.6905 66.1323 22.0492 66.3817 22.0465 66.647L22.0332 66.727L22.0199 66.7523L21.9825 66.8243L21.9412 66.8817L21.8705 66.9537L21.8078 67.0057L21.7039 67.0763L21.6199 67.1243L21.4839 67.1923L21.3812 67.2363L21.2159 67.303L21.0945 67.343L20.8999 67.4057L20.7639 67.443L20.5412 67.5003L20.3905 67.535L20.1438 67.587L19.9758 67.6177L19.7078 67.6657L19.5252 67.6923L19.2372 67.7337L19.0452 67.7577L18.7319 67.7937L18.5412 67.811L18.1999 67.8417L18.0145 67.855C17.8905 67.863 17.7678 67.8723 17.6398 67.879L17.4758 67.8857C17.3372 67.8937 17.1998 67.9004 17.0585 67.9044L16.9665 67.907C16.6039 67.9177 16.2332 67.9217 15.8519 67.9177C15.4572 67.9137 15.0732 67.9017 14.6999 67.8817L14.6492 67.8803C14.4932 67.8723 14.3412 67.8617 14.1905 67.851L14.0692 67.843C13.9279 67.8323 13.7919 67.819 13.6559 67.807L13.5118 67.795C13.3825 67.7817 13.2572 67.767 13.1319 67.7523L12.9812 67.735C12.8612 67.7203 12.7465 67.7043 12.6305 67.6883L12.4799 67.667L12.1532 67.6123L12.0132 67.5883L11.7078 67.5283L11.5799 67.5017L11.2985 67.4363L11.1839 67.407L10.9305 67.3363L10.8292 67.3057L10.6039 67.2297L10.5159 67.1977L10.3238 67.1177L10.2492 67.083L10.0905 66.999L10.0319 66.963L9.90918 66.8763L9.86385 66.8377L9.78118 66.751L9.75186 66.707L9.70918 66.6203Z" fill="#FFCD2E"/>
<path d="M11.4268 63.3696L10.7988 61.8309L10.8748 61.939L10.8828 61.9483L11.0148 62.0309L11.0162 62.0323L11.1855 62.0869L11.2362 62.0976L11.4002 62.1216L11.4642 62.1283L11.7228 62.1376L11.7695 62.1363L12.0215 62.1243L12.1268 62.1149L12.3588 62.0896L12.4788 62.0736L12.7615 62.0296L12.8495 62.0149C12.9788 61.9923 13.1122 61.9656 13.2495 61.9363L13.3482 61.9149L13.6775 61.8376L13.8268 61.8003L14.1402 61.7176L14.2922 61.6763C14.4228 61.6389 14.5548 61.6003 14.6895 61.5589L14.7682 61.5363C14.9295 61.4856 15.0935 61.4336 15.2602 61.3789L15.4042 61.3296C15.5268 61.2883 15.6508 61.2456 15.7748 61.2016L15.9522 61.139C16.0735 61.0936 16.1962 61.0483 16.3202 61.0016L16.4868 60.939C16.6628 60.8696 16.8415 60.8003 17.0215 60.7269C20.1802 59.4336 22.5162 57.8336 22.2375 57.1509L22.8655 58.6883C23.1442 59.3709 20.8082 60.9723 17.6508 62.2643C17.4708 62.3376 17.2922 62.4069 17.1148 62.4763L16.9495 62.539C16.8255 62.5856 16.7028 62.6309 16.5802 62.6749L16.4042 62.739C16.2788 62.783 16.1562 62.8256 16.0335 62.867L15.8895 62.9163C15.7228 62.9709 15.5588 63.0243 15.3975 63.0736L15.3188 63.0963C15.1842 63.1376 15.0508 63.1763 14.9215 63.2123L14.7695 63.2549L14.4548 63.3376L14.3055 63.3749L13.9762 63.4523L13.8788 63.4736C13.7402 63.503 13.6082 63.5296 13.4788 63.5523L13.3908 63.567L13.1068 63.6109L12.9882 63.6269L12.7562 63.6523L12.6508 63.6616L12.3988 63.6736L12.3522 63.6749L12.0935 63.6656L12.0282 63.6589L11.9175 63.6469L11.8642 63.635L11.8135 63.6243L11.6455 63.5696L11.6428 63.5683L11.5175 63.4909L11.5122 63.4856L11.5042 63.4763L11.4268 63.3696Z" fill="#F5B026"/>
<path d="M10.8568 61.915L10.8408 61.9003L10.8035 61.8403L10.7982 61.831C10.5182 61.147 12.8515 59.547 16.0102 58.255C18.0355 57.427 19.9048 56.927 21.0622 56.855C21.7088 56.815 22.1368 56.9057 22.2368 57.151L22.2555 57.2297L22.2528 57.2577L22.2462 57.339L22.2315 57.407L22.1942 57.5003L22.1555 57.5737L22.0875 57.679L22.0288 57.755L21.9302 57.8723L21.8528 57.9523L21.7248 58.0763L21.6302 58.1617L21.4755 58.2937L21.3635 58.3816L21.1808 58.5203L21.0555 58.611L20.8488 58.755L20.7062 58.8497L20.4768 58.9963L20.3195 59.0923L20.0702 59.243L19.9022 59.339L19.6275 59.4937L19.4582 59.5843L19.1555 59.7443L18.9902 59.8283L18.6542 59.9963L18.5048 60.067C18.3808 60.127 18.2568 60.1856 18.1275 60.2456L18.0448 60.283C17.7142 60.4337 17.3742 60.5817 17.0208 60.7257C16.6555 60.875 16.2968 61.0123 15.9462 61.1403L15.8982 61.1577C15.7515 61.211 15.6075 61.2603 15.4635 61.3083L15.3488 61.3483C15.2155 61.3936 15.0848 61.435 14.9555 61.4763L14.8168 61.5203C14.6928 61.559 14.5715 61.5937 14.4502 61.6297L14.3048 61.6723L13.9635 61.7643L13.8168 61.803L13.4942 61.8803L13.3555 61.9123L13.0502 61.975L12.9222 62.0003L12.6382 62.0497L12.5222 62.067L12.2595 62.1003L12.1542 62.1123L11.9182 62.1283L11.8235 62.1337H11.6155L11.5342 62.131L11.3555 62.115L11.2862 62.1057L11.1408 62.0723L11.0835 62.055L10.9742 62.0057L10.9302 61.9776L10.8568 61.915Z" fill="#FFCD2E"/>
<path d="M16.0596 52.623L16.0702 50.8483L16.0996 51.0603L16.1036 51.079L16.1916 51.2897L16.1929 51.2937L16.3262 51.4843L16.3689 51.5337L16.5102 51.675L16.5662 51.727L16.8022 51.907L16.8449 51.9337L17.0822 52.079L17.1836 52.1337L17.4062 52.2456L17.5222 52.2977L17.7996 52.4136L17.8876 52.4483C18.0142 52.4963 18.1476 52.5417 18.2849 52.5857L18.3849 52.6163L18.7169 52.7123L18.8689 52.751L19.1916 52.8283L19.3462 52.863C19.4809 52.891 19.6182 52.9176 19.7582 52.943L19.8396 52.9577C20.0076 52.987 20.1796 53.0123 20.3542 53.0363L20.5062 53.055C20.6342 53.071 20.7649 53.0857 20.8969 53.1003L21.0849 53.1177C21.2142 53.1297 21.3449 53.139 21.4782 53.147L21.6542 53.159C21.8449 53.1697 22.0356 53.1776 22.2302 53.1816C25.6422 53.2576 28.4182 52.335 28.4289 51.1217L28.4169 52.8977C28.4076 54.111 25.6316 55.0337 22.2182 54.9577C22.0249 54.9537 21.8329 54.9457 21.6436 54.935L21.4662 54.923C21.3342 54.915 21.2036 54.9043 21.0729 54.8937L20.8862 54.875C20.7542 54.863 20.6236 54.847 20.4956 54.831L20.3436 54.8123C20.1689 54.7883 19.9969 54.763 19.8289 54.7337L19.7476 54.719C19.6076 54.6937 19.4702 54.667 19.3356 54.639L19.1796 54.6043L18.8582 54.527L18.7062 54.4883L18.3729 54.3923L18.2742 54.363C18.1356 54.3177 18.0036 54.2723 17.8756 54.2243L17.7889 54.1897L17.5102 54.0737L17.3956 54.0203L17.1716 53.9096L17.0702 53.855L16.8342 53.7096L16.7902 53.683L16.5556 53.503L16.4996 53.451L16.4022 53.3603L16.3582 53.3083L16.3156 53.2603L16.1809 53.0697L16.1796 53.0657L16.0942 52.8657L16.0916 52.855L16.0876 52.8363L16.0596 52.623Z" fill="#F5B026"/>
<path d="M16.093 51.0109L16.0836 50.9803L16.073 50.8643L16.0703 50.8469C16.081 49.6296 18.8543 48.7069 22.2663 48.7829C24.4543 48.8309 26.3703 49.2789 27.4636 49.9149C28.0756 50.2696 28.433 50.6843 28.429 51.1203L28.4156 51.2523L28.4023 51.2936L28.365 51.4123L28.3236 51.5056L28.253 51.6243L28.189 51.7096L28.085 51.8256L28.001 51.9043L27.865 52.0163L27.7623 52.0896L27.5956 52.1963L27.4756 52.2629L27.281 52.3629L27.1436 52.4256L26.9223 52.5189L26.7703 52.5736L26.5236 52.6603L26.3556 52.7096L26.0876 52.7856L25.905 52.8296L25.617 52.8963L25.425 52.9336L25.1116 52.9923L24.921 53.0203L24.5783 53.0683L24.393 53.0883C24.2703 53.1029 24.1463 53.1163 24.0196 53.1269L23.8543 53.139C23.717 53.1483 23.5783 53.159 23.437 53.1656L23.3463 53.1696C22.9836 53.1843 22.6116 53.1909 22.2303 53.1816C21.8356 53.1736 21.453 53.1509 21.0796 53.1176L21.0276 53.1123C20.8716 53.0976 20.721 53.0803 20.569 53.0629L20.4476 53.0483C20.3076 53.0296 20.1716 53.0096 20.0356 52.9883L19.8916 52.9656C19.761 52.9443 19.637 52.9189 19.5116 52.8949L19.361 52.8656C19.241 52.8403 19.1263 52.8123 19.0103 52.7856L18.8596 52.7496L18.533 52.6589L18.393 52.6189L18.0876 52.5176L17.9596 52.4736L17.6783 52.3629L17.565 52.3163L17.3103 52.1976L17.209 52.1469L16.985 52.0203L16.897 51.967L16.705 51.8336L16.6316 51.7763L16.473 51.6363L16.413 51.5776L16.2916 51.435L16.2463 51.3696L16.165 51.2256L16.1356 51.1549L16.093 51.0109Z" fill="#FFCD2E"/>
<path d="M74.8102 34.0977L74.7316 34.0417L74.4769 33.8604L74.2529 33.7244L74.0062 33.615L73.7196 33.5123L73.6262 33.479L62.8382 30.7884C62.6476 30.7404 62.4569 30.7137 62.2676 30.7057C62.9156 29.3697 64.4916 28.743 65.8849 29.3137L76.1716 33.5337L76.2596 33.579L76.5289 33.723L76.7569 33.867L76.9582 34.0337L77.1849 34.251L77.2529 34.3177L84.4649 42.779L84.5156 42.8617L74.8102 34.0977Z" fill="#FAC48E"/>
<path d="M62.8391 30.7883L73.6271 33.479L73.7204 33.5123L74.0071 33.615L74.2538 33.7243L74.4777 33.8603L74.7324 34.0416L74.8111 34.0977L84.5164 42.8617L84.5351 42.879C84.6551 43.0163 84.7457 43.143 84.8417 43.2723L74.2231 36.5363L74.2257 36.563L71.9058 34.955L71.8218 34.907L71.5484 34.7563L71.3097 34.647L71.0524 34.5657L70.7551 34.4963L70.6591 34.4737L59.6351 33.031L59.3711 33.023L59.3871 32.9096L59.4004 32.855C59.7324 31.5257 60.9511 30.651 62.2684 30.7057C62.4578 30.7137 62.6484 30.7403 62.8391 30.7883Z" fill="#FAC48E"/>
<path d="M85.4404 44.511L85.2178 43.8723C85.3284 44.095 85.4071 44.3083 85.4404 44.511Z" fill="#F4D3B0"/>
<path d="M61.5149 64.855C67.7696 63.391 70.6776 63.4296 75.9602 69.0523C77.9642 71.1936 83.2696 72.7723 83.2696 72.7723L89.8722 82.647C93.7589 80.151 97.1589 76.963 99.8989 73.2577L93.1296 66.6096L85.4402 44.5136L85.2202 43.8683L85.0602 43.4057L84.8402 43.2697L74.2216 36.5363L74.2296 36.559L71.9069 34.9577L71.8229 34.9043L71.5496 34.7603L71.3069 34.6456L71.0482 34.563L70.7522 34.495L70.6616 34.4723L59.6336 33.0297L59.3669 33.0216C57.9256 32.9697 56.6429 34.0083 56.4522 35.4737L56.4456 35.535C56.2402 37.083 57.3402 38.5096 58.8896 38.715L61.8189 39.095L61.9629 39.1176L69.1216 40.051L75.4136 45.151L77.1976 53.615L72.8402 57.675C70.3056 57.599 68.1269 57.5697 66.0842 57.7363C65.9176 57.751 65.7589 57.767 65.5909 57.7816C64.1642 57.9256 62.7909 58.1763 61.3936 58.5856C55.2002 60.263 56.6962 66.063 61.5149 64.855Z" fill="#FFD2A1"/>
<path d="M55.5521 42.279L55.6508 38.7777L52.8241 37.7403L51.8294 35.1377L53.2481 32.4817L50.8414 29.9363L48.1094 31.203L45.5668 30.0643L44.6908 27.183L41.1894 27.0843L40.1534 29.9123L37.5494 30.9057L34.8934 29.487L32.3481 31.8937L33.6148 34.6257L32.4761 37.1683L29.5948 38.0443L29.4961 41.5457L32.3241 42.5817L33.3174 45.1857L31.9001 47.8417L34.3054 50.387L37.0374 49.1203L39.5814 50.259L40.4561 53.1403L43.9574 53.239L44.9934 50.411L47.5974 49.4177L50.2534 50.8363L52.7988 48.4297L51.5334 45.6977L52.6708 43.155L55.5521 42.279Z" fill="#F35D4B"/>
<path d="M68.7937 50.8537L71.1777 49.9017L71.1124 47.1136L68.6857 46.2737L67.747 44.439L68.4897 41.9803L66.2697 40.2937L64.1004 41.667L62.0804 41.2563L60.6204 39.143L57.9177 39.8283L57.639 42.3803L56.0577 43.703L53.4964 43.527L52.3457 46.067L54.1684 47.8763L54.1804 48.363C54.1417 48.9723 54.1884 49.427 54.1484 50.0123L52.4817 51.831L53.751 54.3136L56.3017 54.0163L57.943 55.2643L58.3404 57.8003L61.0737 58.3563L62.431 56.1776L64.4297 55.6723L66.6617 56.9416L68.8004 55.1523L67.943 52.7323L68.7937 50.8537Z" fill="#F35D4B"/>
<path d="M54.888 67.1909L54.4293 64.0043L56.7279 61.6176L54.8933 58.1963L51.6333 58.7883L49.2333 56.6416L49.4599 53.3363L45.8546 51.8936L43.7386 54.4443L40.52 54.3429L38.5693 51.6643L34.8799 52.8763L34.8986 56.1896L32.368 58.1816L29.1506 57.3843L27.104 60.6829L29.2493 63.2096L28.5893 66.3629L25.6133 67.8189L26.1666 71.6616L29.4333 72.2189L30.9546 75.0576L29.6106 78.0869L32.504 80.6749L35.3653 79.0029L38.3546 80.1976L39.272 83.3829L43.1533 83.5056L44.2693 80.3856L47.3293 79.3789L50.0786 81.2296L53.1306 78.8283L51.9799 75.7203L53.6773 72.9843L56.972 72.6336L57.7666 68.8336L54.888 67.1909Z" fill="#F35D4B"/>
<path d="M49.4069 40.1617C49.4069 43.935 46.3482 46.995 42.5736 46.995C38.8002 46.995 35.7402 43.935 35.7402 40.1617C35.7402 36.387 38.8002 33.3283 42.5736 33.3283C46.3482 33.3283 49.4069 36.387 49.4069 40.1617Z" fill="white"/>
<path d="M49.9681 67.5844C49.9681 72.1564 46.2615 75.863 41.6895 75.863C37.1188 75.863 33.4121 72.1564 33.4121 67.5844C33.4121 63.0124 37.1188 59.307 41.6895 59.307C46.2615 59.307 49.9681 63.0124 49.9681 67.5844Z" fill="white"/>
<path d="M66.8925 48.751C66.8925 51.7057 64.4965 54.103 61.5405 54.103C58.5845 54.103 56.1885 51.7057 56.1885 48.751C56.1885 45.795 58.5845 43.3977 61.5405 43.3977C64.4965 43.3977 66.8925 45.795 66.8925 48.751Z" fill="white"/>
<path d="M87.8683 80.6857L99.7097 70.9243L94.0777 64.0923L82.2363 73.8523L87.8683 80.6857Z" fill="#EDEDED"/>
<path d="M110.689 82.5269L97.3944 93.4869L94.9464 90.5789L85.6904 79.5936L99.0558 68.5749L110.689 82.5269Z" fill="#28324E"/>
<path d="M93.6067 84.387C93.1187 84.5776 92.8787 85.127 93.0694 85.615C93.26 86.1016 93.8093 86.3416 94.296 86.1523C94.784 85.9616 95.024 85.4123 94.8334 84.9243C94.6427 84.4376 94.0933 84.1963 93.6067 84.387Z" fill="#EDEDED"/>
<path d="M91.5323 82.119C91.0456 82.3097 90.8043 82.859 90.995 83.347C91.1856 83.8337 91.735 84.0737 92.223 83.8844C92.7096 83.6937 92.9496 83.143 92.759 82.6564C92.5683 82.1697 92.019 81.9284 91.5323 82.119Z" fill="#EDEDED"/>
<path d="M89.5946 79.7697C89.108 79.9603 88.868 80.5097 89.0586 80.9963C89.2493 81.4843 89.7986 81.7243 90.2853 81.5337C90.772 81.343 91.0133 80.7937 90.8226 80.3057C90.632 79.819 90.0826 79.579 89.5946 79.7697Z" fill="#EDEDED"/>
</svg>
