<svg width="120" height="121" viewBox="0 0 120 121" fill="none" xmlns="http://www.w3.org/2000/svg">
<path d="M85.4119 67.4243L70.8105 67.3852L70.8599 48.9003L85.4612 48.9399L85.4119 67.4243Z" fill="#F89F26"/>
<path d="M88.0112 53.98C86.6538 53.9758 85.5018 55.9002 85.4952 58.1816C85.4898 60.4628 86.6312 62.3934 87.9885 62.3972C89.3458 62.4013 90.4978 60.4773 90.5032 58.1945C90.5098 55.9133 89.3685 53.9841 88.0112 53.98ZM87.9832 64.1201C85.6138 64.1133 83.7645 61.5029 83.7725 58.1773C83.7818 54.8508 85.6458 52.2508 88.0152 52.2576C90.3858 52.2638 92.2352 54.8732 92.2258 58.2002C92.2165 61.5253 90.3538 64.1253 87.9832 64.1201Z" fill="#F89F26"/>
<path d="M76.6091 53.7963L78.6291 56.5416L81.7958 55.2827L79.8091 58.052L81.9851 60.675L78.7371 59.6416L76.9145 62.5212L76.8945 59.1135L73.5918 58.2698L76.8278 57.1974L76.6091 53.7963Z" fill="white"/>
<path d="M80.5513 48.2004C80.3926 48.2004 80.2646 48.0723 80.2646 47.9135C80.2673 46.9218 80.598 46.4015 80.8886 45.9442C81.174 45.4963 81.4206 45.1083 81.4233 44.2827C81.426 43.4578 81.1806 43.0682 80.898 42.616C80.6086 42.1578 80.282 41.6364 80.2846 40.6442C80.2873 39.652 80.6166 39.1323 80.9086 38.675C81.194 38.2255 81.4406 37.8375 81.4433 37.0124C81.4433 36.8536 81.5713 36.7255 81.73 36.7255C81.8886 36.7255 82.0166 36.8546 82.0166 37.0135C82.014 38.0056 81.6846 38.5244 81.3926 38.9827C81.1073 39.4323 80.8606 39.8203 80.8593 40.6458C80.8566 41.4723 81.1006 41.8603 81.3846 42.3124C81.6726 42.7708 81.9993 43.2922 81.9966 44.2843C81.994 45.276 81.6646 45.7947 81.374 46.2536C81.0886 46.7015 80.842 47.0895 80.8393 47.9151C80.8393 48.0734 80.71 48.2015 80.5513 48.2004Z" fill="#DADADA"/>
<path d="M77.5894 48.1921C77.4307 48.1921 77.3027 48.064 77.3027 47.9056C77.3054 46.9135 77.6347 46.3936 77.9267 45.9364C78.2121 45.4884 78.4587 45.1004 78.4601 44.2749C78.4627 43.4493 78.2187 43.0603 77.9347 42.6083C77.6467 42.1493 77.3201 41.628 77.3227 40.6364C77.3254 39.6441 77.6547 39.1244 77.9454 38.6671C78.2307 38.2176 78.4774 37.8296 78.48 37.0041C78.48 36.8457 78.6094 36.7176 78.7681 36.7176C78.9267 36.7176 79.0547 36.8468 79.0547 37.0056C79.0521 37.9973 78.7214 38.516 78.4307 38.9749C78.1454 39.4244 77.8987 39.8124 77.8961 40.6375C77.8934 41.464 78.1387 41.852 78.4214 42.3041C78.7107 42.7629 79.0374 43.2843 79.0347 44.276C79.0321 45.2681 78.7027 45.7869 78.4107 46.2457C78.1254 46.6936 77.8787 47.0817 77.876 47.9067C77.876 48.0656 77.7481 48.1936 77.5894 48.1921Z" fill="#DADADA"/>
<path d="M74.6252 48.1843C74.4665 48.1843 74.3385 48.0562 74.3399 47.8974C74.3425 46.9057 74.6719 46.387 74.9639 45.9281C75.2492 45.4802 75.4959 45.0922 75.4972 44.2671C75.4999 43.4417 75.2545 43.0521 74.9719 42.6005C74.6839 42.1417 74.3559 41.6203 74.3585 40.6281C74.3612 39.6365 74.6919 39.1177 74.9825 38.6589C75.2679 38.2099 75.5145 37.8218 75.5172 36.9963C75.5172 36.8375 75.6465 36.7099 75.8052 36.7099C75.9639 36.7099 76.0919 36.839 76.0905 36.9974C76.0879 37.9895 75.7585 38.5083 75.4679 38.9671C75.1825 39.4161 74.9359 39.8042 74.9332 40.6297C74.9305 41.4562 75.1759 41.8442 75.4585 42.2963C75.7465 42.7551 76.0745 43.2761 76.0719 44.2698C76.0692 45.2603 75.7385 45.7791 75.4479 46.2375C75.1625 46.6854 74.9159 47.0734 74.9132 47.899C74.9132 48.0578 74.7839 48.1854 74.6252 48.1843Z" fill="#DADADA"/>
<path d="M92.0108 91.6869L54.9602 100.043L54.6055 98.4671L91.6562 90.1108L92.0108 91.6869Z" fill="#9D9D9C"/>
<path d="M92.4185 90.2004L53.9545 98.8749C52.8279 99.1296 51.7092 98.4217 51.4545 97.2962L46.3039 74.452C46.0492 73.3254 46.7559 72.2056 47.8825 71.952L86.3465 63.2774C87.4732 63.0228 88.5919 63.7306 88.8465 64.8577L93.9985 87.7014C94.2519 88.828 93.5452 89.9468 92.4185 90.2004Z" fill="#EDEDED"/>
<path d="M95.5678 92.0296L95.3212 90.9389L51.6465 100.788L51.8932 101.879C51.9492 102.131 52.0452 102.363 52.1665 102.572H58.7758L94.1558 94.5921C94.7612 94.4561 95.2305 94.0135 95.4625 93.4337C95.6305 93.0151 95.6785 92.5244 95.5678 92.0296Z" fill="#9D9D9C"/>
<path d="M95.5705 92.0296L51.8932 101.88L51.6465 100.789L95.3238 90.9389L95.5705 92.0296Z" fill="#575756"/>
<path d="M89.5094 89.0082L56.0708 96.5492C55.0921 96.7696 54.1188 96.155 53.8988 95.1764L49.4201 75.3175C49.1988 74.3374 49.8134 73.3655 50.7934 73.144L84.2308 65.603C85.2094 65.3826 86.1828 65.9972 86.4028 66.9759L90.8814 86.8363C91.1028 87.815 90.4881 88.7883 89.5094 89.0082Z" fill="#00D9AB"/>
<path d="M84.3392 82.0281C81.8726 82.5843 80.2312 81.1562 78.7832 79.8963C77.3979 78.6895 76.0886 77.551 74.1313 77.9922C72.1739 78.4338 71.4806 80.0245 70.7472 81.7083C69.9806 83.4682 69.1112 85.4614 66.6446 86.0187C64.1792 86.575 62.5393 85.1458 61.0926 83.8854C59.7073 82.6802 58.3992 81.5401 56.4432 81.9818C56.1646 82.0442 55.8899 81.8698 55.8273 81.5922C55.7646 81.3135 55.9379 81.039 56.2166 80.9761C58.6819 80.4203 60.3219 81.8485 61.7686 83.1083C63.1539 84.3151 64.4619 85.4537 66.4179 85.0135C68.3752 84.5723 69.0686 82.9802 69.8019 81.2963C70.5686 79.5375 71.4379 77.5433 73.9046 76.987C76.3712 76.4307 78.0126 77.8589 79.4606 79.1187C80.8459 80.3245 82.1552 81.4641 84.1126 81.0229C84.3899 80.9603 84.6659 81.1338 84.7286 81.4125C84.7913 81.6895 84.6166 81.9657 84.3392 82.0281Z" fill="#F6F6F6"/>
<path d="M75.2077 77.8364L73.0317 78.3269L72.541 76.1509L74.717 75.6602L75.2077 77.8364Z" fill="white"/>
<path d="M81.1302 75.6216L67.3116 78.7373L67.1982 78.2346L81.0169 75.1185L81.1302 75.6216Z" fill="white"/>
<path d="M65.4758 71.2493L53.1318 67.8306L58.9945 46.6613L71.3372 50.0801L65.4758 71.2493Z" fill="#07C1D4"/>
<path d="M70.9308 49.139L60.2308 46.175C59.1961 45.8895 58.1255 46.4947 57.8388 47.5296L52.3308 67.4218C52.0441 68.4562 52.6508 69.527 53.6855 69.8135L64.3855 72.776C65.4201 73.063 66.4895 72.4562 66.7761 71.4218L72.2855 51.5296C72.5708 50.4947 71.9655 49.4244 70.9308 49.139ZM70.5148 50.6427C70.7175 50.6989 70.8375 50.9094 70.7815 51.1124L65.5535 69.9936C65.4961 70.1963 65.2855 70.316 65.0828 70.2603L54.3815 67.2963C54.1788 67.24 54.0588 67.0296 54.1148 66.8255L59.3428 47.9457C59.4001 47.7427 59.6108 47.6228 59.8135 47.6791L70.5148 50.6427Z" fill="#4D4D4D"/>
<path d="M60.105 70.2305C59.9956 70.6279 59.5836 70.8612 59.185 70.7519C58.7876 70.6415 58.5543 70.2295 58.6637 69.8305C58.7743 69.4336 59.1863 69.2003 59.5836 69.3107C59.9823 69.4201 60.2156 69.8321 60.105 70.2305Z" fill="#C6C6C6"/>
<path d="M56.9273 70.0988L55.2087 69.1202C54.966 68.9816 55.0687 68.6107 55.3473 68.6175L57.3247 68.6628C57.5007 68.667 57.6247 68.8336 57.578 69.003L57.3193 69.9363C57.2727 70.1055 57.0793 70.1852 56.9273 70.0988Z" fill="#C6C6C6"/>
<path d="M61.8548 69.916L63.5735 70.8947C63.8161 71.0338 63.7135 71.4042 63.4348 71.3974L61.4575 71.352C61.2828 71.3484 61.1575 71.1818 61.2042 71.0124L61.4628 70.0791C61.5095 69.9094 61.7028 69.8296 61.8548 69.916Z" fill="#C6C6C6"/>
<path d="M57.4434 59.9749L59.0394 54.228L67.822 56.6681L66.226 62.415L57.4434 59.9749Z" fill="#DADADA"/>
<path d="M62.7874 57.7656L58.2634 59.076C57.878 59.1878 57.5767 59.4921 57.4701 59.879L57.4434 59.9749L66.226 62.415L66.2527 62.3186C66.3594 61.9322 66.2594 61.516 65.986 61.2217L62.7874 57.7656Z" fill="#EDEDED"/>
<path d="M62.5369 58.6669C62.2649 58.5909 62.0089 58.4534 61.7942 58.2586L59.3102 56.0174C58.9342 55.6789 58.7822 55.1549 58.9182 54.6669L59.0395 54.2278L67.8222 56.668L67.7009 57.1065C67.5649 57.5945 67.1649 57.9654 66.6675 58.0612L63.3835 58.7002C63.0995 58.756 62.8089 58.7425 62.5369 58.6669Z" fill="white"/>
<path d="M89.9841 100.175L82.1001 102.904C81.3161 100.852 81.3334 98.6894 82.1001 96.4243L89.9841 99.1535V100.175Z" fill="#FFD2A1"/>
<path d="M81.8781 102.904H44.6221V100.737H81.8781C83.3887 100.737 83.3887 102.904 81.8781 102.904Z" fill="#0593A1"/>
<path d="M81.8781 100.737H44.6221V98.5706H81.8781C83.3514 98.5706 83.3514 100.737 81.8781 100.737Z" fill="#07B5C7"/>
<path d="M81.8781 98.5708H44.6221V96.4041H81.8781C83.2781 96.4041 83.2781 98.5708 81.8781 98.5708Z" fill="#09E2F7"/>
<path d="M92.4967 100.112H89.9834V99.1535H92.4967V100.112Z" fill="#3C3C3B"/>
<path d="M67.5866 25.3723L67.2853 23.375L65.5746 23.0761L64.7439 21.7005L65.2772 20.0469L63.6506 18.8485L62.2293 19.8469L60.6693 19.4603L59.8772 17.9151L57.8799 18.2177L57.5812 19.9281L56.2052 20.7589L54.5519 20.2255L53.3533 21.851L54.3519 23.2723L53.9666 24.8323L52.4199 25.6245L52.7226 27.6218L54.4333 27.9218L55.2639 29.2974L54.7306 30.9494L56.3573 32.1485L57.7772 31.1494L59.3386 31.5365L60.1293 33.0818L62.1266 32.7791L62.4266 31.0682L63.8026 30.239L65.4546 30.7709L66.6533 29.1458L65.6559 27.7245L66.0412 26.1641L67.5866 25.3723Z" fill="#F35D4B"/>
<path d="M75.9796 28.8852L77.2356 28.1003L76.913 26.5253L75.4503 26.2961L74.7303 25.3508L74.8996 23.8789L73.4663 23.1492L72.3756 24.1508L71.1876 24.1243L70.1423 23.0748L68.6783 23.7388L68.7823 25.2159L68.0196 26.1295L66.5476 26.2909L66.1543 27.8508L67.3743 28.6909L67.4303 28.9669C67.4703 29.3159 67.5436 29.5696 67.581 29.9055L66.821 31.1081L67.7956 32.3883L69.213 31.9587L70.2716 32.4972L70.757 33.8972L72.365 33.9336L72.913 32.5576L73.9956 32.0655L75.393 32.5587L76.4236 31.3243L75.689 30.0373L75.9796 28.8852Z" fill="#F35D4B"/>
<path d="M69.7581 39.5818L69.1714 37.8187L70.2327 36.2296L68.8407 34.4734L67.0514 35.1442L65.4687 34.1723L65.2594 32.2723L63.0661 31.8218L62.1261 33.4854L60.2887 33.7578L58.9074 32.4364L56.9368 33.5031L57.2861 35.3818L56.0541 36.7708L54.1461 36.6468L53.3221 38.7296L54.7981 39.9442L54.7461 41.8004L53.2061 42.9323L53.9127 45.0562L55.8247 45.039L56.9781 46.4947L56.5247 48.351L58.4327 49.5244L59.8861 48.2818L61.7047 48.6551L62.5514 50.3682L64.7661 50.0416L65.0807 48.1562L66.7141 47.2723L68.4647 48.04L69.9514 46.3656L68.9807 44.7203L69.6634 42.9922L71.4981 42.4562L71.5607 40.2176L69.7581 39.5818Z" fill="#F35D4B"/>
<path d="M63.8822 24.7989C64.2675 26.9416 62.8449 28.991 60.7022 29.3774C58.5609 29.7629 56.5102 28.34 56.1249 26.1973C55.7382 24.055 57.1622 22.0056 59.3048 21.6202C61.4462 21.2337 63.4955 22.6577 63.8822 24.7989Z" fill="white"/>
<path d="M67.0061 40.3067C67.4741 42.9031 65.7488 45.3853 63.1542 45.852C60.5595 46.3203 58.0768 44.5963 57.6088 42.0015C57.1408 39.4056 58.8662 36.9228 61.4608 36.4561C64.0555 35.9884 66.5381 37.7124 67.0061 40.3067Z" fill="white"/>
<path d="M74.6848 27.8853C74.9874 29.5629 73.8728 31.1681 72.1941 31.4707C70.5168 31.7733 68.9114 30.6587 68.6087 28.9801C68.3074 27.303 69.4221 25.6973 71.0994 25.3946C72.7768 25.0921 74.3821 26.2082 74.6848 27.8853Z" fill="white"/>
<path d="M51.654 20.5852C50.9167 20.2123 50.09 19.9816 49.198 19.9816C46.9127 19.9816 44.9847 21.3748 44.2474 23.315C43.818 23.092 43.354 22.9587 42.866 22.9587C40.762 22.9587 39.058 25.2254 39.058 28.0227L39.0634 28.1066C37.602 28.4894 36.498 30.2003 36.498 32.2576C36.498 33.1374 36.7007 33.955 37.0474 34.6306C36.3367 35.4082 35.874 36.5707 35.874 37.8894C35.874 39.2852 36.3887 40.515 37.174 41.2852C37.0287 41.8014 36.9474 42.3696 36.9474 42.967C36.9474 44.6202 37.5647 46.0363 38.458 46.7336C38.8047 45.7363 39.4021 45.0508 40.1701 44.9254L40.1714 44.9295C40.3607 44.8972 40.5514 44.9107 40.742 44.9483L40.822 44.9628C40.9807 45.003 41.1367 45.0748 41.2914 45.1576L41.2847 45.1347H42.5234V38.9426C42.5234 38.1175 42.698 37.3347 43.0074 36.6227C43.606 36.1374 44.194 35.7426 44.7727 35.4279C44.962 35.3243 45.15 35.2415 45.338 35.155L45.6314 35.0134C45.906 34.8972 46.178 34.8014 46.4487 34.7186L46.4794 34.7082C49.8567 33.6935 52.9807 35.1216 56.2407 36.6216L56.29 36.644V36.5988V28.9602V25.0336V18.1696C54.3487 18.3972 52.686 19.3066 51.654 20.5852Z" fill="#3C3C3B"/>
<path d="M48.0548 71.2176L31.3174 78.003C27.1734 79.367 24.3721 83.2374 24.3721 87.603V92.6004H38.1214V102.943H56.2908V75.5186C52.1814 75.5296 48.0548 74.0973 48.0548 71.2176Z" fill="#DF4937"/>
<path d="M48.0547 66.6268V71.2174C48.0547 74.0972 52.1814 75.5294 56.2907 75.5185V71.2174V69.7706H56.2867H56.2547H56.2413H56.2267H56.1934C55.152 69.7706 54.2587 69.7305 53.4707 69.6305C51.1134 69.3398 49.6907 68.521 48.0547 66.6268Z" fill="#F2C28D"/>
<path d="M56.2408 36.6217C52.9808 35.1228 49.8554 33.6946 46.4794 34.7082L46.4488 34.7186C46.1781 34.8014 45.9061 34.8973 45.6314 35.0134L45.3381 35.155C45.1501 35.2416 44.9621 35.3244 44.7728 35.428C44.1941 35.7426 43.6061 36.1374 43.0074 36.6228C42.6981 37.3348 42.5234 38.1176 42.5234 38.9426V45.1348H44.8314C44.9661 44.3457 45.6234 43.7306 46.4514 43.7306H53.7181C54.4981 43.7306 55.1168 44.3588 55.1301 45.1348H56.2901V36.6441L56.2408 36.6217Z" fill="#FFD2A1"/>
<path d="M55.1347 47.6467C55.1347 50.1587 53.1027 52.191 50.5907 52.191H49.3587C46.8347 52.191 44.7773 50.1467 44.7773 47.6227V46.367H42.624C42.8374 48.4123 43.3653 53.0587 43.916 54.815C44.4827 56.6254 47.6467 59.7535 49.9627 58.3492C52.5854 56.7852 55.024 56.5639 56.1694 56.5014L56.2413 56.5055L56.2907 56.503V46.367H55.1347V47.6467Z" fill="#FFD2A1"/>
<path d="M41.2917 45.1577C41.1371 45.0749 40.9811 45.003 40.8224 44.9629L40.7424 44.9484C40.5531 44.9108 40.3611 44.8973 40.1717 44.9296L40.1704 44.9254C39.4024 45.0509 38.8051 45.7364 38.4584 46.7337C38.1197 47.7056 38.0198 48.9722 38.2371 50.3186C38.5944 52.5364 39.7037 54.2722 40.9104 54.728C41.1931 54.8389 41.4891 54.8765 41.7717 54.8269L42.0304 54.7536C42.0011 54.3921 41.7571 48.7217 41.6557 46.367L41.2917 45.1577Z" fill="#FFD2A1"/>
<path d="M46.9181 48.8243C46.7368 48.4602 46.6248 48.0561 46.6248 47.6227V46.6577L47.6581 45.5774H50.0275L46.9181 48.8243ZM53.7181 44.9629H46.4515C46.2061 44.9629 46.0088 45.1587 46.0088 45.4055V47.6227C46.0088 49.4697 47.5115 50.9602 49.3581 50.9602H50.5901C52.4248 50.9602 53.9035 49.4817 53.9035 47.6467V45.1587L53.7181 44.9629Z" fill="#FFD2A1"/>
<path d="M56.1686 56.5015C55.0233 56.564 52.5846 56.7854 49.9619 58.3494C47.6459 59.7536 44.4819 56.6255 43.9153 54.8151C43.3646 53.0588 42.8366 48.4124 42.6233 46.3671H41.6553C41.7566 48.7218 42.0006 54.3922 42.0299 54.7536C42.6953 57.9056 43.5819 60.3936 44.7153 62.0562C46.0579 64.027 47.0926 65.5056 48.0526 66.6255L48.0539 66.627C49.6899 68.5212 51.1126 69.34 53.47 69.6307C54.2526 69.728 55.138 69.7656 56.1686 69.7656H56.2406H56.2899V62.152H53.9819C52.9539 62.152 52.1206 61.4296 52.1206 60.5364C52.1206 59.6442 52.9539 58.9203 53.9819 58.9203H56.2899V56.5031L56.2406 56.5056L56.1686 56.5015Z" fill="#FFD2A1"/>
<path d="M56.2899 69.7656H56.1686C55.138 69.7656 54.2526 69.728 53.47 69.6307C51.1126 69.34 49.6899 68.5212 48.0539 66.627L48.0526 66.6255C47.0926 65.5056 46.0579 64.027 44.7153 62.0562C43.5819 60.3936 42.6953 57.9056 42.0299 54.7536C42.0006 54.3922 41.7566 48.7218 41.6553 46.3671H42.6233C42.8366 48.4124 43.3646 53.0588 43.9153 54.8151C44.3819 56.3094 46.6206 58.7015 48.6899 58.7015C49.1273 58.7015 49.5579 58.5947 49.9619 58.3494C52.5846 56.7854 55.0233 56.564 56.1686 56.5015L56.2406 56.5056L56.2899 56.5031V58.9203H53.9819C52.9539 58.9203 52.1206 59.6442 52.1206 60.5364C52.1206 61.4296 52.9539 62.152 53.9819 62.152H56.2899V68.639V69.7348V69.7656Z" fill="#77695A"/>
<path d="M52.1211 60.5364C52.1211 61.4296 52.9544 62.1536 53.9824 62.1536H56.2904V58.9202H53.9824C52.9544 58.9202 52.1211 59.6441 52.1211 60.5364Z" fill="#FFD2A1"/>
<path d="M53.9038 47.6468C53.9038 49.4817 52.4252 50.9603 50.5905 50.9603H49.3585C47.5118 50.9603 46.0091 49.4697 46.0091 47.6228V45.4056C46.0091 45.1588 46.2065 44.9629 46.4518 44.9629H53.7185L53.9038 45.1588V47.6468ZM53.7185 43.7307H46.4518C45.6238 43.7307 44.9665 44.3457 44.8318 45.1348H42.5238H41.2852L41.2918 45.1577L41.6558 46.3671H42.6238H44.7771V47.6228C44.7771 50.1468 46.8345 52.1921 49.3585 52.1921H50.5905C53.1025 52.1921 55.1345 50.1588 55.1345 47.6468V46.3671H56.2905V45.1348H55.1305C55.1172 44.3588 54.4985 43.7307 53.7185 43.7307Z" fill="#575756"/>
<path d="M46.625 46.6578V47.6229C46.625 48.0562 46.737 48.4603 46.9183 48.8245L50.0277 45.5775H47.6583L46.625 46.6578Z" fill="#F6F6F6"/>
<path d="M24.3721 92.6004V102.943H38.1214V92.6004H24.3721Z" fill="#FFD2A1"/>
</svg>
