<svg width="120" height="121" viewBox="0 0 120 121" fill="none" xmlns="http://www.w3.org/2000/svg">
<path d="M74.6881 46.6674V43.9861C73.4147 45.4621 72.3641 45.8221 69.9507 45.8221H69.9161H69.9094H69.9014H69.8667C67.4534 45.8221 66.4027 45.4621 65.1294 43.9861V46.6674L69.9094 51.2314L74.6881 46.6674Z" fill="#F2C28D"/>
<path d="M63.052 53.7555L60.5266 53.9755L59.4533 49.5822L55.3559 50.6302C52.9359 51.4262 51.3013 53.6862 51.3013 56.2342V62.8755H52.82H57.2119H58.4373H65.6333L60.9573 55.2515L63.052 53.7555Z" fill="#28324E"/>
<path d="M84.4614 50.6302L80.3654 49.5822L79.2921 53.9755L76.7654 53.7555L78.8601 55.2515L74.1841 62.8755H81.3801H82.6054H86.9974H88.5174V56.2342C88.5174 53.6862 86.8814 51.4262 84.4614 50.6302Z" fill="#28324E"/>
<path d="M66.7227 53.9755L65.6841 52.8822L68.0481 60.9009L68.6281 54.4569L68.4121 52.5209L66.7227 53.9755Z" fill="#EDEDED"/>
<path d="M71.4056 52.5209L71.1909 54.4569L71.7696 60.9009L74.1336 52.8822L73.0963 53.9755L71.4056 52.5209Z" fill="#EDEDED"/>
<path d="M65.6844 52.8823L66.723 53.9756L68.4124 52.5209L69.9097 51.2316L65.1297 46.6676L64.0737 47.4223L65.6844 52.8823Z" fill="#C6C6C6"/>
<path d="M71.4057 52.5209L73.0963 53.9756L74.1337 52.8823L75.7443 47.4223L74.6883 46.6676L69.9097 51.2316L71.4057 52.5209Z" fill="#C6C6C6"/>
<path d="M69.9099 51.2314L68.4126 52.5208L68.6286 54.4568H71.1912L71.4059 52.5208L69.9099 51.2314Z" fill="#B6312F"/>
<path d="M71.191 54.4568H68.6283L68.0483 60.9008L68.631 62.8755H71.187L71.7697 60.9008L71.191 54.4568Z" fill="#CF4941"/>
<path d="M69.8672 45.8223H69.9513C72.3646 45.8223 73.4152 45.4623 74.6886 43.9863C75.2499 43.3356 75.8539 42.4689 76.6379 41.3196C77.3006 40.3463 77.8179 38.8929 78.2086 37.0543L78.3566 37.0996C78.5232 37.1289 78.6952 37.1063 78.8606 37.0423C79.5659 36.7756 79.7819 35.7756 79.9912 34.4809C80.2499 32.8849 80.1766 31.4623 79.2926 31.3183C78.8099 31.2396 78.3139 31.5556 77.9179 32.1236V27.8236C77.9179 25.9396 76.3939 24.4143 74.5099 24.4143H65.3086C63.4246 24.4143 61.9006 25.9396 61.9006 27.8236V32.1236C61.5046 31.5556 61.0086 31.2396 60.5272 31.3183C59.6419 31.4623 59.4939 32.8849 59.7526 34.4809C59.9606 35.7756 60.2539 36.7756 60.9579 37.0423C61.1232 37.1063 61.2966 37.1289 61.4619 37.0996L61.6099 37.0543C62.0006 38.8929 62.5179 40.3463 63.1806 41.3196C63.9646 42.4689 64.5686 43.3356 65.1299 43.9863C66.4032 45.4623 67.4539 45.8223 69.8672 45.8223Z" fill="#FFD2A1"/>
<path d="M61.9002 32.1235V27.8235C61.9002 25.9395 63.4242 24.4142 65.3082 24.4142H74.5096C76.3936 24.4142 77.9176 25.9395 77.9176 27.8235V32.1235C78.3136 31.5555 78.8096 31.2395 79.2922 31.3182L79.5722 27.6075C79.6442 25.6729 78.9136 23.7995 77.5869 22.3942C75.6696 20.3595 73.7523 19.7009 69.9163 19.7009H69.9096H69.9016C66.0656 19.7009 64.1482 20.3595 62.2309 22.3942C60.9042 23.7995 60.1736 25.6729 60.2456 27.6075L60.5269 31.3182C61.0082 31.2395 61.5042 31.5555 61.9002 32.1235Z" fill="#7D4E24"/>
<path d="M76.7657 53.7555L79.2923 53.9755L80.3657 49.5822L75.7443 47.4222L74.1337 52.8822L71.7697 60.9008L71.187 62.8755H71.947H73.3923H74.1843L78.8603 55.2515L76.7657 53.7555Z" fill="#485678"/>
<path d="M65.6843 52.8822L64.0736 47.4222L59.4536 49.5822L60.5269 53.9755L63.0523 53.7555L60.9576 55.2515L65.6336 62.8755H66.4256H67.8709H68.6309L68.0483 60.9008L65.6843 52.8822Z" fill="#485678"/>
<path d="M20.6826 109.717L25.6959 112.932C27.5799 114.14 30.0239 113.57 31.1292 111.7L55.4546 70.5209L46.8093 64.9782L19.5359 104.265C18.2959 106.05 18.7986 108.509 20.6826 109.717Z" fill="#DF4937"/>
<path d="M46.3869 66.7942L53.9803 71.6635C55.1083 72.3875 56.6109 72.0595 57.3349 70.9302L60.5189 65.9662L48.8363 58.4742L45.6523 63.4395C44.9283 64.5688 45.2576 66.0702 46.3869 66.7942Z" fill="#FF715F"/>
<path d="M50.3115 26.1594C43.3635 36.9941 46.5261 51.4594 57.3594 58.4074C68.1941 65.3541 82.6608 62.1927 89.6075 51.3581C96.5555 40.5247 93.3928 26.0581 82.5581 19.1101C71.7248 12.1634 57.2581 15.3261 50.3115 26.1594ZM43.7021 21.9221C52.9861 7.44343 72.3181 3.21809 86.7968 12.5021C101.274 21.7861 105.501 41.1181 96.2168 55.5967C86.9328 70.0754 67.5994 74.3007 53.1221 65.0154C38.6434 55.7314 34.4181 36.4008 43.7021 21.9221Z" fill="#DF4937"/>
<path d="M90.9579 44.6489C92.0592 40.7196 92.0406 36.5436 90.8806 32.5996L90.6699 31.9263C89.7099 29.0143 88.1526 26.3583 86.1206 24.1156L82.0806 27.7756C83.5846 29.4369 84.7419 31.3996 85.4646 33.5503L85.6752 34.2236C86.5219 37.1569 86.5272 40.2569 85.7086 43.1756L90.9579 44.6489Z" fill="#DADADA"/>
<path d="M48.2671 36.5208C48.2378 36.8088 48.2138 37.0994 48.1951 37.3901L48.1631 38.0941C48.0284 42.4781 49.2204 46.7887 51.5644 50.4688L55.0591 48.2447C53.1724 45.2821 52.2084 41.8154 52.3018 38.2874L52.3351 37.5834C52.3484 37.3701 52.3671 37.1567 52.3884 36.9461L48.2671 36.5208Z" fill="#DADADA"/>
</svg>
