<svg width="120" height="120" viewBox="0 0 120 120" fill="none" xmlns="http://www.w3.org/2000/svg">
<path d="M15.5068 84.8491H13.0068V54.4013C13.0068 38.6533 25.8202 25.8398 41.5695 25.8398V28.3387C27.1988 28.3387 15.5068 40.0305 15.5068 54.4013V84.8491Z" fill="#F7C31E"/>
<path d="M41.5815 87.7544H10.0908V82.1628C20.5095 77.9481 31.0081 78.0091 41.5815 82.1628V87.7544Z" fill="#F7C31E"/>
<path d="M41.5815 82.1628H10.0908V87.7544H41.5815V82.1628Z" fill="#F89F26"/>
<path d="M49.2243 20.9082C49.6003 22.8561 47.707 24.8602 44.9963 25.3826C42.2843 25.9055 39.7816 24.7493 39.407 22.8014C39.031 20.8519 40.9243 18.8493 43.635 18.3269C46.3456 17.8025 48.8483 18.9587 49.2243 20.9082Z" fill="#F89F26"/>
<path d="M59.6429 38.6238L36.3242 43.1211L40.9922 31.0268L50.8109 29.132L59.6429 38.6238Z" fill="#F89F26"/>
<path d="M49.2236 20.9082L39.4062 22.8014L40.9916 31.0269L50.8103 29.1321L49.2236 20.9082Z" fill="#F7C31E"/>
<path d="M88.7639 83.7439H42.6973V81.7851H88.7639V83.7439Z" fill="#9D9D9C"/>
<path d="M89.6422 82.0945H41.8182C40.4182 82.0945 39.2822 80.9586 39.2822 79.5586V51.1559C39.2822 49.7543 40.4182 48.6199 41.8182 48.6199H89.6422C91.0422 48.6199 92.1782 49.7543 92.1782 51.1559V79.5586C92.1782 80.9586 91.0422 82.0945 89.6422 82.0945Z" fill="#EDEDED"/>
<path d="M92.8798 83.7415V85.0987C92.8798 85.7133 92.6931 86.2815 92.3811 86.732C91.9531 87.356 91.2798 87.7544 90.5265 87.7544H40.9305C40.1785 87.7544 39.5091 87.356 39.0771 86.732C38.7651 86.2815 38.5771 85.7133 38.5771 85.0987V83.7415H92.8798Z" fill="#9D9D9C"/>
<path d="M92.8838 85.0986H38.5771V83.744H92.8838V85.0986Z" fill="#575756"/>
<path d="M86.5169 79.9065H44.9436C43.7263 79.9065 42.7383 78.92 42.7383 77.7024V53.0106C42.7383 51.7934 43.7263 50.8065 44.9436 50.8065H86.5169C87.7343 50.8065 88.7223 51.7934 88.7223 53.0106V77.7024C88.7223 78.92 87.7343 79.9065 86.5169 79.9065Z" fill="#07C1D4"/>
<path d="M96.7744 84.2732L95.6317 84.1038C93.9303 83.8518 92.7637 82.2773 93.0157 80.5757L93.3584 78.2696L93.557 78.1117L100.294 79.1117C100.522 79.1466 100.678 79.356 100.645 79.5841L100.62 79.7544L100.566 79.8997L100.574 80.056L100.34 81.6398C100.085 83.3533 98.4864 84.5278 96.7744 84.2732ZM88.681 79.933C88.429 81.6346 86.8557 82.8013 85.1543 82.5492L84.0117 82.3784C82.2984 82.1253 81.1103 80.5357 81.365 78.8237L81.6703 76.768C81.7037 76.5398 81.9144 76.3841 82.1424 76.4174L88.8797 77.4174L89.0237 77.6268L88.681 79.933ZM106.544 80.156L101.77 79.4481C101.733 78.7174 101.214 78.0809 100.464 77.9705L93.7264 76.9705C93.0037 76.8628 92.3437 77.3601 92.2237 78.0784L90.165 77.7732C90.2597 77.0508 89.773 76.3841 89.049 76.2757L82.3117 75.2757C81.4557 75.1492 80.6557 75.7414 80.5277 76.5986L80.2237 78.6544C79.8757 80.9945 81.501 83.1732 83.8424 83.521L84.9837 83.6904C87.3143 84.0357 89.4784 82.432 89.8237 80.1029L89.9997 78.9158L92.0503 79.22L91.8744 80.4065C91.5277 82.7362 93.133 84.8997 95.4624 85.245L96.605 85.4158C98.945 85.7628 101.134 84.1508 101.481 81.809L101.648 80.6934L106.36 81.392C107.83 81.6106 108.849 82.9841 108.63 84.4533L108.261 86.9398C108.21 87.2814 108.446 87.5986 108.788 87.6492C109.13 87.6997 109.448 87.4653 109.498 87.1237L109.866 84.6372C110.186 82.4852 108.696 80.4757 106.544 80.156Z" fill="#575756"/>
<path d="M28.8506 87.7544H45.4026V66.8013H28.8506V87.7544Z" fill="#DF4937"/>
<path d="M23.1063 77.2772C23.1063 79.8638 24.4063 82.048 25.945 82.048C27.4836 82.048 28.7836 79.8638 28.7836 77.2772C28.7836 74.6919 27.4836 72.508 25.945 72.508C24.4063 72.508 23.1063 74.6919 23.1063 77.2772ZM21.1543 77.2772C21.1543 73.508 23.2583 70.5543 25.945 70.5543C28.6316 70.5543 30.7356 73.508 30.7356 77.2772C30.7356 81.048 28.6316 84.0012 25.945 84.0012C23.2583 84.0012 21.1543 81.048 21.1543 77.2772Z" fill="#DF4937"/>
<path d="M38.8705 72.3331L36.5732 75.4399L32.9865 74.0024L35.2305 77.1481L32.7559 80.1148L36.4399 78.9519L38.4972 82.2227L38.5305 78.3601L42.2759 77.4133L38.6119 76.1877L38.8705 72.3331Z" fill="white"/>
<path d="M34.419 65.9783C34.599 65.9783 34.7444 65.8329 34.7444 65.6532C34.7444 64.5293 34.371 63.9397 34.043 63.4199C33.7204 62.9105 33.443 62.4704 33.443 61.5356C33.443 60.5996 33.7204 60.1585 34.043 59.648C34.371 59.1277 34.7444 58.5387 34.7444 57.4141C34.7444 56.2892 34.371 55.6996 34.043 55.1799C33.7204 54.6689 33.443 54.2293 33.443 53.2933C33.443 53.1132 33.2963 52.9679 33.1177 52.9679C32.9377 52.9679 32.791 53.1132 32.791 53.2933C32.791 54.4173 33.1644 55.008 33.4924 55.5267C33.815 56.0371 34.0937 56.4783 34.0937 57.4141C34.0937 58.3507 33.815 58.7903 33.4924 59.3012C33.1644 59.8209 32.791 60.4105 32.791 61.5356C32.791 62.66 33.1644 63.2475 33.4924 63.7679C33.815 64.2783 34.0937 64.7184 34.0937 65.6532C34.0937 65.8329 34.239 65.9783 34.419 65.9783Z" fill="#DADADA"/>
<path d="M37.7771 65.9783C37.9571 65.9783 38.1024 65.8329 38.1024 65.6532C38.1024 64.5293 37.7304 63.9397 37.4011 63.4199C37.0797 62.9105 36.8011 62.4704 36.8011 61.5356C36.8011 60.5996 37.0797 60.1585 37.4011 59.648C37.7304 59.1277 38.1024 58.5387 38.1024 57.4141C38.1024 56.2892 37.7304 55.6996 37.4011 55.1799C37.0797 54.6689 36.8011 54.2293 36.8011 53.2933C36.8011 53.1132 36.6557 52.9679 36.4757 52.9679C36.2957 52.9679 36.1504 53.1132 36.1504 53.2933C36.1504 54.4173 36.5224 55.008 36.8504 55.5267C37.1731 56.0371 37.4517 56.4783 37.4517 57.4141C37.4517 58.3507 37.1731 58.7903 36.8504 59.3012C36.5224 59.8209 36.1504 60.4105 36.1504 61.5356C36.1504 62.66 36.5224 63.2475 36.8504 63.7679C37.1731 64.2783 37.4517 64.7184 37.4517 65.6532C37.4517 65.8329 37.5971 65.9783 37.7771 65.9783Z" fill="#DADADA"/>
<path d="M41.1354 65.9783C41.3154 65.9783 41.4608 65.8329 41.4608 65.6532C41.4608 64.5293 41.0888 63.9397 40.7595 63.4199C40.4368 62.9105 40.1595 62.4704 40.1595 61.5356C40.1595 60.5996 40.4368 60.1585 40.7595 59.648C41.0888 59.1277 41.4608 58.5387 41.4608 57.4141C41.4608 56.2892 41.0888 55.6996 40.7595 55.1799C40.4368 54.6689 40.1595 54.2293 40.1595 53.2933C40.1595 53.1132 40.0141 52.9679 39.8341 52.9679C39.6541 52.9679 39.5088 53.1132 39.5088 53.2933C39.5088 54.4173 39.8808 55.008 40.2088 55.5267C40.5315 56.0371 40.8101 56.4783 40.8101 57.4141C40.8101 58.3507 40.5315 58.7903 40.2088 59.3012C39.8808 59.8209 39.5088 60.4105 39.5088 61.5356C39.5088 62.66 39.8808 63.2475 40.2088 63.7679C40.5315 64.2783 40.8101 64.7184 40.8101 65.6532C40.8101 65.8329 40.9554 65.9783 41.1354 65.9783Z" fill="#DADADA"/>
<path d="M82.2638 70.2695C79.1971 70.2695 77.6371 68.1414 76.2598 66.2638C74.9425 64.4679 73.6971 62.7695 71.2651 62.7695C68.8305 62.7695 67.5851 64.4679 66.2678 66.2638C64.8918 68.1414 63.3305 70.2695 60.2638 70.2695C57.1998 70.2695 55.6398 68.1414 54.2638 66.2638C52.9465 64.4679 51.7025 62.7695 49.2718 62.7695C48.9251 62.7695 48.6465 62.4903 48.6465 62.1439C48.6465 61.7986 48.9251 61.5199 49.2718 61.5199C52.3371 61.5199 53.8958 63.6466 55.2718 65.5237C56.5891 67.3226 57.8331 69.0185 60.2638 69.0185C62.6971 69.0185 63.9425 67.321 65.2598 65.5237C66.6371 63.6466 68.1985 61.5199 71.2651 61.5199C74.3318 61.5199 75.8918 63.6466 77.2691 65.5237C78.5865 67.321 79.8305 69.0185 82.2638 69.0185C82.6091 69.0185 82.8891 69.2986 82.8891 69.6439C82.8891 69.9893 82.6091 70.2695 82.2638 70.2695Z" fill="#F6F6F6"/>
<path d="M72.5784 62.8721H69.873V60.1679H72.5784V62.8721Z" fill="white"/>
<path d="M63.8288 62.3533H62.1621V60.6866H63.8288V62.3533Z" fill="white"/>
<path d="M81.0091 62.3533H79.3438V60.6866H81.0091V62.3533Z" fill="white"/>
<path d="M80.1774 61.832H62.9961V61.2066H80.1774V61.832Z" fill="white"/>
<path d="M66.4597 49.8279C66.4597 50.2306 66.133 50.5571 65.7303 50.5571C65.3276 50.5571 65.001 50.2306 65.001 49.8279C65.001 49.4254 65.3276 49.0987 65.7303 49.0987C66.133 49.0987 66.4597 49.4254 66.4597 49.8279Z" fill="#706F6F"/>
<path d="M37.4385 87.7545L42.7038 101.8L80.1771 87.7545H37.4385Z" fill="#EDEDED"/>
<path d="M59.7413 87.7543H58.4053L59.7906 91.4481C59.9119 91.7705 60.2719 91.9346 60.5946 91.8133C60.9186 91.6919 61.0813 91.3319 60.9599 91.009L59.7413 87.7543Z" fill="#706F6F"/>
<path d="M55.403 87.7543H54.0684L55.987 92.8731C56.1084 93.1971 56.4684 93.36 56.791 93.2387C57.115 93.1173 57.279 92.7585 57.1577 92.4345L55.403 87.7543Z" fill="#706F6F"/>
<path d="M51.0641 87.7544H49.7295L52.1828 94.2987C52.3041 94.6227 52.6642 94.7867 52.9882 94.6653C53.3108 94.544 53.4748 94.1841 53.3535 93.8601L51.0641 87.7544Z" fill="#706F6F"/>
<path d="M46.7263 87.7543H45.3916L48.3796 95.7252C48.5009 96.048 48.8596 96.2116 49.1836 96.0903C49.5076 95.969 49.6703 95.609 49.5489 95.2866L46.7263 87.7543Z" fill="#706F6F"/>
<path d="M42.3874 87.7542H41.0527L44.5754 97.1506C44.6967 97.4746 45.0567 97.637 45.3794 97.5157C45.7034 97.3944 45.8674 97.0345 45.7461 96.7116L42.3874 87.7542Z" fill="#706F6F"/>
</svg>
