<svg width="120" height="121" viewBox="0 0 120 121" fill="none" xmlns="http://www.w3.org/2000/svg">
<path d="M85.3113 60.3425V56.6198C83.5447 58.6678 82.0847 59.1691 78.7353 59.1691H78.6873H78.6767H78.666H78.618C75.2687 59.1691 73.81 58.6678 72.042 56.6198V60.3425L78.6767 66.6785L85.3113 60.3425Z" fill="#F2C28D"/>
<path d="M69.159 70.1811L65.6524 70.4864L64.1617 64.3877L58.475 65.8424C55.1164 66.9477 52.8457 70.0851 52.8457 73.6224V82.8411H54.955H61.051H62.7524H72.7417L66.251 72.2584L69.159 70.1811Z" fill="#61554E"/>
<path d="M98.878 65.8424L93.1913 64.3877L91.702 70.4864L88.194 70.1811L91.102 72.2584L84.6113 82.8411H94.6007H96.302H102.399H104.507V73.6224C104.507 70.0851 102.237 66.9477 98.878 65.8424Z" fill="#61554E"/>
<path d="M74.2519 70.4863L72.8105 68.9703L76.0932 80.0996L76.8972 71.1556L76.5985 68.4676L74.2519 70.4863Z" fill="#EDEDED"/>
<path d="M80.7551 68.4676L80.4551 71.1556L81.2591 80.0996L84.5417 68.9703L83.1004 70.4863L80.7551 68.4676Z" fill="#EDEDED"/>
<path d="M74.2522 70.4863L76.5988 68.4677L78.6762 66.6783L72.0415 60.3423L70.5762 61.3903L72.8108 68.9703L74.2522 70.4863Z" fill="#C6C6C6"/>
<path d="M80.7554 68.4677L83.1007 70.4863L84.5421 68.9703L86.7781 61.3903L85.3114 60.3423L78.6768 66.6783L80.7554 68.4677Z" fill="#C6C6C6"/>
<path d="M78.676 66.6784L76.5986 68.4678L76.8973 71.1558H80.4546L80.7546 68.4678L78.676 66.6784Z" fill="#B6312F"/>
<path d="M80.4551 71.1557H76.8977L76.0938 80.0997L76.9017 82.8411H80.4511L81.2591 80.0997L80.4551 71.1557Z" fill="#CF4941"/>
<path d="M78.6176 59.1689H78.735C82.0843 59.1689 83.5443 58.6676 85.311 56.6196C86.091 55.7156 86.9296 54.5143 88.0176 52.917C88.9363 51.5676 89.6563 49.549 90.1976 46.997L90.403 47.061C90.6336 47.0996 90.8723 47.0703 91.1016 46.981C92.0803 46.6116 92.3816 45.2223 92.671 43.4263C93.031 41.2103 92.9283 39.2343 91.7016 39.0343C91.0323 38.925 90.343 39.3636 89.795 40.1529V34.1836C89.795 33.8716 89.7603 33.5676 89.703 33.2729C83.0376 33.3543 75.759 34.3703 69.8656 30.1383C68.4883 30.9649 67.559 32.4583 67.559 34.1836V40.1529C67.0096 39.3636 66.3203 38.925 65.6523 39.0343C64.4243 39.2343 64.2177 41.2103 64.5763 43.4263C64.8657 45.2223 65.2723 46.6116 66.251 46.981C66.4803 47.0703 66.7203 47.0996 66.9496 47.061L67.155 46.997C67.6976 49.549 68.4163 51.5676 69.3363 52.917C70.4243 54.5143 71.263 55.7156 72.0416 56.6196C73.8096 58.6676 75.2683 59.1689 78.6176 59.1689Z" fill="#FFD2A1"/>
<path d="M67.5586 40.1531V34.1838C67.5586 32.4584 68.4879 30.9651 69.8653 30.1384C75.7586 34.3704 83.0373 33.3544 89.7026 33.2731C89.76 33.5677 89.7946 33.8718 89.7946 34.1838V40.1531C90.3426 39.3637 91.0319 38.9251 91.7013 39.0344L92.0906 33.8838C92.1893 31.1984 91.176 28.5984 89.3346 26.6464C86.6733 23.8238 84.0106 22.9077 78.6866 22.9077H78.676H78.6653C73.3413 22.9077 70.68 23.8238 68.0173 26.6464C66.1773 28.5984 65.1626 31.1984 65.2626 33.8838L65.652 39.0344C66.32 38.9251 67.0093 39.3637 67.5586 40.1531Z" fill="#F07934"/>
<path d="M88.1938 70.1811L91.7018 70.4864L93.1912 64.3877L86.7778 61.3904L84.5418 68.9704L81.2592 80.0997L80.4512 82.8411H81.5058H83.5125H84.6112L91.1018 72.2584L88.1938 70.1811Z" fill="#A18D81"/>
<path d="M72.8105 68.9704L70.5758 61.3904L64.1611 64.3877L65.6518 70.4864L69.1585 70.1811L66.2505 72.2584L72.7411 82.8411H73.8398H75.8465H76.9011L76.0931 80.0997L72.8105 68.9704Z" fill="#A18D81"/>
<path d="M28.9186 53.4105C29.2546 55.4625 29.7132 57.0531 30.8346 57.4785C31.1039 57.5798 31.3719 57.6131 31.6412 57.5691L31.6532 57.5651C30.5279 53.0678 30.1506 48.3785 30.1506 48.3785C28.7506 48.6145 28.5146 50.8665 28.9186 53.4105Z" fill="#F2C28D"/>
<path d="M33.7812 63.2837C33.9613 63.6424 34.1626 63.9677 34.3653 64.2703C35.4746 65.8997 36.3573 67.157 37.1719 68.145L36.9199 64.1703C35.8653 63.9263 34.8173 63.6424 33.7812 63.2837Z" fill="#F2C28D"/>
<path d="M59.2772 57.4784C60.3985 57.0531 60.7452 55.4624 61.0825 53.4104C61.4852 50.8664 61.3732 48.6144 59.9732 48.3784C59.9732 48.3784 59.5025 53.2584 58.4932 57.5691C58.7478 57.6104 59.0238 57.5784 59.2772 57.4784Z" fill="#F2C28D"/>
<path d="M52.9346 68.165C53.7519 67.1744 54.6306 65.9117 55.7479 64.2704C55.9719 63.945 56.1852 63.5757 56.3866 63.1837C55.3132 63.4944 54.2479 63.7597 53.1879 63.9944L52.9346 68.165Z" fill="#F2C28D"/>
<path d="M52.8533 69.4983L52.9346 68.165L53.1879 63.9943C47.5733 65.2356 42.1359 65.3809 36.9199 64.1703L37.1719 68.145L37.2586 69.4983H52.8533Z" fill="#FFD2A1"/>
<path d="M68.1825 79.065L57.5878 74.769L57.6438 74.8223H32.4025L21.9372 79.065C18.0918 80.3303 15.4932 83.921 15.4932 87.9703V98.521H17.9078H24.8865H26.8332H37.4652H38.2665H63.2865H65.2332H72.2118H74.6252V87.9703C74.6252 83.921 72.0265 80.3303 68.1825 79.065Z" fill="#28324E"/>
<path d="M53.1885 63.9944C54.2485 63.7598 55.3138 63.4944 56.3872 63.1838C57.2552 62.0438 57.9512 59.8877 58.4938 57.5691C59.5032 53.2584 59.9738 48.3784 59.9738 48.3784L59.9712 48.3398L60.4138 42.4851C60.5285 39.4118 59.3672 36.4358 57.2605 34.2011C54.2138 30.9691 51.1672 29.9224 45.0725 29.9224H45.0605H45.0472C38.9538 29.9224 35.9072 30.9691 32.8605 34.2011C30.7538 36.4358 29.5925 39.4118 29.7058 42.4851L30.1512 48.3758V48.3784C30.1512 48.3784 30.5285 53.0678 31.6538 57.5651C32.1845 59.6838 32.8792 61.7598 33.7818 63.2838C34.8178 63.6424 35.8658 63.9264 36.9205 64.1704C42.1365 65.3811 47.5738 65.2358 53.1885 63.9944Z" fill="#3C3C3B"/>
<path d="M52.963 70.6196V69.4983H37.1963V70.6196H52.963Z" fill="#EDEDED"/>
<path d="M57.6442 74.8223L57.5882 74.7689L53.1668 70.6196H36.9481L32.3828 74.8223H32.4028H57.6442Z" fill="#485678"/>
</svg>
