<svg width="120" height="121" viewBox="0 0 120 121" fill="none" xmlns="http://www.w3.org/2000/svg">
<path d="M80.0807 91.9343H66.1094V105.877H80.0807V91.9343Z" fill="#28324E"/>
<path d="M114.208 68.4089H41.0098V14.4089H114.208V68.4089Z" fill="#F6F6F6"/>
<path d="M114.208 14.4089H41.0098V68.4089H114.208V14.4089ZM111.541 17.0756V65.7423H43.6764V17.0756H111.541Z" fill="#878787"/>
<path d="M44.4168 79.1088V74.6808C42.3148 77.1181 40.5783 77.7141 36.5935 77.7141H36.5367H36.5236H36.5107H36.4539C32.4689 77.7141 30.7325 77.1181 28.6299 74.6808V79.1088L36.5236 86.6475L44.4168 79.1088Z" fill="#F2C28D"/>
<path d="M25.1999 90.8143L21.028 91.1796L19.2551 83.9236L12.4894 85.653C8.49304 86.969 5.79199 90.701 5.79199 94.9103V105.877H8.30085H15.555H17.5779H29.4628L21.7404 93.2863L25.1999 90.8143Z" fill="#28324E"/>
<path d="M60.558 85.653L53.7924 83.9236L52.0194 91.1796L47.847 90.8143L51.3069 93.2863L43.584 105.877H55.4689H57.4924H64.746H67.2554V94.9103C67.2554 90.701 64.5544 86.969 60.558 85.653Z" fill="#28324E"/>
<path d="M31.2611 91.1795L29.5459 89.3741L33.4511 102.615L34.4079 91.9741L34.0516 88.7755L31.2611 91.1795Z" fill="#EDEDED"/>
<path d="M38.9954 88.7755L38.6396 91.9741L39.5964 102.615L43.5016 89.3741L41.7866 91.1795L38.9954 88.7755Z" fill="#EDEDED"/>
<path d="M31.2613 91.1797L34.0518 88.7757L36.5242 86.6477L28.6305 79.109L26.8867 80.3557L29.5461 89.3743L31.2613 91.1797Z" fill="#C6C6C6"/>
<path d="M38.9953 88.7757L41.7865 91.1797L43.5016 89.3743L46.161 80.3557L44.4166 79.109L36.5234 86.6477L38.9953 88.7757Z" fill="#C6C6C6"/>
<path d="M36.5242 86.6475L34.0518 88.7755L34.408 91.9741H38.6403L38.996 88.7755L36.5242 86.6475Z" fill="#B6312F"/>
<path d="M38.6402 91.9743H34.408L33.4512 102.616L34.4126 105.877H38.635L39.597 102.616L38.6402 91.9743Z" fill="#CF4941"/>
<path d="M36.4537 77.7144H36.5933C40.5781 77.7144 42.3147 77.1184 44.4167 74.681C45.3444 73.6064 46.3417 72.177 47.6365 70.2757C48.7303 68.6704 49.5855 66.269 50.2308 63.233L50.4756 63.3077C50.7485 63.3557 51.0333 63.3197 51.3068 63.213C52.4709 62.773 52.8287 61.121 53.1729 58.9837C53.6005 56.3477 53.4797 53.997 52.0193 53.7597C51.2235 53.629 50.4043 54.1517 49.7511 55.089V47.9877C49.7511 47.617 49.7105 47.2557 49.6423 46.905C41.7125 47.001 33.0521 48.209 26.0407 43.1757C24.4027 44.1597 23.2959 45.9357 23.2959 47.9877V55.089C22.6428 54.1517 21.8229 53.629 21.0277 53.7597C19.5667 53.997 19.3209 56.3477 19.7485 58.9837C20.0928 61.121 20.5761 62.773 21.7401 63.213C22.0131 63.3197 22.2985 63.3557 22.5715 63.3077L22.8163 63.233C23.4611 66.269 24.3167 68.6704 25.4105 70.2757C26.7053 72.177 27.7027 73.6064 28.6297 74.681C30.7324 77.1184 32.4688 77.7144 36.4537 77.7144Z" fill="#FFD2A1"/>
<path d="M23.2959 55.0889V47.9875C23.2959 45.9355 24.4027 44.1595 26.0407 43.1755C33.0522 48.2089 41.7126 47.0009 49.6423 46.9049C49.7106 47.2555 49.7511 47.6169 49.7511 47.9875V55.0889C50.4043 54.1515 51.2235 53.6289 52.0194 53.7595L52.4825 47.6302C52.6011 44.4355 51.3945 41.3422 49.2049 39.0209C46.0377 35.6609 42.871 34.5729 36.5366 34.5729H36.5235H36.5106C30.1762 34.5729 27.0095 35.6609 23.8423 39.0209C21.6527 41.3422 20.4454 44.4355 20.5647 47.6302L21.0278 53.7595C21.823 53.6289 22.6429 54.1515 23.2959 55.0889Z" fill="#7D4E24"/>
<path d="M47.8473 90.8143L52.0197 91.1796L53.7926 83.9236L46.1614 80.3556L43.502 89.3743L39.5968 102.616L38.6348 105.877H39.89H42.277H43.5842L51.3072 93.2863L47.8473 90.8143Z" fill="#485678"/>
<path d="M29.5454 89.3743L26.8861 80.3556L19.2549 83.9236L21.0278 91.1796L25.1997 90.8143L21.7402 93.2863L29.4626 105.877H30.7705H33.1574H34.4121L33.4506 102.616L29.5454 89.3743Z" fill="#485678"/>
<path d="M78.3391 93.229C77.9354 93.2303 77.6088 93.557 77.6094 93.961C77.6094 94.365 77.937 94.6917 78.3406 94.6917C78.7443 94.6903 79.0714 94.3637 79.0708 93.9597C79.0703 93.5557 78.7427 93.229 78.3391 93.229Z" fill="white"/>
<path d="M78.3415 95.4996C77.9379 95.5009 77.6108 95.8276 77.6113 96.2316C77.6117 96.6356 77.9393 96.9623 78.3431 96.9609C78.7467 96.9609 79.0732 96.6329 79.0727 96.2303C79.0727 95.8263 78.7451 95.4996 78.3415 95.4996Z" fill="white"/>
<path d="M78.3445 97.805C77.9408 97.8063 77.6137 98.133 77.6143 98.537C77.6148 98.941 77.9424 99.2677 78.3455 99.2664C78.7492 99.2664 79.0763 98.9383 79.0757 98.5357C79.0752 98.1317 78.7481 97.805 78.3445 97.805Z" fill="white"/>
<path d="M83.7852 74.3569L82.5185 66.2955L81.0472 66.4969L81.0431 66.4995L81.0524 64.7449L80.0169 64.6329C80.0899 64.8929 80.1008 65.1688 80.0461 65.4368C79.9737 65.8022 79.7836 66.1529 79.4769 66.4275C79.0597 66.8049 78.6399 67.1729 78.2149 67.5409C77.3649 68.2622 76.4925 68.9569 75.6003 69.6302C75.4223 69.7662 75.2399 69.8969 75.0603 70.0302L73.9259 72.3609L74.1289 72.6182C74.1327 72.6822 76.3436 76.4369 76.4925 78.8382C76.5024 78.9969 76.5483 79.1529 76.5712 79.3129C76.8795 81.5489 75.6639 83.4302 74.43 84.9382C74.0352 85.4235 73.5821 85.8435 73.0743 86.1849C72.892 86.3155 72.7013 86.4315 72.5029 86.5342L72.9275 90.6929L73.0925 90.6662L78.4857 89.7049C78.4857 89.7049 78.7275 88.6222 78.9503 87.6008L78.98 87.4769L79.0389 87.2169C79.0977 86.9569 79.1488 86.7128 79.1951 86.5035C81.2655 85.4875 82.6264 81.5075 83.0149 80.8902C83.6873 79.7689 84.2691 78.7342 84.6868 77.9795C85.0503 77.3209 85.2889 76.8755 85.3447 76.7729L85.3571 76.7529L83.7852 74.3569Z" fill="#EBAE73"/>
<path d="M72.5031 86.5342C72.7015 86.4315 72.8921 86.3155 73.0744 86.1849C73.5823 85.8435 74.0353 85.4235 74.4301 84.9382C75.664 83.4302 76.8796 81.5489 76.5713 79.3129C76.5484 79.1529 76.5025 78.9969 76.4927 78.8382C76.3437 76.4369 74.1328 72.6822 74.1291 72.6182L73.926 72.3609L75.0604 70.0302C75.24 69.8969 75.4224 69.7662 75.6004 69.6302C76.4927 68.9569 77.3651 68.2622 78.2151 67.5409C78.64 67.1729 79.0599 66.8049 79.4771 66.4275C79.7837 66.1529 79.9739 65.8022 80.0463 65.4368C80.1009 65.1688 80.09 64.8929 80.0171 64.6329C79.9457 64.3809 79.8156 64.1435 79.6228 63.9462L79.6004 63.9182C78.9395 63.2422 77.8588 63.2289 77.1557 63.8595C76.0281 64.8822 73.0405 67.2369 72.7561 67.4222C70.9739 69.0782 68.4687 73.5569 68.4687 73.5569C68.3359 74.0942 67.0192 80.9715 69.1728 83.7795C69.1812 83.7929 69.0728 84.3702 68.9009 85.1795C68.64 86.4235 68.2359 88.2289 67.9004 89.3809L72.9276 90.6929L72.5031 86.5342Z" fill="#FFCF9F"/>
<path d="M83.6839 70.649C83.4054 70.849 82.497 71.3543 82.497 71.3543C81.6293 71.8676 80.5543 71.6556 80.097 70.8823L80.0803 70.8543C79.6226 70.081 79.9559 69.037 80.8235 68.5236L82.0106 67.8183C84.4669 66.5396 85.9345 69.4183 83.6839 70.649Z" fill="#FFCF9F"/>
<path d="M84.6887 73.8249L82.6699 75.0182C81.8011 75.5315 80.7225 75.3142 80.2606 74.5329L80.2434 74.5035C79.7814 73.7222 80.1101 72.6715 80.9782 72.1582L82.997 70.9649C84.7694 69.9982 86.4929 72.4075 84.6887 73.8249Z" fill="#FFCF9F"/>
<path d="M85.0467 77.0355L83.4264 77.9942C82.7295 78.4062 81.8306 78.1755 81.4186 77.4782L81.4035 77.4528C80.9915 76.7568 81.2223 75.8568 81.9191 75.4448L83.5394 74.4875C85.1218 73.5048 86.6942 75.8502 85.0467 77.0355Z" fill="#FFCF9F"/>
<path d="M56.9477 55.7117L55.7852 55.061L61.8357 44.2543L69.3248 42.3877L73.1118 35.1583L81.3696 34.3503L85.6264 37.1583L89.5029 32.7237L99.2253 26.557L99.9389 27.6837L90.2998 33.797L85.8685 38.9157L81.03 35.7237L73.9581 36.4157L70.2285 43.5357L62.7174 45.4077L56.9477 55.7117Z" fill="#DF4937"/>
<path d="M56.7692 55.917L55.9619 54.8557L63.4318 49.1757L71.3214 48.189L76.4067 41.1423L82.6895 41.721L85.5687 45.529L93.037 39.5157L99.3703 37.405L99.7922 38.669L93.5739 40.7423L85.338 47.4343L81.9812 42.9943L77.0422 42.5396L72.0635 49.441L63.9531 50.4543L56.7692 55.917Z" fill="#0593A1"/>
<path d="M96.3092 55.9448H55.8076V27.7368H56.3655V55.3862H96.3092V55.9448Z" fill="#575756"/>
<path d="M54.918 27.9995L56.0873 23.6355L57.2565 27.9995H54.918Z" fill="#575756"/>
<path d="M96.1455 56.7822L100.31 55.6662L96.1455 54.5502V56.7822Z" fill="#575756"/>
<path d="M80.559 67.3208L79.248 67.0755L85.9205 37.7155L86.1934 37.7661L80.559 67.3208Z" fill="#575756"/>
<path d="M83.5598 65.5542C83.7019 66.5929 83.1358 67.5275 82.2953 67.6422C81.4541 67.7582 80.6571 67.0102 80.515 65.9715C80.3729 64.9329 80.939 63.9982 81.7801 63.8822C82.6207 63.7675 83.4175 64.5155 83.5598 65.5542Z" fill="#FFCF9F"/>
<path d="M79.4546 91.9343L79.4816 86.889L67.6144 86.8264L67.5879 91.8717L79.4546 91.9343Z" fill="#EDEDED"/>
</svg>
