<svg width="282" height="282" viewBox="0 0 282 282" fill="none" xmlns="http://www.w3.org/2000/svg">
<rect width="282" height="282" rx="16" fill="#F5F5F5"/>
<g clip-path="url(#clip0_179626_172402)">
<path d="M132.988 132.429C132.988 133.857 132.521 135.071 131.587 136.07C130.653 137.069 129.521 137.569 128.191 137.572C126.861 137.574 125.729 137.073 124.796 136.07C123.862 135.066 123.395 133.853 123.395 132.429C123.395 131.005 123.862 129.791 124.796 128.788C125.729 127.784 126.861 127.284 128.191 127.286C129.521 127.288 130.653 127.789 131.587 128.788C132.521 129.786 132.988 131 132.988 132.429ZM158.568 142.714V154.714H123.395V149.572L131.389 141L135.386 145.286L148.176 131.572L158.568 142.714ZM160.966 123.857H120.997C120.779 123.857 120.592 123.942 120.434 124.111C120.276 124.28 120.198 124.481 120.198 124.714V157.286C120.198 157.519 120.276 157.72 120.434 157.889C120.592 158.058 120.779 158.143 120.997 158.143H160.966C161.183 158.143 161.371 158.058 161.528 157.889C161.686 157.72 161.765 157.519 161.765 157.286V124.714C161.765 124.481 161.686 124.28 161.528 124.111C161.371 123.942 161.183 123.857 160.966 123.857ZM164.963 124.714V157.286C164.963 158.465 164.571 159.474 163.789 160.313C163.007 161.152 162.066 161.572 160.966 161.572H120.997C119.897 161.572 118.956 161.152 118.173 160.313C117.391 159.474 117 158.465 117 157.286V124.714C117 123.535 117.391 122.526 118.173 121.687C118.956 120.848 119.897 120.429 120.997 120.429H160.966C162.066 120.429 163.007 120.848 163.789 121.687C164.571 122.526 164.963 123.535 164.963 124.714Z" fill="black" fill-opacity="0.25"/>
</g>
<defs>
<clipPath id="clip0_179626_172402">
<rect width="48" height="48" fill="white" transform="translate(117 117)"/>
</clipPath>
</defs>
</svg>
