<svg width="96" height="95" viewBox="0 0 96 95" fill="none" xmlns="http://www.w3.org/2000/svg">
<path d="M16.6922 30.9535C42.0514 28.5887 43.5489 5.77305 61.2587 14.1853C78.9684 22.5975 89.237 43.7071 80.8248 61.4168C72.4126 79.1265 41.1697 83.4122 23.46 75C15.1095 41.5574 8.28 48.6632 16.6922 30.9535Z" fill="#FFEEF5"/>
<path d="M46.6667 37C41.5867 37 38 40.6573 38 45.1587C38 47.2067 38.8427 48.588 39.9 49.9053C40.1293 50.192 40.3627 50.468 40.6027 50.752L40.7307 50.9013C41.0107 51.2347 41.3 51.5787 41.5707 51.9333C42.1093 52.6413 42.6147 53.4373 42.8973 54.3787C42.9666 54.6304 42.9346 54.8992 42.8083 55.1277C42.6819 55.3562 42.4712 55.5262 42.2212 55.6014C41.9712 55.6766 41.7017 55.6511 41.4702 55.5302C41.2388 55.4094 41.0638 55.2028 40.9827 54.9547C40.7987 54.3413 40.4533 53.768 39.9787 53.1453C39.7281 52.8215 39.4694 52.504 39.2027 52.1933L39.08 52.0467C38.84 51.764 38.5867 51.4653 38.34 51.1573C37.16 49.688 36 47.868 36 45.1573C36 39.484 40.5533 35 46.6667 35C52.78 35 57.3333 39.4827 57.3333 45.1587C57.3333 47.868 56.1733 49.688 54.9933 51.1587C54.7467 51.4653 54.4933 51.764 54.2533 52.048L54.1307 52.1933C53.8507 52.524 53.5907 52.8347 53.3547 53.1453C52.88 53.768 52.5347 54.3427 52.3507 54.9547C52.2656 55.1981 52.0898 55.3994 51.86 55.5165C51.6302 55.6335 51.3641 55.6575 51.1171 55.5832C50.8701 55.5089 50.6613 55.3423 50.5342 55.1179C50.4071 54.8935 50.3714 54.6287 50.4347 54.3787C50.7187 53.4373 51.224 52.6413 51.764 51.9333C52.0333 51.5787 52.3227 51.2347 52.604 50.9013L52.7307 50.752C52.9707 50.468 53.204 50.192 53.4333 49.9067C54.4907 48.5867 55.3333 47.2067 55.3333 45.1587C55.3333 40.6573 51.7467 37 46.6667 37ZM42.3333 57.6667H51C51.2652 57.6667 51.5196 57.772 51.7071 57.9596C51.8946 58.1471 52 58.4014 52 58.6667C52 58.9319 51.8946 59.1862 51.7071 59.3738C51.5196 59.5613 51.2652 59.6667 51 59.6667H42.3333C42.0681 59.6667 41.8138 59.5613 41.6262 59.3738C41.4387 59.1862 41.3333 58.9319 41.3333 58.6667C41.3333 58.4014 41.4387 58.1471 41.6262 57.9596C41.8138 57.772 42.0681 57.6667 42.3333 57.6667ZM43.3333 62.6667C43.3333 62.4014 43.4387 62.1471 43.6262 61.9596C43.8138 61.772 44.0681 61.6667 44.3333 61.6667H49C49.2652 61.6667 49.5196 61.772 49.7071 61.9596C49.8946 62.1471 50 62.4014 50 62.6667C50 62.9319 49.8946 63.1862 49.7071 63.3738C49.5196 63.5613 49.2652 63.6667 49 63.6667H44.3333C44.0681 63.6667 43.8138 63.5613 43.6262 63.3738C43.4387 63.1862 43.3333 62.9319 43.3333 62.6667Z" fill="#E41469"/>
</svg>
