<svg width="93" height="92" viewBox="0 0 93 92" fill="none" xmlns="http://www.w3.org/2000/svg">
<path d="M30.1451 18.3625C-2.03191 46.384 7.19566 47.149 16.9987 64.1284C26.8018 81.1078 42.936 91.2344 59.8949 73.04C75.4681 46.8841 88.4421 48.3358 78.639 31.3564C44.6353 25.7102 47.1245 8.55947 30.1451 18.3625Z" fill="#FFEEF5"/>
<path d="M34 36.1707L46.006 32.6667L58 36.1707V43.356C57.9999 47.0385 56.8411 50.6275 54.6877 53.6148C52.5344 56.602 49.4956 58.8359 46.002 60C42.5073 58.8361 39.4675 56.6018 37.3134 53.614C35.1593 50.6261 34.0001 47.0361 34 43.3527V36.1707Z" stroke="#E41469" stroke-width="2" stroke-linejoin="round"/>
<path d="M40 45.3333L44.6667 50L52.6667 42" stroke="#E41469" stroke-width="2" stroke-linecap="round" stroke-linejoin="round"/>
</svg>
