<svg width="18" height="18" viewBox="0 0 18 18" fill="none" xmlns="http://www.w3.org/2000/svg">
<g clip-path="url(#clip0_179856_14594)">
<path d="M9.65287 11.3032L7.74787 9.42073L7.77037 9.39823C9.07537 7.94323 10.0054 6.27073 10.5529 4.50073H12.7504V3.00073H7.50037V1.50073H6.00037V3.00073H0.750366V4.49323H9.12787C8.62537 5.94073 7.83037 7.31323 6.75037 8.51323C6.05287 7.74073 5.47537 6.89323 5.01787 6.00073H3.51787C4.06537 7.22323 4.81537 8.37823 5.75287 9.42073L1.93537 13.1857L3.00037 14.2507L6.75037 10.5007L9.08287 12.8332L9.65287 11.3032ZM13.8754 7.50073H12.3754L9.00037 16.5007H10.5004L11.3404 14.2507H14.9029L15.7504 16.5007H17.2504L13.8754 7.50073ZM11.9104 12.7507L13.1254 9.50323L14.3404 12.7507H11.9104Z" fill="#F5F5F5"/>
</g>
<defs>
<clipPath id="clip0_179856_14594">
<rect width="18" height="18" fill="white"/>
</clipPath>
</defs>
</svg>
