<svg width="64" height="67" viewBox="0 0 64 67" fill="none" xmlns="http://www.w3.org/2000/svg">
<path d="M5.96905 51.8471C-6.28108 10.9753 1.93007 15.2543 19.2835 6.12979C36.637 -2.99476 55.6858 -2.94492 60.3135 21.4933C59.5194 51.924 71.2651 57.6222 53.9117 66.7468C22.1442 53.3691 15.0936 69.2005 5.96905 51.8471Z" fill="#FFDCED"/>
<path d="M33.0041 43.5827C33.7404 43.5827 34.3374 42.9858 34.3374 42.2494C34.3374 41.513 33.7404 40.9161 33.0041 40.9161C32.2677 40.9161 31.6707 41.513 31.6707 42.2494C31.6707 42.9858 32.2677 43.5827 33.0041 43.5827Z" fill="#E41469"/>
<path d="M39.3001 19.7534H26.7001C25.8635 19.8037 25.0807 20.1819 24.5214 20.8061C23.9622 21.4302 23.6718 22.2498 23.7134 23.0868V42.9134C23.6718 43.7504 23.9622 44.57 24.5214 45.1941C25.0807 45.8182 25.8635 46.1965 26.7001 46.2467H39.3001C40.1374 46.1989 40.9218 45.8213 41.4815 45.1966C42.0412 44.572 42.3307 43.751 42.2867 42.9134V23.0868C42.3307 22.2492 42.0412 21.4282 41.4815 20.8035C40.9218 20.1788 40.1374 19.8013 39.3001 19.7534ZM40.9534 42.9134C40.9965 43.3973 40.8472 43.8787 40.5376 44.2531C40.2281 44.6275 39.7834 44.8648 39.3001 44.9134H26.7001C26.2177 44.8625 25.7744 44.6246 25.4654 44.2507C25.1563 43.8768 25.006 43.3968 25.0467 42.9134V39.5801H40.9534V42.9134ZM40.9534 38.2468H25.0467V23.0868C25.006 22.6034 25.1563 22.1233 25.4654 21.7495C25.7744 21.3756 26.2177 21.1377 26.7001 21.0868H39.3001C39.7834 21.1354 40.2281 21.3726 40.5376 21.7471C40.8472 22.1215 40.9965 22.6029 40.9534 23.0868V38.2468Z" fill="#E41469"/>
</svg>
