<svg width="72" height="66" viewBox="0 0 72 66" fill="none" xmlns="http://www.w3.org/2000/svg">
<path d="M15.2645 6.22776C-8.06298 41.9545 1.02403 40.177 15.0815 53.844C29.1389 67.5111 47.4214 72.86 58.783 50.7341C66.6427 21.3251 79.5215 19.188 65.4641 5.52092C31.2081 9.35057 28.9315 -7.82966 15.2645 6.22776Z" fill="#FFDCED"/>
<path d="M26.3334 34.6666V40.5332C26.3334 40.7454 26.4177 40.9489 26.5677 41.0989C26.7177 41.2489 26.9212 41.3332 27.1334 41.3332H34.3334M46.3334 34.6666V40.5332C46.3334 40.7454 46.2491 40.9489 46.0991 41.0989C45.949 41.2489 45.7455 41.3332 45.5334 41.3332H39.6667M39.6667 22.6666H45.5334C45.7455 22.6666 45.949 22.7509 46.0991 22.9009C46.2491 23.0509 46.3334 23.2544 46.3334 23.4666V29.3332M26.3334 29.3332V23.4666C26.3334 23.2544 26.4177 23.0509 26.5677 22.9009C26.7177 22.7509 26.9212 22.6666 27.1334 22.6666H34.3334M39.6667 41.3332V42.6666C39.6667 43.3738 39.3858 44.0521 38.8857 44.5522C38.3856 45.0523 37.7073 45.3332 37 45.3332C36.2928 45.3332 35.6145 45.0523 35.1144 44.5522C34.6143 44.0521 34.3334 43.3738 34.3334 42.6666V41.3332M26.3334 29.3332H27.6667C28.374 29.3332 29.0522 29.6142 29.5523 30.1143C30.0524 30.6144 30.3334 31.2927 30.3334 31.9999C30.3334 32.7071 30.0524 33.3854 29.5523 33.8855C29.0522 34.3856 28.374 34.6666 27.6667 34.6666H26.3334M46.3334 29.3332H47.6667C48.374 29.3332 49.0522 29.6142 49.5523 30.1143C50.0524 30.6144 50.3334 31.2927 50.3334 31.9999C50.3334 32.7071 50.0524 33.3854 49.5523 33.8855C49.0522 34.3856 48.374 34.6666 47.6667 34.6666H46.3334M39.6667 22.6666V21.3332C39.6667 20.626 39.3858 19.9477 38.8857 19.4476C38.3856 18.9475 37.7073 18.6666 37 18.6666C36.2928 18.6666 35.6145 18.9475 35.1144 19.4476C34.6143 19.9477 34.3334 20.626 34.3334 21.3332V22.6666" stroke="#E41469" stroke-width="1.5" stroke-linecap="round" stroke-linejoin="round"/>
</svg>
