<svg width="95" height="95" viewBox="0 0 95 95" fill="none" xmlns="http://www.w3.org/2000/svg">
<path d="M70.6023 69.54C93.9297 33.8133 84.8427 35.5908 70.7853 21.9237C56.7279 8.25667 38.4454 2.90781 27.0838 25.0337C19.2241 54.4426 6.34527 56.5798 20.4027 70.2468C54.6586 66.4172 56.9353 83.5974 70.6023 69.54Z" fill="#FFDCED"/>
<path d="M36.6666 34H44.6666C46.0811 34 47.4377 34.5619 48.4379 35.5621C49.4381 36.5623 50 37.9188 50 39.3333V58C50 56.9391 49.5785 55.9217 48.8284 55.1716C48.0782 54.4214 47.0608 54 46 54H36.6666V34Z" stroke="#E41469" stroke-width="2" stroke-linecap="round" stroke-linejoin="round"/>
<path d="M63.3333 34H55.3333C53.9188 34 52.5623 34.5619 51.5621 35.5621C50.5619 36.5623 50 37.9188 50 39.3333V58C50 56.9391 50.4214 55.9217 51.1716 55.1716C51.9217 54.4214 52.9391 54 54 54H63.3333V34Z" stroke="#E41469" stroke-width="2" stroke-linecap="round" stroke-linejoin="round"/>
</svg>
