<svg width="95" height="96" viewBox="0 0 95 96" fill="none" xmlns="http://www.w3.org/2000/svg">
<path d="M70.6025 70.3143C93.93 34.5876 84.843 36.3651 70.7856 22.698C56.7281 9.03099 38.4456 3.68214 27.084 25.808C19.2244 55.217 6.34551 57.3541 20.4029 71.0212C54.6589 67.1915 56.9355 84.3717 70.6025 70.3143Z" fill="#FFEEF5"/>
<path d="M46.204 35.2105C47.8933 32.1812 48.7373 30.6665 50 30.6665C51.2627 30.6665 52.1067 32.1812 53.796 35.2105L54.2333 35.9945C54.7133 36.8558 54.9533 37.2865 55.3267 37.5705C55.7 37.8545 56.1667 37.9598 57.1 38.1705L57.948 38.3625C61.228 39.1052 62.8667 39.4758 63.2573 40.7305C63.6467 41.9838 62.5293 43.2918 60.2933 45.9065L59.7147 46.5825C59.08 47.3252 58.7613 47.6972 58.6187 48.1558C58.476 48.6158 58.524 49.1118 58.62 50.1025L58.708 51.0052C59.0453 54.4945 59.2147 56.2385 58.1933 57.0132C57.172 57.7892 55.636 57.0812 52.5667 55.6678L51.7707 55.3025C50.8987 54.8998 50.4627 54.6998 50 54.6998C49.5373 54.6998 49.1013 54.8998 48.228 55.3025L47.4347 55.6678C44.364 57.0812 42.828 57.7878 41.808 57.0145C40.7853 56.2385 40.9547 54.4945 41.292 51.0052L41.38 50.1038C41.476 49.1118 41.524 48.6158 41.38 48.1572C41.2387 47.6972 40.92 47.3252 40.2853 46.5838L39.7067 45.9065C37.4707 43.2932 36.3533 41.9852 36.7427 40.7305C37.1333 39.4758 38.7733 39.1038 42.0533 38.3625L42.9013 38.1705C43.8333 37.9598 44.2987 37.8545 44.6733 37.5705C45.0467 37.2865 45.2867 36.8558 45.7667 35.9945L46.204 35.2105Z" stroke="#E41469" stroke-width="1.5"/>
</svg>
