<svg width="37" height="36" viewBox="0 0 37 36" fill="none" xmlns="http://www.w3.org/2000/svg">
<path d="M34.4756 31.7661L24.0413 21.3317C25.6604 19.2384 26.5363 16.679 26.5363 13.987C26.5363 10.7647 25.2788 7.74329 23.0046 5.46517C20.7305 3.18704 17.7011 1.93347 14.4828 1.93347C11.2645 1.93347 8.235 3.19106 5.9609 5.46517C3.68277 7.73927 2.4292 10.7647 2.4292 13.987C2.4292 17.2053 3.68679 20.2348 5.9609 22.5089C8.235 24.787 11.2604 26.0406 14.4828 26.0406C17.1747 26.0406 19.7301 25.1647 21.8234 23.5495L32.2578 33.9799C32.2884 34.0105 32.3247 34.0348 32.3647 34.0514C32.4047 34.0679 32.4475 34.0765 32.4908 34.0765C32.5341 34.0765 32.5769 34.0679 32.6169 34.0514C32.6569 34.0348 32.6932 34.0105 32.7238 33.9799L34.4756 32.2321C34.5062 32.2015 34.5305 32.1652 34.5471 32.1252C34.5637 32.0852 34.5722 32.0424 34.5722 31.9991C34.5722 31.9558 34.5637 31.913 34.5471 31.873C34.5305 31.833 34.5062 31.7967 34.4756 31.7661ZM20.8471 20.3513C19.1435 22.0509 16.8854 22.987 14.4828 22.987C12.0801 22.987 9.82206 22.0509 8.11848 20.3513C6.41893 18.6478 5.48277 16.3897 5.48277 13.987C5.48277 11.5844 6.41893 9.32231 8.11848 7.62276C9.82206 5.9232 12.0801 4.98704 14.4828 4.98704C16.8854 4.98704 19.1475 5.91919 20.8471 7.62276C22.5466 9.32633 23.4828 11.5844 23.4828 13.987C23.4828 16.3897 22.5466 18.6518 20.8471 20.3513Z" fill="#03ADB5"/>
</svg>
