<svg width="37" height="36" viewBox="0 0 37 36" fill="none" xmlns="http://www.w3.org/2000/svg">
<g clip-path="url(#clip0_179594_172323)">
<path d="M35.3522 17.4802L1.74284 0.629307C1.60623 0.561003 1.44954 0.544932 1.30088 0.581093C1.13589 0.621881 0.993778 0.726385 0.905672 0.871724C0.817565 1.01706 0.790638 1.19139 0.830787 1.35654L4.29418 15.5074C4.34641 15.7204 4.50311 15.8931 4.71204 15.9614L10.6464 17.9985L4.71606 20.0356C4.50713 20.1079 4.35043 20.2766 4.30222 20.4896L0.830787 34.6606C0.794627 34.8092 0.810698 34.9659 0.879002 35.0985C1.0357 35.4159 1.42141 35.5445 1.74284 35.3878L35.3522 18.6333C35.4768 18.5731 35.5772 18.4686 35.6415 18.3481C35.7982 18.0266 35.6696 17.6409 35.3522 17.4802ZM4.79239 30.6347L6.81338 22.3739L18.6741 18.3039C18.7665 18.2717 18.8428 18.1994 18.875 18.103C18.9312 17.9342 18.8428 17.7534 18.6741 17.6931L6.81338 13.6271L4.80043 5.3985L30.0326 18.0507L4.79239 30.6347Z" fill="#03ADB5"/>
</g>
<defs>
<clipPath id="clip0_179594_172323">
<rect width="36" height="36" fill="white" transform="translate(0.5)"/>
</clipPath>
</defs>
</svg>
