<svg width="36" height="36" viewBox="0 0 36 36" fill="none" xmlns="http://www.w3.org/2000/svg">
<path d="M33.915 11.6185L23.7136 10.1359L19.1534 0.890853C19.0288 0.637728 18.8239 0.432817 18.5708 0.308263C17.9359 -0.00512952 17.1645 0.256031 16.8471 0.890853L12.2868 10.1359L2.0855 11.6185C1.80425 11.6587 1.54711 11.7913 1.35023 11.9922C1.11222 12.2368 0.981066 12.5659 0.985587 12.9072C0.990107 13.2485 1.12993 13.574 1.37434 13.8123L8.75514 21.0083L7.01139 31.1694C6.9705 31.4058 6.99666 31.6489 7.0869 31.8712C7.17713 32.0934 7.32784 32.2859 7.52194 32.4269C7.71603 32.5679 7.94573 32.6516 8.18501 32.6687C8.42428 32.6858 8.66355 32.6354 8.87568 32.5234L18.0002 27.7261L27.1248 32.5234C27.3739 32.656 27.6632 32.7002 27.9404 32.652C28.6395 32.5315 29.1096 31.8685 28.9891 31.1694L27.2453 21.0083L34.6261 13.8123C34.827 13.6154 34.9596 13.3583 34.9998 13.077C35.1083 12.3739 34.6181 11.723 33.915 11.6185ZM24.1395 19.9958L25.59 28.4453L18.0002 24.4596L10.4105 28.4493L11.8609 19.9998L5.72166 14.0132L14.2074 12.7797L18.0002 5.09353L21.7931 12.7797L30.2788 14.0132L24.1395 19.9958Z" fill="#E41469"/>
</svg>
