<svg width="95" height="95" viewBox="0 0 95 95" fill="none" xmlns="http://www.w3.org/2000/svg">
<path d="M70.6023 69.54C93.9297 33.8133 84.8427 35.5907 70.7853 21.9237C56.7279 8.25664 38.4454 2.90778 27.0838 25.0337C19.2241 54.4426 6.34527 56.5798 20.4027 70.2468C54.6586 66.4172 56.9353 83.5974 70.6023 69.54Z" fill="#FFDCED"/>
<g clip-path="url(#clip0_130_3706)">
<path d="M39.9121 42.144V36.0748C39.9301 34.8818 40.1833 33.7041 40.6573 32.6091C41.1313 31.5142 41.8166 30.5235 42.6741 29.6939C43.5316 28.8642 44.5444 28.212 45.6544 27.7744C46.7644 27.3369 47.9499 27.1226 49.1428 27.144C50.3358 27.1226 51.5212 27.3369 52.6312 27.7744C53.7412 28.212 54.754 28.8642 55.6115 29.6939C56.469 30.5235 57.1544 31.5142 57.6283 32.6091C58.1023 33.7041 58.3556 34.8818 58.3736 36.0748V42.144M53.7582 54.2594C54.9823 54.2594 56.1562 53.7732 57.0218 52.9076C57.8873 52.0421 58.3736 50.8681 58.3736 49.644V44.4517M53.7582 54.2594C53.7582 55.0245 53.4543 55.7582 52.9133 56.2992C52.3724 56.8401 51.6386 57.144 50.8736 57.144H47.4121C46.647 57.144 45.9133 56.8401 45.3723 56.2992C44.8314 55.7582 44.5274 55.0245 44.5274 54.2594C44.5274 53.4944 44.8314 52.7607 45.3723 52.2197C45.9133 51.6787 46.647 51.3748 47.4121 51.3748H50.8736C51.6386 51.3748 52.3724 51.6787 52.9133 52.2197C53.4543 52.7607 53.7582 53.4944 53.7582 54.2594ZM36.4505 38.6825H38.7582C39.0642 38.6825 39.3577 38.8041 39.5741 39.0205C39.7905 39.2368 39.9121 39.5303 39.9121 39.8363V46.7594C39.9121 47.0654 39.7905 47.3589 39.5741 47.5753C39.3577 47.7917 39.0642 47.9133 38.7582 47.9133H36.4505C35.8385 47.9133 35.2515 47.6701 34.8187 47.2374C34.386 46.8046 34.1428 46.2176 34.1428 45.6056V40.9902C34.1428 40.3782 34.386 39.7912 34.8187 39.3584C35.2515 38.9256 35.8385 38.6825 36.4505 38.6825ZM61.8351 47.9133H59.5274C59.2214 47.9133 58.9279 47.7917 58.7115 47.5753C58.4952 47.3589 58.3736 47.0654 58.3736 46.7594V39.8363C58.3736 39.5303 58.4952 39.2368 58.7115 39.0205C58.9279 38.8041 59.2214 38.6825 59.5274 38.6825H61.8351C62.4472 38.6825 63.0341 38.9256 63.4669 39.3584C63.8997 39.7912 64.1428 40.3782 64.1428 40.9902V45.6056C64.1428 46.2176 63.8997 46.8046 63.4669 47.2374C63.0341 47.6701 62.4472 47.9133 61.8351 47.9133Z" stroke="#E41469" stroke-width="1.5" stroke-linecap="round" stroke-linejoin="round"/>
</g>
<defs>
<clipPath id="clip0_130_3706">
<rect width="32" height="32" fill="white" transform="translate(33 26)"/>
</clipPath>
</defs>
</svg>
