<svg width="36" height="36" viewBox="0 0 36 36" fill="none" xmlns="http://www.w3.org/2000/svg">
<path d="M30.5445 25.5553C29.5388 24.5488 28.3637 23.7273 27.073 23.1285C28.8931 21.6539 30.0543 19.4039 30.0543 16.8807C30.0543 12.4289 26.3418 8.7767 21.89 8.84501C17.5065 8.91331 13.9748 12.4852 13.9748 16.8807C13.9748 19.4039 15.14 21.6539 16.9561 23.1285C15.6652 23.7269 14.49 24.5484 13.4847 25.5553C11.2909 27.753 10.0454 30.6539 9.96501 33.7477C9.96394 33.7906 9.97146 33.8332 9.98714 33.8732C10.0028 33.9131 10.0263 33.9495 10.0563 33.9802C10.0862 34.0109 10.122 34.0353 10.1616 34.0519C10.2011 34.0686 10.2435 34.0772 10.2864 34.0772H12.5364C12.7092 34.0772 12.8539 33.9405 12.8579 33.7678C12.9342 31.4374 13.8784 29.2557 15.5378 27.6004C16.3869 26.7467 17.3969 26.07 18.5094 25.6093C19.6218 25.1486 20.8145 24.9131 22.0186 24.9164C24.4655 24.9164 26.7677 25.8687 28.4994 27.6004C30.1547 29.2557 31.0989 31.4374 31.1793 33.7678C31.1833 33.9405 31.328 34.0772 31.5007 34.0772H33.7507C33.7936 34.0772 33.8361 34.0686 33.8756 34.0519C33.9151 34.0353 33.9509 34.0109 33.9809 33.9802C34.0109 33.9495 34.0344 33.9131 34.05 33.8732C34.0657 33.8332 34.0732 33.7906 34.0722 33.7477C33.9918 30.6539 32.7463 27.753 30.5445 25.5553ZM22.0186 22.0236C20.6445 22.0236 19.3507 21.4892 18.3824 20.5169C17.8965 20.0348 17.5126 19.4597 17.2538 18.826C16.9949 18.1923 16.8663 17.513 16.8757 16.8285C16.8878 15.5106 17.4141 14.237 18.3342 13.2928C19.2985 12.3044 20.5882 11.7539 21.9664 11.7379C23.3284 11.7258 24.6503 12.2562 25.6226 13.2084C26.619 14.1847 27.1655 15.4905 27.1655 16.8807C27.1655 18.2548 26.6311 19.5446 25.6588 20.5169C25.1817 20.9962 24.6144 21.3762 23.9896 21.6348C23.3647 21.8934 22.6948 22.0255 22.0186 22.0236ZM11.9539 17.9414C11.9177 17.5919 11.8976 17.2383 11.8976 16.8807C11.8976 16.2419 11.9579 15.6191 12.0704 15.0124C12.0985 14.8678 12.0222 14.7191 11.8896 14.6588C11.3431 14.4138 10.8409 14.0763 10.407 13.6504C9.89567 13.1546 9.49331 12.5577 9.22559 11.8977C8.95786 11.2377 8.83065 10.5292 8.85207 9.81733C8.88823 8.5276 9.40653 7.30215 10.3105 6.37804C11.303 5.36152 12.6369 4.80706 14.0552 4.82313C15.3369 4.83519 16.5744 5.32938 17.5105 6.20527C17.828 6.5026 18.1012 6.83206 18.3302 7.18563C18.4105 7.31019 18.5672 7.36242 18.7039 7.3142C19.411 7.06911 20.1583 6.89635 20.9257 6.81599C21.1507 6.79188 21.2793 6.55081 21.1789 6.34992C19.873 3.76643 17.2052 1.98251 14.1195 1.93429C9.66367 1.86599 5.95117 5.51822 5.95117 9.96599C5.95117 12.4892 7.11233 14.7392 8.93242 16.2138C7.65475 16.8044 6.47751 17.62 5.45698 18.6405C3.25519 20.8383 2.00966 23.7392 1.9293 26.837C1.92823 26.8799 1.93575 26.9225 1.95142 26.9624C1.96709 27.0024 1.9906 27.0388 2.02055 27.0695C2.05051 27.1002 2.08631 27.1246 2.12584 27.1412C2.16537 27.1579 2.20783 27.1665 2.25073 27.1664H4.50475C4.67751 27.1664 4.82216 27.0298 4.82617 26.8571C4.90251 24.5267 5.84671 22.345 7.50609 20.6897C8.68734 19.5084 10.1338 18.6888 11.7128 18.291C11.8695 18.2508 11.9739 18.1021 11.9539 17.9414Z" fill="#E41469"/>
</svg>
