<svg width="71" height="66" viewBox="0 0 71 66" fill="none" xmlns="http://www.w3.org/2000/svg">
<path d="M56.4674 59.4967C79.7948 23.77 70.7078 25.5475 56.6504 11.8804C42.593 -1.78663 24.3104 -7.13549 12.9489 14.9904C5.08921 44.3993 -7.78964 46.5365 6.26779 60.2035C40.5237 56.3739 42.8003 73.5541 56.4674 59.4967Z" fill="#FFDCED"/>
<g clip-path="url(#clip0_137_5566)">
<path d="M22.4382 31.334C22.4382 30.6267 22.7192 29.9484 23.2193 29.4483C23.7194 28.9482 24.3977 28.6673 25.1049 28.6673H46.4382C47.1455 28.6673 47.8238 28.9482 48.3238 29.4483C48.8239 29.9484 49.1049 30.6267 49.1049 31.334V40.6673C49.1049 41.3745 48.8239 42.0528 48.3238 42.5529C47.8238 43.053 47.1455 43.334 46.4382 43.334H41.2809C40.8204 43.334 40.3678 43.2147 39.967 42.9878C39.5663 42.761 39.2312 42.4342 38.9942 42.0393L36.9142 38.5726C36.7957 38.3755 36.6282 38.2124 36.4279 38.0991C36.2277 37.9859 36.0016 37.9264 35.7716 37.9264C35.5415 37.9264 35.3154 37.9859 35.1152 38.0991C34.915 38.2124 34.7474 38.3755 34.6289 38.5726L32.5489 42.0393C32.312 42.4342 31.9768 42.761 31.5761 42.9878C31.1754 43.2147 30.7227 43.334 30.2622 43.334H25.1049C24.3977 43.334 23.7194 43.053 23.2193 42.5529C22.7192 42.0528 22.4382 41.3745 22.4382 40.6673V31.334ZM24.8556 27.042C25.3425 26.3117 26.0021 25.7129 26.7759 25.2986C27.5497 24.8844 28.4138 24.6675 29.2916 24.6673H42.2489C43.1268 24.6673 43.9912 24.8841 44.7653 25.2983C45.5394 25.7126 46.1992 26.3115 46.6862 27.042L47.7716 28.6673H23.7716L24.8556 27.042Z" stroke="#E41469" stroke-width="1.5" stroke-linecap="round" stroke-linejoin="round"/>
</g>
<defs>
<clipPath id="clip0_137_5566">
<rect width="32" height="32" fill="white" transform="translate(19.8647 18.1823)"/>
</clipPath>
</defs>
</svg>
