<svg width="71" height="66" viewBox="0 0 71 66" fill="none" xmlns="http://www.w3.org/2000/svg">
<path d="M56.6025 60.3141C79.93 24.5874 70.843 26.3648 56.7855 12.6978C42.7281 -0.96925 24.4456 -6.31811 13.084 15.8078C5.22436 45.2167 -7.65449 47.3539 6.40294 61.0209C40.6589 57.1913 42.9355 74.3715 56.6025 60.3141Z" fill="#FFDCED"/>
<g clip-path="url(#clip0_77_274)">
<path d="M24.3947 46.4694L32.88 37.984M43.5653 34.2107L41.0253 41.8307C40.9848 41.9528 40.9154 42.0634 40.823 42.153C40.7306 42.2426 40.618 42.3086 40.4947 42.3454L24.924 46.9734C24.7837 47.015 24.6347 47.0174 24.4932 46.9803C24.3516 46.9431 24.223 46.8679 24.1212 46.7627C24.0195 46.6575 23.9485 46.5264 23.9161 46.3837C23.8837 46.241 23.891 46.0922 23.9373 45.9534L28.9933 30.788C29.0296 30.6791 29.0888 30.5793 29.167 30.4954C29.2452 30.4114 29.3406 30.3452 29.4467 30.3014L36.6293 27.344C36.7754 27.2837 36.936 27.268 37.0909 27.2988C37.2459 27.3297 37.3882 27.4057 37.5 27.5174L43.372 33.3907C43.4773 33.4959 43.5512 33.6283 43.5853 33.7732C43.6195 33.918 43.6126 34.0696 43.5653 34.2107Z" stroke="#E41469" stroke-width="1.5" stroke-linecap="round" stroke-linejoin="round"/>
<path d="M43.7227 33.7413L47.4933 29.9693C47.9933 29.4692 48.2741 28.7911 48.2741 28.084C48.2741 27.3769 47.9933 26.6987 47.4933 26.1987L44.6667 23.3693C44.419 23.1216 44.125 22.9251 43.8014 22.791C43.4778 22.6569 43.1309 22.5879 42.7807 22.5879C42.4304 22.5879 42.0835 22.6569 41.7599 22.791C41.4363 22.9251 41.1423 23.1216 40.8947 23.3693L37.124 27.1413M35.708 35.1547C35.5222 34.969 35.3017 34.8217 35.059 34.7212C34.8163 34.6208 34.5562 34.5691 34.2935 34.5692C34.0309 34.5692 33.7708 34.621 33.5281 34.7216C33.2855 34.8222 33.065 34.9695 32.8793 35.1553C32.6936 35.3411 32.5464 35.5616 32.4459 35.8043C32.3454 36.047 32.2938 36.3071 32.2938 36.5698C32.2939 36.8325 32.3457 37.0925 32.4463 37.3352C32.5468 37.5778 32.6942 37.7983 32.88 37.984C33.2552 38.359 33.764 38.5696 34.2945 38.5695C34.8249 38.5694 35.3336 38.3585 35.7087 37.9833C36.0837 37.6081 36.2943 37.0993 36.2942 36.5689C36.294 36.0384 36.0832 35.5297 35.708 35.1547Z" stroke="#E41469" stroke-width="1.5" stroke-linecap="round" stroke-linejoin="round"/>
</g>
<defs>
<clipPath id="clip0_77_274">
<rect width="27" height="27" fill="white" transform="translate(23 21)"/>
</clipPath>
</defs>
</svg>
