<svg width="72" height="66" viewBox="0 0 72 66" fill="none" xmlns="http://www.w3.org/2000/svg">
<path d="M15.2646 60.314C-8.06287 24.5873 1.02415 26.3647 15.0816 12.6977C29.139 -0.969372 47.4215 -6.31823 58.7831 15.8077C66.6428 45.2166 79.5216 47.3538 65.4642 61.0208C31.2082 57.1912 28.9316 74.3714 15.2646 60.314Z" fill="#FFDCED"/>
<path d="M38.5715 37.857C38.5715 38.3117 38.3908 38.7477 38.0694 39.0692C37.7479 39.3907 37.3118 39.5713 36.8572 39.5713C36.4025 39.5713 35.9665 39.3907 35.645 39.0692C35.3235 38.7477 35.1429 38.3117 35.1429 37.857C35.1429 37.4024 35.3235 36.9663 35.645 36.6448C35.9665 36.3233 36.4025 36.1427 36.8572 36.1427C37.3118 36.1427 37.7479 36.3233 38.0694 36.6448C38.3908 36.9663 38.5715 37.4024 38.5715 37.857ZM40.2857 34.9999C40.5109 34.9999 40.7338 34.9555 40.9418 34.8694C41.1498 34.7832 41.3387 34.657 41.4979 34.4978C41.6571 34.3386 41.7834 34.1496 41.8695 33.9416C41.9557 33.7336 42 33.5107 42 33.2856C42 33.0605 41.9557 32.8375 41.8695 32.6296C41.7834 32.4216 41.6571 32.2326 41.4979 32.0734C41.3387 31.9142 41.1498 31.7879 40.9418 31.7018C40.7338 31.6156 40.5109 31.5713 40.2857 31.5713C39.8311 31.5713 39.3951 31.7519 39.0736 32.0734C38.7521 32.3949 38.5715 32.8309 38.5715 33.2856C38.5715 33.7402 38.7521 34.1763 39.0736 34.4978C39.3951 34.8193 39.8311 34.9999 40.2857 34.9999ZM24.2857 34.7142C24.2857 34.4868 24.376 34.2688 24.5368 34.1081C24.6975 33.9473 24.9156 33.857 25.1429 33.857H27.1429V31.857C27.1429 31.6297 27.2332 31.4117 27.3939 31.2509C27.5547 31.0902 27.7727 30.9999 28 30.9999C28.2274 30.9999 28.4454 31.0902 28.6061 31.2509C28.7669 31.4117 28.8572 31.6297 28.8572 31.857V33.857H30.8572C31.0845 33.857 31.3025 33.9473 31.4633 34.1081C31.624 34.2688 31.7143 34.4868 31.7143 34.7142C31.7143 34.9415 31.624 35.1595 31.4633 35.3202C31.3025 35.481 31.0845 35.5713 30.8572 35.5713H28.8572V37.5724C28.8572 37.7998 28.7669 38.0178 28.6061 38.1785C28.4454 38.3393 28.2274 38.4296 28 38.4296C27.7727 38.4296 27.5547 38.3393 27.3939 38.1785C27.2332 38.0178 27.1429 37.7998 27.1429 37.5724V35.5713H25.1429C24.9156 35.5713 24.6975 35.481 24.5368 35.3202C24.376 35.1595 24.2857 34.9415 24.2857 34.7142ZM20.2857 34.9999C20.2857 32.4235 21.3092 29.9526 23.131 28.1308C24.9528 26.3091 27.4236 25.2856 30 25.2856H38C40.5764 25.2856 43.0473 26.3091 44.8691 28.1308C46.6908 29.9526 47.7143 32.4235 47.7143 34.9999C47.7143 37.5763 46.6908 40.0471 44.8691 41.8689C43.0473 43.6907 40.5764 44.7142 38 44.7142H30C27.4236 44.7142 24.9528 43.6907 23.131 41.8689C21.3092 40.0471 20.2857 37.5763 20.2857 34.9999ZM30 26.9999C27.8783 26.9999 25.8435 27.8427 24.3432 29.343C22.8429 30.8433 22 32.8781 22 34.9999C22 37.1216 22.8429 39.1564 24.3432 40.6567C25.8435 42.157 27.8783 42.9999 30 42.9999H38C40.1218 42.9999 42.1566 42.157 43.6569 40.6567C45.1572 39.1564 46 37.1216 46 34.9999C46 32.8781 45.1572 30.8433 43.6569 29.343C42.1566 27.8427 40.1218 26.9999 38 26.9999H30Z" fill="#E41469"/>
</svg>
