<svg width="71" height="66" viewBox="0 0 71 66" fill="none" xmlns="http://www.w3.org/2000/svg">
<path d="M56.6023 6.22758C79.9297 41.9543 70.8427 40.1768 56.7853 53.8439C42.7279 67.5109 24.4453 72.8598 13.0838 50.7339C5.2241 21.3249 -7.65475 19.1878 6.40268 5.52074C40.6586 9.35038 42.9352 -7.82985 56.6023 6.22758Z" fill="#FFDCED"/>
<g clip-path="url(#clip0_77_292)">
<path d="M22.1821 21.7596V39.03H49.8173V21.7596H22.1821ZM50.5437 19.5996C51.3469 19.5996 51.9981 20.2444 51.9981 21.0396V39.75C51.9981 40.5452 51.3469 41.19 50.5421 41.19L36.8941 41.1884V46.2396H42.3933C42.9965 46.2396 43.4845 46.7244 43.4845 47.3196C43.4839 47.4622 43.4552 47.6033 43.4 47.7348C43.3448 47.8662 43.2642 47.9855 43.1628 48.0858C43.0615 48.1862 42.9414 48.2655 42.8093 48.3193C42.6773 48.3732 42.5359 48.4005 42.3933 48.3996H29.5693C29.4267 48.4005 29.2854 48.3732 29.1533 48.3193C29.0213 48.2655 28.9012 48.1862 28.7998 48.0858C28.6985 47.9855 28.6179 47.8662 28.5627 47.7348C28.5075 47.6033 28.4788 47.4622 28.4781 47.3196C28.4781 46.7244 28.9677 46.2412 29.5693 46.2412L34.7149 46.2396V41.1884H21.4541C21.0708 41.1905 20.7023 41.0404 20.4296 40.771C20.1569 40.5016 20.0023 40.1349 19.9997 39.7516V21.0396C19.9997 20.2444 20.6509 19.5996 21.4557 19.5996H50.5437Z" fill="#E41469"/>
</g>
<defs>
<clipPath id="clip0_77_292">
<rect width="32" height="32" fill="white" transform="translate(19.9997 17.9996)"/>
</clipPath>
</defs>
</svg>
