<svg width="31" height="27" viewBox="0 0 31 27" fill="none" xmlns="http://www.w3.org/2000/svg">
<path opacity="0.8" d="M15.1518 20.9637C13.9397 19.0662 13.2329 16.8182 13.2173 14.4072C11.5143 14.6401 9.97802 15.3934 8.77527 16.5029V20.6192V20.846C9.89091 21.1031 11.0532 21.2375 12.2466 21.2375C13.2397 21.2369 14.2104 21.1427 15.1518 20.9637Z" fill="#03ADB5"/>
<path d="M13.2161 14.3292C13.2161 10.6514 14.827 7.35029 17.3837 5.08428L13.6243 2.92295C12.8869 2.49862 12.1882 2.29048 11.561 2.27065C9.9183 2.22171 8.77466 3.491 8.77466 5.71056V13.2247V16.5029C9.97741 15.3935 11.5131 14.6402 13.2167 14.4073C13.2167 14.3806 13.2161 14.3546 13.2161 14.3292Z" fill="#03ADB5"/>
<path d="M13.2161 14.3292C13.2161 14.3546 13.2167 14.3806 13.2167 14.4072C13.5863 14.3564 13.9634 14.3292 14.3466 14.3292C17.3184 14.3292 19.9218 15.9032 21.361 18.2591C23.9475 16.3616 25.9162 13.6756 26.9093 10.5579L22.3372 7.93131L17.3837 5.08362C14.827 7.35025 13.2161 10.652 13.2161 14.3292Z" fill="#232932"/>
<path opacity="0.8" d="M15.1517 20.9638C15.7721 21.9332 16.5244 22.8122 17.3836 23.5736L17.6537 23.4193L18.7326 22.7986L19.9926 22.0738L22.3546 20.7166C22.158 19.8345 21.8188 19.0075 21.3615 18.2592C19.5521 19.5848 17.4421 20.527 15.1517 20.9638Z" fill="#E41469"/>
<path d="M28.6185 11.5416L26.9099 10.5579C25.9162 13.675 23.9481 16.361 21.3616 18.2591C21.8189 19.0074 22.158 19.8344 22.3546 20.7165L27.7207 17.6322C28.6994 17.0697 29.6695 16.5995 30.2575 15.5972C31.0639 14.2208 30.5182 12.6337 28.6185 11.5416Z" fill="#3A3F47"/>
<path d="M15.1518 20.9638C14.211 21.1428 13.2403 21.237 12.2466 21.237C11.0532 21.237 9.89091 21.1025 8.77527 20.8455V22.9467C8.77527 23.804 8.94576 24.5189 9.25065 25.0721C10.034 26.4969 11.7034 26.8394 13.6249 25.7337L17.3837 23.5736C16.5244 22.8123 15.7715 21.9332 15.1518 20.9638Z" fill="#E41469"/>
<path d="M26.1514 7.90536C27.4022 7.90536 28.4163 6.89582 28.4163 5.65049C28.4163 4.40517 27.4022 3.39563 26.1514 3.39563C24.9005 3.39563 23.8865 4.40517 23.8865 5.65049C23.8865 6.89582 24.9005 7.90536 26.1514 7.90536Z" fill="#E41469"/>
<path opacity="0.8" d="M2.24625 23.2905C3.21911 23.2905 4.00776 22.5053 4.00776 21.5368C4.00776 20.5682 3.21911 19.7831 2.24625 19.7831C1.2734 19.7831 0.484741 20.5682 0.484741 21.5368C0.484741 22.5053 1.2734 23.2905 2.24625 23.2905Z" fill="#03ADB5"/>
<path d="M17.5723 3.18439C18.4063 3.18439 19.0824 2.51127 19.0824 1.68094C19.0824 0.850606 18.4063 0.17749 17.5723 0.17749C16.7382 0.17749 16.0621 0.850606 16.0621 1.68094C16.0621 2.51127 16.7382 3.18439 17.5723 3.18439Z" fill="#3A3F47"/>
<path d="M17.7651 26.9292C18.182 26.9292 18.5199 26.5928 18.5199 26.1778C18.5199 25.7628 18.182 25.4264 17.7651 25.4264C17.3483 25.4264 17.0104 25.7628 17.0104 26.1778C17.0104 26.5928 17.3483 26.9292 17.7651 26.9292Z" fill="#3A3F47"/>
</svg>
