<svg width="220" height="60" viewBox="0 0 220 60" fill="none" xmlns="http://www.w3.org/2000/svg">
<g id="wexcute-logo-text-1 1" clip-path="url(#clip0_77_243)">
<path id="Vector" d="M28 56.5356C43.464 56.5356 56 43.9996 56 28.5356C56 13.0717 43.464 0.535645 28 0.535645C12.536 0.535645 0 13.0717 0 28.5356C0 43.9996 12.536 56.5356 28 56.5356Z" fill="white"/>
<g id="Group">
<path id="Vector_2" opacity="0.8" d="M27.2068 39.119C25.6195 36.6343 24.6939 33.6904 24.6735 30.5332C22.4434 30.8382 20.4316 31.8246 18.8566 33.2775V38.668V38.9649C20.3175 39.3015 21.8396 39.4776 23.4024 39.4776C24.7029 39.4768 25.974 39.3535 27.2068 39.119Z" fill="#03ADB5"/>
<path id="Vector_3" d="M24.6719 30.4309C24.6719 25.6148 26.7815 21.2919 30.1296 18.3245L25.2064 15.4942C24.2409 14.9385 23.3258 14.6659 22.5045 14.64C20.3534 14.5759 18.8558 16.2381 18.8558 19.1446V28.9846V33.2775C20.4308 31.8246 22.4418 30.8382 24.6727 30.5332C24.6727 30.4983 24.6719 30.4642 24.6719 30.4309Z" fill="#03ADB5"/>
<path id="Vector_4" d="M24.6719 30.431C24.6719 30.4643 24.6728 30.4983 24.6728 30.5332C25.1568 30.4667 25.6505 30.431 26.1525 30.431C30.044 30.431 33.4532 32.4923 35.3379 35.5773C38.725 33.0926 41.3031 29.5752 42.6036 25.4924L36.6163 22.0529L30.1296 18.3237C26.7815 21.2919 24.6719 25.6157 24.6719 30.431Z" fill="#232932"/>
<path id="Vector_5" opacity="0.8" d="M27.2068 39.1191C28.0192 40.3887 29.0043 41.5398 30.1295 42.5367L30.4832 42.3348L31.896 41.5219L33.546 40.5728L36.6391 38.7955C36.3816 37.6403 35.9375 36.5573 35.3386 35.5774C32.9692 37.3134 30.2061 38.5472 27.2068 39.1191Z" fill="#E41469"/>
<path id="Vector_6" d="M44.8419 26.7806L42.6044 25.4924C41.3031 29.5744 38.7259 33.0918 35.3387 35.5774C35.9376 36.5573 36.3816 37.6403 36.6391 38.7954L43.6661 34.7564C44.9478 34.0199 46.2181 33.4041 46.9881 32.0916C48.0441 30.2891 47.3295 28.2108 44.8419 26.7806Z" fill="#3A3F47"/>
<path id="Vector_7" d="M27.2068 39.1191C25.9748 39.3535 24.7037 39.4768 23.4024 39.4768C21.8396 39.4768 20.3175 39.3008 18.8566 38.9641V41.7157C18.8566 42.8384 19.0798 43.7746 19.4791 44.499C20.5049 46.3648 22.6911 46.8134 25.2072 45.3654L30.1295 42.5367C29.0043 41.5397 28.0183 40.3886 27.2068 39.1191Z" fill="#E41469"/>
<path id="Vector_8" d="M41.6111 22.0186C43.2492 22.0186 44.5771 20.6966 44.5771 19.0658C44.5771 17.4351 43.2492 16.113 41.6111 16.113C39.9731 16.113 38.6452 17.4351 38.6452 19.0658C38.6452 20.6966 39.9731 22.0186 41.6111 22.0186Z" fill="#E41469"/>
<path id="Vector_9" opacity="0.8" d="M10.3067 42.1658C11.5807 42.1658 12.6135 41.1376 12.6135 39.8693C12.6135 38.6009 11.5807 37.5728 10.3067 37.5728C9.03276 37.5728 8 38.6009 8 39.8693C8 41.1376 9.03276 42.1658 10.3067 42.1658Z" fill="#03ADB5"/>
<path id="Vector_10" d="M30.3764 15.8365C31.4686 15.8365 32.354 14.9551 32.354 13.8677C32.354 12.7804 31.4686 11.8989 30.3764 11.8989C29.2842 11.8989 28.3989 12.7804 28.3989 13.8677C28.3989 14.9551 29.2842 15.8365 30.3764 15.8365Z" fill="#3A3F47"/>
<path id="Vector_11" d="M30.6291 46.9309C31.1749 46.9309 31.6174 46.4903 31.6174 45.9469C31.6174 45.4034 31.1749 44.9629 30.6291 44.9629C30.0832 44.9629 29.6407 45.4034 29.6407 45.9469C29.6407 46.4903 30.0832 46.9309 30.6291 46.9309Z" fill="#3A3F47"/>
</g>
<path id="path239162" d="M92.0945 19.1692H90.6237L84.3016 37.6428L77.8914 19.1692H76.45L70.0097 37.612L63.7471 19.1692H62.159L69.1583 39.6619H70.7447L77.1557 21.2759L83.5373 39.6619H85.1245L92.0945 19.1692Z" fill="white"/>
<path id="path239164" d="M111.751 28.5944H98.4304V29.9119H111.751V28.5944ZM111.751 19.1682H98.4304V20.5148H111.751V19.1682ZM98.4312 38.3152V39.6626H111.752V38.3152H98.4312Z" fill="white"/>
<path id="path239166" d="M132.792 39.6619H134.557L126.647 29.0643L133.997 19.1692H132.32L125.763 27.9805L119.207 19.1692H117.443L124.794 29.0943L116.884 39.6619H118.648L125.705 30.1765L132.792 39.6619Z" fill="#03ADB5"/>
<path id="path239168" d="M143.31 38.4604C144.926 39.3697 146.751 39.8078 148.78 39.8078C150.25 39.8078 151.602 39.5734 152.867 39.0753C154.132 38.608 155.22 37.8755 156.102 36.9386L155.162 35.9724C153.485 37.6135 151.368 38.432 148.84 38.432C147.105 38.432 145.546 38.0515 144.134 37.2614C142.723 36.5005 141.605 35.4167 140.811 34.0401C139.988 32.6643 139.605 31.1125 139.605 29.4146C139.605 27.7167 139.988 26.1941 140.811 24.8175C141.605 23.4425 142.722 22.3587 144.134 21.5694C145.545 20.8069 147.105 20.398 148.84 20.398C151.398 20.398 153.515 21.2173 155.162 22.8284L156.102 21.8623C155.22 20.9253 154.132 20.2228 152.897 19.7539C151.632 19.285 150.25 19.0222 148.78 19.0222C146.751 19.0222 144.927 19.4903 143.311 20.3688C141.694 21.2758 140.428 22.5064 139.488 24.0866C138.546 25.6668 138.105 27.4531 138.105 29.4154C138.105 31.4069 138.546 33.1632 139.488 34.7434C140.428 36.3237 141.693 37.5827 143.31 38.4604Z" fill="white"/>
<path id="path239170" d="M165.108 37.4796C166.549 39.0014 168.578 39.7348 171.195 39.7348C173.783 39.7348 175.813 39.0014 177.283 37.4796C178.723 35.9854 179.459 33.7911 179.459 30.8926V19.0952H177.96V30.835C177.96 33.353 177.371 35.2561 176.224 36.4843C175.048 37.7441 173.402 38.3598 171.225 38.3598C169.02 38.3598 167.343 37.7449 166.198 36.4843C165.022 35.2561 164.463 33.353 164.463 30.835V19.096H162.964V30.8942C162.964 33.7919 163.669 35.9886 165.11 37.4812L165.108 37.4796Z" fill="white"/>
<path id="path239172" d="M192.035 20.5142V39.6619H193.534V20.515H200.946V19.1692H184.625V20.5166L192.035 20.5142Z" fill="white"/>
<path id="path239174" d="M220 28.5944H206.679V29.9119H220V28.5944ZM220 19.1682H206.679V20.5148H220V19.1682ZM206.679 38.3152V39.6626H220V38.3152H206.679Z" fill="white"/>
</g>
<defs>
<clipPath id="clip0_77_243">
<rect width="220" height="58.9286" fill="white" transform="translate(0 0.535645)"/>
</clipPath>
</defs>
</svg>
