<svg width="168" height="46" viewBox="0 0 168 46" fill="none" xmlns="http://www.w3.org/2000/svg">
<g clip-path="url(#clip0_179566_170912)">
<path d="M22.5997 45.4994C35.0812 45.4994 45.1995 35.4259 45.1995 22.9997C45.1995 10.5735 35.0812 0.5 22.5997 0.5C10.1182 0.5 0 10.5735 0 22.9997C0 35.4259 10.1182 45.4994 22.5997 45.4994Z" fill="white"/>
<path opacity="0.8" d="M22.1518 29.9637C20.9397 28.0663 20.2329 25.8183 20.2173 23.4073C18.5143 23.6402 16.978 24.3935 15.7753 25.5029V29.6193V29.846C16.8909 30.1031 18.0532 30.2375 19.2466 30.2375C20.2397 30.2369 21.2104 30.1428 22.1518 29.9637Z" fill="#03ADB5"/>
<path d="M20.2161 23.3292C20.2161 19.6515 21.827 16.3503 24.3837 14.0843L20.6243 11.923C19.8869 11.4986 19.1882 11.2905 18.561 11.2707C16.9183 11.2217 15.7747 12.491 15.7747 14.7106V22.2247V25.503C16.9774 24.3935 18.5131 23.6402 20.2167 23.4073C20.2167 23.3807 20.2161 23.3546 20.2161 23.3292Z" fill="#03ADB5"/>
<path d="M20.2161 23.3292C20.2161 23.3546 20.2167 23.3807 20.2167 23.4073C20.5863 23.3565 20.9634 23.3292 21.3466 23.3292C24.3184 23.3292 26.9218 24.9033 28.361 27.2591C30.9475 25.3617 32.9162 22.6757 33.9093 19.5579L29.3372 16.9314L24.3837 14.0837C21.827 16.3503 20.2161 19.6521 20.2161 23.3292Z" fill="#232932"/>
<path opacity="0.8" d="M22.1517 29.9637C22.7721 30.9332 23.5244 31.8122 24.3836 32.5735L24.6537 32.4193L25.7326 31.7986L26.9926 31.0738L29.3546 29.7166C29.158 28.8344 28.8188 28.0074 28.3615 27.2591C26.5521 28.5848 24.4421 29.527 22.1517 29.9637Z" fill="#E41469"/>
<path d="M35.6185 20.5416L33.9099 19.5579C32.9162 22.6751 30.9481 25.3611 28.3616 27.2591C28.8189 28.0075 29.158 28.8345 29.3546 29.7166L34.7207 26.6322C35.6994 26.0698 36.6695 25.5996 37.2575 24.5973C38.0639 23.2208 37.5182 21.6338 35.6185 20.5416Z" fill="#3A3F47"/>
<path d="M22.1518 29.9637C21.211 30.1428 20.2403 30.2369 19.2466 30.2369C18.0532 30.2369 16.8909 30.1025 15.7753 29.8454V31.9467C15.7753 32.804 15.9458 33.5189 16.2506 34.0721C17.034 35.4968 18.7034 35.8394 20.6249 34.7336L24.3837 32.5736C23.5244 31.8122 22.7715 30.9332 22.1518 29.9637Z" fill="#E41469"/>
<path d="M33.1514 16.9054C34.4022 16.9054 35.4163 15.8958 35.4163 14.6505C35.4163 13.4052 34.4022 12.3956 33.1514 12.3956C31.9005 12.3956 30.8865 13.4052 30.8865 14.6505C30.8865 15.8958 31.9005 16.9054 33.1514 16.9054Z" fill="#E41469"/>
<path opacity="0.8" d="M9.24625 32.2904C10.2191 32.2904 11.0078 31.5053 11.0078 30.5367C11.0078 29.5682 10.2191 28.783 9.24625 28.783C8.2734 28.783 7.48474 29.5682 7.48474 30.5367C7.48474 31.5053 8.2734 32.2904 9.24625 32.2904Z" fill="#03ADB5"/>
<path d="M24.5723 12.1844C25.4063 12.1844 26.0824 11.5113 26.0824 10.6809C26.0824 9.85061 25.4063 9.17749 24.5723 9.17749C23.7382 9.17749 23.0621 9.85061 23.0621 10.6809C23.0621 11.5113 23.7382 12.1844 24.5723 12.1844Z" fill="#3A3F47"/>
<path d="M24.7651 35.9292C25.182 35.9292 25.5199 35.5928 25.5199 35.1778C25.5199 34.7628 25.182 34.4264 24.7651 34.4264C24.3483 34.4264 24.0104 34.7628 24.0104 35.1778C24.0104 35.5928 24.3483 35.9292 24.7651 35.9292Z" fill="#3A3F47"/>
<path d="M70.3266 14.7292H69.2035L64.3757 28.8363L59.4807 14.7292H58.3799L53.4619 28.8128L48.6795 14.7292H47.4668L52.8117 30.3782H54.0231L58.9188 16.3379L63.792 30.3782H65.0041L70.3266 14.7292Z" fill="#232932"/>
<path d="M85.3371 21.9268H75.165V22.9328H85.3371V21.9268ZM85.3371 14.7285H75.165V15.7569H85.3371V14.7285ZM75.1657 29.3498V30.3788H85.3377V29.3498H75.1657Z" fill="#232932"/>
<path d="M101.405 30.3782H102.753L96.7121 22.2855L102.325 14.7292H101.045L96.0376 21.4578L91.0312 14.7292H89.6834L95.2971 22.3084L89.2566 30.3782H90.6037L95.9928 23.1347L101.405 30.3782Z" fill="#03ADB5"/>
<path d="M109.437 29.4608C110.671 30.1552 112.064 30.4897 113.613 30.4897C114.737 30.4897 115.769 30.3107 116.735 29.9303C117.701 29.5735 118.531 29.0141 119.205 28.2986L118.487 27.5608C117.207 28.814 115.59 29.4391 113.659 29.4391C112.335 29.4391 111.144 29.1485 110.066 28.5452C108.988 27.9641 108.135 27.1365 107.529 26.0853C106.9 25.0347 106.608 23.8496 106.608 22.5531C106.608 21.2565 106.9 20.0938 107.529 19.0425C108.135 17.9925 108.988 17.1649 110.066 16.5622C111.144 15.9799 112.335 15.6677 113.659 15.6677C115.613 15.6677 117.23 16.2933 118.487 17.5236L119.205 16.7858C118.531 16.0703 117.701 15.5339 116.757 15.1758C115.792 14.8178 114.737 14.6171 113.614 14.6171C112.065 14.6171 110.672 14.9745 109.438 15.6454C108.203 16.3379 107.236 17.2777 106.518 18.4844C105.799 19.6911 105.462 21.0552 105.462 22.5537C105.462 24.0745 105.799 25.4156 106.518 26.6224C107.236 27.8291 108.202 28.7905 109.437 29.4608Z" fill="#232932"/>
<path d="M126.082 28.7118C127.183 29.8739 128.732 30.4339 130.731 30.4339C132.707 30.4339 134.257 29.8739 135.379 28.7118C136.479 27.5707 137.041 25.8951 137.041 23.6817V14.6728H135.896V23.6377C135.896 25.5606 135.447 27.0138 134.571 27.9517C133.673 28.9137 132.416 29.3839 130.754 29.3839C129.07 29.3839 127.79 28.9144 126.915 27.9517C126.017 27.0138 125.59 25.5606 125.59 23.6377V14.6734H124.445V23.683C124.445 25.8957 124.983 27.5732 126.084 28.713L126.082 28.7118Z" fill="#232932"/>
<path d="M146.645 15.7563V30.3782H147.79V15.7569H153.449V14.7292H140.986V15.7581L146.645 15.7563Z" fill="#232932"/>
<path d="M168 21.9268H157.827V22.9328H168V21.9268ZM168 14.7285H157.827V15.7569H168V14.7285ZM157.827 29.3498V30.3788H168V29.3498H157.827Z" fill="#232932"/>
</g>
<defs>
<clipPath id="clip0_179566_170912">
<rect width="168" height="45" fill="white" transform="translate(0 0.5)"/>
</clipPath>
</defs>
</svg>
