<svg width="56" height="56" viewBox="0 0 56 56" fill="none" xmlns="http://www.w3.org/2000/svg">
<g clip-path="url(#clip0_366_1933)">
<path d="M28 56C43.464 56 56 43.464 56 28C56 12.536 43.464 0 28 0C12.536 0 0 12.536 0 28C0 43.464 12.536 56 28 56Z" fill="white"/>
<path opacity="0.8" d="M27.2068 38.5835C25.6195 36.0988 24.6939 33.1549 24.6735 29.9977C22.4434 30.3027 20.4316 31.2891 18.8566 32.742V38.1325V38.4294C20.3175 38.766 21.8396 38.9421 23.4024 38.9421C24.7029 38.9412 25.974 38.8179 27.2068 38.5835Z" fill="#03ADB5"/>
<path d="M24.672 29.8954C24.672 25.0793 26.7815 20.7564 30.1296 17.789L25.2065 14.9587C24.2409 14.403 23.3259 14.1304 22.5046 14.1044C20.3535 14.0404 18.8558 15.7025 18.8558 18.6091V28.449V32.7419C20.4309 31.2891 22.4418 30.3026 24.6728 29.9976C24.6728 29.9628 24.672 29.9287 24.672 29.8954Z" fill="#03ADB5"/>
<path d="M24.6719 29.8955C24.6719 29.9287 24.6727 29.9628 24.6727 29.9977C25.1567 29.9312 25.6505 29.8955 26.1524 29.8955C30.0439 29.8955 33.4531 31.9568 35.3378 35.0418C38.725 32.5571 41.3031 29.0397 42.6035 24.9569L36.6162 21.5173L30.1295 17.7882C26.7814 20.7564 24.6719 25.0802 24.6719 29.8955Z" fill="#232932"/>
<path opacity="0.8" d="M27.2068 38.5835C28.0192 39.853 29.0043 41.0041 30.1295 42.0011L30.4832 41.7991L31.896 40.9863L33.546 40.0372L36.6391 38.2598C36.3816 37.1047 35.9375 36.0217 35.3386 35.0417C32.9692 36.7777 30.2061 38.0116 27.2068 38.5835Z" fill="#E41469"/>
<path d="M44.8418 26.245L42.6043 24.9568C41.3031 29.0388 38.7258 32.5562 35.3386 35.0417C35.9375 36.0217 36.3816 37.1046 36.6391 38.2598L43.666 34.2208C44.9477 33.4842 46.218 32.8685 46.988 31.556C48.044 29.7535 47.3294 27.6751 44.8418 26.245Z" fill="#3A3F47"/>
<path d="M27.2068 38.5835C25.9748 38.818 24.7037 38.9413 23.4024 38.9413C21.8396 38.9413 20.3175 38.7652 18.8566 38.4286V41.1802C18.8566 42.3029 19.0798 43.239 19.4791 43.9635C20.5049 45.8292 22.6911 46.2778 25.2072 44.8298L30.1295 42.0011C29.0043 41.0042 28.0183 39.8531 27.2068 38.5835Z" fill="#E41469"/>
<path d="M41.6111 21.4832C43.2491 21.4832 44.577 20.1612 44.577 18.5304C44.577 16.8996 43.2491 15.5776 41.6111 15.5776C39.973 15.5776 38.6451 16.8996 38.6451 18.5304C38.6451 20.1612 39.973 21.4832 41.6111 21.4832Z" fill="#E41469"/>
<path opacity="0.8" d="M10.3067 41.6304C11.5807 41.6304 12.6135 40.6022 12.6135 39.3339C12.6135 38.0655 11.5807 37.0374 10.3067 37.0374C9.03276 37.0374 8 38.0655 8 39.3339C8 40.6022 9.03276 41.6304 10.3067 41.6304Z" fill="#03ADB5"/>
<path d="M30.3765 15.301C31.4687 15.301 32.354 14.4195 32.354 13.3322C32.354 12.2449 31.4687 11.3634 30.3765 11.3634C29.2843 11.3634 28.3989 12.2449 28.3989 13.3322C28.3989 14.4195 29.2843 15.301 30.3765 15.301Z" fill="#3A3F47"/>
<path d="M30.629 46.3954C31.1749 46.3954 31.6174 45.9548 31.6174 45.4114C31.6174 44.8679 31.1749 44.4274 30.629 44.4274C30.0831 44.4274 29.6406 44.8679 29.6406 45.4114C29.6406 45.9548 30.0831 46.3954 30.629 46.3954Z" fill="#3A3F47"/>
</g>
<defs>
<clipPath id="clip0_366_1933">
<rect width="56" height="56" fill="white"/>
</clipPath>
</defs>
</svg>
