<svg width="71" height="66" viewBox="0 0 71 66" fill="none" xmlns="http://www.w3.org/2000/svg">
<path d="M56.6025 60.3141C79.93 24.5874 70.843 26.3648 56.7855 12.6978C42.7281 -0.96925 24.4456 -6.31811 13.084 15.8078C5.22436 45.2167 -7.65449 47.3539 6.40294 61.0209C40.6589 57.1913 42.9355 74.3715 56.6025 60.3141Z" fill="#FFDCED"/>
<g clip-path="url(#clip0_77_274)">
<circle cx="35.5" cy="35.5" r="12" stroke="#E41469" stroke-width="2"/>
<path d="M23.5 35.5C23.5 28.5964 28.5964 23.5 35.5 23.5C42.4036 23.5 47.5 28.5964 47.5 35.5C47.5 42.4036 42.4036 47.5 35.5 47.5C28.5964 47.5 23.5 42.4036 23.5 35.5Z" stroke="#E41469" stroke-width="2"/>
<path d="M35.5 23.5C35.5 23.5 38 28 40 30C42 32 44 33 44 35.5C44 38 42 39 40 41C38 43 35.5 47.5 35.5 47.5" stroke="#E41469" stroke-width="2"/>
<path d="M35.5 23.5C35.5 23.5 33 28 31 30C29 32 27 33 27 35.5C27 38 29 39 31 41C33 43 35.5 47.5 35.5 47.5" stroke="#E41469" stroke-width="2"/>
<circle cx="35.5" cy="35.5" r="2" fill="#E41469"/>
<path d="M20 30L25 32" stroke="#E41469" stroke-width="1.5" stroke-linecap="round"/>
<path d="M51 30L46 32" stroke="#E41469" stroke-width="1.5" stroke-linecap="round"/>
<path d="M20 41L25 39" stroke="#E41469" stroke-width="1.5" stroke-linecap="round"/>
<path d="M51 41L46 39" stroke="#E41469" stroke-width="1.5" stroke-linecap="round"/>
</g>
<defs>
<clipPath id="clip0_77_274">
<rect width="35" height="28" fill="white" transform="translate(18 23)"/>
</clipPath>
</defs>
</svg> 