<svg width="71" height="66" viewBox="0 0 71 66" fill="none" xmlns="http://www.w3.org/2000/svg">
<path d="M56.6025 60.3141C79.93 24.5874 70.843 26.3648 56.7855 12.6978C42.7281 -0.96925 24.4456 -6.31811 13.084 15.8078C5.22436 45.2167 -7.65449 47.3539 6.40294 61.0209C40.6589 57.1913 42.9355 74.3715 56.6025 60.3141Z" fill="#FFDCED"/>
<g clip-path="url(#clip0_77_274)">
<path d="M25 35C25 32.2386 27.2386 30 30 30H41C43.7614 30 46 32.2386 46 35V40C46 42.7614 43.7614 45 41 45H30C27.2386 45 25 42.7614 25 40V35Z" stroke="#E41469" stroke-width="2"/>
<path d="M30 45V48C30 50.7614 32.2386 53 35 53H36C38.7614 53 41 50.7614 41 48V45" stroke="#E41469" stroke-width="2"/>
<path d="M35 53V58" stroke="#E41469" stroke-width="2"/>
<path d="M32 58H38" stroke="#E41469" stroke-width="2"/>
<circle cx="35.5" cy="37.5" r="2.5" fill="#E41469"/>
<path d="M20 35L25 35" stroke="#E41469" stroke-width="2" stroke-linecap="round"/>
<path d="M46 35L51 35" stroke="#E41469" stroke-width="2" stroke-linecap="round"/>
<path d="M20 40L25 40" stroke="#E41469" stroke-width="2" stroke-linecap="round"/>
<path d="M46 40L51 40" stroke="#E41469" stroke-width="2" stroke-linecap="round"/>
</g>
<defs>
<clipPath id="clip0_77_274">
<rect width="35" height="32" fill="white" transform="translate(18 28)"/>
</clipPath>
</defs>
</svg> 