<svg width="64" height="64" viewBox="0 0 64 64" fill="none" xmlns="http://www.w3.org/2000/svg">
  <!-- Background circle -->
  <circle cx="32" cy="32" r="30" fill="url(#accessibilityGradient)" stroke="url(#accessibilityGradient)" stroke-width="2"/>
  
  <!-- Accessibility symbol - person with wheelchair -->
  <g transform="translate(16, 12)">
    <!-- Person body -->
    <circle cx="16" cy="8" r="6" fill="white"/>
    <!-- Person head -->
    <circle cx="16" cy="6" r="3" fill="white"/>
    <!-- Wheelchair -->
    <circle cx="8" cy="28" r="6" fill="white" stroke="white" stroke-width="1"/>
    <circle cx="24" cy="28" r="6" fill="white" stroke="white" stroke-width="1"/>
    <!-- Wheelchair spokes -->
    <line x1="8" y1="22" x2="8" y2="34" stroke="white" stroke-width="1.5"/>
    <line x1="2" y1="28" x2="14" y2="28" stroke="white" stroke-width="1.5"/>
    <line x1="24" y1="22" x2="24" y2="34" stroke="white" stroke-width="1.5"/>
    <line x1="18" y1="28" x2="30" y2="28" stroke="white" stroke-width="1.5"/>
    <!-- Wheelchair frame -->
    <path d="M 12 20 L 20 20 L 20 16 L 16 12 L 12 16 Z" fill="white"/>
    <line x1="20" y1="20" x2="20" y2="28" stroke="white" stroke-width="2"/>
    <line x1="12" y1="20" x2="12" y2="28" stroke="white" stroke-width="2"/>
  </g>
  
  <!-- Universal access symbol -->
  <g transform="translate(40, 8)">
    <circle cx="8" cy="8" r="6" fill="none" stroke="white" stroke-width="2"/>
    <path d="M 8 2 L 8 14 M 4 8 L 12 8" stroke="white" stroke-width="2" stroke-linecap="round"/>
  </g>
  
  <!-- Gradients -->
  <defs>
    <linearGradient id="accessibilityGradient" x1="0%" y1="0%" x2="100%" y2="100%">
      <stop offset="0%" style="stop-color:#667eea;stop-opacity:1" />
      <stop offset="100%" style="stop-color:#764ba2;stop-opacity:1" />
    </linearGradient>
  </defs>
</svg> 