<svg width="64" height="64" viewBox="0 0 64 64" fill="none" xmlns="http://www.w3.org/2000/svg">
  <!-- Background circle -->
  <circle cx="32" cy="32" r="30" fill="url(#excellenceGradient)" stroke="url(#excellenceGradient)" stroke-width="2"/>
  
  <!-- Star for excellence -->
  <g transform="translate(32, 32)">
    <!-- Main star -->
    <path d="M 0 -16 L 4 -4 L 16 0 L 4 4 L 0 16 L -4 4 L -16 0 L -4 -4 Z" fill="white"/>
    <!-- Inner star -->
    <path d="M 0 -8 L 2 -2 L 8 0 L 2 2 L 0 8 L -2 2 L -8 0 L -2 -2 Z" fill="url(#excellenceGradient)"/>
  </g>
  
  <!-- Quality checkmarks -->
  <g transform="translate(12, 12)">
    <circle cx="6" cy="6" r="4" fill="white" opacity="0.8"/>
    <path d="M 4 6 L 6 8 L 10 4" stroke="url(#excellenceGradient)" stroke-width="1.5" stroke-linecap="round" stroke-linejoin="round"/>
  </g>
  
  <g transform="translate(46, 12)">
    <circle cx="6" cy="6" r="4" fill="white" opacity="0.8"/>
    <path d="M 4 6 L 6 8 L 10 4" stroke="url(#excellenceGradient)" stroke-width="1.5" stroke-linecap="round" stroke-linejoin="round"/>
  </g>
  
  <g transform="translate(12, 46)">
    <circle cx="6" cy="6" r="4" fill="white" opacity="0.8"/>
    <path d="M 4 6 L 6 8 L 10 4" stroke="url(#excellenceGradient)" stroke-width="1.5" stroke-linecap="round" stroke-linejoin="round"/>
  </g>
  
  <g transform="translate(46, 46)">
    <circle cx="6" cy="6" r="4" fill="white" opacity="0.8"/>
    <path d="M 4 6 L 6 8 L 10 4" stroke="url(#excellenceGradient)" stroke-width="1.5" stroke-linecap="round" stroke-linejoin="round"/>
  </g>
  
  <!-- Gradients -->
  <defs>
    <linearGradient id="excellenceGradient" x1="0%" y1="0%" x2="100%" y2="100%">
      <stop offset="0%" style="stop-color:#f093fb;stop-opacity:1" />
      <stop offset="100%" style="stop-color:#f5576c;stop-opacity:1" />
    </linearGradient>
  </defs>
</svg> 